<?xml version="1.0" encoding="UTF-8"?>
<svg width="693px" height="211px" viewBox="0 0 693 211" version="1.1" xmlns="http://www.w3.org/2000/svg" xmlns:xlink="http://www.w3.org/1999/xlink">
    <!-- Generator: Sketch 50.2 (55047) - http://www.bohemiancoding.com/sketch -->
    <title>Group 12</title>
    <desc>Created with Sketch.</desc>
    <defs></defs>
    <g id="Regional-landing-pages" stroke="none" stroke-width="1" fill="none" fill-rule="evenodd">
        <g id="NA-V2" transform="translate(-210.000000, -541.000000)" fill="#FFFFFF">
            <g id="Group-12" transform="translate(210.000000, 541.000000)">
                <rect id="Rectangle-4" fill-opacity="0.6" opacity="0.15" x="468.5" y="147.310059" width="224" height="63"></rect>
                <path d="M569.617256,182.367697 C569.617256,182.090913 569.663387,181.814129 569.717206,181.537344 C569.771025,181.26056 569.924795,180.968398 569.924795,180.937645 C569.955593,180.440475 570.027599,179.94672 570.140071,179.461461 C570.224644,179.1693 570.140071,179.092415 570.101629,178.900204 C570.117637,178.65512 570.161487,178.412655 570.232333,178.177489 C570.281807,177.659748 570.366577,177.145989 570.486052,176.639798 C570.495221,176.55959 570.524293,176.482945 570.570625,176.416833 C570.656433,176.141615 570.713125,175.858153 570.739771,175.571103 C570.79359,175.348137 570.785902,175.102107 570.847409,174.802257 C570.955048,174.294819 571.062686,173.764316 571.178013,173.310697 C571.39329,172.418836 571.946858,171.55004 572.069874,170.673557 C572.209904,170.072838 572.389697,169.482088 572.608066,168.905212 C572.746458,168.451593 572.7849,167.944155 572.969423,167.436717 C573.292338,166.552544 573.607565,165.568422 573.999676,164.653496 C574.286345,163.946365 574.617615,163.258146 574.991487,162.59299 C575.299025,162.085552 575.760332,161.601179 576.052494,161.170625 C576.052494,161.170625 576.052494,161.216756 576.052494,161.239822 C576.093411,161.177267 576.126951,161.110188 576.152444,161.039922 C576.329278,161.086052 576.375409,160.809268 576.521489,160.670876 C576.690635,160.048111 577.090435,159.579115 576.621439,158.879466 C576.377724,158.560247 576.007979,158.361887 575.607237,158.335367 C575.206494,158.308847 574.813835,158.456754 574.530179,158.741073 C574.024132,159.323983 573.65386,160.012006 573.446107,160.755449 C572.88485,162.223944 572.331281,163.700127 571.800778,165.176311 C571.008613,167.44736 570.331173,169.756814 569.771025,172.095921 C569.478864,173.279943 569.209768,174.479342 569.00218,175.68643 C568.794592,176.893517 568.625446,177.885328 568.463988,178.984777 C568.452248,179.506731 568.366831,180.02441 568.210269,180.522468 C567.841223,180.307191 567.964238,179.077038 567.887354,178.707993 C567.887354,178.638796 567.787404,178.707993 567.887354,178.546535 C567.846449,178.550595 567.805243,178.550595 567.764339,178.546535 C567.786046,178.209555 567.765382,177.871182 567.702831,177.539347 C567.602881,177.116482 567.602881,176.732059 567.525996,176.386079 C567.387604,175.694118 567.149262,175.071353 567.080066,174.379392 C567.021776,174.114513 567.003634,173.842377 567.026247,173.572104 C566.803282,173.379893 566.764839,172.365017 566.687955,171.911398 C566.580316,171.30401 566.603382,170.373707 565.919109,170.081545 C564.896545,169.689434 564.589006,171.057979 564.381418,171.757629 C563.97393,173.018535 563.612573,174.310196 563.120511,175.540349 C562.943677,176.017033 562.236339,177.470151 562.497746,177.977589 C562.851415,178.661862 563.466492,178.231308 563.866292,178.016032 C563.907616,177.603023 564.076965,177.213251 564.350664,176.901206 C564.296845,176.770502 564.41986,176.516783 564.489056,176.339948 L564.442926,176.339948 C564.512122,176.293818 564.442926,176.339948 564.512122,176.339948 C564.512122,175.963214 564.911922,175.478841 564.804283,175.217434 L564.91961,175.217434 C564.91961,175.217434 564.91961,175.171303 564.858102,175.217434 C564.869432,175.179826 564.869432,175.139714 564.858102,175.102107 C565.050314,175.063665 564.91961,174.840699 565.073379,174.763815 C565.227148,174.68693 565.388606,174.88683 565.350164,175.048288 C565.442425,175.009845 565.350164,175.048288 565.473179,175.048288 C565.403983,175.363514 565.634636,175.640299 565.56544,175.978591 C565.811471,176.201556 565.76534,177.247186 565.826848,177.662363 C565.911421,178.246685 566.042125,178.884827 566.134386,179.499903 C566.280467,180.437895 566.388105,181.314379 566.541874,182.20624 C566.595693,182.529155 566.841724,183.405639 566.649512,183.582473 C566.91092,183.582473 567.249212,186.373383 567.349162,186.819313 C567.487554,187.419013 567.864288,188.087908 568.563938,187.588159 C569.079064,187.242178 569.055999,186.419513 569.140572,185.865945 C569.325095,184.666546 569.471176,183.505589 569.617256,182.367697 Z M572.900227,174.725373 C572.131381,175.355826 572.192889,176.355325 572.131381,177.254874 C572.131381,177.985278 572.031431,178.584977 571.977612,179.26925 C571.977612,179.753623 571.693139,180.983775 571.977612,181.398952 C572.262085,181.814129 573.253896,181.252871 573.515303,180.906891 C573.646007,180.906891 573.592188,180.699303 573.622942,180.41483 C573.653695,180.130357 573.669072,179.991965 573.676761,179.768999 C573.676761,179.276938 573.753645,178.761812 573.815153,178.269751 C573.876661,177.777689 573.961234,177.093417 574.053495,176.501406 C574.054682,176.007116 574.11142,175.514526 574.222641,175.032911 C574.107314,174.871453 574.115003,174.517784 573.892038,174.387081 C573.669072,174.256377 573.092438,174.563915 572.900227,174.725373 Z M574.953044,170.958029 C574.953044,169.666369 573.415353,170.742753 573.215454,171.388583 C572.88485,172.318886 573.699826,172.326574 574.27646,171.903709 C574.583999,171.726875 574.968421,171.342452 574.953044,170.958029 Z M587.877338,173.648989 C587.938705,173.125994 587.956706,172.598818 587.931157,172.072855 L588.046484,172.134363 C588.007115,172.059336 587.978638,171.979082 587.961911,171.896021 C587.961911,171.896021 587.961911,171.94984 588.046484,171.972905 C587.986147,171.795947 587.986147,171.603983 588.046484,171.427025 C588.042924,171.238498 588.060982,171.050183 588.100303,170.865768 L588.054173,170.865768 C588.074808,170.609901 588.074808,170.352789 588.054173,170.096922 C587.961911,169.897022 588.054173,169.674057 588.054173,169.5126 L588.107992,169.5126 C588.107992,169.5126 588.107992,169.458781 588.107992,169.435715 L588.023419,169.435715 C588.083133,169.301442 588.122023,169.158848 588.138746,169.01285 C588.092615,168.889835 588.138746,168.513101 588.138746,168.336266 C588.138746,168.336266 588.092615,168.336266 588.084927,168.336266 C588.161811,167.928778 587.646685,167.913401 587.316081,168.06717 C586.874635,168.319987 586.586797,168.774771 586.547235,169.281946 C586.447286,170.104611 586.447286,170.958029 586.339647,171.726875 C586.232009,172.49572 585.909094,173.664366 586.185878,174.379392 C586.462662,175.094418 587.731258,174.094919 587.877338,173.648989 Z M588.953722,165.237818 C589.030607,164.468973 588.01573,164.676561 587.608242,165.022542 C587.354523,165.245507 587.062362,165.660683 587.200754,166.022041 C587.392966,167.036917 588.899903,165.806764 588.953722,165.237818 Z M560.368044,197.690789 L559.476183,195.084403 L558.29985,195.084403 L558.29985,198.874811 L559.068695,198.874811 L559.068695,196.214606 L559.99131,198.874811 L560.63714,198.874811 L561.567443,196.19154 L561.567443,198.874811 L562.336289,198.874811 L562.336289,195.084403 L561.206086,195.084403 L560.368044,197.690789 Z M576.798274,172.887832 C575.883348,172.957028 575.652694,173.887331 575.606563,174.656176 C575.560432,175.425022 575.498925,176.070852 575.429729,176.770502 C575.360533,177.470151 574.983798,179.784376 575.960232,179.71518 C577.436416,179.607542 577.236516,177.72387 577.274958,176.701306 C577.3134,175.678741 577.428727,174.748438 578.328276,174.018035 C578.781895,173.6413 579.381595,173.249189 579.012549,172.611047 C578.643503,171.972905 578.089934,172.426524 577.736265,172.611047 C577.736265,172.611047 577.782396,172.611047 577.782396,172.611047 C577.449074,172.68338 577.120433,172.77581 576.798274,172.887832 Z M565.26559,197.244859 L567.103131,197.244859 L567.103131,196.599029 L565.257902,196.599029 L565.257902,195.784052 L567.226147,195.784052 L567.226147,195.084403 L564.427549,195.084403 L564.427549,198.874811 L567.303031,198.874811 L567.303031,198.175162 L565.257902,198.175162 L565.26559,197.244859 Z M597.403335,198.436569 C597.403335,198.351996 597.403335,198.267423 597.403335,198.190539 C597.403335,198.113654 597.403335,198.03677 597.403335,197.975262 C597.410811,197.880585 597.410811,197.785466 597.403335,197.690789 C597.390124,197.598421 597.358768,197.509579 597.311073,197.429382 C597.272445,197.349605 597.217429,197.27887 597.149616,197.221794 C597.075566,197.160275 596.988976,197.115668 596.895897,197.09109 C597.085444,197.020575 597.245397,196.887733 597.349515,196.714355 C597.448134,196.53836 597.498526,196.339442 597.495596,196.137721 C597.510046,195.850376 597.400921,195.570568 597.195746,195.368876 C597.093087,195.272767 596.973058,195.197097 596.842077,195.145911 C596.695155,195.088397 596.53854,195.059684 596.38077,195.061338 L594.343329,195.061338 L594.343329,198.851746 L595.173683,198.851746 L595.173683,197.39094 L596.004036,197.39094 C596.167662,197.374577 596.331028,197.424418 596.457655,197.529332 C596.563925,197.652244 596.628523,197.805665 596.642178,197.967574 C596.642178,198.113654 596.642178,198.275112 596.688308,198.444258 C596.694183,198.591272 596.722709,198.736499 596.772881,198.874811 L597.603235,198.874811 L597.518662,198.674912 C597.468016,198.600822 597.426699,198.520771 597.395646,198.436569 L597.403335,198.436569 Z M596.442278,196.668225 C596.321164,196.766023 596.166766,196.812893 596.011724,196.798928 L595.096798,196.798928 L595.096798,195.730233 L596.011724,195.730233 C596.166351,195.72008 596.31939,195.766538 596.442278,195.860937 C596.545325,195.967141 596.596007,196.113553 596.58067,196.260737 C596.595173,196.410134 596.544765,196.558559 596.442278,196.668225 Z M591.883024,195.561087 C591.72281,195.377674 591.523003,195.233077 591.298701,195.138222 C590.805035,194.941385 590.254676,194.941385 589.76101,195.138222 C589.535464,195.230856 589.33518,195.375798 589.176687,195.561087 C589.012886,195.744544 588.887412,195.958895 588.807641,196.19154 C588.725173,196.439446 588.683624,196.699126 588.684626,196.960386 C588.681765,197.221787 588.723363,197.481773 588.807641,197.729232 C588.887386,197.95959 589.01292,198.171429 589.176687,198.351996 C589.337893,198.532422 589.537588,198.674311 589.76101,198.767173 C590.254676,198.964011 590.805035,198.964011 591.298701,198.767173 C591.521017,198.672324 591.720306,198.530724 591.883024,198.351996 C592.041628,198.169023 592.164232,197.957728 592.244381,197.729232 C592.331274,197.482226 592.375473,197.222229 592.375085,196.960386 C592.37361,196.698702 592.329462,196.439011 592.244381,196.19154 C592.164267,195.960708 592.04171,195.746885 591.883024,195.561087 Z M591.483224,197.444759 C591.451621,197.590886 591.391531,197.729353 591.306389,197.852247 C591.22646,197.971684 591.11815,198.069427 590.991163,198.13672 C590.844699,198.214437 590.680126,198.251599 590.514479,198.244358 C590.348763,198.252362 590.183991,198.215155 590.037794,198.13672 C589.910036,198.067524 589.79963,197.970261 589.714879,197.852247 C589.635926,197.726005 589.57632,197.588653 589.538045,197.444759 C589.501222,197.293785 589.483146,197.138848 589.484225,196.983451 C589.482265,196.820399 589.500341,196.657724 589.538045,196.499079 C589.573335,196.351764 589.633111,196.211421 589.714879,196.083902 C589.886836,195.828939 590.176246,195.678446 590.483725,195.684102 C590.649372,195.676862 590.813945,195.714023 590.960409,195.791741 C591.089517,195.859474 591.198306,195.960302 591.275636,196.083902 C591.363669,196.208013 591.423978,196.349607 591.45247,196.499079 C591.492764,196.657402 591.513422,196.820082 591.513978,196.983451 C591.523831,197.143007 591.513498,197.303169 591.483224,197.460136 L591.483224,197.444759 Z M598.402834,169.873957 C598.27213,169.95853 597.703184,169.873957 597.418712,169.935465 C597.082364,170.071578 596.758268,170.236197 596.449966,170.427526 C596.195668,170.584675 595.924967,170.71358 595.642678,170.811949 C595.181371,170.934964 595.096798,170.719687 594.873833,170.489034 C595.012225,170.266068 594.658556,170.096922 594.873833,169.881646 C594.827702,169.75863 594.804637,169.766319 594.873833,169.643303 C594.873833,169.681746 594.873833,169.697123 594.820014,169.643303 C594.766194,169.589484 594.912275,169.3127 594.912275,169.3127 C594.912275,169.058981 594.581672,168.005662 594.912275,167.775009 C594.827702,167.636617 594.827702,167.775009 594.912275,167.598174 C594.864372,167.542913 594.839591,167.471325 594.843079,167.398274 C594.87884,167.402405 594.914957,167.402405 594.950717,167.398274 C594.88921,167.198375 594.858456,167.044605 594.950717,166.952344 C594.944943,166.875568 594.944943,166.798466 594.950717,166.72169 L594.843079,166.790886 C594.843079,166.62174 594.843079,166.429529 594.981471,166.368021 C594.977135,166.301459 594.977135,166.234684 594.981471,166.168122 C594.835391,166.068172 594.866144,166.029729 594.93534,165.922091 C594.658556,165.560734 594.704687,165.153245 593.974284,165.153245 C593.49203,165.199878 593.043519,165.421399 592.713377,165.77601 C592.344331,166.114302 592.136743,166.506414 591.590862,166.544856 C591.059847,166.454629 590.514091,166.558322 590.053171,166.837017 C589.222818,167.528978 589.453472,169.21275 589.415029,170.189184 C589.415029,170.80426 589.06136,172.226625 589.415029,172.757128 C589.914779,173.525974 591.429405,172.34964 591.098801,171.688433 L591.160309,171.765317 C591.160309,171.573106 591.244882,171.434714 591.098801,171.30401 L591.183374,171.30401 C591.114178,171.142552 591.129555,171.134864 591.183374,170.981095 L591.083424,170.981095 C591.083424,170.827326 591.083424,170.496722 591.167997,170.381395 C591.140964,170.278058 591.140964,170.169505 591.167997,170.066169 L591.167997,170.189184 C591.200553,170.199252 591.235391,170.199252 591.267947,170.189184 C591.24569,170.015513 591.212305,169.84345 591.167997,169.674057 C591.167997,169.674057 591.267947,169.504911 591.291013,169.443404 C591.314078,169.381896 591.098801,169.205061 591.367897,169.120488 C591.367897,169.120488 591.267947,169.082046 591.267947,169.082046 C591.267947,169.082046 591.35252,169.01285 591.375586,168.943654 C591.275636,168.851393 591.375586,168.882146 591.306389,168.805262 C591.47414,168.496576 591.595879,168.165032 591.667747,167.82114 C592.029104,167.76732 592.175185,167.144555 592.636492,167.052294 C593.474534,166.913902 593.236192,168.182497 593.190061,168.720689 C593.14393,169.258881 592.828704,170.835014 593.190061,171.488533 C593.290011,171.657679 593.559107,171.803759 593.512976,171.942152 C593.466845,172.080544 592.967096,172.272755 592.859457,172.341951 C592.205939,172.726374 591.590862,173.056978 590.945032,173.418335 C590.053171,173.918085 589.092114,174.510096 588.246384,174.956026 C586.970101,175.609545 585.862963,176.609044 584.571302,177.208744 C584.540174,176.439388 584.560723,175.66881 584.63281,174.902207 C584.63281,174.54085 584.702006,174.010346 584.740448,173.564416 C584.724179,172.944769 584.796673,172.325982 584.955725,171.726875 C584.92665,171.453424 584.92665,171.177661 584.955725,170.90421 C584.955725,170.635114 584.901906,170.135365 585.040298,169.927776 C584.90443,169.709115 584.682728,169.557811 584.429586,169.510987 C584.176445,169.464163 583.91529,169.526152 583.710195,169.681746 C583.348838,169.950842 583.348838,170.350641 583.310396,170.773506 C583.2412,171.542352 583.18738,172.388082 583.125873,173.080043 C583.048988,173.933462 583.125873,175.517284 582.357027,176.055475 C581.103809,176.931959 581.257578,175.055976 581.319086,174.34095 C581.340899,173.557951 581.540724,172.7902 581.903408,172.095921 C582.087931,171.773006 583.225823,170.60436 582.303208,170.412149 C581.534362,170.25838 580.765517,171.180995 580.419536,171.726875 C580.026286,172.369407 579.781962,173.091871 579.70451,173.8412 C579.489412,174.932716 579.489412,176.05572 579.70451,177.147236 C579.935164,177.954524 580.627125,178.069851 581.326774,177.977589 C581.490123,177.936939 581.658266,177.918831 581.826524,177.92377 L581.765016,177.92377 C582.09118,177.719951 582.433125,177.542551 582.787581,177.393267 C583.102807,177.439397 582.902908,178.277439 582.787581,178.446585 C582.210229,178.960598 581.58748,179.421227 580.926974,179.822819 C580.519486,180.122668 580.10431,180.399453 579.70451,180.706991 C577.751642,182.198551 575.729578,183.782373 573.822842,185.466145 C573.338469,185.896698 572.869473,186.33494 572.392789,186.780871 C571.916105,187.226801 570.939671,187.872632 570.662886,188.579969 C570.543905,188.861649 570.570941,189.18381 570.735205,189.441719 C570.899468,189.699628 571.179982,189.860349 571.485551,189.87163 C572.03912,189.940826 572.369723,189.494896 572.754146,189.102784 C574.291837,187.68042 575.537367,186.027402 577.175008,184.64348 C578.812649,183.259558 580.519486,181.80644 582.29552,180.51478 C582.493007,180.36913 582.704145,180.242962 582.925973,180.138045 C582.925973,181.767998 582.925973,183.482523 582.872154,185.027903 C582.872154,185.873633 582.872154,186.727052 582.810646,187.572782 C582.714303,188.315451 582.714303,189.067454 582.810646,189.810122 C582.840966,190.234777 583.117041,190.602374 583.516414,190.74986 C583.915787,190.897347 584.364517,190.797416 584.663564,190.494395 C584.817333,190.340626 584.809644,190.140726 585.009544,190.063841 C584.840398,189.979268 584.871152,189.994645 584.963414,189.856253 C584.972638,189.772419 584.998795,189.691333 585.040298,189.617911 C584.909594,189.617911 584.940348,189.617911 584.901906,189.479519 C584.863464,189.341127 584.786579,189.479519 584.901906,189.32575 C584.855868,189.296066 584.814423,189.259802 584.778891,189.218111 C584.778891,189.218111 584.778891,189.218111 584.778891,189.218111 C584.971102,189.218111 584.778891,189.218111 584.878841,189.148915 C584.978791,189.079719 585.017233,189.079719 584.963414,189.148915 L584.963414,189.087408 C584.886529,189.087408 584.840398,189.0259 584.763514,189.002835 C584.840398,189.002835 584.848087,189.002835 584.901906,189.002835 C584.955725,189.002835 584.786579,188.949015 584.794268,188.956704 C584.801956,188.964392 584.794268,188.872131 584.794268,188.826 L584.794268,188.918262 C584.703559,188.840063 584.657487,188.722003 584.671252,188.603035 L584.801956,188.556904 C584.758467,188.553194 584.714741,188.553194 584.671252,188.556904 L584.817333,188.495396 C584.837139,188.419464 584.852541,188.342452 584.863464,188.264743 C584.740448,188.210924 584.740448,187.949516 584.709695,187.795747 C584.548237,187.857255 584.53286,187.688109 584.555925,187.511274 C584.58393,187.506684 584.612494,187.506684 584.640498,187.511274 C584.632799,187.390945 584.632799,187.270246 584.640498,187.149917 C584.548237,187.042278 584.640498,187.111474 584.640498,187.026901 C584.640498,186.942328 584.563614,187.026901 584.53286,187.026901 C584.502106,187.026901 584.594368,186.880821 584.63281,186.811625 C584.43291,186.811625 584.417533,186.48871 584.571302,186.358006 C584.536279,186.313602 584.507798,186.264408 584.486729,186.211925 L584.417533,186.258056 C584.417533,186.096598 584.417533,186.111975 584.517483,186.035091 C584.33296,185.850568 584.455976,185.681422 584.517483,185.535341 C584.500447,185.554866 584.47949,185.570584 584.455976,185.581472 C584.455976,185.512276 584.455976,185.496899 584.455976,185.420014 C584.455976,185.34313 584.455976,185.466145 584.386779,185.420014 C584.348386,185.293546 584.365136,185.156748 584.43291,185.04328 C584.43291,185.04328 584.33296,185.04328 584.33296,185.04328 C584.540549,184.989461 584.463664,184.84338 584.33296,184.704988 C584.386779,184.704988 584.409845,184.704988 584.448287,184.704988 C584.371403,184.605038 584.209945,184.405138 584.448287,184.251369 C584.38285,184.167834 584.38285,184.050431 584.448287,183.966896 L584.394468,184.013027 C584.394468,183.851569 584.494418,183.559408 584.394468,183.467147 C584.498218,183.102344 584.521824,182.719415 584.463664,182.344632 C584.463664,182.344632 584.463664,182.344632 584.394468,182.344632 C584.494418,182.244682 584.540549,182.152421 584.43291,182.067848 C584.532693,181.637882 584.532693,181.190776 584.43291,180.76081 C584.571302,180.76081 584.43291,180.030407 584.43291,179.868949 C584.409978,179.540357 584.502429,179.214061 584.694318,178.946335 C585.390652,178.313481 586.165931,177.773369 587.000854,177.339447 C589.253572,175.901706 591.613928,174.610046 593.920464,173.418335 C594.606901,173.064799 595.315756,172.756601 596.042478,172.49572 C596.640977,172.331694 597.228947,172.131424 597.803134,171.896021 C598.164492,171.719186 598.464342,171.273256 598.725749,171.127175 C598.725749,170.958029 598.879518,170.819637 598.902584,170.70431 C598.925649,170.588983 598.902584,170.627426 598.856453,170.650491 C599.048664,170.381395 598.625799,169.950842 598.425899,169.889334 L598.402834,169.873957 Z M600.286506,198.175162 L600.286506,197.244859 L602.124046,197.244859 L602.124046,196.599029 L600.286506,196.599029 L600.286506,195.784052 L602.285504,195.784052 L602.285504,195.084403 L599.456152,195.084403 L599.456152,198.874811 L602.331635,198.874811 L602.331635,198.175162 L600.286506,198.175162 Z M581.980293,196.898878 C581.865276,196.82452 581.741265,196.765098 581.611247,196.722044 L581.311397,196.645159 L580.742452,196.499079 C580.62384,196.4713 580.508027,196.432696 580.396471,196.383752 C580.330633,196.354028 580.272696,196.309258 580.227325,196.253048 L580.181194,196.076214 C580.180645,196.003498 580.199204,195.931914 580.235013,195.868625 L580.373406,195.737922 L580.557929,195.661037 L580.757828,195.661037 C580.852473,195.652786 580.947657,195.652786 581.042301,195.661037 C581.124721,195.675572 581.203248,195.706982 581.272955,195.753299 L581.434413,195.930133 C581.477345,196.01626 581.50096,196.11072 581.503609,196.206917 L582.310896,196.206917 C582.317567,196.01248 582.275266,195.819483 582.187881,195.64566 C582.104842,195.496269 581.989216,195.367503 581.849589,195.268926 C581.703415,195.166796 581.538975,195.093712 581.365216,195.053649 C581.178856,195.009609 580.987737,194.988947 580.796271,194.992141 C580.624795,194.992469 580.454135,195.015741 580.288833,195.061338 C580.124315,195.10362 579.968279,195.173836 579.827525,195.268926 C579.695025,195.364613 579.584854,195.487899 579.50461,195.630283 C579.418192,195.78229 579.37561,195.95528 579.381595,196.130033 C579.377063,196.283845 579.408662,196.436577 579.473856,196.575963 C579.539523,196.694944 579.628416,196.799525 579.735264,196.883501 C579.846754,196.965186 579.968181,197.032358 580.096621,197.083401 L580.511798,197.214105 L580.919286,197.314055 C581.042815,197.342091 581.163711,197.380674 581.280643,197.429382 C581.373762,197.464991 581.459706,197.517079 581.534362,197.583151 C581.6018,197.649955 581.638068,197.74202 581.634312,197.83687 C581.637248,197.92285 581.610053,198.007155 581.557428,198.075212 L581.372905,198.213604 C581.297629,198.25071 581.217332,198.276612 581.134563,198.290489 L580.896221,198.290489 C580.791473,198.302232 580.685741,198.302232 580.580994,198.290489 C580.483772,198.26848 580.392153,198.226598 580.311898,198.167474 C580.23298,198.11269 580.169445,198.038565 580.127375,197.952197 C580.077683,197.852034 580.053893,197.741012 580.058179,197.629282 L579.289333,197.629282 C579.280895,197.839535 579.325862,198.048498 579.420037,198.23667 C579.503286,198.401182 579.624521,198.543501 579.773706,198.651846 C579.930275,198.76715 580.107879,198.850729 580.296521,198.897877 C580.495299,198.947068 580.699143,198.972871 580.903909,198.974761 C581.132815,198.978566 581.360963,198.947455 581.580493,198.8825 C581.761213,198.829256 581.930609,198.743255 582.080243,198.628781 C582.207359,198.526224 582.307627,198.394293 582.372404,198.244358 C582.443966,198.092951 582.480744,197.927451 582.480042,197.759985 C582.48804,197.578124 582.439709,197.398227 582.34165,197.244859 C582.246681,197.105563 582.123585,196.987705 581.980293,196.898878 Z M575.575809,195.084403 L574.145757,198.874811 L574.983798,198.874811 L575.283648,198.029081 L576.698324,198.029081 L576.982797,198.874811 L577.851592,198.874811 L576.452293,195.084403 L575.575809,195.084403 Z M575.491236,197.39094 L575.983298,196.007018 L576.452293,197.406316 L575.491236,197.39094 Z M583.948537,195.768675 L585.07874,195.768675 L585.07874,198.844058 L585.909094,198.844058 L585.909094,195.768675 L587.062362,195.768675 L587.062362,195.069026 L583.98698,195.069026 L583.948537,195.768675 Z M570.947359,197.444759 L571.785401,197.444759 C571.780909,197.673586 571.687089,197.891579 571.523993,198.052147 C571.346018,198.201064 571.117379,198.275441 570.885852,198.259735 C570.720204,198.266976 570.555631,198.229814 570.409167,198.152097 C570.28218,198.084804 570.17387,197.987061 570.093941,197.867624 C570.009474,197.743407 569.947053,197.605559 569.909418,197.460136 C569.876357,197.30851 569.85833,197.153993 569.855598,196.998828 C569.857463,196.835987 569.875491,196.673734 569.909418,196.514456 C569.943913,196.365571 570.006544,196.224651 570.093941,196.099279 C570.171271,195.975679 570.280059,195.874851 570.409167,195.807118 C570.555631,195.7294 570.720204,195.692238 570.885852,195.699479 C571.069787,195.692777 571.250814,195.746815 571.400978,195.853248 C571.549169,195.973521 571.649956,196.142407 571.685451,196.329933 L572.454296,196.329933 C572.435281,196.130106 572.37507,195.936386 572.277462,195.760987 C572.184741,195.598514 572.062135,195.455039 571.916105,195.338122 C571.765594,195.229582 571.599754,195.14407 571.424043,195.084403 C571.240188,195.02575 571.048064,194.997191 570.855098,194.99983 C570.590716,194.994932 570.328413,195.047393 570.086252,195.153599 C569.874497,195.24791 569.685654,195.386919 569.532683,195.561087 C569.371295,195.744967 569.24842,195.959345 569.171326,196.19154 C569.086245,196.439011 569.042097,196.698702 569.040622,196.960386 C569.040234,197.222229 569.084433,197.482226 569.171326,197.729232 C569.24839,197.959136 569.371325,198.171003 569.532683,198.351996 C569.695401,198.530724 569.89469,198.672324 570.117006,198.767173 C570.360257,198.86988 570.62181,198.92219 570.885852,198.920942 C571.0738,198.920392 571.259621,198.881134 571.431732,198.805615 C571.627492,198.717024 571.797004,198.579295 571.923793,198.405816 L572.008366,198.836369 L572.538869,198.836369 L572.538869,196.821994 L570.947359,196.821994 L570.947359,197.444759 Z" id="Shape" fill-rule="nonzero"></path>
                <rect id="Rectangle-4" fill-opacity="0.6" opacity="0.15" x="0" y="147.310059" width="224" height="63"></rect>
                <path d="M160.047437,182.734676 C159.912381,182.782396 159.781687,182.841664 159.656806,182.911823 C157.526502,184.6197 154.446872,183.62041 153.061493,181.826231 C152.363821,180.933656 151.983438,179.834064 151.980443,178.701179 C151.980443,176.884288 151.980443,175.103735 151.980443,173.309556 C151.980443,172.823538 152.153048,172.655475 152.620897,172.687271 C152.982248,172.714523 153.345138,172.714523 153.706489,172.687271 C154.160712,172.655475 154.351485,172.846249 154.346943,173.31864 C154.346943,174.872082 154.346943,176.425523 154.346943,177.983507 C154.342414,178.242713 154.351511,178.501977 154.374196,178.760228 C154.416405,179.529987 154.770837,180.249206 155.355554,180.751618 C155.940272,181.254029 156.704655,181.496137 157.471995,181.421973 C158.934592,181.353839 160.056522,180.086558 160.070148,178.460441 C160.083775,176.834324 160.070148,175.11282 160.070148,173.436738 C160.070148,172.696355 160.070148,172.696355 160.8287,172.696355 C161.210247,172.696355 161.591794,172.696355 161.968799,172.696355 C162.345804,172.696355 162.495697,172.859875 162.495697,173.223254 C162.495697,176.884288 162.54112,180.549865 162.472986,184.2109 C162.501083,186.122712 161.37287,187.862564 159.615926,188.616859 C157.87308,189.498911 155.781876,189.323179 154.210676,188.162637 C153.679236,187.799259 153.683778,187.708414 154.142543,187.276903 C154.234714,187.198345 154.322654,187.114954 154.405992,187.02708 C154.946517,186.422964 155.391655,186.118635 156.336438,186.595569 C158.007978,187.463134 159.942966,186.095924 160.056522,184.133682 C160.065606,183.697628 160.047437,183.270659 160.047437,182.734676 Z" id="Shape" fill-rule="nonzero"></path>
                <path d="M103.900975,172.296639 C105.737397,172.319734 107.470424,173.150524 108.638517,174.567753 C109.065486,175.053771 109.029149,175.171869 108.452286,175.476198 C108.120703,175.657887 107.784578,175.835034 107.457538,176.03035 C107.336789,176.128944 107.179098,176.170082 107.025572,176.143041 C106.872047,176.116 106.737902,176.023458 106.658106,175.889541 C105.794726,174.848085 104.413643,174.389184 103.098667,174.706825 C101.783692,175.024466 100.764372,176.0632 100.471594,177.383933 C100.12454,178.909436 100.815113,180.482589 102.172949,181.259689 C103.530786,182.036789 105.236984,181.835327 106.376488,180.76335 C107.171378,180.004798 107.171378,180.004798 108.138872,180.563492 C109.224464,181.185777 109.247175,181.231199 108.356899,182.112391 C106.77405,183.79446 104.364265,184.415028 102.165844,183.706713 C99.9938314,183.195897 98.3461954,181.422624 97.9960802,179.218993 C97.4010486,176.012181 99.3269526,173.454907 102.084084,172.610053 C102.682377,172.466777 103.289257,172.36209 103.900975,172.296639 Z" id="Shape" fill-rule="nonzero"></path>
                <path d="M143.89528,177.729142 L143.89528,172.859875 C143.789542,170.476874 145.480244,168.39031 147.83339,167.999693 C148.447731,167.931479 149.067735,167.931479 149.682076,167.999693 C150.013659,167.999693 150.163552,168.213178 150.136299,168.558387 C150.109046,168.903596 150.136299,169.353277 150.136299,169.74845 C150.136299,170.143624 149.990948,170.202673 149.632112,170.202673 C149.13521,170.161978 148.635042,170.192569 148.146804,170.293517 C147.043043,170.579678 146.434384,171.433616 146.329913,172.723609 C146.289033,173.259591 146.329913,173.795574 146.329913,174.331557 C146.308242,174.516533 146.373759,174.701076 146.507219,174.830976 C146.640678,174.960877 146.826925,175.021384 147.011247,174.994722 C147.769799,174.994722 148.528351,174.994722 149.28236,174.994722 C149.654823,174.994722 149.813801,175.094651 149.772921,175.503451 C149.734315,175.897682 149.734315,176.294742 149.772921,176.688972 C149.813801,177.143195 149.677534,177.338511 149.209685,177.324884 C148.501097,177.302173 147.79251,177.324884 147.083923,177.324884 C146.375335,177.324884 146.307202,177.43844 146.307202,178.115232 C146.307202,179.668673 146.307202,181.222115 146.307202,182.775556 C146.307202,183.534108 146.307202,183.534108 145.571361,183.534108 C145.226152,183.534108 144.880943,183.534108 144.535734,183.534108 C144.049715,183.570446 143.858942,183.384214 143.868026,182.880027 C143.908906,181.149439 143.89528,179.441562 143.89528,177.729142 Z" id="Shape" fill-rule="nonzero"></path>
                <path d="M141.029135,178.110689 C141.029135,179.700469 141.029135,181.290248 141.029135,182.875485 C141.029135,183.384214 140.85653,183.552277 140.36597,183.515939 C139.957169,183.484143 139.539284,183.515939 139.125942,183.515939 C138.712599,183.515939 138.589959,183.379672 138.589959,182.993583 C138.589959,179.732264 138.589959,176.469432 138.589959,173.205085 C138.589959,172.850791 138.744395,172.700898 139.085062,172.700898 C139.539284,172.700898 140.02076,172.700898 140.484067,172.700898 C140.947375,172.700898 141.029135,172.855333 141.024592,173.250507 C141.02005,174.862997 141.029135,176.493657 141.029135,178.110689 Z" id="Shape" fill-rule="nonzero"></path>
                <path d="M139.852698,171.097492 C139.352058,171.145914 138.866676,170.908928 138.596959,170.484384 C138.327243,170.059839 138.318948,169.519756 138.5755,169.087129 C138.832051,168.654501 139.309927,168.402722 139.811818,168.435747 C140.17713,168.411995 140.536096,168.539772 140.804237,168.789006 C141.072378,169.03824 141.226016,169.386921 141.228993,169.752993 C141.24684,170.120391 141.106442,170.477834 140.843324,170.734874 C140.580206,170.991913 140.219579,171.12392 139.852698,171.097492 Z" id="Shape" fill-rule="nonzero"></path>
                <path d="M90.8102778,183.225237 C90.533202,180.309127 87.8850839,178.578539 85.359606,178.760228 C84.0393727,178.885 82.8040488,179.466518 81.8666337,180.404514 C80.5720992,181.594577 79.2185156,182.725592 77.9103544,183.911113 C77.560603,184.224526 77.3198649,184.25178 76.9564868,183.911113 C75.7073745,182.793725 74.4128399,181.726302 73.1728121,180.59983 C72.7284548,180.189315 72.345958,179.716549 72.0372555,179.196282 C69.743431,175.294509 72.6958783,170.316229 77.3289494,170.243553 C78.9342436,170.259928 80.482641,170.840376 81.7031136,171.883297 C82.6667507,172.664882 83.8736681,173.08433 85.1143257,173.068818 C85.5254458,173.040122 85.9347977,172.99009 86.3407269,172.918924 C88.2984265,172.464702 89.6928901,171.324603 90.192535,169.348734 C90.7167173,167.547532 90.0796909,165.609384 88.589129,164.470383 C84.2876405,160.882024 79.386578,159.473934 73.8632305,160.650371 C65.4192314,162.449092 59.577928,170.507002 61.2358407,179.218993 C61.7948181,182.416393 63.391092,185.340767 65.7780673,187.540352 C69.2574128,190.71991 72.8730251,193.75866 76.4295885,196.851916 C77.160887,197.487828 77.7104964,197.478743 78.4463371,196.851916 L88.9116271,187.703872 C90.2775678,186.64066 90.9959041,184.946212 90.8102778,183.225237 Z M87.4217768,185.732546 C85.3550637,187.549436 83.2838084,189.366327 81.2125531,191.155964 C80.0815387,192.141627 78.9414398,193.118206 77.8149676,194.122038 C77.5288074,194.376403 77.360745,194.408198 77.0337047,194.122038 C73.9041106,191.396702 70.724552,188.671366 67.6312957,185.900608 C65.3041979,183.787985 63.8468957,180.884715 63.5432918,177.756396 C62.7347755,171.042985 67.2452064,164.965486 73.431719,163.266693 C78.2691903,161.944905 82.6433545,162.885146 86.563296,165.992029 C87.9577595,167.09579 88.2530043,168.417578 87.3899812,169.571303 C86.4112749,170.781338 84.6629682,171.027411 83.3882796,170.13454 C82.8167437,169.715141 82.2239524,169.325506 81.612269,168.967187 C76.5703976,166.278189 69.5481153,168.899054 68.8259013,175.544331 C68.500515,178.017257 69.4005472,180.493617 71.2378236,182.180524 C73.2091499,184.038295 75.3258275,185.750714 77.4288784,187.585774 C78.5826039,186.563773 79.6999917,185.555399 80.8582594,184.551567 C81.8984293,183.643121 82.9295147,182.734676 83.9878535,181.826231 C84.7000623,181.202806 85.6908623,181.006916 86.5867267,181.31241 C87.482591,181.617903 88.147285,182.378324 88.3302221,183.306997 C88.5240342,184.223318 88.1698496,185.168991 87.4217768,185.732546 Z" id="Shape" fill-rule="nonzero"></path>
                <path d="M135.201458,174.531415 C134.354119,173.55715 133.206788,172.892401 131.940139,172.641849 C130.200467,172.255759 128.633398,172.687271 127.10721,173.863708 L127.10721,173.146036 C127.10721,171.592594 127.10721,170.034611 127.10721,168.481169 C127.10721,168.085995 126.966401,167.904306 126.562143,167.917933 C126.157885,167.93156 125.871725,167.917933 125.526515,167.917933 C124.690746,167.917933 124.690746,167.917933 124.690746,168.735534 C124.690746,173.241423 124.690746,177.748825 124.690746,182.257742 C124.690746,183.665832 124.509057,183.502312 125.921689,183.506855 C126.957317,183.506855 126.957317,183.506855 127.18897,182.49848 C128.408386,183.520294 130.008928,183.967188 131.581303,183.724881 C133.177594,183.505074 134.609001,182.627123 135.528498,181.303875 C136.959957,179.231157 136.825972,176.45656 135.201458,174.531415 Z M130.631978,181.612746 C128.722932,181.612746 127.175344,180.065158 127.175344,178.156112 C127.175344,176.247065 128.722932,174.699477 130.631978,174.699477 C132.541025,174.699477 134.088612,176.247065 134.088612,178.156112 C134.088612,180.065158 132.541025,181.612746 130.631978,181.612746 Z" id="Shape" fill-rule="nonzero"></path>
                <path d="M122.029001,174.090819 C122.029001,172.696355 122.029001,172.696355 120.625453,172.696355 C119.717008,172.696355 119.717008,172.696355 119.617079,173.604801 C119.617079,173.650223 119.571656,173.691103 119.521692,173.78649 C118.336009,172.840645 116.822491,172.405877 115.31559,172.578257 C113.801437,172.730589 112.408815,173.475062 111.441071,174.649513 C110.023896,176.402812 109.751363,179.191739 111.027728,181.00863 C113.298842,184.256322 116.246747,184.610616 119.580741,182.552987 C119.606877,182.661728 119.622093,182.772806 119.626163,182.88457 C119.576199,183.402383 119.830563,183.556819 120.307497,183.525023 C120.67018,183.493227 121.034949,183.493227 121.397631,183.525023 C121.910903,183.570446 122.042628,183.347877 122.038085,182.861858 C122.019917,179.932122 122.029001,177.011471 122.029001,174.090819 Z M116.124106,181.612746 C114.218863,181.585164 112.695255,180.020976 112.71775,178.115666 C112.740245,176.210356 114.300358,174.682576 116.205722,174.699984 C118.111085,174.717391 119.643025,176.27342 119.630705,178.178823 C119.576652,180.08962 118.012956,181.611053 116.101395,181.612746 L116.124106,181.612746 Z" id="Shape" fill-rule="nonzero"></path>
                <rect id="Rectangle-4" fill-opacity="0.6" opacity="0.15" x="233.5" y="147.310059" width="224" height="63"></rect>
                <path d="M351.741336,173.02935 C351.442073,172.380315 350.783322,171.97351 350.06899,171.99661 L344.783073,171.99661 C344.446974,171.99661 344.446974,171.99661 344.446974,171.648289 C344.446974,171.363115 344.434752,171.073866 344.446974,170.788691 C344.4708,169.862502 344.91359,168.99715 345.650819,168.436 C346.18867,168.013078 346.854913,167.786685 347.539083,167.794357 L350.144357,167.794357 C350.282128,167.798911 350.419722,167.781023 350.55175,167.741396 C351.444216,167.482424 352.018526,166.616046 351.909479,165.693186 C351.800432,164.770325 351.040013,164.061661 350.111766,164.017829 C349.333646,164.005607 348.555527,164.017829 347.777407,164.017829 C347.197138,164.009967 346.617795,164.066671 346.050063,164.186897 C344.007911,164.651009 342.293297,166.029764 341.401715,167.924722 C341.136712,168.491539 340.950307,169.091872 340.847662,169.709101 C340.774056,170.253783 340.744085,170.803475 340.758035,171.35293 C340.758035,172.257341 340.737666,173.161752 340.735629,174.066164 C340.735629,176.534962 340.735629,179.00376 340.735629,181.472558 C340.735629,182.379007 340.776368,183.283418 340.735629,184.189866 C340.711185,184.784659 340.753961,185.379452 340.735629,185.976282 C340.709148,187.758624 340.719333,189.540966 340.735629,191.323308 C340.727005,191.617235 340.767627,191.910534 340.855809,192.191054 C341.075801,192.824549 341.815219,193.470266 342.524081,193.370455 C342.49881,193.342015 342.47084,193.316093 342.440566,193.29305 C342.47084,193.316093 342.49881,193.342015 342.524081,193.370455 L342.74611,193.370455 C343.136496,193.393045 343.517326,193.244284 343.789035,192.963063 C344.24634,192.555638 344.491786,191.961162 344.455122,191.349788 C344.455122,186.251951 344.455122,181.153434 344.455122,176.054239 C344.455122,175.822025 344.518268,175.762953 344.746407,175.76499 C346.511775,175.773138 348.272389,175.773138 350.02825,175.76499 C350.697686,175.79361 351.326846,175.445213 351.65782,174.862616 C352.011529,174.310443 352.043374,173.611396 351.741336,173.02935 Z M341.727629,182.258826 L341.711334,182.258826 L341.727629,182.258826 Z M343.968288,179.891876 C343.945462,179.889723 343.928392,179.869958 343.929585,179.847063 C343.928392,179.869958 343.945462,179.889723 343.968288,179.891876 Z" id="Shape" fill-rule="nonzero"></path>
                <path d="M372.83408,183.08787 L372.83408,182.273085 C372.851485,181.821193 372.812482,181.368894 372.717973,180.926653 C372.494021,179.61509 372.034399,178.354925 371.361356,177.207159 C370.158578,175.165 368.304003,173.586638 366.095809,172.725842 C363.770233,171.810537 361.189293,171.782263 358.844223,172.646401 C357.500483,173.13734 356.272422,173.900111 355.236763,174.887059 C351.434653,178.503302 350.774425,184.326017 353.670339,188.701738 C354.753908,190.331028 356.265738,191.630003 358.039623,192.455859 C358.571847,192.704773 359.125425,192.905206 359.693636,193.054726 C360.430642,193.277472 361.196974,193.388028 361.966886,193.382677 L362.781671,193.382677 C363.112699,193.393205 363.444006,193.374117 363.771635,193.325642 C365.370555,193.09578 366.894584,192.498996 368.224434,191.582002 C368.437169,191.471092 368.625012,191.317906 368.776451,191.131834 C368.79076,191.133582 368.804344,191.125092 368.809043,191.111464 C368.838094,191.10825 368.866358,191.099977 368.892558,191.08702 C369.522412,190.583152 370.089974,190.006017 370.583237,189.367824 C371.503293,188.188176 372.165965,186.828833 372.528536,185.377415 C372.746318,184.634232 372.849354,183.862154 372.83408,183.08787 Z M368.866078,184.845768 C368.835523,184.937431 368.813117,185.033168 368.788673,185.126869 L368.776451,185.222606 C368.774504,185.260152 368.770423,185.297556 368.764229,185.334639 C368.770423,185.297556 368.774504,185.260152 368.776451,185.222606 C368.699131,185.304915 368.643177,185.404932 368.613494,185.513892 C368.229563,186.415707 367.652433,187.222297 366.922816,187.876768 C366.733999,188.010929 366.564086,188.169879 366.417649,188.349343 C366.042848,188.522485 365.714897,188.779142 365.342133,188.960432 C364.305239,189.489587 363.144907,189.729534 361.983182,189.655036 C360.167996,189.550343 358.472643,188.714792 357.28391,187.33901 C355.449315,185.257431 355.014867,182.289764 356.175803,179.769658 C356.532421,178.985062 357.031816,178.273614 357.648526,177.671587 C358.631576,176.701998 359.89134,176.061441 361.25395,175.838321 C362.480016,175.625355 363.741395,175.766686 364.889927,176.245713 C366.237847,176.783616 367.37548,177.743316 368.132771,178.981354 C369.223616,180.73541 369.49159,182.879203 368.866078,184.847805 L368.866078,184.845768 Z" id="Shape" fill-rule="nonzero"></path>
                <path d="M338.46849,182.271048 C338.487601,181.819218 338.449272,181.36679 338.35442,180.924616 C338.130467,179.613053 337.670845,178.352888 336.997803,177.205122 C335.795025,175.162963 333.94045,173.584601 331.732255,172.723805 C329.406679,171.808501 326.82574,171.780226 324.48067,172.644364 C323.136724,173.13488 321.908581,173.897702 320.87321,174.885022 C317.0711,178.501265 316.410871,184.32398 319.306786,188.699701 C320.390277,190.328283 321.901239,191.627119 323.674033,192.453822 C324.206971,192.702708 324.761222,192.903138 325.330083,193.052689 C326.066388,193.275445 326.832051,193.386003 327.601296,193.38064 L328.416081,193.38064 C328.746432,193.391166 329.077062,193.372078 329.404008,193.323605 C331.00356,193.093759 332.528255,192.496988 333.858844,191.579965 C334.071578,191.469055 334.259422,191.315869 334.410861,191.129797 C334.424998,191.130816 334.438174,191.122581 334.443452,191.109427 C334.472441,191.105904 334.500654,191.097646 334.526968,191.084983 C335.155694,190.580535 335.722516,190.003457 336.215609,189.365787 C337.134584,188.186501 337.796532,186.827911 338.158871,185.377415 C338.377478,184.631619 338.480522,183.85673 338.464416,183.079722 C338.46849,182.814917 338.46849,182.544001 338.46849,182.271048 Z M334.494376,184.845768 C334.465859,184.937431 334.443452,185.033168 334.419009,185.126869 L334.40475,185.222606 C334.407858,185.259886 334.407858,185.297359 334.40475,185.334639 C334.407858,185.297359 334.407858,185.259886 334.40475,185.222606 C334.328756,185.305556 334.273596,185.405403 334.24383,185.513892 C333.859262,186.415349 333.282225,187.22181 332.553151,187.876768 C332.363886,188.01038 332.193904,188.169396 332.047985,188.349343 C331.67522,188.522485 331.34727,188.779142 330.974505,188.960432 C329.936235,189.489829 328.774529,189.729769 327.611481,189.655036 C325.797016,189.549803 324.102495,188.7143 322.914246,187.33901 C321.079651,185.257431 320.645202,182.289764 321.806138,179.769658 C322.162764,178.985577 322.661385,178.274247 323.276825,177.671587 C324.260659,176.701956 325.521077,176.061427 326.884285,175.838321 C328.110355,175.625469 329.371702,175.766796 330.520263,176.245713 C331.867885,176.783085 333.005481,177.742038 333.763107,178.979317 C334.852207,180.73406 335.119375,182.877358 334.494376,184.845768 Z" id="Shape" fill-rule="nonzero"></path>
                <rect id="Rectangle-4" fill-opacity="0.6" opacity="0.15" x="468.5" y="74.2118094" width="224" height="63"></rect>
                <polygon id="Shape" fill-rule="nonzero" points="570.03668 112.720654 570.03668 106.518937 566.451872 106.518937 566.451872 112.720654 563.046305 112.720654 563.046305 98.4387811 566.430363 98.4387811 566.430363 104.325035 570.015171 104.325035 570.015171 98.4387811 573.392059 98.4387811 573.392059 112.720654"></polygon>
                <polygon id="Shape" fill-rule="nonzero" points="576.417637 112.720654 576.417637 98.4387811 579.773017 98.4387811 579.773017 110.433547 583.400842 110.433547 583.400842 112.720654"></polygon>
                <path d="M593.875649,112.899894 C592.531099,112.953919 591.193307,112.68341 589.975379,112.111237 L589.975379,99.0195199 C591.13064,98.458129 592.405534,98.1873985 593.689239,98.2308623 C596.815191,98.2308623 598.492881,99.7221422 598.492881,101.81567 C598.520771,103.456284 597.338336,104.867873 595.71824,105.128032 L595.71824,105.171049 C597.044619,105.421986 599.037772,106.683838 599.037772,108.863401 C599.009093,111.702569 596.786513,112.899894 593.875649,112.899894 Z M593.66773,99.3278134 C593.025671,99.314983 592.386662,99.4194598 591.782122,99.6361068 L591.782122,104.712194 L592.714171,104.712194 C595.653714,104.712194 596.65029,103.801653 596.65029,101.937553 C596.621612,100.195337 595.589187,99.3278134 593.639052,99.3278134 L593.66773,99.3278134 Z M592.73568,105.665753 L591.724765,105.665753 L591.724765,111.344088 C592.363109,111.595173 593.046916,111.709954 593.732257,111.68106 C595.596357,111.68106 597.051788,110.964098 597.051788,108.863401 C597.080467,106.64082 595.797106,105.665753 592.707002,105.665753 L592.73568,105.665753 Z" id="Shape" fill-rule="nonzero"></path>
                <path d="M604.536866,112.899894 C601.633172,112.899894 600.285285,111.638042 600.285285,109.609041 C600.285285,106.64082 603.059926,105.773297 606.52285,105.421986 L606.52285,104.705024 C606.52285,102.984317 605.490425,102.489614 604.056502,102.489614 C603.1156,102.52399 602.194393,102.768992 601.360727,103.206575 L600.93055,102.131133 C601.986527,101.581527 603.160018,101.29615 604.350456,101.299457 C606.422475,101.299457 608.243557,102.195659 608.243557,104.927283 L608.243557,112.096897 C607.093067,112.665994 605.81973,112.941843 604.536866,112.899894 Z M606.52285,106.354036 C603.705191,106.705347 602.027501,107.307595 602.027501,109.566023 C602.027501,111.179187 603.024078,111.845961 604.680259,111.845961 C605.31495,111.864997 605.945483,111.737419 606.52285,111.473141 L606.52285,106.354036 Z" id="Shape" fill-rule="nonzero"></path>
                <path d="M616.639176,112.720654 L616.639176,104.676346 C616.639176,103.636752 616.20183,102.525462 614.294712,102.525462 C613.568594,102.490137 612.844281,102.625179 612.179676,102.91979 L612.179676,112.720654 L610.365763,112.720654 L610.365763,102.102454 C611.649376,101.537366 613.043534,101.267845 614.445274,101.313797 C617.556887,101.313797 618.467428,103.034504 618.467428,104.633328 L618.467428,112.720654 L616.639176,112.720654 Z" id="Shape" fill-rule="nonzero"></path>
                <polygon id="Shape" fill-rule="nonzero" points="624.160102 106.748365 628.390175 101.521716 626.483057 101.521716 622.503921 106.705347 622.460903 106.705347 622.460903 98.3885938 620.675669 98.3885938 620.675669 112.691975 622.460903 112.691975 622.460903 106.934775 622.503921 106.934775 626.769842 112.691975 628.841861 112.691975"></polygon>
                <path d="M556.514786,101.636429 L556.514786,98.3814242 C555.649128,98.2740075 554.791635,98.1087366 553.948064,97.8867208 C549.998662,96.8472921 546.521439,94.4928965 544.089844,91.2118094 L541.221998,92.8393119 C542.473957,94.5786769 543.979576,96.1205467 545.688668,97.4135262 C546.854297,98.2885697 548.105853,99.0428661 549.424037,99.6647853 C548.427461,99.9587395 547.452393,100.295711 546.491665,100.682871 C545.749161,100.244365 545.031133,99.7656798 544.34078,99.2489476 C542.38484,97.7733188 540.669978,96.0028271 539.257523,94.0007895 L536.447034,95.6211225 C538.078685,97.9965958 540.080492,100.095226 542.376306,101.837179 C542.591394,102.00208 542.813652,102.152642 543.03591,102.310373 C542.318949,102.704702 541.601987,103.127709 540.885026,103.579395 C538.372802,101.680892 536.192407,99.3793637 534.432372,96.7682609 L531.664901,98.3814242 C533.474679,101.084038 535.67864,103.500662 538.20359,105.551039 C535.67864,107.601416 533.474679,110.01804 531.664901,112.720654 L534.48256,114.340987 C536.239992,111.725745 538.420709,109.421454 540.935213,107.522683 C541.652175,107.974369 542.369136,108.397376 543.086098,108.798875 C542.86384,108.956606 542.634412,109.114338 542.419323,109.279239 C540.122246,111.014163 538.120101,113.108306 536.490052,115.480956 L539.300541,117.108458 C540.709549,115.103567 542.424895,113.332574 544.383798,111.8603 C545.071251,111.339479 545.789519,110.860634 546.534682,110.426377 C547.488241,110.806367 548.470478,111.143339 549.459885,111.444462 C546.209594,112.994143 543.403189,115.33939 541.300863,118.262766 L544.168709,119.890269 C546.601958,116.609435 550.078189,114.253182 554.02693,113.208188 C554.844786,112.991986 555.67582,112.829132 556.514786,112.720654 L556.514786,109.465649 C554.675888,109.337204 552.853595,109.032288 551.073048,108.555108 L550.693059,108.418885 C551.295307,108.210966 551.897554,108.017387 552.506971,107.852485 C553.819221,107.496079 555.16036,107.256161 556.514786,107.135524 L556.514786,103.930706 C555.160842,103.806482 553.820012,103.566619 552.506971,103.213745 C551.897554,103.048843 551.288137,102.855264 550.693059,102.647345 L551.073048,102.539801 C552.853832,102.065042 554.676122,101.762528 556.514786,101.636429 Z M549.173101,105.551039 C548.193145,105.920297 547.235569,106.346418 546.305255,106.82723 C545.473579,106.440071 544.656243,106.017064 543.867586,105.551039 C544.656243,105.085014 545.473579,104.662007 546.298085,104.274848 C547.230057,104.757322 548.190118,105.183483 549.173101,105.551039 Z" id="Shape" fill-rule="nonzero"></path>
                <rect id="Rectangle-4" fill-opacity="0.6" opacity="0.15" x="233.5" y="74.2118094" width="224" height="63"></rect>
                <path d="M309.311233,113.19379 C309.311233,112.588329 309.311233,111.982869 309.311233,111.382863 C309.311233,110.128304 309.382142,108.868292 309.393052,107.613733 C309.39948,107.152169 309.370302,106.690796 309.305778,106.233719 C309.120322,104.886433 308.356677,104.177335 307.123938,104.166426 C305.754833,104.166426 304.76755,104.902797 304.653003,106.244629 C304.538457,107.58646 304.593003,109.042839 304.582094,110.444671 C304.582094,111.361044 304.582094,112.277417 304.582094,113.215609 L302.018431,113.215609 L302.018431,102.044586 L304.560275,102.044586 L304.560275,103.479146 C304.783914,103.28278 304.89846,103.190052 305.002098,103.08096 C306.110956,101.836605 307.871299,101.403023 309.431234,101.99004 C310.920419,102.43537 311.926332,103.82353 311.885804,105.377347 C311.989442,107.968282 311.885804,110.570127 311.885804,113.210154 L309.311233,113.19379 Z" id="Shape" fill-rule="nonzero"></path>
                <path d="M401.537625,111.906504 C401.94672,111.279225 402.306724,110.722856 402.628545,110.19376 C403.372575,110.610733 404.151974,110.961189 404.95766,111.241043 C405.70675,111.393866 406.477243,111.410495 407.232229,111.290134 C407.510413,111.251952 407.843144,110.81013 407.957691,110.482853 C408.031728,110.265901 408.015694,110.028322 407.913176,109.823286 C407.810658,109.618249 407.630215,109.462874 407.41223,109.391933 C406.681314,109.09193 405.91767,108.846473 405.175844,108.579198 C404.723112,108.41556 404.264926,108.262831 403.828558,108.066465 C401.373987,106.975545 401.799446,103.850059 403.332189,102.748229 C404.513226,101.903056 406.01426,101.640175 407.41223,102.033677 C408.362132,102.328973 409.292987,102.68237 410.199532,103.091869 L409.174067,105.082799 C408.76611,104.852052 408.33908,104.656787 407.89769,104.499156 C407.187858,104.278122 406.456416,104.133662 405.71585,104.068243 C405.139096,104.012403 404.619319,104.417207 404.532201,104.99007 C404.428564,105.600986 404.864932,105.911898 405.339482,106.124627 C405.814032,106.337357 406.32131,106.473722 406.817679,106.670087 C407.314048,106.866453 407.734052,106.964636 408.175875,107.150092 C409.861346,107.853736 410.575899,108.950111 410.417716,110.52649 C410.259532,112.10287 409.272249,113.111971 407.586778,113.471975 C405.355846,113.924707 403.386735,113.226518 401.537625,111.906504 Z" id="Shape" fill-rule="nonzero"></path>
                <path d="M288.212836,103.762785 L286.674639,105.448257 C285.654628,104.542793 284.590981,103.811877 283.123694,104.133698 C282.420182,104.283196 281.796656,104.687225 281.372767,105.268255 C280.252964,106.824745 280.399602,108.957874 281.721861,110.346488 C283.080057,111.622865 284.732801,111.464682 286.729185,109.866484 L288.218291,111.437409 C286.352817,113.908343 282.376413,114.262892 279.976389,112.119234 C278.753444,110.974594 278.053107,109.378724 278.038676,107.703736 C278.024245,106.028748 278.696983,104.421047 279.900024,103.255507 C281.051908,102.182253 282.59385,101.62888 284.165319,101.724777 C285.736788,101.820674 287.200002,102.557432 288.212836,103.762785 Z" id="Shape" fill-rule="nonzero"></path>
                <path d="M377.82102,102.131859 C378.731939,102.131859 379.52831,102.099132 380.319228,102.131859 C380.493775,102.131859 380.717413,102.453681 380.799232,102.67732 C381.65015,104.995525 382.47925,107.319185 383.313804,109.642845 C383.362895,109.784665 383.417441,109.915575 383.515624,110.188305 C383.63017,109.915575 383.722899,109.724664 383.793808,109.528298 C384.606544,107.286457 385.430189,105.050071 386.221106,102.797321 C386.384744,102.317316 386.592019,102.077313 387.142933,102.126405 C387.786576,102.180951 388.435674,102.126405 389.16659,102.126405 C389.095681,102.360953 389.057498,102.5355 388.992043,102.671865 C387.622938,106.0919 386.23747,109.50648 384.884729,112.931969 C384.793069,113.302304 384.431997,113.539851 384.055629,113.477429 C382.359248,113.477429 382.364703,113.477429 381.731969,111.906504 C380.510139,108.888292 379.293763,105.873716 378.082841,102.862776 C377.995568,102.650047 377.935567,102.453681 377.82102,102.131859 Z" id="Shape" fill-rule="nonzero"></path>
                <path d="M365.117255,102.164587 L367.719099,102.164587 L367.719099,104.291881 C368.062739,103.82824 368.26456,103.500964 368.52638,103.200961 C369.169465,102.436771 370.093932,101.964703 371.090043,101.891857 C371.373682,101.891857 371.635503,101.84822 371.635503,102.273679 C371.635503,103.048232 371.635503,103.822786 371.635503,104.602794 C371.546363,104.63987 371.452894,104.665528 371.357318,104.679158 C368.73911,104.831887 367.882737,106.490086 367.757282,108.611925 C367.680917,109.926484 367.757282,111.251952 367.757282,112.571966 L367.757282,113.373792 C366.944546,113.373792 366.21363,113.401065 365.488168,113.373792 C365.357257,113.373792 365.149982,113.05197 365.144528,112.877423 C365.1118,111.579228 365.144528,110.281033 365.144528,108.982838 L365.144528,102.933686 C365.084527,102.688229 365.106346,102.442772 365.117255,102.164587 Z" id="Shape" fill-rule="nonzero"></path>
                <path d="M378.988305,97.7627241 L378.988305,99.8791092 C378.988305,100.359114 378.628301,100.250022 378.355571,100.250022 L370.124578,100.250022 C368.613654,100.250022 367.10273,100.250022 365.59726,100.250022 C365.089982,100.250022 364.937253,100.086384 364.959071,99.6009246 C364.991799,99.0009185 364.959071,98.3954578 364.959071,97.7518149 L378.988305,97.7627241 Z" id="Shape" fill-rule="nonzero"></path>
                <path d="M410.515898,97.7681787 L410.515898,100.217294 C410.286805,100.217294 410.084985,100.250022 409.883165,100.250022 C405.666758,100.250022 401.455806,100.250022 397.244854,100.250022 C396.639394,100.250022 396.48121,100.048202 396.524847,99.4918326 C396.568484,98.9354633 396.524847,98.3681848 396.524847,97.7518149 L410.515898,97.7681787 Z" id="Shape" fill-rule="nonzero"></path>
                <path d="M394.779375,97.7572695 C394.779375,98.5100044 394.779375,99.1972841 394.779375,99.8845638 C394.779375,100.01002 394.550281,100.146385 394.403007,100.239113 C394.255733,100.331841 394.201187,100.239113 394.09755,100.239113 L381.437421,100.239113 C381.251964,100.239113 381.066508,100.239113 380.826505,100.21184 L380.826505,97.7463603 L394.779375,97.7572695 Z" id="Shape" fill-rule="nonzero"></path>
                <polygon id="Shape" fill-rule="nonzero" points="375.999184 113.351974 373.506431 113.351974 373.506431 102.164587 375.999184 102.164587"></polygon>
                <path d="M413.172289,112.17378 C413.160239,112.844006 412.608221,113.378156 411.937961,113.368155 C411.267702,113.358154 410.731867,112.807771 410.739819,112.137484 C410.747772,111.467196 411.296514,110.929682 411.966822,110.935585 C412.293715,110.930806 412.608156,111.060826 412.836212,111.295074 C413.064269,111.529322 413.185821,111.847132 413.172289,112.17378 Z M412.523192,112.855605 C412.894104,112.266508 412.877741,111.731957 412.468646,111.41559 C412.296172,111.279287 412.076368,111.217586 411.858157,111.244223 C411.639946,111.270859 411.441437,111.383621 411.306816,111.55741 C411.150179,111.764061 411.084355,112.025543 411.12448,112.281726 C411.164605,112.537908 411.307226,112.766743 411.519545,112.915605 L412.523192,112.855605 Z" id="Shape" fill-rule="nonzero"></path>
                <path d="M334.222395,97.7681787 L334.222395,103.408236 L334.031484,103.511873 C333.946421,103.367863 333.849735,103.231043 333.74239,103.102778 C332.770196,102.147067 331.43214,101.65858 330.072871,101.76314 C328.713602,101.867699 327.465998,102.555083 326.651409,103.648238 C325.024744,105.951054 324.949341,109.008107 326.460498,111.388317 C327.987786,113.570158 331.495095,114.584713 333.856937,111.999233 C333.980465,111.883253 334.111673,111.775735 334.249668,111.677411 L334.249668,113.231972 L336.791512,113.231972 L336.791512,97.7681787 L334.222395,97.7681787 Z M332.973291,110.537399 C332.352082,111.053177 331.544358,111.287386 330.743594,111.183928 C329.942829,111.08047 329.221154,110.648664 328.75143,109.991939 C327.901833,108.858799 327.715096,107.360752 328.260516,106.053717 C328.736525,104.743996 330.043819,103.927219 331.429639,104.073697 C332.833477,104.222773 333.963912,105.292888 334.189668,106.686451 C334.255123,106.997363 334.276941,107.308276 334.309669,107.553733 C334.348518,108.701227 333.855321,109.802365 332.973291,110.537399 Z" id="Shape" fill-rule="nonzero"></path>
                <path d="M360.246296,97.8827253 L360.246296,103.719148 C360.071749,103.55551 359.984475,103.479146 359.908111,103.391872 C357.895363,101.079121 354.371691,101.564581 352.653492,103.779149 C351.03785,106.040683 350.936797,109.050791 352.397125,111.41559 C353.97896,113.766523 357.66627,114.606532 359.880838,112.091961 C359.968112,111.993778 360.082658,111.922868 360.257205,111.770139 L360.257205,113.362883 L362.809959,113.362883 L362.809959,97.8827253 L360.246296,97.8827253 Z M356.973536,111.311953 C355.895031,111.289155 354.923622,110.654247 354.469874,109.675573 C353.704346,108.207054 353.888933,106.423426 354.938969,105.142799 C355.746977,104.238074 357.030405,103.927532 358.162639,104.362791 C359.471743,104.799159 360.066294,105.846443 360.273569,107.155547 C360.282256,107.315431 360.282256,107.475668 360.273569,107.635552 C360.295388,109.877393 358.893555,111.399226 356.962626,111.311953 L356.973536,111.311953 Z" id="Shape" fill-rule="nonzero"></path>
                <path d="M323.269556,105.459166 C323.127737,103.386418 321.845906,102.186405 319.789521,101.940948 C318.583616,101.853996 317.371673,101.908918 316.178575,102.104586 C315.518789,102.256077 314.87699,102.477324 314.26401,102.764593 C314.531286,103.522783 314.754924,104.166426 314.994927,104.85916 C315.256748,104.760977 315.447659,104.684613 315.63857,104.619157 C316.73745,104.185643 317.937488,104.07586 319.096787,104.302791 C319.641735,104.366227 320.13486,104.655978 320.455508,105.101149 C320.776155,105.54632 320.894744,106.105842 320.782258,106.642814 C320.727859,106.648472 320.67302,106.648472 320.61862,106.642814 L320.193162,106.550086 C318.480417,106.173719 316.784036,106.075536 315.15311,106.882817 C313.981775,107.500044 313.267436,108.733584 313.315106,110.056733 C313.362777,111.379882 314.164033,112.558819 315.376749,113.090153 C317.037656,113.805927 318.959217,113.534425 320.3568,112.386509 L320.858623,112.010142 L320.858623,113.226518 L323.291375,113.226518 C323.313193,110.5974 323.449558,108.017374 323.269556,105.459166 Z M320.809531,109.533753 C320.690432,110.035354 320.417752,110.487278 320.029523,110.826493 C319.166426,111.49234 318.024578,111.675118 316.996765,111.311953 C316.371412,111.120877 315.931584,110.560076 315.895043,109.907204 C315.858501,109.254332 316.233002,108.647952 316.833127,108.388287 C317.357953,108.224508 317.89389,108.098727 318.43678,108.011919 C319.042241,108.093738 319.478609,108.13192 319.909522,108.208285 C320.934987,108.388287 321.082261,108.541016 320.809531,109.533753 Z" id="Shape" fill-rule="nonzero"></path>
                <path d="M299.792954,105.780987 C299.711135,103.997333 298.860217,102.600955 297.005653,102.088223 C294.91015,101.556219 292.693162,101.796312 290.760135,102.764593 L291.485597,104.85916 C291.721643,104.76266 291.964033,104.682471 292.211059,104.619157 C293.163528,104.402817 294.132324,104.265981 295.107452,104.210062 C295.747047,104.161461 296.372108,104.417325 296.794042,104.900456 C297.215977,105.383586 297.385369,106.037402 297.25111,106.664633 C297.20946,106.669939 297.167304,106.669939 297.125654,106.664633 C297.000198,106.664633 296.880197,106.615541 296.760196,106.582814 C295.235294,106.156602 293.618416,106.190761 292.112876,106.680997 C290.671609,107.118157 289.714769,108.482499 289.794671,109.986485 C289.734686,111.546287 290.800863,112.924964 292.325605,113.259245 C293.087781,113.469263 293.88722,113.506533 294.665629,113.368337 C295.584985,113.083579 296.477523,112.718533 297.332929,112.277417 L297.332929,113.226518 L299.820227,113.226518 C299.820227,110.706492 299.907501,108.241012 299.792954,105.780987 Z M296.951107,110.390125 C296.329282,111.404681 294.300171,111.791958 293.236524,111.224679 C292.73222,110.985148 292.408388,110.479291 292.40197,109.92103 C292.308788,109.33619 292.616516,108.760872 293.154705,108.513743 C293.794839,108.289396 294.448971,108.107186 295.112906,107.968282 L295.151089,108.066465 C295.484643,108.083735 295.816462,108.125668 296.143826,108.191921 C296.547466,108.301013 297.234746,108.459196 297.272928,108.628289 C297.336662,109.234272 297.224958,109.845807 296.951107,110.390125 Z" id="Shape" fill-rule="nonzero"></path>
                <path d="M348.453449,108.786473 C348.453449,107.695552 348.453449,106.648269 348.327993,105.590076 C348.274049,103.743097 346.887317,102.208447 345.055233,101.968221 C343.484032,101.650791 341.85536,101.779271 340.353367,102.339134 C340.009727,102.470045 339.676996,102.639137 339.306083,102.802775 L340.026091,104.870069 C340.326094,104.750068 340.51155,104.668249 340.71337,104.602794 C341.792983,104.183182 342.969639,104.079137 344.106132,104.302791 C344.659483,104.376778 345.157904,104.675483 345.484053,105.128582 C345.810201,105.581681 345.93526,106.149139 345.829786,106.69736 L345.246144,106.577359 C343.680729,106.139598 342.017583,106.202538 340.489732,106.757361 C339.053947,107.277694 338.168885,108.721862 338.356983,110.237396 C338.392424,111.676389 339.397994,112.908662 340.800644,113.231972 C341.54089,113.446826 342.319501,113.495256 343.080667,113.373792 C344.019691,113.089952 344.932233,112.724935 345.807967,112.282872 L345.884332,113.155608 L348.355266,113.155608 C348.355266,112.386509 348.355266,111.671956 348.355266,110.973768 C348.355266,110.275579 348.464358,109.522844 348.453449,108.786473 Z M345.922514,109.222841 C345.875791,109.968216 345.468675,110.64403 344.831594,111.033768 C343.971376,111.543201 342.927248,111.637393 341.989747,111.290134 C341.358196,111.112602 340.92434,110.533383 340.931554,109.877393 C340.867947,109.224449 341.260473,108.613101 341.880655,108.399196 C342.41653,108.228403 342.963205,108.093557 343.517035,107.995555 C344.166133,108.104647 344.695229,108.213739 345.235234,108.27374 C345.77524,108.333741 345.987969,108.677381 345.900696,109.222841 L345.922514,109.222841 Z" id="Shape" fill-rule="nonzero"></path>
                <path d="M392.31935,108.699199 L400.446705,108.699199 C400.415758,107.830787 400.328299,106.965311 400.184884,106.108263 C399.683061,104.024606 398.510322,102.475499 396.317572,102.006404 C394.124823,101.537308 392.204803,102.153678 390.862971,104.013697 C389.384902,105.959337 389.200696,108.596051 390.393876,110.72831 C391.539342,112.970151 393.579362,113.782887 396.023024,113.602885 C397.563482,113.506371 398.980069,112.726047 399.884881,111.475591 L398.412139,110.161032 C395.570292,112.746513 392.488442,111.126496 392.31935,108.699199 Z M395.11756,104.068243 C396.606666,104.068243 397.659404,105.208254 397.741223,106.888271 L392.286622,106.888271 C392.45026,105.175527 393.595726,104.04097 395.11756,104.068243 Z" id="Shape" fill-rule="nonzero"></path>
                <rect id="Rectangle-4" fill-opacity="0.6" opacity="0.15" x="0" y="74.2118094" width="224" height="63"></rect>
                <path d="M130.48279,101.20271 C128.431944,101.170118 126.455901,101.972337 125.008135,103.425267 C123.56037,104.878197 122.765192,106.857084 122.805086,108.907801 C122.805086,113.344619 125.991196,116.612892 130.930123,116.612892 C133.202776,116.720874 135.412819,115.850151 137.001078,114.221027 L134.974383,112.057394 C133.877345,113.105128 132.410287,113.676198 130.893606,113.645884 C128.255252,113.645884 126.748924,112.276496 126.328979,110.121992 L137.914003,110.121992 C138.160493,104.936575 135.3852,101.20271 130.48279,101.20271 Z M126.338108,107.647964 C126.594511,105.564994 128.424142,104.038969 130.519307,104.160588 C131.500299,104.103291 132.463747,104.438864 133.196874,105.093197 C133.930002,105.747531 134.372494,106.666792 134.426628,107.647964 L126.338108,107.647964 Z" id="Shape" fill-rule="nonzero"></path>
                <polygon id="Shape" fill-rule="nonzero" points="67.8561001 104.470983 67.8561001 101.56788 55.0203675 101.56788 55.0203675 104.407078 63.7296769 104.407078 54.8103947 113.472429 54.8103947 116.375532 67.9839097 116.375532 67.9839097 113.527204 58.936818 113.527204"></polygon>
                <path d="M77.5787568,101.20271 C75.527911,101.170118 73.5518676,101.972337 72.1041021,103.425267 C70.6563365,104.878197 69.8611594,106.857084 69.9010533,108.907801 C69.9010533,113.344619 73.0871633,116.612892 78.0260903,116.612892 C80.2987426,116.720874 82.5087859,115.850151 84.0970449,114.221027 L82.0703503,112.057394 C80.9733117,113.105128 79.5062544,113.676198 77.9895732,113.645884 C75.3512185,113.645884 73.8448915,112.276496 73.4249457,110.121992 L85.0190996,110.121992 C85.2564603,104.936575 82.4811667,101.20271 77.5787568,101.20271 Z M73.434075,107.647964 C73.6904778,105.564994 75.5201094,104.038969 77.6152738,104.160588 C78.5962658,104.103291 79.5597135,104.438864 80.2928411,105.093197 C81.0259687,105.747531 81.4684612,106.666792 81.522595,107.647964 L73.434075,107.647964 Z" id="Shape" fill-rule="nonzero"></path>
                <path d="M116.642839,103.448506 C115.406599,102.013705 113.597614,101.201167 111.703912,101.230097 C109.683056,101.218439 107.745473,102.034358 106.341713,103.48813 C104.937952,104.941902 104.190332,106.906849 104.272699,108.926059 C104.20867,110.935531 104.958591,112.885752 106.352458,114.334618 C107.746325,115.783483 109.66608,116.608276 111.676524,116.622021 C113.601293,116.639049 115.429124,115.778893 116.642839,114.284932 L116.642839,116.329885 L119.792432,116.329885 L119.792432,94.7118094 L116.642839,94.7118094 L116.642839,103.448506 Z M112.123858,113.718918 C110.170254,113.763398 108.383813,112.621812 107.603479,110.83027 C106.823144,109.038728 107.20395,106.953164 108.567062,105.552996 C109.930175,104.152828 112.004778,103.716235 113.8166,104.448248 C115.628423,105.180261 116.817502,106.935449 116.825424,108.889542 C116.857387,110.157749 116.376486,111.385241 115.491553,112.29423 C114.60662,113.20322 113.392465,113.716863 112.123858,113.718918 Z" id="Shape" fill-rule="nonzero"></path>
                <path d="M147.280619,107.44712 C145.135244,106.972399 143.774985,106.680263 143.774985,105.621269 C143.774985,104.562276 144.633135,103.841064 146.331177,103.841064 C147.6592,103.79006 148.919335,104.428758 149.663355,105.529977 L152.310839,104.078425 C150.957418,102.145327 148.695525,101.055884 146.340306,101.20271 C142.834672,101.20271 140.598004,103.329826 140.598004,105.676045 C140.598004,108.725216 143.208971,109.555978 145.737775,110.085475 C147.609272,110.468904 149.334701,110.733652 149.334701,111.911326 C149.334701,112.952061 148.421776,113.864986 146.595925,113.864986 C145.023691,113.906436 143.557921,113.073372 142.789026,111.701353 L139.931569,113.180292 C141.182277,115.371314 143.355039,116.612892 146.440728,116.612892 C150.667573,116.612892 152.447777,113.874116 152.447777,111.847421 C152.484294,108.779991 149.71813,107.976617 147.280619,107.44712 Z" id="Shape" fill-rule="nonzero"></path>
                <polygon id="Shape" fill-rule="nonzero" points="163.275074 107.857937 169.072151 101.522234 165.237864 101.522234 158.54612 108.862155 158.54612 94.7118094 155.396527 94.7118094 155.396527 116.329885 158.54612 116.329885 158.54612 112.47734 161.047536 109.756822 165.64868 116.329885 169.218219 116.329885"></polygon>
                <path d="M94.7508855,101.220968 C91.0078909,101.220968 87.8674272,103.64935 87.8674272,107.675352 L87.8674272,116.320756 L91.080925,116.320756 L91.080925,108.104427 C91.080925,105.676045 92.477701,104.224493 94.8513073,104.224493 C97.2249136,104.224493 98.4208461,105.676045 98.4208461,108.104427 L98.4208461,116.320756 L101.634344,116.320756 L101.634344,107.675352 C101.634344,103.64935 98.4938801,101.220968 94.7508855,101.220968 Z" id="Shape" fill-rule="nonzero"></path>
                <rect id="Rectangle-4" fill-opacity="0.6" opacity="0.15" x="0" y="1" width="224" height="63"></rect>
                <path d="M96.8218214,34.9605016 C96.152897,35.6612795 95.1972908,36.1072291 94.1779775,36.1072291 C92.1712044,36.1072291 90.5148203,34.450845 90.5148203,32.4440719 C90.5148203,30.4372988 92.1712044,28.7809147 94.1779775,28.7809147 C95.1017302,28.7809147 95.9617758,29.1313036 96.5988466,29.7046674 C96.7899678,29.8639351 97.1403568,30.214324 97.1403568,30.214324 L99.3701046,27.8253085 C98.095963,26.3918991 96.2484576,25.5 94.1779775,25.5 C90.3555526,25.5 87.2339056,28.5897935 87.2339056,32.4440719 C87.2339056,36.2664968 90.323699,39.3881438 94.1779775,39.3881438 C96.3440182,39.3881438 98.2870842,38.4325376 99.5293723,36.8398605 L97.2996245,34.450845 C97.2677709,34.4826985 96.9810891,34.8012339 96.8218214,34.9605016 Z" id="Shape" fill-rule="nonzero"></path>
                <path d="M123.196553,34.9605016 C122.527629,35.6612795 121.572023,36.1072291 120.552709,36.1072291 C118.545936,36.1072291 116.889552,34.450845 116.889552,32.4440719 C116.889552,30.4372988 118.545936,28.7809147 120.552709,28.7809147 C121.476462,28.7809147 122.336508,29.1313036 122.973578,29.7046674 C123.1647,29.8639351 123.515089,30.214324 123.515089,30.214324 L125.744836,27.8253085 C124.470695,26.3918991 122.623189,25.5 120.552709,25.5 C116.730284,25.5 113.608637,28.5897935 113.608637,32.4440719 C113.608637,36.2664968 116.698431,39.3881438 120.552709,39.3881438 C122.71875,39.3881438 124.661816,38.4325376 125.904104,36.8398605 L123.674356,34.450845 C123.674356,34.4826985 123.355821,34.8012339 123.196553,34.9605016 Z" id="Shape" fill-rule="nonzero"></path>
                <path d="M57.8967945,32.15739 C59.0753755,31.6477334 59.9354211,30.7239807 59.9354211,29.1950107 L59.9354211,29.1631572 C59.9354211,28.2394045 59.6168857,27.5386266 59.0753755,26.9971164 C58.279037,26.2326314 57.100456,25.7866819 55.4440719,25.7866819 L48.5,25.7866819 L48.5,39.1014619 L55.4759254,39.1014619 C58.6612795,39.1014619 60.5087849,37.6999061 60.5087849,35.4383047 L60.5087849,35.4064512 C60.5087849,33.6226529 59.4894716,32.6989002 57.8967945,32.15739 Z M52.2268643,28.7490612 L54.6158798,28.7490612 C55.7307538,28.7490612 56.2722639,29.1950107 56.2722639,29.8957886 L56.2722639,29.9276422 C56.2722639,30.7239807 55.6670467,31.0743696 54.5203192,31.0743696 L52.1950107,31.0743696 L52.2268643,28.7490612 Z M56.8456277,34.9286481 C56.8456277,35.7249866 56.2085569,36.1390826 55.0618294,36.1390826 L52.1950107,36.1390826 L52.1950107,33.68636 L54.9981223,33.68636 C56.2404104,33.68636 56.8137741,34.1960166 56.8456277,34.9286481 Z" id="Shape" fill-rule="nonzero"></path>
                <polygon id="Shape" fill-rule="nonzero" points="65.8920333 25.7866819 62.165169 25.7866819 62.165169 39.1014619 71.8804989 39.1014619 71.8804989 35.9161078 65.8920333 35.9161078"></polygon>
                <polygon id="Shape" fill-rule="nonzero" points="135.555727 30.8513948 130.809549 30.8513948 130.809549 25.8503889 127.082685 25.8503889 127.082685 39.1970225 130.809549 39.1970225 130.809549 34.1323095 135.555727 34.1323095 135.555727 39.1970225 139.250738 39.1970225 139.250738 25.8822425 135.555727 25.8822425"></polygon>
                <path d="M149.698699,25.7548283 L146.131102,25.7548283 L140.461172,39.1970225 L144.347304,39.1970225 L145.30291,36.808007 L150.43133,36.808007 L151.386937,39.1970225 L155.336776,39.1970225 L149.698699,25.7548283 Z M146.354077,33.9411883 L147.851194,30.150617 L149.34831,33.9411883 C149.34831,33.9411883 146.354077,33.9411883 146.354077,33.9411883 Z" id="Shape" fill-rule="nonzero"></path>
                <rect id="Rectangle-path" fill-rule="nonzero" x="156.515357" y="25.8822425" width="3.69501073" height="13.3466336"></rect>
                <polygon id="Shape" fill-rule="nonzero" points="171.39096 25.8822425 171.39096 32.921875 165.880298 25.8822425 162.376408 25.8822425 162.376408 39.1970225 166.103273 39.1970225 166.103273 31.9025617 171.805056 39.1970225 175.085971 39.1970225 175.085971 25.8822425"></polygon>
                <polygon id="Shape" fill-rule="nonzero" points="113.927173 25.8185354 109.531384 25.8185354 109.531384 25.8185354 109.531384 25.8185354 104.944474 31.2336373 104.944474 25.8185354 101.249464 25.8185354 101.249464 39.165169 104.944474 39.165169 104.944474 35.7249866 106.314177 34.2278702 110.041041 39.165169 110.041041 39.165169 110.041041 39.165169 114.436829 39.165169 108.735046 31.5521727"></polygon>
                <path d="M79.2705204,25.5 C75.4480955,25.5 72.3264485,28.5897935 72.3264485,32.4440719 C72.3264485,36.2664968 75.416242,39.3881438 79.2705204,39.3881438 C83.0929453,39.3881438 86.2145923,36.2983503 86.2145923,32.4440719 C86.2145923,28.621647 83.1247988,25.5 79.2705204,25.5 Z M79.2705204,36.1072291 C77.2637473,36.1072291 75.6073632,34.450845 75.6073632,32.4440719 C75.6073632,30.4372988 77.2637473,28.7809147 79.2705204,28.7809147 C81.2772935,28.7809147 82.9336776,30.4372988 82.9336776,32.4440719 C82.9336776,34.450845 81.2772935,36.1072291 79.2705204,36.1072291 Z" id="Shape" fill-rule="nonzero"></path>
                <rect id="Rectangle-4" fill-opacity="0.6" opacity="0.15" x="233" y="1" width="224" height="63"></rect>
                <path d="M319.160397,37.2176839 C318.952289,37.8139184 318.852704,38.4790966 318.852704,39.1978976 C318.852704,41.6211378 320.672049,43.7188111 323.703015,43.7188111 C326.483741,43.7188111 328.074551,42.5544301 328.798458,41.7807295 L328.89549,41.7807295 L328.753773,43.2579102 L335.732398,43.2579102 L337.452158,35.2298097 C337.522328,34.8825382 337.578555,34.5505875 337.614304,34.2339576 L319.160397,37.2176839 Z M327.728556,32.5333485 C327.929003,31.5757983 328.659294,30.8174186 329.584926,30.8174186 C330.528432,30.8174186 330.914006,31.6192073 330.746754,32.4324865 L330.626741,33.0185072 L337.591322,32.2894924 C337.064031,28.7325126 333.739417,27.187665 329.877298,27.187665 C324.124337,27.187665 321.37553,30.0475482 320.832918,32.5780342 L320.75754,32.9355195 L327.64807,32.9355195 L327.728556,32.5333485 Z M329.610461,37.8215788 C329.389586,38.9910667 328.595458,39.9128684 327.478316,39.9128684 C326.426288,39.9128684 325.948789,39.0497965 326.149236,38.1088439 C326.319042,37.3172691 327.143812,36.5256943 328.674615,36.5256943 L329.886235,36.5256943 L329.610461,37.8215788 Z M348.22447,32.5107554 C347.740588,33.159336 347.349908,34.0951817 347.040938,35.507249 C346.37959,38.5586422 347.099668,39.3566007 348.001042,39.3566007 C349.205001,39.3566007 350.223835,38.2126474 350.724314,35.5519347 C351.044774,33.8564326 350.996259,32.637152 350.536634,32.1366725 L357.987651,30.9301593 C358.352797,32.1124145 358.412804,33.6304507 358.06303,35.3629781 C356.971423,40.8439952 353.617444,43.7191992 349.872784,43.7191992 C348.177282,43.7191992 346.326018,43.2774494 345.556148,41.4721481 L345.397833,41.4721481 L344.793938,43.2570216 L338.051508,43.2570216 L340.053426,33.8334514 L348.224521,32.5107554 L348.22447,32.5107554 Z M348.627969,28.9601593 C349.21399,28.4839377 350.659252,27.3770097 352.870554,27.3770097 C355.116329,27.3770097 356.842472,28.3537109 357.702991,30.1960374 L340.444107,31.9924016 L342.763932,21.0776064 L350.197074,21.0776064 L348.523277,28.9601593 L348.627969,28.9601593 Z M304.839072,39.5400622 L305.491483,36.4056813 L297.054828,36.4056813 C296.470084,41.7130627 300.637342,43.8401007 305.983026,43.8401007 C311.112941,43.8401007 316.537782,42.1280011 317.745572,37.4474959 L304.839072,39.5400622 Z M304.559468,34.2403412 C301.568081,33.2942817 299.310816,31.5323894 299.310816,28.1950078 C299.310816,23.311502 304.185385,20.5154555 310.708217,20.5001347 C316.233919,20.479707 319.891761,22.7829343 319.247011,27.3766216 L311.383609,27.3766216 C311.66066,26.1215925 310.939305,25.4091752 309.593628,25.4091752 C308.547983,25.4091752 307.738534,25.9505102 307.609584,26.5850468 C307.427011,27.4940811 308.009202,28.0673344 309.418716,28.4490778 C310.607355,28.7733681 311.419357,28.9891361 312.587568,29.3223635 C315.913459,30.2748067 317.504269,32.2601275 317.915377,34.3386497 L308.03346,35.3574831 L304.559468,34.2403412 Z M372.184213,27.6490765 C370.542334,27.6490765 369.227299,28.5951361 368.339969,29.8131399 L368.204635,29.8131399 L368.434447,27.8354796 L361.541363,27.8354796 L361.121317,29.8425048 L364.925983,29.4454406 L364.841719,29.8246305 L360.980877,30.4515067 L358.262711,43.2571442 L365.695854,43.2571442 C365.695854,43.2571442 366.46317,39.5775981 366.930455,37.4224719 C367.679898,33.9842285 369.565633,33.2066977 370.821939,33.2066977 C371.882904,33.2066977 372.545529,33.6854728 372.710228,33.8195298 L373.926955,28.0869961 C373.809495,28.020606 373.174959,27.6490765 372.184213,27.6490765 Z M384.614236,33.6425746 L384.69084,33.2838125 C384.916822,32.0913433 384.344845,31.1886927 383.094923,31.1886927 C381.943309,31.1886927 380.961501,32.0147393 380.615506,33.6425746 L384.614236,33.6425746 Z M390.136108,38.3090357 C388.985772,41.5749201 385.822026,43.7185557 380.632104,43.7185557 C376.311638,43.7185557 372.146933,41.2059441 373.174703,35.4504293 C374.035222,30.6052254 378.485915,27.377643 383.576252,27.377643 C389.276867,27.377643 391.766497,31.2921081 390.842142,35.8551538 L390.61999,36.9007986 L379.912026,36.9007986 C379.877606,37.0208115 379.742221,37.5187376 379.742221,38.0651796 C379.742221,39.4338379 380.468682,39.912613 381.393037,39.912613 C382.348034,39.912613 383.168974,39.3789384 383.620937,38.3090357 L390.136108,38.3090357 Z" id="path4032" fill-rule="nonzero"></path>
                <path d="M391.349332,41.9317722 L391.547226,41.9317722 C391.774484,41.9317722 391.967271,41.8488356 391.967271,41.6368468 C391.967271,41.4861922 391.854919,41.3342609 391.547226,41.3342609 C391.457855,41.3342609 391.396571,41.3414106 391.349332,41.3495817 L391.349332,41.9317722 Z M391.349332,42.8842154 L391.074834,42.8842154 L391.074834,41.1644554 C391.219105,41.142802 391.354439,41.1235999 391.56127,41.1235999 C391.821724,41.1235999 391.992806,41.1772227 392.097498,41.2538267 C392.198309,41.3278773 392.25326,41.4453367 392.25326,41.6087586 C392.25326,41.8347405 392.102605,41.9726277 391.917479,42.0275272 L391.917479,42.0416224 C392.068133,42.0684849 392.171549,42.2050443 392.20602,42.4591142 C392.246876,42.7272283 392.289059,42.829367 392.315819,42.8842665 L392.027278,42.8842665 C391.985197,42.829418 391.944239,42.671052 391.911095,42.4450702 C391.870239,42.225472 391.759164,42.1437611 391.540842,42.1437611 L391.349332,42.1437611 L391.349332,42.8842665 L391.349332,42.8842154 Z M391.636597,40.6844036 C390.957375,40.6844036 390.403273,41.266594 390.403273,41.985395 C390.403273,42.7195168 390.957375,43.2966004 391.642981,43.2966004 C392.328587,43.3027287 392.876306,42.7195168 392.876306,41.9930554 C392.876306,41.266594 392.328587,40.6844036 391.642981,40.6844036 L391.636853,40.6844036 L391.636597,40.6844036 Z M391.642726,40.4443776 C392.486646,40.4443776 393.158208,41.1299836 393.158208,41.985395 C393.158208,42.8561273 392.486646,43.5366263 391.636342,43.5366263 C390.793698,43.5366263 390.108092,42.8561273 390.108092,41.985395 C390.108092,41.1299836 390.793698,40.4443776 391.636342,40.4443776 L391.64247,40.4443776 L391.642726,40.4443776 Z" id="path4036" fill-rule="nonzero"></path>
                <rect id="Rectangle-4" fill-opacity="0.6" opacity="0.15" x="468" y="0.743580982" width="224" height="63"></rect>
                <path d="M556.109284,33.1348154 L556.109284,33.4472053 L545.459628,33.4472053 C545.587424,35.9676237 547.341067,36.9970904 549.762089,36.9970904 C551.849421,36.9970904 553.311974,36.2871134 554.092949,35.3144449 L555.441905,37.2313828 C553.797094,38.5600784 551.725768,39.2463156 549.612994,39.1625204 C545.736519,39.1625204 542.910811,37.0751879 542.910811,33.2555115 L542.910811,32.9431216 C542.910811,29.3932364 545.459628,26.624326 549.556196,26.624326 C554.447937,26.5533283 556.109284,29.8973201 556.109284,33.1348154 Z M553.461069,31.5586664 C553.177078,29.7198259 552.005616,28.5270645 549.563295,28.5270645 C547.369466,28.5270645 545.970812,29.6417284 545.587424,31.5586664 L553.461069,31.5586664 Z" id="_Zusammengesetzter_Pfad_" fill-rule="nonzero"></path>
                <path d="M579.772818,32.4248383 L579.772818,38.8146316 L576.93291,38.8146316 L576.93291,32.4248383 C576.93291,30.1813109 575.98864,28.9814498 573.723814,28.9814498 C572.458695,28.9176685 571.235026,29.4417236 570.408221,30.4014038 L570.408221,38.86433 L567.568313,38.86433 L567.568313,32.0130517 C567.568313,30.1032135 566.751839,28.9601504 564.536711,28.9601504 C563.202046,28.9205452 561.924636,29.5028556 561.079123,30.5362994 L561.079123,38.86433 L558.239215,38.86433 L558.239215,26.7947205 L560.724134,26.7947205 L560.901628,28.5767628 C562.008876,27.2228925 563.69126,26.4725337 565.438382,26.5533283 C567.145487,26.4277706 568.769758,27.3064293 569.598847,28.8039555 C570.727242,27.398731 572.425802,26.5728976 574.227897,26.5533283 C577.912678,26.5533283 579.772818,28.5483638 579.772818,32.4248383 Z" id="_Zusammengesetzter_Pfad_2" fill-rule="nonzero"></path>
                <path d="M592.08382,38.86433 C591.943563,38.3843665 591.848486,37.8923414 591.799829,37.3946776 C590.540856,38.6076372 588.830393,39.2361806 587.085581,39.1270215 C584.465766,39.1270215 581.838851,38.062056 581.838851,35.3073451 C581.838851,32.2757432 584.210174,31.3314737 587.213377,31.3314737 C588.764605,31.3376382 590.298411,31.6588919 591.721731,32.2757432 L591.721731,31.5657661 C591.721731,29.4358351 590.166882,28.7613569 587.951753,28.7613569 C586.426598,28.6807331 584.920806,29.1324708 583.691891,30.0393155 L582.80442,27.8738856 C584.489479,26.9860694 586.37436,26.5460195 588.278343,26.5959269 C591.693332,26.5959269 594.270549,28.0726792 594.192451,31.8213579 L594.192451,35.6694334 C594.133166,36.7514929 594.209489,37.836719 594.419644,38.8998289 L592.08382,38.86433 Z M591.75013,35.6552338 L591.75013,33.951289 C590.512071,33.4891252 589.202243,33.2487898 587.880756,33.2413119 C585.750825,33.2413119 584.494165,33.6246995 584.494165,35.1511501 C584.494165,36.6776008 585.970917,37.039689 587.703261,37.039689 C589.181082,37.1231458 590.633103,36.6264019 591.75013,35.6552338 Z" id="_Zusammengesetzter_Pfad_3" fill-rule="nonzero"></path>
                <path d="M604.898905,27.0219132 L604.387722,29.6417284 C603.888361,29.3438252 603.314752,29.1936529 602.733475,29.2086424 C601.313521,29.2086424 600.262755,30.2594084 599.80127,31.6864622 L599.80127,38.86433 L597.074958,38.86433 L597.074958,26.7947205 L599.623776,26.7947205 L599.772871,29.5423316 C600.284054,27.7105909 601.434217,26.7024235 603.166561,26.7024235 C603.760261,26.6831641 604.351134,26.7921366 604.898905,27.0219132 Z" id="_Zusammengesetzter_Pfad_4" fill-rule="nonzero"></path>
                <path d="M605.651481,37.6431695 L606.567351,35.3499437 C607.938709,36.4625511 609.665765,37.0424385 611.430694,36.9828909 C613.652922,36.9828909 614.980579,36.4717074 614.980579,35.1440504 C614.980579,33.8163933 613.447028,33.8731915 610.905311,33.6175998 C607.923407,33.2626112 606.141365,32.7514278 606.141365,30.5362994 C606.141365,28.3211711 607.873709,26.5604281 611.615288,26.5604281 C613.410706,26.5173358 615.19393,26.8662275 616.840719,27.582795 L616.024245,29.7127261 C614.701501,28.9678427 613.195525,28.6110347 611.679186,28.6832594 C609.69125,28.6832594 608.569486,29.2441413 608.569486,30.365905 C608.569486,31.4876687 610.095937,31.4095712 612.545358,31.693562 C614.760486,31.942054 617.359002,32.2757432 617.359002,35.030454 C617.359002,37.7851649 615.165173,39.1057222 611.55139,39.1057222 C609.488797,39.159624 607.450074,38.6542364 605.651481,37.6431695 Z" id="_Zusammengesetzter_Pfad_5" fill-rule="nonzero"></path>
                <path d="M632.346617,26.7947205 C629.293716,33.6956972 626.361511,39.8937967 623.826893,44.025863 L621.150279,43.1809904 C622.13529,41.7996281 623.004421,40.339202 623.748795,38.8146316 L618.196775,26.8160198 L621.199978,26.8160198 L625.268146,36.6847005 L629.428611,26.7947205 L632.346617,26.7947205 Z" id="_Zusammengesetzter_Pfad_6" fill-rule="nonzero"></path>
                <path d="M632.26852,37.6431695 L633.18439,35.3499437 C634.560407,36.4590857 636.288328,37.0384178 638.054832,36.9828909 C640.269961,36.9828909 641.604717,36.4717074 641.604717,35.1440504 C641.604717,33.8163933 640.078267,33.8447924 637.51525,33.6175998 C634.533346,33.2626112 632.751304,32.7514278 632.751304,30.5362994 C632.751304,28.3211711 634.483648,26.5604281 638.225227,26.5604281 C640.015879,26.5194047 641.794037,26.8682531 643.436458,27.582795 L642.619985,29.7127261 C641.292327,28.9606092 639.777432,28.6034389 638.253626,28.6832594 C636.26569,28.6832594 635.143927,29.2441413 635.143927,30.365905 C635.143927,31.4876687 636.677477,31.4095712 639.119798,31.693562 C641.334926,31.942054 643.933442,32.2757432 643.933442,35.030454 C643.933442,37.7851649 641.746713,39.1057222 638.12583,39.1057222 C636.077955,39.1488001 634.055768,38.6438661 632.26852,37.6431695 Z" id="_Zusammengesetzter_Pfad_7" fill-rule="nonzero"></path>
                <polygon id="Shape" fill-rule="nonzero" points="521.583101 40.8806648 521.583101 44.9062345 535.143662 38.8714298 535.143662 34.84586"></polygon>
                <path d="M535.143662,18.743581 L517.060547,26.7947205 L517.060547,30.8131905 L526.105654,34.8387603 L535.143662,30.8131905 L535.143662,26.7947205 L526.105654,30.8131905 L521.583101,28.8039555 L535.143662,22.7691507 L535.143662,18.743581 Z M526.105654,31.2817753 L526.105654,34.3630756 L517.58593,30.5717983 L521.057718,29.0382479 L526.105654,31.2817753 Z" id="Shape" fill-rule="nonzero"></path>
            </g>
        </g>
    </g>
</svg>