<svg xmlns="http://www.w3.org/2000/svg" viewBox="0 0 663.91904 672.74639"><defs><style>.cls-1{fill:#363636;}.cls-2{fill:none;stroke:#ff5202;}</style></defs><title>map_NA</title><g id="Layer_2" data-name="Layer 2"><g id="Layer_1-2" data-name="Layer 1"><g id="Regional-landing-pages"><g id="NA"><g id="Fill-3"><g id="Group-21"><path id="Fill-3-2" data-name="Fill-3" class="cls-1" d="M177.85651,2.74627c-1.57179-.13937-2.22678-.96837-2.75043-.83222A3.7338,3.7338,0,0,1,172.8785,1.073c.52448-.83625-.655-1.39455-2.22676-.83625-1.5726.5575-3.66885.59617-5.50249,1.13433-1.83443.539-4.06119.12-3.93068-.57683-.00484-1.39455-1.04732-.5575-2.09544-.41812a7.18454,7.18454,0,0,0-3.14439.7009,7.71265,7.71265,0,0,1-3.2749.833c-.52446,0,.13051-.40362-2.09625.8443-2.22758,1.24793-6.81244,3.0606-7.86057,2.78185s-6.15746-1.95286-6.15746-1.95286c-1.04813-1.6733-2.75124-.13937-3.92989.27875-1.17944.41893-2.88255,1.39536-3.40622.97643-1.04813,2.64973-1.31,3.208-1.31,3.208-.13132,2.7891.78549,3.48678,0,4.88133-.7863,1.39455,0,1.6733-1.04813,2.92848a13.26826,13.26826,0,0,1-2.75124,2.7891c-1.17944.83705-2.4894.83705-.78629,1.95285a10.87309,10.87309,0,0,1,2.61992,2.371c2.35809,1.39455,2.35809,2.2308,1.96574,2.2308a7.59175,7.59175,0,0,0-2.35889.69768c-.39234.27875-1.7023.41813-1.7023,1.25518a4.43421,4.43421,0,0,0,.78549,1.95286c2.22757-.14018,2.35809.69687,2.75124.69687-.39315,1.53393-2.61992,1.39455-2.61992,1.39455L123.096,29.10579a5.86472,5.86472,0,0,1,1.31-4.18446c-1.44128.5583-1.41067,1.81348-2.01569,2.2316a22.68792,22.68792,0,0,0-1.78368,1.53393,11.36967,11.36967,0,0,1,2.22758,1.95286,12.21982,12.21982,0,0,0-4.71618.77985q-.52446.05639-1.96574-1.0586a8.16546,8.16546,0,0,1-2.4886-2.371c0-2.2316,2.22678-2.78991,2.61992-3.34741a5.25982,5.25982,0,0,1,1.70311-1.1158,18.81232,18.81232,0,0,0-8.38422-2.23161c-1.57259.41893-.52447,1.53473-1.57259,1.81348-.78549-1.81348-1.70311-2.09223-2.75124-2.09223a11.10832,11.10832,0,0,0-2.4886.41813c-2.09625.41893-1.04813-.41813-2.62072-.13938-2.61992.5583-3.2749.13938-3.2749.13938-1.31,1.53473-1.84973,2.51035-1.44852,3.34741a16.35522,16.35522,0,0,0,1.71036,2.371c-1.17864,1.25518-1.86182,1.25518-1.86182,1.25518-.88942-1.53393-2.19938-.13938-2.19938.41812-.39315,2.64973-.91682,1.88921-1.57179,2.61831s-1.96494,1.8449-1.31,2.682c.655.83625,1.17864,2.7891,2.09625,3.3466a3.15164,3.15164,0,0,0,2.35809.24813,6.63781,6.63781,0,0,1,2.4886,1.14642c.39315,1.67411.52447,2.92928,1.04813,2.92928.91762,1.39455,3.79937.5575,4.8475.27875a10.85245,10.85245,0,0,1,2.35809-.27875,5.48346,5.48346,0,0,0,3.01306.13937c.26183,2.09223-.13132,2.7891-1.44128,3.06785a4.85745,4.85745,0,0,1-2.88175,0,2.69408,2.69408,0,0,0-1.17944,1.95286c0,.41812-1.31,1.952-1.83363,2.64973-.52446.69768-1.04813,1.95285-2.09625,2.23161a12.6488,12.6488,0,0,1-3.2749.83625,4.26077,4.26077,0,0,1-2.62072-.83625q-.52367-.41893-.655-2.64973a7.58794,7.58794,0,0,1-4.8475,2.7891c-1.44048.27875-3.01307.69687-3.01307.69687a13.28558,13.28558,0,0,0-1.31-4.18365H80.51828c-2.61992,1.1158-4.84669,2.64973-4.84669,3.06866a18.50026,18.50026,0,0,1-4.8475,1.16495,22.98226,22.98226,0,0,0-4.0612,1.76353c-.91681.69687-2.35809,1.952-2.35809,1.952a2.90521,2.90521,0,0,0-3.40622.83705c-.39315,1.81348-1.04813,3.06866-1.31,2.92848-1.04813.83705-.7863,1.53473-1.5726,2.23161q-.78549.69768-.38348,3.208c.77663.83624,2.32828,3.03159,2.58608,3.208,1.46625,1.25437,1.8586,1.952,1.20362,2.2308a6.41789,6.41789,0,0,1-2.35809,0c-.52366-1.81268-1.64027-4.4624-1.64027-4.4624s-1.63463,1.25517-2.28961,1.25517-2.75124.27876-2.75124.27876a3.05489,3.05489,0,0,1,0,3.05254c.13132,1.96816.09023,2.94459-.15146,3.36271-1.683,2.371-2.7311,3.34741-.89667,3.90491,1.83443.5583,4.71618,1.39455,5.633,1.1158a60.597,60.597,0,0,0,5.76431-3.62615,38.90591,38.90591,0,0,1-2.75043,3.68174,12.751,12.751,0,0,0-2.09626,3.01227c-.39315.83705,0,2.09223-1.57259,2.51035a7.87645,7.87645,0,0,0-3.668,2.23161c-.52366.69768-.78549,2.371-1.57179,3.208A8.89416,8.89416,0,0,1,48.815,92.14338c1.17864,1.81268,1.70311,2.371,3.14439,1.53392a10.74331,10.74331,0,0,1,4.45354-1.25517c1.96574.41893,1.04813.32628,1.17945,1.69746,1.44128,1.37119,2.48941-.86041,2.35809.81289-.13132,1.6741-1.57179,4.04428-1.57179,4.88133,1.83362.69768,2.35809-.83705,3.14358-1.39455a16.864,16.864,0,0,1,2.48941-1.25517c-.91681,2.92847-2.48941,2.371-.91681,2.92847,1.57179.5583,8.38423.31178,7.72924.78388-.655.4713-6.81243,2.56352-6.81243,3.121,0,.5583-.52366,1.53473,0,2.23161-1.96494-.13938-4.978,2.371-5.633,3.208a8.40515,8.40515,0,0,0-1.04813,2.64973c-2.48941-1.25518-3.2757-.41812-4.8475,0a14.95336,14.95336,0,0,0-3.668,1.1158c-.91761.5575-2.22757,1.53393-2.22757,2.09223-2.4886-.27956-3.40622.22558-5.89482.32145a16.26327,16.26327,0,0,0-5.76431,1.0731c-1.17945.5575-2.35809,1.39455-2.88256,1.67329-.52366.27876-.52366,2.09223-.52366,2.51036a4.99924,4.99924,0,0,1-2.22758-.97643c-.52366-.97643-.39315-2.371-2.75124-2.51035s-3.14358-.27875-5.23984.5583c-2.09626.83625-2.88256,1.81268-3.668,2.09142a7.19715,7.19715,0,0,1-2.35809.13937c-1.5726.96193-2.09626.11037-3.40622.96193s-2.75124-.82175-3.14439-.82175-2.61992-.27956-2.61992-.27956a12.14192,12.14192,0,0,0-4.0612,1.25518c-1.96575,1.25517-2.35809,2.371-1.83443,2.78991a2.88943,2.88943,0,0,0,2.61992,0,36.3704,36.3704,0,0,1,4.19252.97562c1.57179.83706,2.61992.5583,2.61992.13937a2.38415,2.38415,0,0,1,1.31-2.2308c1.17945-.69768,1.5726.5575,2.48941.5575a5.69564,5.69564,0,0,1,3.40622-.13937,10.79076,10.79076,0,0,0,2.75124-.5575,8.22019,8.22019,0,0,0,3.01307-1.81348,2.74335,2.74335,0,0,0,2.09626,2.371c1.96494-.27876,3.79937,0,4.323-.13938,2.75124-.41812,3.14439-1.25517,3.79937-1.1158a5.44207,5.44207,0,0,1-1.04813,2.92847,24.12711,24.12711,0,0,0,2.22677-1.1158,5.87093,5.87093,0,0,1,2.75124-.83625c2.35809-.13937,2.35809-.5583,3.01307-.13937,2.88255-.5583,3.93068-.27956,4.32383-.69768-.26264-1.952.91681-2.7891,1.44047-2.64973a10.055,10.055,0,0,0,3.2757-.69768c1.70311,1.1158,2.35809.14018,2.35809.14018,2.35809.41812,3.79937-.5583,4.58486-.5583,2.88255,0,4.32383-.83706,4.58566-1.39455a9.23938,9.23938,0,0,1,2.35809-2.09223,23.28625,23.28625,0,0,0,3.53673,0l1.96574-2.2308c1.17864,1.115,1.70311.97562,2.22678.83625q.52446-.13938,2.61992-.97643a6.942,6.942,0,0,0,3.01307.14018q.39315,0,2.62072-2.09223c2.22678-.83705,1.83363-.27875,3.2749-.83705,1.44128-.5575,2.75124-.83625,3.53754-1.25517.78549-.41813,2.09545-1.25518,1.70311-1.81268a3.59107,3.59107,0,0,0-2.48941-1.95286c1.57179-2.371,2.09626-2.64973,2.61992-2.7891,2.62073-.41813,1.70311.27875,2.62073-.41813a6.56,6.56,0,0,1,2.29122-.97643,2.35445,2.35445,0,0,0,3.07993-.27875c1.31-.41893,1.17864,0,2.61992-.5583,1.44128-.5575,1.96494-2.23161,1.57179-2.64973a23.33918,23.33918,0,0,0,3.93069-.97643,2.342,2.342,0,0,1,1.70311-1.1158,9.91977,9.91977,0,0,0,2.75124-.97562,5.372,5.372,0,0,1,3.2749-1.25517,6.54628,6.54628,0,0,0,2.35809-.5583,7.44481,7.44481,0,0,1,2.61992-.41813,5.57433,5.57433,0,0,1,2.09626.41813,3.36191,3.36191,0,0,1-.7863,3.208,6.34417,6.34417,0,0,0-4.71618-.83705c-2.22677.5575-3.40621-.41813-3.53673.27875a5.14247,5.14247,0,0,1-1.44128,2.92928,15.24666,15.24666,0,0,1-3.2749,1.81268,37.09391,37.09391,0,0,0-3.53754,1.95285c-.26183,1.6733-1.31,2.78911.13132,2.64973,1.44048-.13937,2.88175-.41892,2.88175-.41892a15.80781,15.80781,0,0,1-2.61992,1.39455c-1.44128.5583-3.92988-.27875-4.323.14018-.39315.41812-1.57259,1.952-1.57259,1.952a15.99807,15.99807,0,0,0,3.01307.97643,7.12734,7.12734,0,0,0,3.01387.13937c1.96494-.83705,2.61992-1.67329,3.01307-1.67329a15.239,15.239,0,0,0,2.09545-.5583c1.83443.13937,2.88256.5583,3.14439.13937a4.18408,4.18408,0,0,1,1.96494-1.25518c1.96574,1.39536,2.09626.97643,3.01388.83705a4.03462,4.03462,0,0,1,2.35809.41813c1.44048-.13937,1.44048,1.39455,2.09545,1.25517a2.11332,2.11332,0,0,0,1.31077-1.53393l.91681-2.09222,1.70311-2.37018c.7863-1.6741.655-2.78991,1.96494-2.371a26.77309,26.77309,0,0,0,3.40623.97562c2.4894.5583,1.96494-.27875,2.4894.5583a11.2601,11.2601,0,0,0,2.35809,2.09223c-.26263,1.39455,0,2.37017-.26263,2.7891.52446,2.09142,1.31076,2.64973,1.70311,2.7891q1.3607-.68478,4.58566-2.2316l-3.668,3.9049c1.44127,1.25518,1.31,2.23161,1.70311,2.65054,3.01306.41812,6.68111.97562,7.46741,1.39455a34.64328,34.64328,0,0,1,3.01308,1.81268,3.90649,3.90649,0,0,0,3.2749.5583s-1.57179,1.115-1.44128,1.81268c.13132.69769.91762,2.64973,2.88255,2.64973a62.20409,62.20409,0,0,0,6.41928-.69688L157.42,122.96529s-2.09627.41813-1.96576.83625c.13133.41893,2.22758,4.60258,3.66887,5.16007,1.44046.55832,1.83362,0,1.83362,1.25519s-.39316,2.09222,0,3.48677a8.83026,8.83026,0,0,0,1.83443,3.34741c1.31,1.39455.52365,2.78911,1.83362,2.51036,1.31076-.27875,3.14438,0,3.66885-.55751.52367-.5583,1.31-2.51035.91681-3.06865-.39314-.5575-1.70311-2.23161-1.70311-2.23161,1.44128-.13937,1.31,1.25519,1.96494,1.25519.39316,2.09222.655,3.3474,1.04814,3.62614s.26183,1.39456.655,2.09224c.39316.69687,2.09627,0,2.09627,0s1.57179.13937.52365,2.78909a47.74815,47.74815,0,0,0-1.83362,6.41527,10.0182,10.0182,0,0,0-2.09625,1.81348c1.31.97562,3.2749-.41893,3.79936-.5583,1.57179-.97643,1.57179-3.3466,2.35809-3.48679.7863-.13937,1.70311-3.34659,1.83362-1.81267a11.39836,11.39836,0,0,1-.655,3.90491c-.13051.41812-1.17863,1.25517-1.04813,1.95285.39316,1.67329,2.62073,3.3466,2.62073,3.76553,0,.41812.78549,2.92848,0,2.371-.7863-.5583-3.79936-3.48677-3.79936-3.48677l-2.09627-1.25519a5.56851,5.56851,0,0,1-.26183,2.23161,2.29764,2.29764,0,0,0-3.2749.27875,3.0349,3.0349,0,0,0-.52446,2.31136c-1.04814,1.45418-3.01308,5.21971-3.01308,5.21971s1.96494,0,2.35809-.83707,2.48941-4.88133,2.88174-4.4624c1.44128,1.67331,2.09627,1.39456,2.48941,1.39456a4.2783,4.2783,0,0,1,2.75124.97562,3.15517,3.15517,0,0,0-1.17863,2.92929c.39233.83624,1.17863,2.64972,1.17863,2.64972l1.96494.41812c-1.31,1.6741-2.09625,2.64973-2.09625,2.64973,1.5726.41893,2.75124,0,2.75124-.5575-.78549,2.371-2.4886,3.62614-2.4886,4.88133a9.3438,9.3438,0,0,0,.655,3.06784s3.01308.97643,2.4886,0c-.52367-.97562-1.31-4.18365-.78549-3.90491a5.20327,5.20327,0,0,1,1.31,2.371c.13051.5583.655,1.95285.13051,2.92848,1.17944,0,2.09625.58891,2.62073.43423,1.70311.02577,1.04813,1.79736.39314,2.07611a19.28432,19.28432,0,0,0-2.62073,2.09222,4.63719,4.63719,0,0,1,1.31,3.62616c-1.57179.83705-1.57179-.97643-2.35809-.97643-.78549,0-1.83362.5583-1.31,1.81348.52448,1.25519.52448,1.53394,0,2.2308-.52365,2.92928.39316,6.83418.91762,6.13651a15.02648,15.02648,0,0,0,1.17865-3.20723s.39314,2.67471.52446,3.28941c1.57179,1.59192,2.61992.05719,2.09546,1.59192-1.96494,1.67331-2.22678,2.371-1.96494,3.486.26183,1.11581,1.04813,3.62616,1.17944,2.78992.13051-.83705,1.70311-2.371,1.70311-2.371s-2.22758.69688-1.5726,1.53394,2.48941-.69768,2.75124-.27875c.26184.41812.13132,2.51035,0,3.76552a65.37923,65.37923,0,0,0-.13051,6.97276c.39235,1.25517.26183,1.25517-.26263,2.09222-.52367.83705,1.04813,1.67331,1.31,2.09224a30.89528,30.89528,0,0,0,3.14439,2.92847,19.46019,19.46019,0,0,0,3.40622,0l-1.31,1.81349c-1.96494.27875-3.01306,1.4872-2.48941.883.52448-.60422-2.35808-.46484-2.35808-.46484-1.70311-.41812-1.83362-3.90491-2.75124-3.48679-.91681.41812-2.4886-.97643-3.66806-.13937-1.17863.83705,0,2.371.39316,3.208.39314.83624,1.31,1.53392.91681,2.09142a12.46524,12.46524,0,0,0-.91681,1.95285s1.70311-.83705,2.09625,0c1.83443,1.67331,2.88176,1.97623,2.35809,1.82477,0,2.21951.52367,2.49826.52367,3.19594,0,.69688,1.57259,1.25519,1.57259,1.25519l1.57179,1.952s.13132,1.95287.52448,1.95287a38.1649,38.1649,0,0,1,3.53673,4.18364,4.57242,4.57242,0,0,1,2.35809-.83624c.9176.13937-.78551,1.39456-.655,1.95206.13132.5583,3.668,2.92847,4.06119,3.06865.39316.13937,3.27571,1.25517,4.0612,1.53394a4.09178,4.09178,0,0,0,2.62073-.5583c.52367-.27875,2.61992,1.1158,1.96494-.41814s-1.31-3.62614-1.57259-4.4632c-.26184-.83626,2.35808-.83626-1.57179-2.92848s-4.45435-2.51036-4.978-3.48679c-.52448-.97562-1.44128-4.74115-1.04813-5.02071.39314-.27875,2.22676-1.67329,3.2749.83705s1.57178,4.46321,2.22757,4.88133c.655.41812,1.70311.27875,2.22678.69688a10.26081,10.26081,0,0,0,2.61992.83705c.52446,1.81348.91762,4.60258,1.44127,4.88133,1.44128,1.67329,2.61992,3.06784,2.48941,3.62614-.13132.55751-1.83443,1.19154-1.83443,1.19154a19.65827,19.65827,0,0,0-1.57179,2.15587,2.7788,2.7788,0,0,1-2.48941.5575c-2.75124,0-3.53754-.83705-4.1925-.83705-2.61992-1.115-5.76431-3.20723-6.02614-2.78909s-1.44128,2.09222-1.17865,3.06865c.26184.97562,1.70311,2.2308,1.70311,3.20723s-.655,7.11293-.655,7.53105a15.88561,15.88561,0,0,1,.13052,3.34741c-1.31,1.25519-.7863,2.78909-1.04813,4.60257-.26184,1.81268-1.965,6.97278-1.965,8.08856a6.34511,6.34511,0,0,1-.7863,3.48679c-.78549,1.53394-1.96494,3.34741-2.22676,4.04428-.26184.69769-1.31,1.81348-1.31,2.51035a38.5118,38.5118,0,0,1-1.31,4.18365c-.13132.55832-1.17946,4.18448-2.09627,4.742a6.468,6.468,0,0,0-2.22757,2.78909c-.39235.97644-.13051,1.25519-.91681,1.95285s-.655,1.81268-.52367,2.78912c.13051.97641-.7863,2.371-.655,3.06863a23.54717,23.54717,0,0,1,.52367,3.62616c0,1.115-.13132,3.76553.13132,4.04428a4.27755,4.27755,0,0,1-.52446,3.62616c-.91681.97644-.655,2.2316-1.44128,3.48679-.78549,1.25519-2.4886,2.78909-3.14359,4.18365a2.84387,2.84387,0,0,0,.13052,2.78909c.26263.69769,1.96494,3.90491,2.22757,5.29947.26183,1.39453-.39314,2.78989-.52448,3.76553-.13051.97641-.26183,3.62613-.26183,4.04507,0,.41812,1.57179,2.371,1.83443,3.76553.26184,1.39456,2.09546,1.67331,2.35809,2.78909a10.5,10.5,0,0,1-.13132,3.20724s1.83443.97641,1.83443,1.95285.39314,2.2316.39314,3.48679a21.01789,21.01789,0,0,0,.13052,3.06784,5.92162,5.92162,0,0,0,1.96494,2.78909c.655.41895,1.70311.27957,1.96574.69769-.39316,2.78909-1.83443,1.67328-1.83443,2.92847a14.99276,14.99276,0,0,0,.655,4.04507c.26183.55753,1.17944.6969,1.57178,1.39456.39316.69687.91762,3.62616,1.31078,4.323.39233.69769,1.96494,1.11581,2.09544,1.81348a10.8491,10.8491,0,0,0,1.04814,2.51035c.26183,1.53394,1.44127.83627,1.44127,1.39456,0,.5575-.26183,1.39456-.26183,2.78909s.26183,2.371-.13132,2.51038c.7863,1.39453,1.04813,2.09222,1.44127,2.2316s1.83363-.13937,2.75124,0a27.98235,27.98235,0,0,1,3.01308.83624s1.70311-1.25519,2.09625,0a9.25359,9.25359,0,0,0,3.14359,3.9057c.7863.27875,3.53754-.837,3.66885,0,.13051.83627.26183,3.34662.26183,3.34662,1.70311.55829,4.978,2.09222,4.978,2.09222s2.35809,2.09222,2.61992,3.34741c.26263,1.25516.7863,4.04428,1.04813,4.60178.26265.55829-.52365,1.53394,0,3.06866a10.76465,10.76465,0,0,0,1.96574,3.34659c.39235.41895-.39314,1.25519,0,2.09222.39235.83707,1.83363,1.67331,1.70311,2.371-.13132.69769.14743,1.53394.00806,2.51038s1.04008,2.78909,1.30191,3.34741c.26183.5575.655,2.0914,1.04813,2.78909.39235.69687,1.31.97641,1.17865,2.09222-.13052,1.115-.62921,4.04428.01288,4.323,1.42839,2.371,1.55971,5.57822,2.21469,6.27588s2.09546,1.39456,2.75043,2.371c.65579.97644,1.44128,1.95206,2.62073,1.95206,1.17865,0,2.09627,2.09222,2.61992,2.78992a18.26323,18.26323,0,0,1,2.35809,3.06784c.39314.97644,1.31.27875,1.70311,1.81348a3.69091,3.69091,0,0,1,0,2.64975,21.121,21.121,0,0,0-.52367,2.92847c0,.69769-1.70311,1.81348-1.70311,1.81348-.655.5575-.91762,1.53394-2.88255,1.115-1.96494-.41812-1.70311-1.115-2.75124-1.115-.78549,1.67331-.26183,2.09143.655,2.78909.91762.6969,2.09625,1.81268,3.14438,2.78912a8.40982,8.40982,0,0,1,1.70311,2.64972c1.83443.83707,2.19939,1.81348,2.60623,1.67331,1.32365.0137,1.58629,1.6741,2.24127,1.81348s1.57179-.27875,2.35808,0a33.01387,33.01387,0,0,1,5.10933,4.4624c.52367.69766,3.2749,1.25519,3.2749,1.25519a15.57655,15.57655,0,0,0,.7863,2.371c.655,1.6741,1.44128,2.64972,1.44128,4.04507v3.62537s-.7863-.13937-1.31078,1.53473a14.33492,14.33492,0,0,0-.52367,4.323c0,.97641,1.83444,1.6741,1.83444,2.2316s3.2749,2.64972,3.2749,2.2316c0-.41891-3.40622-3.76553-3.40622-3.76553,1.30994,0,2.09625.69687,3.40622,2.64972,1.30994,1.95206,1.96494.83707,3.2749,2.09225s3.2757,3.06784,3.668,3.62534c.39316.55832,1.70313,1.25519,1.96576,2.09222.26181.83707,2.35806,1.11581,2.48859,1.67331a29.20815,29.20815,0,0,1,1.44128,4.04507c.26184,1.53394,1.04813,3.20724,1.44128,3.20724a18.67816,18.67816,0,0,0,2.88174-1.67331,7.82215,7.82215,0,0,0,2.22757-2.09222c.655-1.11581.78549-3.20724,0-3.76553-.78629-.5575-1.70309-.41812-1.70309-1.11581a10.46735,10.46735,0,0,0-.52448-2.23077,6.06764,6.06764,0,0,0-1.70312-2.51038c-1.83362-2.2316-2.75122-2.92926-2.88174-2.51035-.13132.41812-.26181,1.95206-1.44128,1.39456-1.17862-.55832-2.48938-2.09222-2.48938-2.78992a19.19457,19.19457,0,0,1,.655-2.92847c.13132-1.95288-.13052-2.78912-.91681-3.48679-.78632-.69687-1.96494-1.67331-1.83362-2.78909.13049-1.11581-.78632-1.67331-1.44128-2.78912s-1.31-1.6741-1.31-3.06866a29.76726,29.76726,0,0,0-.13132-5.02069c-.26181-.69687-1.44128-1.53394-1.17944-1.95206q.26262-.41895-1.83362-3.208c-1.31.41895-1.31-.69687-1.57178-1.25516A8.94863,8.94863,0,0,1,256.33,463.119a10.15687,10.15687,0,0,0-.78629-2.371,4.11884,4.11884,0,0,0-1.96494-1.25516c-.78551-.27878-1.17865-1.53394-1.31-2.09225a21.35085,21.35085,0,0,1,0-2.92847v-3.208l-2.22678-.27875-.39314-3.20721-1.83443-1.95285c-1.04813-.55832-.91681-1.67331-1.44128-2.78912a13.47182,13.47182,0,0,0-3.4062-3.90491c-1.04733-.69766-1.44048-2.2316-2.09546-2.2316s-1.70311-1.95285-2.09625-2.64972a4.82842,4.82842,0,0,1-.52448-2.64972c.13132-.69769.13132-2.65054.26263-3.76553.13051-1.11581.39235-2.92929.39235-2.92929a7.941,7.941,0,0,1-.78549-4.742c0-.83624.39314-3.34659.39314-3.7655,0-.41815,1.44048-.27875,2.09546.55829a12.47014,12.47014,0,0,0,2.75124,2.64972,4.76149,4.76149,0,0,0,2.35809.13937l2.75124.69769,3.93068,2.371c.91681,1.25519,0,2.92847-.13132,4.18365a7.39181,7.39181,0,0,0,1.31,3.76553,4.12545,4.12545,0,0,1,1.17944,2.78909,22.68674,22.68674,0,0,0,1.31,5.579c.26181.5575,1.04813,1.39456,1.17862,1.81268.13132.41812.91763,2.09222.91763,2.09222l.52365,2.371L256.985,443.733s-1.965,1.25519-1.70311,2.371.655,2.2316,1.57259,2.2316c.91681,0,2.09546-1.81348,2.09546-1.81348s2.48941,1.6741,2.62073,2.371c.13049.69766-.13132,2.2316.78549,2.78992.9176.5575,1.31.27875,1.83441,1.11578.52368.83624,1.83444,3.90491,2.22678,4.04428a8.17427,8.17427,0,0,0,3.2757.97644s1.965-.41895,2.35809,0a10.385,10.385,0,0,0,.13052,5.71756,3.47925,3.47925,0,0,0,1.5726,1.53394c.655.27957,2.35809.83707,2.88174.97644.52448.13937.52448,2.92847,1.17944,3.90491s2.35809.27875,2.35809.27875c1.31.837,3.79938,2.65051,3.40622,3.48676-.39316.83707-2.35809,3.208-2.48941,3.90491-.13052.69769-.39316,2.09225.52448,2.92929.91681.83624,1.1319,1.67331,2.00684,2.2316.87491.5575,1.66119-.69766,2.18488-.69766.655,2.09222,3.14438,3.06784,3.53754,3.48679,2.48859,1.53391,4.06119,2.0914,3.668,2.0914s-2.35809-.41812-2.09625.41895c.26184.83624,2.35,1.67331,2.1575,2.09143-.19257.41891-2.66425.97641.01288,2.09222s5.8215,4.32382,6.607,5.16006c.78632.83707,3.40622,1.95288,3.53754,3.90491.13052,1.95288,2.09625,2.51038,3.40622,4.88135s3.53674,4.18445,4.19171,5.1601c.65579.97638,3.40622,3.208,2.48941,4.60254s.24008,3.06787.1853,3.48682c-.054.41809,1.256,2.371,1.256,2.78912s1.17862,1.53387,1.57178,1.95282a8.38856,8.38856,0,0,1,.91763,2.92847c.13049.8371-1.17947,2.51038-1.44128,3.20807-1.17944,2.37018.52365,1.81268.655,2.64972.13052.83624-3.01306,2.371-3.01306,2.371a12.28324,12.28324,0,0,0,1.31,6.694c.52365.69684,1.98346,2.09222,2.49826,2.64972s.5148,1.81348,1.30109,2.51031a29.31075,29.31075,0,0,0,4.978,2.51038c1.83441.837,5.24063,2.78912,6.02612,3.90491.78632,1.11578,2.88257,2.92847,3.2757,3.62616.39236.69769,2.61993,1.25519,3.9299,1.95282,1.31.6969,3.14438,2.09143,5.50247,2.23083,2.35809.1402,3.79938-.1394,4.58487,0,.78629.1402,2.6207,2.23157,3.53754,3.06866a18.803,18.803,0,0,0,5.50247,4.323c3.14359,1.53473,8.64606,3.76556,9.301,3.76556s2.09625,1.67407,2.61993,2.09222c.52444.41809,9.43314.837,10.08813,1.95282.655,1.115,1.70309,2.64972,2.88174,2.64972,1.17944,0,2.98325,1.25519,4.5051,2.09143a27.61452,27.61452,0,0,0,6.49985,1.81348c1.57181.27875,4.45435,2.09229,6.02615,2.371s4.71616-.97644,5.50247-1.11584a46.41558,46.41558,0,0,0,5.37115-1.81348c1.31-.5575,1.31-1.11578,2.35809-1.67328a26.42967,26.42967,0,0,1,3.2749-1.25519c1.44125.1394,1.83441-1.95288,2.75122-1.25519-.13049,1.67334,0,.97644,1.83444,1.81348,1.83362.83624,4.06119,1.81268,4.06119,1.81268,1.83362-.13934,4.1925,2.92847,6.5506,4.88135,2.35809,1.952,7.59793,5.71759,7.85977,7.11291.26263,1.39459,5.63379,5.99634,7.99188,7.11212s5.37115,2.51038,7.59793,2.23163c2.22757-.27875,3.40622-.97644,6.94376,1.25519s2.48938.837,3.53754,2.23157-.26266.5575,2.48859.6969,6.81244,2.23163,7.33691,2.371c.52365.1394,3.79855,1.39453,5.50165,1.25519s3.93069,0,4.45435-.6969c2.88257-1.53473,3.93069-1.39453,3.79938-.97638,1.04813,2.51031,1.31,4.323.91681,4.04425-.39233-.27875-1.83362-1.39453-1.83362-1.39453-1.31,1.53394.41492,2.7923,2.04147,4.323s4.116,3.90735,5.03281,4.60016c.91681.70093,3.14438,4.32629,4.58484,5.30109a49.40029,49.40029,0,0,1,4.06122,3.77039c1.44125,1.24872,2.6207,2.50549,2.75122,3.20642.13132.69281-2.48859,0-1.83362,1.11176.655,1.11981,1.58145,1.11981,1.83847,1.53876-.00485,1.94965-1.053,3.48035-1.1835,4.73712-.13132,1.25677,3.01309,4.4632,3.01309,4.4632s1.57178-.97479,2.48941,0c.91681.97485,1.17862,2.78748,1.70309,2.78748.52365,0,2.22678-2.65051,2.22678-2.65051l-2.35809-1.66766c1.83441-.83783,2.35809.41895,2.35809.41895s2.09625.83783,2.09625,1.66766c0,.83783-.13135,2.9325,1.44128,3.35144,1.57178.41895,3.2749.97479,4.06122,1.11176a10.87726,10.87726,0,0,1,3.53668,2.23163,3.909,3.909,0,0,1,1.31,4.18927c.13129,2.36859,1.44128,3.20642,1.83441,3.34338,1.57178.83783,2.61993-.83789,1.57178-1.39374,1.57263.83783,1.57263,1.67572,2.09625,2.23157.52448.55591,1.70313,3.20642,2.09625,3.34338.39319.145-.91681-1.66766,0-2.08655a8.92928,8.92928,0,0,1,3.53674-.55591,10.79232,10.79232,0,0,0,2.09625-.145c.39319,0,1.44128,1.11981,1.83441,1.25677s3.53674-.282,4.06122.282c.52368.55591,1.31,3.48035,1.83441,4.31818a2.46272,2.46272,0,0,0,2.35809,1.25684c1.17865,0-1.83441-2.9245,1.31-2.36859,3.14355.55591,2.09625,4.18127,1.9649,4.73712,2.22681,1.9577,5.76434,1.11981,5.76434,1.11981,1.30994-1.39374,4.1925-2.36853,3.79938-3.20642a41.45865,41.45865,0,0,0-3.01312-3.77032,11.98988,11.98988,0,0,0-1.83441-1.66766c1.44128-2.23163,4.6582-3.35144,4.88373-3.77039s1.79742-3.34338,1.79742-3.34338a8.09088,8.09088,0,0,1,3.53754-1.95764c.52362-.137,1.70306-1.3938,3.01306-.69287,1.30994.69287,1.70306,1.25677,3.01306,2.08661a6.63877,6.63877,0,0,1,2.35809,3.35144,3.74436,3.74436,0,0,0,3.14435.83783l-1.17944,2.23163a12.521,12.521,0,0,0,1.17944,6.96869,3.64353,3.64353,0,0,0,1.70313,2.23163,3.34623,3.34623,0,0,1,1.57178,1.40985l1.04816-3.3595v-2.9325s.39313,2.37659,1.83441,1.81268a5.66632,5.66632,0,0,0,2.35809-1.94965,9.28247,9.28247,0,0,0,.91681-4.32623s-1.57178-.97485-1.57178-1.81268a3.03155,3.03155,0,0,1,.13049-3.20642,6.69356,6.69356,0,0,1-2.75043-1.94965c-.52448-.70087-1.31079-1.5307-1.31079-1.5307L580.44193,652.09l-1.57257-1.5307-2.09546-.70093a24.03581,24.03581,0,0,0-2.75122-.82977H570.747c-.78552-1.53876-1.83362-1.40179-3.01306-1.53876-1.17865-.137-3.92993-.41895-3.92993-.41895l-1.17944,1.81268-2.22675,1.39374s-2.09625,1.39374-2.75122,1.67572a25.44782,25.44782,0,0,0-4.06122,1.67572,21.669,21.669,0,0,1-3.01306,1.67572,5.41407,5.41407,0,0,1-3.14441.69281c-1.30994-.1369-2.35809-.41888-2.61987-.83783s-2.88257-3.06946-2.88257-3.06946c.39313,1.81268-1.83362,2.51355-2.09625,1.81268-.26184-.69287-1.70233-1.81268-1.83362-2.23163.655-1.81268-.52448-2.23157-.78632-2.64246a8.61852,8.61852,0,0,0-2.88177-2.23163,24.4167,24.4167,0,0,1-2.88257-1.81268,17.98,17.98,0,0,1-2.22675-3.06946c-.26184-.41888-3.01306-4.04425-3.01306-4.04425a33.27218,33.27218,0,0,1-1.44128-3.62537,13.9006,13.9006,0,0,1-2.2276-4.32623,9.50473,9.50473,0,0,1,1.31079-2.51361c.39233-.55585.26184-2.78748.26184-2.78748a1.52331,1.52331,0,0,1-.52448-2.23157l.655-2.36859c-.6413-1.92548-.742-2.23163-.78546-2.36859-.13135-.41888,2.61987,1.24878,2.48859.27393-.13049-.97479-.78552-1.5307-.78552-2.50549a14.61516,14.61516,0,0,0,0-4.18768,20.83452,20.83452,0,0,1-.39313-4.32306c0-.69763.39313-4.04425.78632-4.4632a40.54706,40.54706,0,0,0,1.9649-4.323l-.655-3.48682c-1.44128-1.67328-.39313-2.371,0-2.51031,0-1.81348-.655-1.81348-.78632-2.64978-.13129-.837-2.358-1.95282-2.358-1.95282a3.38515,3.38515,0,0,1-2.75128.55829l-1.9649-1.11578s-2.48944-1.11578-1.70312-1.25519a20.11746,20.11746,0,0,1,3.2749.1394,5.11455,5.11455,0,0,0-2.09625-1.95288c-1.17865-.41815-2.35809-1.67328-2.75043-1.67328-2.48944.27875-4.717-1.11584-5.89563-1.39459-1.17947-.27875-2.2276,1.25519-3.01309,1.25519a16.29819,16.29819,0,0,1-4.1925-.97644c-2.22678-.69684-3.14438-.13934-3.14438-.13934l-3.79858,2.09222s-.78629-.55829-2.6207,0a7.108,7.108,0,0,1-4.06122.27875,3.81565,3.81565,0,0,0-2.48859-.41815c-2.62073-.97638-3.40622-1.11578-4.8475-.27954-1.44128.837-2.61993,1.81348-3.01306,1.53473-.39316-.27954-2.35809-2.23157-2.61993-1.81348-1.83441,1.25519-2.35889.1394-2.75122.1394a2.85132,2.85132,0,0,1,1.04813-3.76556c.91681-.41809,1.17862-.27875,1.96494-1.39453.78549-1.11578,1.83362-2.371,1.83362-2.78912s.655-2.64972.655-3.208c0-.5575-.91681-1.39459-1.04813-2.78912-.13049-1.39453.39316-4.6026.39316-5.85773s1.04813-1.25519,1.04813-3.62537c0-2.371,1.04813-2.09222,0-2.371-1.04813-.27954-2.75122.83624-2.22678-.55829.52368-1.39459,2.35809-4.4624,2.48862-3.76556.13132.69769-.78549,2.09222-.39236,2.64972.39236.55829,1.965.41895,1.83365,2.371-.13052,1.95288-1.04816,4.46326-.78549,4.04431a36.89685,36.89685,0,0,0,2.48859-5.57819,31.92675,31.92675,0,0,0,1.31-5.85779c.13132-1.11578,1.31076-3.34662.26263-3.06787a13.002,13.002,0,0,1,1.17865-2.92926s-2.88177.1402-2.88177-.27875c0-.41815,1.70313-1.81268,1.83365-2.23163a38.72866,38.72866,0,0,0,.39313-4.18365c.26184-3.06781,2.61993-2.64972,3.53754-4.04425a16.2616,16.2616,0,0,0,1.96494-4.4632,8.67217,8.67217,0,0,0-.39313-3.486q-.13133-.41885-3.40622-2.78986c-2.22678,1.67407-3.66806,1.53473-4.978,1.11578a19.53382,19.53382,0,0,0-3.40622-.41815,14.54914,14.54914,0,0,0-2.75122.41815c-.39316,0-.39316-.27875-2.35809.69769a16.38291,16.38291,0,0,1-5.89563,1.67328c-1.83362.13934-6.02612.41809-7.59793,1.53394-1.5726,1.11578-2.62073,1.67407-3.14438,3.48676a30.0383,30.0383,0,0,0-.655,6.97357c.13049.5575.78549,2.371-.13132,3.06787a7.64126,7.64126,0,0,0-2.09628,3.90491c0,.837.39316,2.371-.78549,3.34741-1.17944.97638-4.84747,3.62616-4.84747,3.62616s2.88174,1.39453,1.57178,2.09222a18.89853,18.89853,0,0,0-3.2749,2.09143c-.39316.41809-2.75122-.27875-2.75122-.27875s0-2.78912-1.31-2.78912-5.633.97644-6.28879,1.53394c-.655.5575.13132,1.11578-2.6199,1.39453s-4.06122,0-6.15747.69769c-2.09625.69684-4.06119,1.67328-5.50165,2.09143-1.44128.41888-3.40622,1.11578-3.79938.41888-.39316-.69763-1.70312-3.62616-2.75125-3.90491-2.09625-.69763-2.88254-1.95282-3.668-1.95282-.78632,0-5.37115.69769-6.02695-.41815-.655-1.11578-1.57181-2.78992-1.57181-2.78992s-2.48938-2.23077-2.6199-3.34656a31.05956,31.05956,0,0,0-1.31-5.30029,46.60544,46.60544,0,0,0-4.45435-5.43884,13.05542,13.05542,0,0,1-1.96494-3.48676c0-.41809-2.75125-4.74115-2.75125-5.1601,0-.41809,1.31-3.20721,1.04813-3.90491-.26263-.69684-4.45435-3.7655-4.45435-4.88129s-1.17944-5.57825-.9176-5.99713a9.88363,9.88363,0,0,0,1.31076-2.23084c0-.41891-.39316-4.4632-.39316-6.13651,0-1.6741.52368-5.99713.655-6.8342.13049-.83624,1.31-7.80978,1.31-7.80978-1.17947-1.53394-.91681-4.46323-.91681-4.46323,1.17862.55832,2.88174-.41812,2.6199,0-.26184.41895-1.17944,2.51035-1.17944,2.51035l3.66885-8.08853s-2.62073-7.94919-3.01389-10.45956c-.39233-2.51035,2.75125-7.95,3.01389-8.78622.26184-.837,4.84668-4.88132,5.37115-5.30026a2.86054,2.86054,0,0,0,1.04813-2.371c1.04813-.5575-.78629,1.39453,1.96494.55829a10.7256,10.7256,0,0,0,4.06122-2.09222s-1.04813.83707,3.40622-2.09222c4.45435-2.92847,4.06119-4.04428,4.58484-4.60178.52448-.55832,4.8475-3.06866,6.02695-3.06866a8.351,8.351,0,0,0,3.53674-.41812c1.57178-.5575.655-1.81268,3.79935-.69766,3.14441,1.11578,5.50247,1.95285,6.68112,1.95285a24.48951,24.48951,0,0,0,3.66806-.5575c3.01385-1.67413,4.32382-1.67413,4.717-.83707.39233.83707.26184,1.67331,1.31,1.81268s2.09543,1.6741,2.09543,1.6741a8.47685,8.47685,0,0,0,2.88257,2.09143c.39316.27954,3.40622-.97562,3.40622-.97562,1.83441.69687,1.70309,1.81265,3.01306.97562,1.31-.83624,1.83444-3.34662,1.83444-3.34662s2.22675-.13937,2.09625.83624c1.7023,1.67413,3.4054,2.51038,3.53671,3.62616,2.48941-.27875,4.06122-1.952,3.2749-2.371-.78549-.41812-3.668-1.53394-4.71616-2.2308-1.04813-.69766-2.48862-.97641-1.57181-1.81348s3.01306-1.95206,2.88174-2.78909c-.13049-.83707-2.09543-2.371-2.09543-1.53394,0,.83624-1.96576,2.09143-1.96576,2.09143a4.99808,4.99808,0,0,1,1.17944-2.51035,12.41326,12.41326,0,0,1,3.79938-1.81268c1.44128-.55832,1.04813-.97644,2.35809-1.11581s2.6199.41812,3.92987.41812,1.44128.27957,2.88257.27957c1.44046,0,.78549-3.48679.78549-3.48679a24.93564,24.93564,0,0,0,1.57257,2.64972c-1.04813,1.25519-1.57257,2.51038.39316,2.2316,1.96494-.27954,6.943-1.39453,8.51553-1.81348,1.57181-.41812,4.978-1.67328,5.37119-1.67328-.39316,1.53391.13049,1.53391,1.96494,2.2316a28.04242,28.04242,0,0,1,4.45435,2.2308c1.17862.69766,2.35809,1.11578,2.22678,1.81348.52444,1.67328,1.70309,2.09222,3.01306,1.25516a31.37554,31.37554,0,0,1,3.66885-1.53391c.39233-.27957.91681-1.95285,2.75043-2.371,1.83444-.41895,3.01389-.83707,4.8475,1.11578a30.66852,30.66852,0,0,1,3.27487,4.4624c.52448.69769.91766.55832,1.70313,1.11581.78632.55829,1.44128,1.25516,1.83441,1.53391.39319.27957,2.09625.27957,2.22681.69769.13129.41812,1.0481,1.25519,1.0481,2.371s.52448,2.64972.39319,3.06787a32.24549,32.24549,0,0,0-.655,4.04425c0,.69769-.13049,2.92929-.13049,2.92929s.52368,2.51038.91681,2.64975,1.57178-2.09225,1.57178-2.09225c1.31,1.25519-.26178,2.78992-.39313,3.48679-.13049.69769,0,.97644,1.17944,3.208,1.17865,2.2308,2.22675,4.18365,2.61993,4.18365,1.17944.27875.91681-1.53394,1.57257-1.39456.655.13937-.65576,1.53394.26184,2.9285.91681,1.39453,1.17865.837,1.965,2.2316s.91681,3.48679,1.44128,4.04428c.52362.55829,2.48859.69766,3.14355,1.53473.655.83624,3.2757,3.90491,3.2757,4.323s-.655,2.371.26184,2.92847c.91681.55832,4.71619-.13937,5.10931-.27875a18.56,18.56,0,0,0,2.09625-1.53394s.13055-2.64972.26184-3.208c.13135-.5575,1.04816-1.53394,1.04816-2.78912s.13129-4.60257.13129-5.43881c0-.83707-.26263-5.71838-.9176-6.97357s-3.92987-7.80981-4.19171-8.64685c-.26263-.83624-1.96576-2.09225-1.70312-3.48679a9.25821,9.25821,0,0,0,0-3.34662c-.13129-.55829-7.20557-9.902-7.46741-11.85489-.26263-1.95206-2.75122-8.22794-2.88257-8.9256-.13049-.69687-1.0481-1.39456-.655-2.09222a12.631,12.631,0,0,0,.78632-2.09143,11.30391,11.30391,0,0,1,.91681-2.51035c.26184-1.95288-1.31-2.09225-.39319-2.371,1.1795-2.371,1.04816-3.48679,1.44128-3.76553a20.48452,20.48452,0,0,0,1.44128-1.81348,15.76084,15.76084,0,0,0,2.61993-2.371l.655-2.2308a5.61551,5.61551,0,0,0,3.01306-.97641,5.11889,5.11889,0,0,0,1.70313-1.53394c.26184-.41891,1.70313-.97644,1.70313-1.53473.655-1.53394,1.57178-1.39456,2.35809-1.81268s1.57257-2.78909,1.57257-2.78909-.39313-1.95285.52368-2.78909c.91681-.83707,2.75122-3.48679,4.06116-3.62616s4.32306-.41895,4.32306-.41895a20.38328,20.38328,0,0,1,.26184-2.2308c.13129-.41891,1.70392-3.208,3.2757-4.04507,1.57178-.83624,3.14441-2.2316,4.06122-2.371s3.40619-.27875,3.79932-.69687c.3924-.41812.91681-3.208,0-3.06866-2.09625-.27875-1.30994-1.115-1.57257-1.67331-.26184-.5575-3.92987-1.95285-2.22675-2.371s2.88171.83707,4.19171.83707c1.31073,0,2.88251-1.95288,2.88251-1.95288,1.17944-1.67328-.52362-4.323-.52362-4.323l-1.17944,1.67331c-1.57184-1.53394-3.01306-1.39456-3.40625-1.25519s-3.14435.97644-3.14435.55832c1.17944-1.39536,3.53754-1.81348,3.93066-2.09222a4.73462,4.73462,0,0,1,2.09625-.69769c1.57178-.5575-.39313-2.2308-.39313-2.92847a39.40832,39.40832,0,0,0-1.17944-4.46323l-2.35809-.83624-1.31-3.06863.78632-2.09143c-.78632-.83707-.39313-4.4173-.39313-4.37057a21.00076,21.00076,0,0,1-1.31-2.603c-.52448-1.25516-2.62073-4.323-2.62073-5.57822s-.39233-4.18445-.39233-5.02069c1.57178-1.53473,3.01306-3.06061,3.01306-3.06061-1.30994,3.47873-2.22754,4.87329-1.30994,5.01266.26184,2.09222,1.44049,2.371,1.44049,2.371-.39239,1.95285-1.44049,2.2316-.91681,3.06784.52441.83707,1.17944,2.23163,1.57178,2.371a15.60839,15.60839,0,0,0,3.14435,2.64972c1.70313,1.53473.39319,2.65054.39319,2.65054s-.26184,4.60178-.26184,5.16006c1.44049-1.11581,1.30994-1.6741,2.22675-3.62616a26.3894,26.3894,0,0,0,1.70313-5.02069c.13135-.69769,1.70313-2.92929,1.57257-3.76553-.13129-.83707-1.9657-3.62616-2.35889-4.6026-.39233-.97641-2.48859-4.323-2.48859-4.323s4.45435.83627,4.45435,1.81268-1.0481,2.09222,0,2.2316,1.70313-1.95285,2.22681-2.92847c.52441-.97644,1.57257-2.07693,1.57257-3.06061,0-.98447.655-1.542.91681-2.65778s.91681-1.53394.91681-3.34741c0-1.81268-.26184-4.18365-.655-4.18365s-3.40625-.5575-2.75122-.837c.655-.27875,2.75122-.55753,4.45435-.97565,1.70306-.41891,6.68109-1.53473,8.25366-2.371,1.57184-.837,3.66809-1.95285,4.06122-2.51035.26184-1.6741-3.53754-.41895-3.79938.27875-.26184.69687-1.70312.41812-3.40619.5575s-4.1925,0-4.84753.27957c-.655-.41895,1.17944-2.51038,3.53754-2.92929,2.35809-.41812,6.15747-1.53394,7.20563-1.53394,1.0473,0,3.2749-.13937,3.2749-.13937s.655-2.92929,1.17859-2.92929a7.0371,7.0371,0,0,0,4.717-.83624c2.22675.5575,3.01306.69687,3.92987,0,.91681-.69766,2.09625-1.81348,1.83441-2.371-.26263-.55832-1.04816-2.78909-1.04816-2.78909-1.57257.13937.655,2.23077-.26263,2.23077-.91681,0-3.40619-.13937-3.668-.5575a15.92157,15.92157,0,0,0-1.83362-2.371,14.67578,14.67578,0,0,0-2.09625-.837c0-2.2308,1.44128-3.06787.655-3.90491-.78632-.83627-2.2276-1.25519-1.70312-2.09143a21.51439,21.51439,0,0,0,1.965-3.62616,42.653,42.653,0,0,1,.655-4.32382c.13135-.97565.78632-2.51038,1.57263-2.09143a9.94169,9.94169,0,0,0,1.9649.69687c1.44049-1.39456,1.44049-3.20721,1.965-2.64972q.52359.55829,1.87146-2.78912s.48663-2.78909.74841-2.09222a14.24082,14.24082,0,0,0,1.44128,2.2316l2.75128-.41812a13.85285,13.85285,0,0,0,3.14435-3.06863l1.70313-1.25519a6.97694,6.97694,0,0,0,3.01306-3.06784l-1.17944-3.48679,2.2276.69687a7.28128,7.28128,0,0,0,2.88171-.69687c.91681-.5575.39319-1.11581,1.965-1.25519,1.57257-.13937,2.62073-.41812,3.40619-1.39456.78632-.97641,2.62073-2.51035,2.88257-2.92926.26184-.41812-.26184-3.20724,1.44128-3.20724s2.75043-.837,2.22675-.41812c-.52362.41812-3.53754,4.88052-3.53754,4.88052a68.43426,68.43426,0,0,0,7.99188-.69687,19.16631,19.16631,0,0,1,2.61993-.13937,14.37583,14.37583,0,0,0-3.01306,1.53394c-.52368.5575-1.44128,1.39453-1.44128,1.39453-.78546-.41812-1.57178-2.51035-1.9649-1.39453s-4.45435,3.62616-5.5025,5.02069-.91681,1.81348-1.57178,2.64975c-.655.837-3.14441,1.25516-3.14441,2.09222.78632,1.25516,2.48944-1.39456,2.09625-.13937s-.655,3.62616-.39313,3.90491a8.02633,8.02633,0,0,1,1.0481,1.81265,5.45128,5.45128,0,0,0,1.965,2.64975c2.2276-.41812,2.09625.837,2.09625.837a17.12138,17.12138,0,0,1,2.61993.13937,9.23548,9.23548,0,0,1,2.09625-2.78909l.91681-1.95285c.52448-1.11581.26263-1.81268.65576-2.2308,1.17865-1.11581,2.48865-1.25519,2.22681-1.81348-.26184-.5575-1.04816-3.06784-1.04816-3.06784a2.735,2.735,0,0,0,2.35809.41812c.52448,0,2.35809.13937,2.35809.13937a14.57457,14.57457,0,0,1,2.61993-2.09225c.39313-.41812,1.70313-.13937,2.22754-.5575.52368-.41812.78632-1.53391,1.31-2.09222.52448-.5575,1.44128-.41812,2.88257-1.81268a22.09932,22.09932,0,0,1,4.06116-2.78909l2.09546-.97641-2.09546-1.95288c.78552-1.25516,1.965-.27875,2.09546-.97562.13135-.69766-.26184-.837,1.44128-1.39536,1.70313-.5575,4.06122-2.2308,4.1925-3.20721.13055-.97644-.26184-3.06866-.655-3.06866s-3.53754-1.115-3.53754-1.115c-1.57178-.41893-1.83362-3.90572-2.22675-4.32384q-.39322-.41812-2.88257-2.64973s-.655,1.25517-1.04816,1.81268a4.1034,4.1034,0,0,0-.655,3.06865c.13135,1.81267.13135,3.06786-.26184,3.76552-.39313.6969-1.44128.41815-.78625,1.95206.655,1.53473,1.44128,2.65054,1.30994,3.34741-1.70312.97644-3.668-1.81268-3.668-1.11581,0,.69769-1.83362,2.51038-1.83362,2.51038a12.67853,12.67853,0,0,1-2.88257-.27875,3.30515,3.30515,0,0,0-2.61993-.13937c-1.0481.41812-1.57178.5575-2.35809.13937a10.43321,10.43321,0,0,0-3.14435-.41812s-.39319-2.09225-.91687-2.23163c-.52441-.13937-3.668-.13937-4.58563-.41812-.91681-.27954-1.57178-.14017-2.35809-1.25516a17.16843,17.16843,0,0,1-1.44128-2.65054s-1.70227-.97562-1.83362-1.39456a26.02664,26.02664,0,0,1-.26184-2.64972l-3.53754.41893,1.31-1.6741.78625-2.51036c.13135-2.51035,1.70313-5.16008.78632-4.88133a5.23656,5.23656,0,0,0-1.83441,1.25519s-3.92987.41891-4.1925.97643c-1.04816,1.95285-2.61993-.27875-3.01312-.27875a24.34488,24.34488,0,0,1-3.79932-.69768c0-.83626,1.83441-2.371,1.83441-2.371a10.66875,10.66875,0,0,0,4.1925,1.1158,5.46212,5.46212,0,0,0,3.01306-1.39455,7.53269,7.53269,0,0,0,1.04816-1.95206,12.37151,12.37151,0,0,1,1.9649-1.95285l-2.09625-2.92848c1.965-.13937,1.04816-.5583-.655-1.95285s-7.59875-1.53392-9.56366-1.25517-7.72925,3.208-8.51556,3.90491c-.78546.69768-6.81244,4.88133-7.5979,5.71838-.78632.83705-4.71619,5.29945-5.10931,6.27588s-2.2276,4.88133-2.2276,5.5782a12.21978,12.21978,0,0,1-1.965,3.90492,10.18153,10.18153,0,0,1-2.61987,1.81348,8.28572,8.28572,0,0,1,.91681-2.2316c.52441-.6969.26178-2.371.52441-2.78912,1.57184-.97643,1.04816-2.371,1.83368-2.78909a4.05763,4.05763,0,0,0,1.44122-3.208,5.97918,5.97918,0,0,1,.52368-2.64972c.39313-1.11581,1.57263-4.04428,1.83441-4.46321.26184-.41812-.26178-1.67331.39319-2.09143a28.88855,28.88855,0,0,0,2.48938-2.2316s1.965-.27875,1.965-.83705c2.09625-2.09143,4.84668-1.81268,4.84668-2.64973s-.52368-3.90491-.13049-5.02071,1.0481-1.39455,1.17859-2.2316c.13135-.83626,1.17944-2.78911,1.57263-2.78911s2.88171-.27875,2.88171-.27875,0-.41812,2.62073-.5583a21.49414,21.49414,0,0,0,4.84674-.97562c1.44122-.27956,1.70306-.83707,2.62073-.83707.91681,0,2.48859.55751,2.88171.27876s-1.57178-.69688,1.965-.69688c3.53754,0,8.385-.97643,10.08734-1.1158a9.2161,9.2161,0,0,1,3.53754.41812c.39313.13937,1.17944-1.1158,3.14435-1.25517s4.06122-1.1158,5.23987-1.39455c1.17944-.27875,2.75122-2.51036,2.75122-2.51036l1.44128-2.09222,1.0481-2.09143s1.04816-1.39455.52368-1.95285a22.94634,22.94634,0,0,0,.52448-3.48679c.13049-.69687,1.83362.13937,2.61993-.5575.78625-.69768-.13135-1.1158,1.44128-1.81348a30.43443,30.43443,0,0,0,3.79932-2.2308c1.31.97563,2.22681-1.25517,3.01312-2.51035.78546-1.25519,2.22675-2.51036,2.35809-3.48679.13049-.97643,1.30994-2.09222-.13135-2.64973-.78546-2.371-3.668-2.7899-3.668-2.7899-1.44128-1.81267-.26184-1.95206-.26184-2.37018,0-.41893-1.44128-1.1158-1.70312-1.81348-.26184-.69687.655-1.67329.13049-2.371a12.35325,12.35325,0,0,0-3.53668-2.371,39.06083,39.06083,0,0,0-4.06122-.69687c-.26184-.97643-2.88257.5575-2.88257.5575l-.13049,2.51036-1.70312-1.39456.78552-2.371-2.48865-2.09143-2.22754-.5583s-3.79938.27875-3.668-.13937c2.09625-1.95285,3.01306-2.2316,3.14435-2.64972.13049-.41814-1.17944-2.371-1.57257-2.09224-2.35809-.27875-3.53674-1.39455-3.92987-1.39455s-.39319,1.53392-1.57184,1.67329c-1.17944.13937-3.01306.69768-3.2757,0a23.80951,23.80951,0,0,0-2.22675-3.06784c-1.44128.83705-1.57178.69687-2.48944.5575-1.70306.69768-1.9649-2.371-2.48859-1.39456-.52448.97644-1.17944,1.95287-1.57257,1.95287s-2.09625.13937-2.09625.13937l-.13055-3.76553-1.83441-.97643a3.83576,3.83576,0,0,0-2.09625-.41812l-3.40625,1.1158.91766-3.34741-2.09625.13937c-1.31-.83705-3.79938-.83705-3.40625-.97643a13.6819,13.6819,0,0,0,1.70313-1.1158c.91681-1.39455-1.30994-1.67329-1.30994-2.09143a20.45144,20.45144,0,0,0-1.04816-2.51035,6.47953,6.47953,0,0,0-1.04816-1.81348c-.39313-.41814-.655.27956-2.75122-.41814a5.72073,5.72073,0,0,0-2.48938-3.76552c-.91681-1.53394.52448-2.64973.13129-2.64973a19.89883,19.89883,0,0,1-2.88257,0,9.08114,9.08114,0,0,1-3.4054-1.95285c-1.70312-1.81268-2.88257-3.20723-2.88257-3.20723l-2.48938,1.1158-1.17865-3.76553c-1.30994,0-1.30994-.97643-1.83441-1.39536-1.31-.13937-2.35809-2.51035-2.75128-2.51035a21.52851,21.52851,0,0,1-2.48859-.41812l-2.22754-1.95206-2.35809-2.92928-3.2749-2.92848-2.61993-.27875a4.208,4.208,0,0,1,.91681,1.81267c0,.69768-.13129,1.81349-.13129,2.371-.26184,1.25517-1.04816,2.78909-.91687,3.3474.13135.55751,1.31,1.53394,1.31,1.53394.13129,1.53392.26184,2.2316.26184,2.2316l.39313,2.51036c-.52368,2.2316-.655,3.06784-.655,3.06784s-2.09625-1.39455-2.09625-.97643c0,.41893-.39319,3.90572-.39319,3.90572-1.30994,1.115-3.2749,2.92848-3.2749,2.92848l-1.57178-1.95287-2.48938-.5575c-.52368.69687-2.48944-.83705-2.48944-1.25517s-1.57178-1.25517-2.88171-1.1158a16.14638,16.14638,0,0,0-3.66809,1.25517l1.04816-2.64973a5.384,5.384,0,0,0-3.2757-2.371c-1.17865-.97643-2.22681.5575-1.83362-1.39455a3.74069,3.74069,0,0,0-1.04816-3.34741c-.655-1.53392-.9176-3.20723-1.70306-3.90491a3.15912,3.15912,0,0,1-1.1795-2.371,19.40566,19.40566,0,0,0-.39313-4.04429c-1.57178.13938-1.0473,2.64973-1.9649,2.23161-.91687-.41893-1.965-2.09222-2.75128-1.95285-4.84668.41812-6.81244.69768-7.20477,0a14.157,14.157,0,0,0-2.48938-2.23161s2.35809-1.53393,1.44128-1.6733c-.91766-.13937-3.14441-.41812-3.14441-.41812l-2.09625-1.67411-2.35809-1.1158a20.75964,20.75964,0,0,1-2.61993-.5575c-.78632-.27875-2.75122-1.25517-3.14435-1.39455a8.71464,8.71464,0,0,0-4.06122,1.1158c-1.04813.5575-2.61993.83625-2.22678,1.11581.39233.27875-1.70309-.97643-2.62073-.5583a12.90208,12.90208,0,0,0-2.22678,1.53392c-2.22757-1.53392-4.45435-1.25517-5.24063-1.67329a11.28354,11.28354,0,0,0-3.40622-.69688c-.52365,0-2.35809.27875-2.61993.83625-.26181.5583-1.70309.5583-1.57178,1.95285.13052,1.39455,1.96494,4.323,2.22678,4.742.26181.41812,2.48941,1.115,2.88254,1.39455-.26263,2.92848-.39313,4.323-.39313,4.88133,0,.5575-.91681,1.67329-1.965,2.78911a7.43184,7.43184,0,0,0,3.2749.27875q.655,0,1.17865,1.95285c1.17944,1.67329,2.62073,3.76553,2.62073,3.76553,1.31,2.09142.655,3.20721.655,3.20721l-.78629,2.23161c.91681,1.95285-.78629,2.371-.78629,2.92848a15.88219,15.88219,0,0,1-.52368,2.371l-.78629,2.78911a2.77846,2.77846,0,0,0,2.09625,1.81348,37.83559,37.83559,0,0,1,4.71619,2.09222c1.5726.69688,2.35809-.27956,4.06119,1.67331,1.70312,1.952,3.79938,4.04428,4.06122,4.60258a21.30986,21.30986,0,0,1,1.9657,4.04427c.39239,1.53394,1.57184,5.29947,1.57184,6.694a10.92914,10.92914,0,0,1-1.17944,4.742c-.655.97643-2.22681,3.62616-2.75128,4.46321-.52362.83624-4.58484,3.90491-4.84668,4.4624-.26181.5583-4.58566,2.09222-4.97879,2.371-.39236.27875-1.83365.97643-1.83365.97643,1.965,2.23161,3.01309,3.90491,3.53674,4.18365,1.83444.69768,2.22757,2.78911,2.48941,3.208a22.77614,22.77614,0,0,1,.91681,2.2308c.78629,2.2316.9176,4.4632,1.44128,5.43964.52444.97643,2.35806,1.25517,2.35806,1.952,0,.69768-.78625,1.39455.655,1.95285,1.44128.55751,2.75128,1.39456,2.48944,2.371s-.655,3.06786-.655,3.06786l-1.31,1.95285c-.655,1.1158,1.83362,3.06786,1.70313,3.48679a9.55405,9.55405,0,0,1-3.40619-.97644c-1.70312-.27875-2.48944,1.53394-2.75125,2.23161-.26184.69687-4.45435.69687-4.45435.69687l-1.57181-2.2316a9.11945,9.11945,0,0,0-1.5726-2.2308c-.52365-.27956-2.6199-1.81348-2.6199-1.81348l-2.22757-1.25517a19.62342,19.62342,0,0,0-2.35809-2.78911c-.52368-.5575-2.61993-1.95285-3.01306-2.64973a6.5553,6.5553,0,0,0-2.09628-1.53392s-.78549-1.6741-.26181-2.371a1.77078,1.77078,0,0,0,.13132-2.09222,3.76965,3.76965,0,0,1-.91681-2.09222c-.13132-1.25517.655-2.92848-.39316-3.62616-1.04813-.69687-2.35809-.83624-2.35809-2.64973,0-1.81267.39316-4.60178.26184-5.29945a5.52585,5.52585,0,0,0-1.04813-2.371,8.4167,8.4167,0,0,0-2.75125-.27875c-1.83362-.27875-2.6199.27875-3.01306.13937s-3.53754-.69687-3.53754-.69687l-2.75043.41812c-1.5726-.13937-2.48941.5575-3.27573.5575a11.05118,11.05118,0,0,1-2.22675-.41812l-3.14441-1.25517-1.57178-1.67331-3.14438-.5583a25.044,25.044,0,0,0-3.01309-1.1158c-.39313,0-1.83441-.41812-2.6199-.5575-.78629-.13937-2.22757,0-2.75125-.5583-.52444-.55751-1.30994-.97563-1.70309-1.81268a13.84709,13.84709,0,0,0-2.22757-2.51035,4.76085,4.76085,0,0,1-2.35809-.13937c-.655-.41814-3.01306-2.64973-3.01306-2.64973s-3.53674-.5583-4.06122-.69768c-.52365-.13937-3.668-1.39455-4.06119-1.53392s-2.35809-.97644-3.40622-1.25519a4.5275,4.5275,0,0,0-2.75125-.13937,20.22686,20.22686,0,0,0-4.06119,1.39456,11.2683,11.2683,0,0,1-3.40622.83705,18.2419,18.2419,0,0,1-1.31-4.04509,10.59157,10.59157,0,0,0-2.09625-3.486l-.39313-2.371-1.04816-1.81349-1.17862-2.09142a4.44163,4.44163,0,0,0-3.79938-2.23161c-.52365,0-3.01306.55751-3.53674.55751-.52444,0-1.57257-1.67331-1.57257-1.67331l-.655-3.208a12.41653,12.41653,0,0,0-.39313-2.09143,24.58638,24.58638,0,0,1-.26184-4.88133l.78629-3.06865a4.13572,4.13572,0,0,1,1.04813-2.92848c.52368-.69768.52368-2.09222,1.04813-2.51036.52368-.41812,1.31-3.06865,1.31-3.06865l.91681-2.37018,2.09625-1.39536q-1.17943-1.25517,1.83365-1.952l.655-2.09224c1.70309.13937,1.96576-.69687,1.96576-.69687l-.13135-2.371c1.44128-.5583,3.40622-1.53393,2.75125-1.53393a9.39576,9.39576,0,0,1-2.6199-1.39536l4.71616-.13937c1.44128,0,1.70313-.97562,2.09625-.97562a10.10065,10.10065,0,0,0,2.09546-1.1158s-.91681-2.78991-1.17865-3.208-3.668-1.39455-3.668-1.39455c-.91763-1.25518,1.96494-.83705,2.35809-.5575,1.44046.83625,2.09625-.27955,2.6199-.14017,2.22678-.27875,1.70313-3.486,1.70313-3.486,1.30994-.83705,2.75122.41812,2.75122.41812a13.11551,13.11551,0,0,0,3.40622-.13937,16.53939,16.53939,0,0,0,3.14438-1.39455l1.17865-1.67411.655-2.2308s1.96494-3.06866,2.09625-3.48678c.13132-.41893.91681-2.64973.91681-2.64973l-.91681-2.92928a24.74542,24.74542,0,0,0,1.83441-1.952c.655-1.95285,2.75043-3.06866,2.48862-3.76553-.26184-.69768-3.14359-1.39455-3.53674-1.67411-.39316-.27875-.78629-1.952-.78629-1.952s1.17944.13937,2.22678.27876c1.04813.13937,1.96573-.97643,2.6207-.97643s1.44128.83705,1.70313,1.81348,1.57178.5575,2.22678.97643a11.02214,11.02214,0,0,0,1.96494.83625A7.825,7.825,0,0,1,453.889,92.5615c1.57181.27956,1.17865,1.81348,1.96494,1.6741s3.9299-.83705,3.2749-1.25517c-.655-.41893-2.09546-1.11581-2.09546-1.11581a8.69379,8.69379,0,0,0-2.62073-1.6741c-.52365-.27875-3.668-2.37017-3.668-2.37017l4.1925,1.25517-2.75122-3.62615a2.36909,2.36909,0,0,1,2.75122,1.1158,2.83691,2.83691,0,0,0,2.35809,1.25518,6.97364,6.97364,0,0,1,.91681-2.371,18.03846,18.03846,0,0,0,3.40622-2.92928c1.17944-1.39455,2.48941-4.4624,2.22678-4.88133a4.89792,4.89792,0,0,0-1.96494-2.51035c-1.70312-1.25518-3.2749-2.37018-3.2749-2.37018L457.5571,70.666a3.26187,3.26187,0,0,1,.78629-2.92928,18.03345,18.03345,0,0,0,1.70313-1.952c-1.70312-1.6733-2.62073-1.81348-2.62073-1.81348s1.5726-1.39455,1.31076-1.81268c-.26263-.41812-1.96576-.69768-1.96576-.69768-1.57178.14018-2.75122.41893-2.75122-.5575q0-.97643-1.70312-2.371l-4.323.27875-2.6199-1.25518a8.097,8.097,0,0,0-2.22757-.41813c-.39236.13937-.78549,1.6733-1.57181,1.39455s-1.57178-2.09223-1.83362-.83705a6.30582,6.30582,0,0,0,.26184,3.3474c.78549.97643,1.04813,2.23161,1.57178,2.371,1.70313,1.95285.52448,1.6733,1.17944,2.64973-1.96573,3.48678-1.17944,3.208-1.31076,4.18446-.13052.97562-.26184,3.3466-.26184,3.3466l-1.44046,1.53393L439.216,73.037s-1.04813-1.81348-1.44128-1.53474c-.39313.27956-1.30994,1.67411-1.17862,2.09223.52365,2.23161,1.44128,2.92928,1.83362,2.92928a7.37659,7.37659,0,0,1,1.44128,3.3466c-1.44128-.5575-2.48941-.27876-2.35809.27875-1.31,1.25517-1.83444-1.39455-2.61993-1.115-.78629.27875-2.48941-1.6741-3.01306-1.81348-.52448-.13937-1.44128-2.7891-1.44128-2.7891l-.26181-2.51035,1.96494.41812a8.96733,8.96733,0,0,0-.655-3.62615,6.11538,6.11538,0,0,0-1.5726-2.09142c-.52365-.27956-3.27487-1.53473-3.27487-1.53473s-1.31-1.6733-1.57181-1.25518c-.26263.41893-.9176.97643-1.44128,1.6741-.52365.69688-1.30994.97562-1.17944,1.952.13132.97643-.13049,5.02071-.13049,5.02071a5.89483,5.89483,0,0,1-1.965-3.76553c0-.83625-1.44125-3.20723-1.44125-3.20723,1.17862-1.25517,2.22675-2.92928,1.83362-3.06865-.39236-.13938-3.2749-1.25518-3.2749-1.25518-1.96494-.69687-2.88174-.13938-3.2749.27875-2.22757-.41813-4.71619-.83625-4.71619-.83625l3.2749-2.7891a4.26179,4.26179,0,0,0,.52448-3.06866c-1.70312-1.25518-1.96576-1.952-1.96576-1.952l-1.96494-1.39536c-1.44128-.69687-1.44128-2.7891-1.44128-3.3466a5.32851,5.32851,0,0,0-1.57178-2.51035,20.6335,20.6335,0,0,0-2.48941-1.53392c-1.17865-1.39536-2.22678-.27956-2.22678-.97643-1.83441-.97643-3.668-.69768-3.93066-.13937a12.22868,12.22868,0,0,1-1.83365,1.952s1.57181.83706,1.57181,1.25518c-.26184,1.39455-1.70312-.41812-2.09625-.13937a3.80679,3.80679,0,0,1-1.96494,1.1158c-.26184,2.371-.26184,4.60258,0,5.02071,1.30994.97643-.13052,3.06785,0,4.18365a7.87152,7.87152,0,0,0,1.44125,2.78991,2.80133,2.80133,0,0,0,2.75125,1.53393,12.78949,12.78949,0,0,0,2.35809,1.25518c2.09625-.97643,1.70309.5575,2.48941.97643.78549.41813,3.40622-.41893,3.40622-.41893s-1.04813,1.95285-1.44128,1.95285c-.26184,1.81268-1.83444,2.09142-2.22757,3.20723-.39236,1.1158,3.01306,1.25517,3.01306,1.25517.9176.97643,1.5726,1.6741,1.31076,2.09223-.26263.41812-1.5726.69768-2.35809,1.39455-.13132,1.39455-1.04813,1.53393-1.5726,2.23161-.52365.69768-2.35809.5575-2.35809.5575s-1.96494.41893-1.83362.83705c.13052.41812-.65576,1.6733-.26263,2.23161a26.06481,26.06481,0,0,1,1.83444,4.323c-1.44128-.97562-1.70312-1.53393-2.88257-.97562-1.57178-1.1158-3.14359-1.25518-2.48859-1.81348.655-.5575,1.44046-.97643,1.44046-1.67329q0-.69768.52448-4.46321l-2.35809.13937q-.26184-.83624-3.40622-2.09142l-3.93069-.83705c0,1.81268-.655,1.95285-.655,1.95285l-2.09546-.5583a3.12107,3.12107,0,0,1-.39313,2.78911c-.26184.41892,1.62253,2.51035,1.62253,2.51035l-3.32565.5583a6.51542,6.51542,0,0,0-3.14438-.97643,19.25981,19.25981,0,0,1-3.2749-.13937,17.9084,17.9084,0,0,1-2.35809.69688,19.08973,19.08973,0,0,0-2.35809.27956c-1.83441-.5583-2.62073,0-3.53754-.27956-.91681-.27875-2.88174-.83625-2.88174-.83625l-.9176-2.7891a13.00613,13.00613,0,0,1-4.978.5575l-1.44128-2.51035s-2.48941-.27875-2.48941-.83705c0-.5575.26266-2.371.26266-2.371l-1.31-1.81268s-2.09625-.69768-2.48941-.41812a4.91014,4.91014,0,0,1-2.22757,1.115c-1.04733.14017-1.57181.27955-3.40543.5583-1.83441.27875-2.75122-.41813-3.40622.27875-.65579.69768-2.75122,3.3474-2.75122,3.3474,1.70309.5575,1.17862,1.11581,1.57178,1.25518s1.57181-.27876,2.09625-.27876c1.57181-.97643,2.09625-2.2316,2.35809-1.81348q.26184.41812,3.40622,0l4.1925-1.53393-4.84747,3.3474A14.30714,14.30714,0,0,1,345.939,74.0134a6.14833,6.14833,0,0,1-2.48938-.14018l-1.44049,2.78991,1.17865,2.09142a17.62338,17.62338,0,0,1-.26184,3.48679c-.26181.41812-1.44128,1.67329-1.31,2.51035q.13055.837-1.30994-2.09223a5.93964,5.93964,0,0,0,1.96494-2.7891l-1.31-2.78911c-1.44128.5575-2.62073-.27875-2.62073.13937a14.98935,14.98935,0,0,1-.52365,2.09223s-.13132-1.81348-.13132-2.23161-1.44049-1.25517-1.83362-1.1158q-.39317.13938-1.70312-1.25518c-.52448-1.39455-2.09625-1.39455-3.14438-.83705a18.91341,18.91341,0,0,1-2.22678.97643c-1.31076-.27875-.13132.41893-3.01385.27876a27.40674,27.40674,0,0,0-4.84671,0,6.51149,6.51149,0,0,1-3.14438-.41813c-.39316-.13937-3.2749-.69687-3.66806-.83705a19.04441,19.04441,0,0,0-2.6199-.83624c-.39316,0-2.22757-.69769-1.96576-1.11581,1.70313-.41893,1.44128-1.95286,1.96576-1.95286a6.52131,6.52131,0,0,0,3.2749-.5575c2.09625.83705,2.22675-1.6741,2.22675-1.6741a6.5304,6.5304,0,0,0-2.22675-3.486,29.38937,29.38937,0,0,0-3.2749-2.09223l-2.48941.69768s-1.44128.83625-2.09625.27874c-.655-.5583-1.57181-.41893-1.96494-.83705s-.91681-.13937-2.09628-.97643a12.06934,12.06934,0,0,1-2.22675-2.2308c-.655-.69768-3.27573-.97643-4.06122-1.53473a13.77489,13.77489,0,0,1-3.01386-2.51035c-1.04733-1.25518-2.09546-2.92848-3.01309-3.20723a39.20171,39.20171,0,0,0-5.23984-.5583c-.52444,0-1.57257,1.25518-1.57257,1.25518a20.46884,20.46884,0,0,1-3.01309,1.81348c-.78549.41812-2.6199-.27875-2.6199-.27875a4.386,4.386,0,0,1,1.30994-1.81348,14.28126,14.28126,0,0,1,1.83444-4.323l-3.01306.27875-3.14438,1.952c-.26184,1.67411-.655,2.92928-1.17947,3.06866-.52365.13937-2.48859-.69768-2.6199-1.81348a9.78261,9.78261,0,0,1,0-3.90491c.39316-1.25518.52448-4.04428-.13132-5.02071-.655-.97562-1.96494-2.51035-1.96494-2.51035-1.04813,1.95285-1.83362,2.78991-1.04813,3.208.26263,1.25518-2.09546.69687-2.35809,1.25518a23.24023,23.24023,0,0,1-3.79938,2.92848c-2.22678-1.53392-2.75043-1.1158-4.06119-.97643a14.33569,14.33569,0,0,0-4.0612,1.25518,19.14343,19.14343,0,0,0-2.35809,1.81348s1.04813-2.51035,2.75124-3.208a31.758,31.758,0,0,1,5.24066-1.39455c.78629-.13937,2.75122-.27875,2.75122-.69687a15.57353,15.57353,0,0,0-.78629-2.371s-.91681,1.39455-1.44128,1.39455a19.3713,19.3713,0,0,1-3.2749-.83705,6.17688,6.17688,0,0,1-1.57179,1.39455,4.363,4.363,0,0,0-3.79936.41893,7.60628,7.60628,0,0,1-2.09625.41813c-2.09627,0-2.22678-.97643-3.01308-.41813-.7863.5575-.7863,1.39455-1.70311,1.53393s-2.22757,0-2.61992.27875c-.39314.27875-2.62073.41813-2.22757.27875s3.2749-2.2308,3.2749-2.2308l-1.17865-1.67411a12.37525,12.37525,0,0,1-3.01306,1.81348l-2.48941-.83705c-1.96494.41812-3.79936.83705-3.92989,1.25518-.655,1.6733-2.35809,1.95285-1.96494,2.2316.39235.27875,1.44048,3.48678,1.44048,3.48678l-2.75124-3.48678s-1.965,0-2.61992-.83705-2.88176-4.4624-2.88176-4.4624l-.39314-2.371c-.52448-1.1158-1.44128-1.39455-1.965-1.81348-.52446-.41813-1.83443-.41813-2.62071-.83625-.78549-.41893-2.61992-1.95286-2.88176-2.92928a3.44937,3.44937,0,0,0-1.44127-1.6733s-.13132-2.51035-.52367-2.7891a29.82462,29.82462,0,0,0-5.372-.69768,4.30709,4.30709,0,0,1-2.61992-1.25518,25.29057,25.29057,0,0,0-1.70311-2.2316c-.52367-.5575-1.83362-.27875-3.01306-1.53393a8.93466,8.93466,0,0,1-1.70311-2.64973s-1.70311-2.23161-1.965-2.64973c-.26183-.41893-1.96494-.97643-1.96494-.97643-1.44128,0-1.83443-1.1158-2.62073-1.25518-.78549-.13938-3.14359-.83705-3.14359-.83705.78549-1.25518-.39314-1.6733,0-2.371.39316-.69687,2.22678-1.115,2.22678-1.115l-1.57179-1.81348a21.53478,21.53478,0,0,0-3.668-1.25518l.655-2.2316c-1.17946-1.1158-3.66885.13937-4.32384.13937-.52367-1.39455,1.17944-1.6733,1.5726-1.81267q.39315-.13937.52365-2.64973C184.53844,1.073,179.42911,2.88645,177.85651,2.74627Z"/><circle id="Oval-4" class="cls-2" cx="205.80967" cy="234.91711" r="3"/><circle id="Oval-4-2" data-name="Oval-4" class="cls-2" cx="577.15195" cy="321.61877" r="3"/><circle id="Oval-4-3" data-name="Oval-4" class="cls-2" cx="189.93076" cy="362.963" r="3"/></g></g></g></g></g></g></svg>