<?xml version="1.0" encoding="UTF-8"?>
<svg width="154px" height="33px" viewBox="0 0 154 33" version="1.1" xmlns="http://www.w3.org/2000/svg" xmlns:xlink="http://www.w3.org/1999/xlink">
    <!-- Generator: Sketch 51.2 (57519) - http://www.bohemiancoding.com/sketch -->
    <title>logo</title>
    <desc>Created with Sketch.</desc>
    <defs></defs>
    <g id="Regional-landing-pages" stroke="none" stroke-width="1" fill="none" fill-rule="evenodd">
        <g id="NA" transform="translate(-708.000000, -1937.000000)" fill="#1C1C1C" fill-rule="nonzero">
            <path d="M732.46859,1938.21059 L732.46859,1955.86219 C732.490301,1958.79328 731.800963,1960.921 730.400552,1962.24542 C729.000142,1963.56984 726.785573,1964.23204 723.756778,1964.23204 C720.727984,1964.23204 718.513414,1963.56984 717.113004,1962.24542 C715.712594,1960.921 715.023255,1958.79328 715.044967,1955.86219 L715.044967,1937.46154 L709.150245,1937.46154 C708.629162,1937.43983 708.368625,1937.68951 708.368625,1938.21059 L708.368625,1956.1553 C708.43376,1961.01874 709.855861,1964.46543 712.63497,1966.49548 C715.414079,1968.52554 719.115883,1969.50798 723.740494,1969.44284 C728.365105,1969.50798 732.072338,1968.52554 734.862303,1966.49548 C737.652267,1964.46543 739.079796,1961.01874 739.144931,1956.1553 L739.144931,1937.46154 L733.25021,1937.46154 C732.729127,1937.43983 732.46859,1937.68951 732.46859,1938.21059 Z M817.860628,1942.57464 C818.099458,1942.57464 818.284005,1942.53122 818.414276,1942.44437 C818.544546,1942.35752 818.653104,1942.22725 818.739951,1942.05356 L820.433462,1937.81978 C820.520309,1937.58095 820.433463,1937.46154 820.172922,1937.46154 L796.463767,1937.46154 C795.378177,1937.46154 794.596565,1937.63523 794.118906,1937.98262 C793.641246,1938.33001 793.40242,1938.88365 793.40242,1939.64356 L793.40242,1967.03285 C793.40242,1967.66249 793.58154,1968.12929 793.939784,1968.43325 C794.298029,1968.73722 794.900522,1968.8892 795.747282,1968.8892 L817.860628,1968.8892 C818.099458,1968.8892 818.284005,1968.84577 818.414276,1968.75893 C818.544546,1968.67208 818.653104,1968.54181 818.739951,1968.36812 L820.433462,1964.16691 C820.520309,1963.90636 820.433463,1963.7761 820.172922,1963.7761 L799.981059,1963.7761 L799.981059,1958.20705 C799.959348,1957.25173 800.252452,1956.54611 800.860382,1956.09016 C801.468312,1955.63421 802.477895,1955.40624 803.889162,1955.40624 L812.649825,1955.40624 C812.888654,1955.40624 813.073202,1955.36282 813.203472,1955.27597 C813.333743,1955.18913 813.4423,1955.05886 813.529148,1954.88516 L815.157524,1950.84679 C815.244371,1950.58625 815.157525,1950.45598 814.896983,1950.45598 L799.981059,1950.45598 L799.981059,1942.57464 L817.860628,1942.57464 Z M776.109067,1952.31233 C777.390062,1951.63926 778.318227,1950.70567 778.89359,1949.51152 C779.468952,1948.31737 779.756629,1946.96041 779.756629,1945.44058 C779.64807,1942.05354 778.459368,1939.84983 776.190486,1938.82938 C773.921604,1937.80892 771.267377,1937.35298 768.227727,1937.46154 L754.842476,1937.46154 C753.735175,1937.46154 752.942707,1937.63523 752.465047,1937.98262 C751.987388,1938.33001 751.759418,1938.88365 751.781129,1939.64356 L751.781129,1967.03285 C751.781129,1967.66249 751.960249,1968.12929 752.318493,1968.43325 C752.676738,1968.73722 753.279231,1968.8892 754.125991,1968.8892 L770.605156,1968.8892 C773.775077,1968.91091 776.326174,1968.24328 778.258523,1966.88629 C780.190872,1965.52931 781.1896,1963.29845 781.254735,1960.19367 C781.254735,1958.28303 780.836789,1956.61668 780.000886,1955.19455 C779.164982,1953.77243 777.867722,1952.8117 776.109067,1952.31233 Z M758.262066,1942.44437 L768.71624,1942.44437 C770.409759,1942.44437 771.57675,1942.77547 772.217248,1943.43768 C772.857746,1944.09989 773.167134,1945.1149 773.145423,1946.48274 C773.167134,1947.85059 772.857746,1948.87102 772.217248,1949.54409 C771.57675,1950.21715 770.409759,1950.55368 768.71624,1950.55368 L758.262066,1950.55368 L758.262066,1942.44437 Z M769.921238,1963.90637 L758.262066,1963.90637 L758.262066,1958.07678 C758.240354,1957.12146 758.538887,1956.41584 759.157673,1955.95989 C759.776459,1955.50394 760.791469,1955.27597 762.202736,1955.27597 L769.921238,1955.27597 C771.745028,1955.27597 772.998865,1955.63421 773.682787,1956.3507 C774.366708,1957.06719 774.686952,1958.15276 774.643528,1959.60745 C774.686952,1961.04043 774.366708,1962.11515 773.682787,1962.83164 C772.998865,1963.54813 771.745028,1963.90637 769.921238,1963.90637 Z M861.56624,1968.33555 L854.499088,1956.253 C856.301166,1955.84047 857.799257,1954.94488 858.993406,1953.56618 C860.187554,1952.18748 860.806331,1950.04347 860.849754,1947.13409 C860.806331,1943.39967 859.68819,1940.83771 857.4953,1939.44816 C855.302409,1938.0586 852.230237,1937.3964 848.278692,1937.46154 L834.828306,1937.46154 C833.742716,1937.46154 832.961104,1937.63523 832.483444,1937.98262 C832.005785,1938.33001 831.766959,1938.88365 831.766959,1939.64356 L831.766959,1968.14014 C831.766959,1968.63951 832.027496,1968.8892 832.548579,1968.8892 L838.280463,1968.8892 L838.280463,1959.70516 C838.258751,1958.74984 838.557284,1958.04421 839.17607,1957.58827 C839.794856,1957.13232 840.809867,1956.90435 842.221133,1956.90435 L848.050719,1956.90435 L854.401385,1968.36812 C854.488233,1968.54181 854.59679,1968.67208 854.727061,1968.75893 C854.857331,1968.84577 855.041879,1968.8892 855.280709,1968.8892 L861.273132,1968.8892 C861.468538,1968.86748 861.582523,1968.79692 861.615091,1968.67751 C861.647659,1968.55809 861.631375,1968.44411 861.56624,1968.33555 Z M849.255717,1952.01922 L838.280463,1952.01922 L838.280463,1942.50951 L849.255717,1942.50951 C851.253202,1942.50951 852.593885,1942.90574 853.277806,1943.69822 C853.961727,1944.4907 854.281971,1945.6794 854.238548,1947.26436 C854.281971,1948.87104 853.961727,1950.06517 853.277806,1950.84679 C852.593885,1951.62841 851.253202,1952.01922 849.255717,1952.01922 Z" id="logo"></path>
        </g>
    </g>
</svg>