<?xml version="1.0" encoding="UTF-8"?>
<svg width="45px" height="46px" viewBox="0 0 45 46" version="1.1" xmlns="http://www.w3.org/2000/svg" xmlns:xlink="http://www.w3.org/1999/xlink">
    <!-- Generator: Sketch 51.2 (57519) - http://www.bohemiancoding.com/sketch -->
    <title>Shape</title>
    <desc>Created with Sketch.</desc>
    <defs></defs>
    <g id="Regional-landing-pages" stroke="none" stroke-width="1" fill="none" fill-rule="evenodd">
        <g id="NA" transform="translate(-654.000000, -2598.000000)" fill="#FFFFFF" fill-rule="nonzero">
            <g id="Group-15" transform="translate(0.000000, 2296.000000)">
                <path d="M698.553685,311.950381 C698.275795,312.201283 697.909423,312.331182 697.535549,312.311366 C697.161676,312.291549 696.811088,312.123649 696.561278,311.844777 L692.590546,307.402344 C690.985356,327.995238 670.244615,343.307904 655.755665,347.475765 C655.630417,347.515046 655.499697,347.53406 655.368448,347.532087 C654.669048,347.52862 654.078206,347.012311 653.981026,346.319687 C653.883847,345.627062 654.309791,344.968092 654.981231,344.772287 C668.569022,340.886039 687.979145,326.678701 689.732182,307.676916 L685.986739,311.844777 C685.649694,312.222066 685.136971,312.390884 684.641707,312.287639 C684.146442,312.184394 683.74388,311.824771 683.585661,311.344238 C683.427441,310.863704 683.537602,310.335264 683.874647,309.957975 L690.210922,302.917669 C690.487043,302.630237 690.868396,302.467773 691.266968,302.467773 C691.665541,302.467773 692.046893,302.630237 692.323014,302.917669 L698.659289,309.957975 C698.910192,310.235864 699.04009,310.602236 699.020274,310.97611 C699.000457,311.349984 698.832557,311.700572 698.553685,311.950381 Z" id="Shape"></path>
            </g>
        </g>
    </g>
</svg>