<svg xmlns="http://www.w3.org/2000/svg" width="14" height="13"><path fill="#FFF" fill-rule="nonzero" d="M7.085003.270394c-.358692.36156-.358692.947009 0 1.308569l3.787763 3.811261H.919434C.411758 5.390224 0 5.804536 0 6.315361s.411758.925138.919434.925138h9.957097l-3.874678 3.898715c-.358693.360917-.358693.947009 0 1.308569.359331.360918.941171.360918 1.299863 0l5.271048-5.303747c.027494-.027664.051791-.056615.074808-.086209.225062-.168552.371476-.437469.371476-.741781 0-.29466-.137467-.556495-.351016-.725689-.004476-.005147-.008951-.010293-.013427-.014797L8.383557.271813C8.026141-.09039 7.443663-.09039 7.08497.270526l.000033-.000132z"/></svg>
