<?xml version="1.0" encoding="UTF-8"?>
<svg width="82px" height="99px" viewBox="0 0 82 99" version="1.1" xmlns="http://www.w3.org/2000/svg" xmlns:xlink="http://www.w3.org/1999/xlink">
    <!-- Generator: Sketch 51.2 (57519) - http://www.bohemiancoding.com/sketch -->
    <title>awward-best-sms</title>
    <desc>Created with Sketch.</desc>
    <defs>
        <polygon id="path-1" points="0 0.691 81.3196667 0.691 81.3196667 82.011 0 82.011"></polygon>
        <polygon id="path-3" points="1.07033333 0.366833333 29.7936667 0.366833333 29.7936667 15 1.07033333 15"></polygon>
    </defs>
    <g id="Regional-landing-pages" stroke="none" stroke-width="1" fill="none" fill-rule="evenodd">
        <g id="NA" transform="translate(-250.000000, -3517.000000)">
            <g id="awward-best-sms" style="mix-blend-mode: multiply;" transform="translate(250.000000, 3517.000000)">
                <g id="Group-3" transform="translate(0.000000, 15.104000)">
                    <mask id="mask-2" fill="white">
                        <use xlink:href="#path-1"></use>
                    </mask>
                    <g id="Clip-2"></g>
                    <path d="M40.6596667,10.9026667 C23.8713333,10.9026667 10.2113333,24.561 10.2113333,41.351 C10.2113333,58.1393333 23.8713333,71.7976667 40.6596667,71.7976667 C57.4496667,71.7976667 71.108,58.1393333 71.108,41.351 C71.108,24.561 57.4496667,10.9026667 40.6596667,10.9026667 M40.6596667,82.011 C18.2396667,82.011 -0.000333333333,63.7693333 -0.000333333333,41.351 C-0.000333333333,18.931 18.2396667,0.691 40.6596667,0.691 C63.0796667,0.691 81.3196667,18.931 81.3196667,41.351 C81.3196667,63.7693333 63.0796667,82.011 40.6596667,82.011" id="Fill-1" fill="#464648" mask="url(#mask-2)"></path>
                </g>
                <g id="Group-6" transform="translate(25.000000, 83.437333)">
                    <mask id="mask-4" fill="white">
                        <use xlink:href="#path-3"></use>
                    </mask>
                    <g id="Clip-5"></g>
                    <path d="M15.432,15.0001667 C10.5186667,15.0001667 5.687,14.1485 1.07033333,12.4668333 L5.47533333,0.366833333 C11.877,2.6985 18.9886667,2.6985 25.3903333,0.366833333 L29.7936667,12.4668333 C25.177,14.1485 20.3453333,15.0001667 15.432,15.0001667" id="Fill-4" fill="#B6B7B9" mask="url(#mask-4)"></path>
                </g>
                <path d="M53.5533333,10.0496667 C53.5933333,11.883 53.2833333,14.4163333 51.9366667,15.9813333 C51.3366667,16.6746667 50.56,17.153 49.5966667,17.423 C50.5066667,15.1446667 51.2483333,12.4363333 51.72,9.888 L53.5533333,10.0496667 Z" id="Fill-7" fill="#FEFEFE"></path>
                <path d="M45.9033333,9.38933333 C46.0783333,9.92766667 46.18,10.4943333 46.18,11.0943333 C46.18,12.9276667 45.2766667,14.546 43.9016667,15.5493333 L42.6616667,11.741 L45.9033333,9.38933333 Z" id="Fill-9" fill="#FEFEFE"></path>
                <polygon id="Fill-11" fill="#B6B7B9" points="45.9033333 9.38933333 42.6616667 11.741 43.9016667 15.5493333 43.895 15.5493333 40.66 13.1976667 37.4183333 15.5493333 38.6583333 11.741 35.4166667 9.38933333 39.42 9.38933333 40.66 5.57433333 41.9 9.38933333"></polygon>
                <polygon id="Fill-13" fill="#FEFEFE" points="43.9016667 15.5495 43.9016667 15.5561667 43.895 15.5495"></polygon>
                <path d="M40.6596667,13.1973333 L43.8946667,15.549 C42.9846667,16.2156667 41.873,16.6073333 40.6596667,16.6073333 C39.4463333,16.6073333 38.3346667,16.2156667 37.418,15.549 L40.6596667,13.1973333 Z" id="Fill-15" fill="#FEFEFE"></path>
                <path d="M40.6596667,5.57466667 L39.4196667,9.38966667 L35.4163333,9.38966667 C36.1313333,7.17133333 38.2063333,5.57466667 40.6596667,5.57466667" id="Fill-17" fill="#FEFEFE"></path>
                <path d="M31.7225,17.4233333 C30.8125,15.145 30.0708333,12.4366667 29.5991667,9.88833333 L27.7658333,10.05 C27.7258333,11.8833333 28.0358333,14.4166667 29.3841667,15.9816667 C29.9841667,16.675 30.7591667,17.1533333 31.7225,17.4233333 M51.9358333,15.9816667 C53.2841667,14.4166667 53.5941667,11.8833333 53.5541667,10.05 L51.7191667,9.88833333 C51.2491667,12.4366667 50.5075,15.145 49.5975,17.4233333 C50.5608333,17.1533333 51.3358333,16.675 51.9358333,15.9816667 M57.1058333,8.095 C57.1991667,8.755 57.9741667,14.6533333 54.7391667,18.4 C53.0341667,20.3816667 50.5941667,21.3866667 47.5008333,21.3866667 L47.5008333,21.3733333 C47.4741667,21.4066667 47.4541667,21.44 47.4258333,21.4666667 C46.8875,22.1483333 45.0541667,23.7783333 43.0525,24.5616667 C43.5641667,24.9183333 43.8808333,25.39 43.8808333,25.9083333 C43.8808333,26.4883333 43.4908333,27.015 42.8708333,27.3783333 C42.9441667,27.48 43.0458333,27.54 43.2075,27.525 C43.2075,27.525 47.7158333,28.0583333 47.2508333,31.18 C47.2441667,31.2333333 47.2308333,31.28 47.2241667,31.3333333 L47.2841667,31.295 C47.2841667,31.295 48.4841667,31.3333333 48.7808333,31.57 C49.1391667,31.86 49.4425,33.8283333 48.7808333,34.1316667 C46.4758333,35.1766667 40.6591667,35.1566667 40.6591667,35.1566667 C40.6591667,35.1566667 34.8358333,35.1766667 32.5375,34.1316667 C31.8775,33.8283333 32.1808333,31.86 32.5375,31.57 C32.8341667,31.3333333 34.0341667,31.295 34.0341667,31.295 L34.0958333,31.3333333 C34.0875,31.28 34.0741667,31.2333333 34.0675,31.18 C33.6025,28.0583333 38.1125,27.525 38.1125,27.525 C38.2741667,27.54 38.3741667,27.48 38.4491667,27.3783333 C37.8291667,27.015 37.4375,26.4883333 37.4375,25.9083333 C37.4375,25.39 37.7541667,24.9183333 38.2675,24.5616667 C36.2641667,23.7783333 34.4325,22.1483333 33.8925,21.4666667 C33.8658333,21.44 33.8458333,21.4066667 33.8191667,21.3733333 L33.8191667,21.3866667 C30.7258333,21.3866667 28.2841667,20.3816667 26.5741667,18.4 C23.3441667,14.6533333 24.1191667,8.755 24.2141667,8.095 C24.3425,7.225 25.0508333,6.565 25.9258333,6.49166667 L29.1208333,6.20833333 C29.1075,5.97833333 29.0941667,5.75666667 29.0808333,5.54 C28.7425,5.5 28.3658333,5.41833333 28.2175,5.27833333 C27.8391667,4.915 27.4691667,2.40666667 28.1375,2.00166667 C28.7508333,1.63166667 29.6191667,1.32833333 30.5641667,1.09166667 C31.8308333,0.646666667 34.1291667,0.378333333 36.2108333,0.223333333 C36.3458333,0.21 36.4275,0.201666667 36.4275,0.201666667 C38.6975,0.04 40.6591667,0 40.6591667,0 C40.6591667,0 41.1525,0.0133333333 41.9258333,0.04 C42.7025,0.0683333333 43.7525,0.121666667 44.8925,0.201666667 C44.8925,0.201666667 44.9725,0.21 45.1075,0.223333333 C47.1908333,0.378333333 49.4891667,0.646666667 50.7558333,1.09166667 C51.6991667,1.32833333 52.5691667,1.63166667 53.1825,2.00166667 C53.8491667,2.40666667 53.4791667,4.915 53.1008333,5.27833333 C52.9541667,5.41833333 52.5758333,5.5 52.2325,5.54 C52.2258333,5.75666667 52.2125,5.97833333 52.1991667,6.20833333 L55.4008333,6.49166667 C56.2691667,6.565 56.9775,7.225 57.1058333,8.095 M45.9041667,9.38833333 C45.1891667,7.17166667 43.1125,5.575 40.6591667,5.575 C38.2058333,5.575 36.1308333,7.17166667 35.4158333,9.38833333 C35.2408333,9.92833333 35.1391667,10.495 35.1391667,11.095 C35.1391667,12.9283333 36.0425,14.545 37.4175,15.55 C38.3341667,16.2166667 39.4458333,16.6066667 40.6591667,16.6066667 C41.8725,16.6066667 42.9858333,16.2166667 43.8941667,15.55 L43.9025,15.5566667 L43.9025,15.55 C45.2758333,14.545 46.1791667,12.9283333 46.1791667,11.095 C46.1791667,10.495 46.0791667,9.92833333 45.9041667,9.38833333" id="Fill-19" fill="#B6B7B9"></path>
                <path d="M38.658,11.7416667 L37.418,15.55 C36.043,14.545 35.1396667,12.9283333 35.1396667,11.095 C35.1396667,10.495 35.2413333,9.92833333 35.4163333,9.39 L38.658,11.7416667 Z" id="Fill-21" fill="#FEFEFE"></path>
                <path d="M29.5995,9.888 C30.0711667,12.4363333 30.8128333,15.1446667 31.7228333,17.423 C30.7578333,17.153 29.9845,16.6746667 29.3845,15.9813333 C28.0361667,14.4163333 27.7261667,11.883 27.7661667,10.0496667 L29.5995,9.888 Z" id="Fill-23" fill="#FEFEFE"></path>
                <polygon id="Fill-25" fill="#B6B7B9" points="27.0148333 48.7753333 25.7448333 48.7753333 24.3115 44.047 22.8781667 48.7753333 21.6081667 48.7753333 19.5281667 40.982 21.1165 40.982 22.3198333 45.8953333 23.7415 40.982 24.8798333 40.982 26.3031667 45.8953333 27.5181667 40.982 29.1048333 40.982"></polygon>
                <polygon id="Fill-27" fill="#B6B7B9" points="30.08 48.7756667 31.6016667 48.7756667 31.6016667 40.9823333 30.08 40.9823333"></polygon>
                <polygon id="Fill-29" fill="#B6B7B9" points="38.026 48.7753333 34.9393333 43.992 34.9393333 48.7753333 33.4176667 48.7753333 33.4176667 40.982 34.776 40.982 37.861 45.7553333 37.861 40.982 39.3826667 40.982 39.3826667 48.7753333"></polygon>
                <polygon id="Fill-30" fill="#B6B7B9" points="45.8085 48.7753333 42.7218333 43.992 42.7218333 48.7753333 41.2001667 48.7753333 41.2001667 40.982 42.5585 40.982 45.6435 45.7553333 45.6435 40.982 47.1651667 40.982 47.1651667 48.7753333"></polygon>
                <polygon id="Fill-31" fill="#B6B7B9" points="48.9831667 48.7753333 48.9831667 40.982 54.1165 40.982 54.1165 42.3403333 50.5048333 42.3403333 50.5048333 44.167 53.5798333 44.167 53.5798333 45.5236667 50.5048333 45.5236667 50.5048333 47.4186667 54.1165 47.4186667 54.1165 48.7753333"></polygon>
                <path d="M58.5606667,42.3398333 L57.1273333,42.3398333 L57.1273333,44.3965 L58.5606667,44.3965 C59.229,44.3965 59.6656667,43.9698333 59.6656667,43.3681667 C59.6656667,42.7665 59.229,42.3398333 58.5606667,42.3398333 Z M59.7423333,48.7748333 L58.2206667,45.6681667 L57.1273333,45.6681667 L57.1273333,48.7748333 L55.6056667,48.7748333 L55.6056667,40.9831667 L58.659,40.9831667 C60.2456667,40.9831667 61.1873333,42.0648333 61.1873333,43.3681667 C61.1873333,44.4631667 60.5206667,45.1415 59.764,45.4148333 L61.504,48.7748333 L59.7423333,48.7748333 Z" id="Fill-32" fill="#B6B7B9"></path>
                <path d="M26.1981667,57.5575 L26.9965,57.5575 C27.4248333,57.5575 27.6531667,57.3291667 27.6531667,56.9508333 C27.6531667,56.5808333 27.4248333,56.3458333 26.9965,56.3458333 L26.1981667,56.3458333 C26.1698333,56.3458333 26.1565,56.3591667 26.1565,56.3875 L26.1565,57.5158333 C26.1565,57.5441667 26.1698333,57.5575 26.1981667,57.5575 Z M26.9398333,55.5391667 C27.3398333,55.5391667 27.5748333,55.3241667 27.5748333,54.9691667 C27.5748333,54.6125 27.3398333,54.4058333 26.9398333,54.4058333 L26.1981667,54.4058333 C26.1698333,54.4058333 26.1565,54.4191667 26.1565,54.4475 L26.1565,55.4958333 C26.1565,55.5241667 26.1698333,55.5391667 26.1981667,55.5391667 L26.9398333,55.5391667 Z M25.1065,53.6275 C25.1065,53.5841667 25.1365,53.5558333 25.1781667,53.5558333 L27.0681667,53.5558333 C28.1231667,53.5558333 28.6165,54.0775 28.6165,54.8475 C28.6165,55.3741667 28.3731667,55.7025 28.0531667,55.8808333 L28.0531667,55.8958333 C28.3731667,56.0175 28.7015,56.4158333 28.7015,56.9941667 C28.7015,57.9491667 28.0665,58.4058333 27.0181667,58.4058333 L25.1781667,58.4058333 C25.1365,58.4058333 25.1065,58.3775 25.1065,58.3358333 L25.1065,53.6275 Z" id="Fill-33" fill="#464648"></path>
                <path d="M29.4545,53.6276667 C29.4545,53.586 29.4828333,53.556 29.5261667,53.556 L32.6361667,53.556 C32.6795,53.556 32.7078333,53.586 32.7078333,53.6276667 L32.7078333,54.391 C32.7078333,54.4343333 32.6795,54.4626667 32.6361667,54.4626667 L30.5461667,54.4626667 C30.5178333,54.4626667 30.5028333,54.476 30.5028333,54.5043333 L30.5028333,55.4676667 C30.5028333,55.496 30.5178333,55.511 30.5461667,55.511 L32.2861667,55.511 C32.3295,55.511 32.3578333,55.5393333 32.3578333,55.581 L32.3578333,56.3376667 C32.3578333,56.381 32.3295,56.4093333 32.2861667,56.4093333 L30.5461667,56.4093333 C30.5178333,56.4093333 30.5028333,56.4226667 30.5028333,56.4526667 L30.5028333,57.4576667 C30.5028333,57.486 30.5178333,57.501 30.5461667,57.501 L32.6361667,57.501 C32.6795,57.501 32.7078333,57.5293333 32.7078333,57.5726667 L32.7078333,58.336 C32.7078333,58.3776667 32.6795,58.406 32.6361667,58.406 L29.5261667,58.406 C29.4828333,58.406 29.4545,58.3776667 29.4545,58.336 L29.4545,53.6276667 Z" id="Fill-34" fill="#464648"></path>
                <path d="M33.2466667,57.8216667 C33.2183333,57.7933333 33.205,57.7433333 33.24,57.7 L33.7816667,57.08 C33.81,57.0433333 33.8533333,57.0433333 33.8883333,57.0733333 C34.21,57.3283333 34.645,57.5716667 35.1583333,57.5716667 C35.665,57.5716667 35.95,57.3366667 35.95,56.995 C35.95,56.7083333 35.7783333,56.53 35.2,56.4516667 L34.945,56.4166667 C33.96,56.2816667 33.4116667,55.8166667 33.4116667,54.9616667 C33.4116667,54.07 34.0816667,53.4766667 35.13,53.4766667 C35.7716667,53.4766667 36.3716667,53.67 36.7766667,53.985 C36.82,54.0133333 36.8283333,54.0416667 36.7916667,54.0916667 L36.3566667,54.74 C36.3283333,54.7766667 36.2916667,54.7833333 36.2566667,54.7616667 C35.8866667,54.52 35.53,54.39 35.13,54.39 C34.7016667,54.39 34.48,54.6116667 34.48,54.9183333 C34.48,55.1966667 34.68,55.375 35.2366667,55.4533333 L35.4933333,55.4883333 C36.4916667,55.625 37.02,56.0816667 37.02,56.9583333 C37.02,57.835 36.3716667,58.485 35.115,58.485 C34.36,58.485 33.625,58.185 33.2466667,57.8216667" id="Fill-35" fill="#464648"></path>
                <path d="M38.7083333,58.4063333 C38.6666667,58.4063333 38.6366667,58.378 38.6366667,58.3363333 L38.6366667,54.533 C38.6366667,54.5046667 38.6233333,54.4896667 38.5933333,54.4896667 L37.3666667,54.4896667 C37.325,54.4896667 37.2966667,54.4613333 37.2966667,54.4196667 L37.2966667,53.628 C37.2966667,53.5846667 37.325,53.5563333 37.3666667,53.5563333 L40.955,53.5563333 C40.9983333,53.5563333 41.0266667,53.5846667 41.0266667,53.628 L41.0266667,54.4196667 C41.0266667,54.4613333 40.9983333,54.4896667 40.955,54.4896667 L39.7283333,54.4896667 C39.7,54.4896667 39.685,54.5046667 39.685,54.533 L39.685,58.3363333 C39.685,58.378 39.6566667,58.4063333 39.615,58.4063333 L38.7083333,58.4063333 Z" id="Fill-36" fill="#464648"></path>
                <path d="M42.977,57.8216667 C42.9486667,57.7933333 42.9353333,57.7433333 42.9703333,57.7 L43.512,57.08 C43.5403333,57.0433333 43.5836667,57.0433333 43.6186667,57.0733333 C43.9403333,57.3283333 44.3753333,57.5716667 44.8886667,57.5716667 C45.3953333,57.5716667 45.6803333,57.3366667 45.6803333,56.995 C45.6803333,56.7083333 45.5086667,56.53 44.9303333,56.4516667 L44.6753333,56.4166667 C43.6903333,56.2816667 43.142,55.8166667 43.142,54.9616667 C43.142,54.07 43.812,53.4766667 44.8603333,53.4766667 C45.502,53.4766667 46.102,53.67 46.507,53.985 C46.5503333,54.0133333 46.5586667,54.0416667 46.522,54.0916667 L46.087,54.74 C46.0586667,54.7766667 46.022,54.7833333 45.987,54.7616667 C45.617,54.52 45.2603333,54.39 44.8603333,54.39 C44.432,54.39 44.2103333,54.6116667 44.2103333,54.9183333 C44.2103333,55.1966667 44.4103333,55.375 44.967,55.4533333 L45.2236667,55.4883333 C46.222,55.625 46.7503333,56.0816667 46.7503333,56.9583333 C46.7503333,57.835 46.102,58.485 44.8453333,58.485 C44.0903333,58.485 43.3553333,58.185 42.977,57.8216667" id="Fill-37" fill="#464648"></path>
                <path d="M47.4533333,53.6276667 C47.4533333,53.586 47.4816667,53.556 47.525,53.556 L48.3733333,53.556 C48.43,53.556 48.4666667,53.5776667 48.4866667,53.6276667 L49.715,56.3943333 L49.7433333,56.3943333 L50.9483333,53.6276667 C50.97,53.5776667 51.0066667,53.556 51.0616667,53.556 L51.8966667,53.556 C51.94,53.556 51.9683333,53.586 51.9683333,53.6276667 L51.9683333,58.336 C51.9683333,58.3776667 51.94,58.406 51.8966667,58.406 L51.0916667,58.406 C51.0483333,58.406 51.02,58.3776667 51.02,58.336 L51.02,55.6026667 L50.9916667,55.6026667 L50.0933333,57.651 C50.065,57.7143333 50.0216667,57.7426667 49.9566667,57.7426667 L49.465,57.7426667 C49.4,57.7426667 49.3583333,57.7143333 49.33,57.651 L48.43,55.6026667 L48.4016667,55.6026667 L48.4016667,58.336 C48.4016667,58.3776667 48.3733333,58.406 48.3316667,58.406 L47.525,58.406 C47.4816667,58.406 47.4533333,58.3776667 47.4533333,58.336 L47.4533333,53.6276667 Z" id="Fill-38" fill="#464648"></path>
                <path d="M52.6571667,57.8216667 C52.6288333,57.7933333 52.6155,57.7433333 52.6505,57.7 L53.1921667,57.08 C53.2205,57.0433333 53.2638333,57.0433333 53.2988333,57.0733333 C53.6205,57.3283333 54.0555,57.5716667 54.5688333,57.5716667 C55.0755,57.5716667 55.3605,57.3366667 55.3605,56.995 C55.3605,56.7083333 55.1888333,56.53 54.6105,56.4516667 L54.3555,56.4166667 C53.3705,56.2816667 52.8221667,55.8166667 52.8221667,54.9616667 C52.8221667,54.07 53.4921667,53.4766667 54.5405,53.4766667 C55.1821667,53.4766667 55.7821667,53.67 56.1871667,53.985 C56.2305,54.0133333 56.2388333,54.0416667 56.2021667,54.0916667 L55.7671667,54.74 C55.7388333,54.7766667 55.7021667,54.7833333 55.6671667,54.7616667 C55.2971667,54.52 54.9405,54.39 54.5405,54.39 C54.1121667,54.39 53.8905,54.6116667 53.8905,54.9183333 C53.8905,55.1966667 54.0905,55.375 54.6471667,55.4533333 L54.9038333,55.4883333 C55.9021667,55.625 56.4305,56.0816667 56.4305,56.9583333 C56.4305,57.835 55.7821667,58.485 54.5255,58.485 C53.7705,58.485 53.0355,58.185 52.6571667,57.8216667" id="Fill-39" fill="#464648"></path>
                <path d="M25.1813333,66.3755 C25.153,66.3471667 25.1396667,66.2971667 25.1746667,66.2538333 L25.7163333,65.6338333 C25.7446667,65.5971667 25.788,65.5971667 25.823,65.6271667 C26.1446667,65.8821667 26.5796667,66.1255 27.093,66.1255 C27.5996667,66.1255 27.8846667,65.8905 27.8846667,65.5488333 C27.8846667,65.2621667 27.713,65.0838333 27.1346667,65.0055 L26.8796667,64.9705 C25.8946667,64.8355 25.3463333,64.3705 25.3463333,63.5155 C25.3463333,62.6238333 26.0163333,62.0305 27.0646667,62.0305 C27.7063333,62.0305 28.3063333,62.2238333 28.7113333,62.5388333 C28.7546667,62.5671667 28.763,62.5955 28.7263333,62.6455 L28.2913333,63.2938333 C28.263,63.3305 28.2263333,63.3371667 28.1913333,63.3155 C27.8213333,63.0738333 27.4646667,62.9438333 27.0646667,62.9438333 C26.6363333,62.9438333 26.4146667,63.1655 26.4146667,63.4721667 C26.4146667,63.7505 26.6146667,63.9288333 27.1713333,64.0071667 L27.428,64.0421667 C28.4263333,64.1788333 28.9546667,64.6355 28.9546667,65.5121667 C28.9546667,66.3888333 28.3063333,67.0388333 27.0496667,67.0388333 C26.2946667,67.0388333 25.5596667,66.7388333 25.1813333,66.3755" id="Fill-40" fill="#464648"></path>
                <path d="M29.6576667,62.1815 C29.6576667,62.1398333 29.686,62.1098333 29.7293333,62.1098333 L32.8393333,62.1098333 C32.8826667,62.1098333 32.911,62.1398333 32.911,62.1815 L32.911,62.9448333 C32.911,62.9881667 32.8826667,63.0165 32.8393333,63.0165 L30.7493333,63.0165 C30.721,63.0165 30.706,63.0298333 30.706,63.0581667 L30.706,64.0215 C30.706,64.0498333 30.721,64.0648333 30.7493333,64.0648333 L32.4893333,64.0648333 C32.5326667,64.0648333 32.561,64.0931667 32.561,64.1348333 L32.561,64.8915 C32.561,64.9348333 32.5326667,64.9631667 32.4893333,64.9631667 L30.7493333,64.9631667 C30.721,64.9631667 30.706,64.9765 30.706,65.0065 L30.706,66.0115 C30.706,66.0398333 30.721,66.0548333 30.7493333,66.0548333 L32.8393333,66.0548333 C32.8826667,66.0548333 32.911,66.0831667 32.911,66.1265 L32.911,66.8898333 C32.911,66.9315 32.8826667,66.9598333 32.8393333,66.9598333 L29.7293333,66.9598333 C29.686,66.9598333 29.6576667,66.9315 29.6576667,66.8898333 L29.6576667,62.1815 Z" id="Fill-41" fill="#464648"></path>
                <path d="M33.5566667,64.5351667 C33.5566667,63.7868333 33.585,63.5368333 33.6933333,63.2235 C33.9483333,62.4318333 34.57,62.0318333 35.4183333,62.0318333 C36.2383333,62.0318333 36.8383333,62.4318333 37.1083333,63.1085 C37.13,63.1451667 37.1166667,63.1801667 37.0733333,63.1951667 L36.295,63.5435 C36.2533333,63.5651667 36.2166667,63.5518333 36.1966667,63.5085 C36.06,63.1951667 35.8316667,62.9585 35.425,62.9585 C35.0466667,62.9585 34.805,63.1585 34.6983333,63.4935 C34.6416667,63.6718333 34.6183333,63.8435 34.6183333,64.5351667 C34.6183333,65.2268333 34.6416667,65.3985 34.6983333,65.5768333 C34.805,65.9118333 35.0466667,66.1118333 35.425,66.1118333 C35.8316667,66.1118333 36.06,65.8768333 36.1966667,65.5635 C36.2166667,65.5201667 36.2533333,65.5051667 36.295,65.5268333 L37.0733333,65.8768333 C37.1166667,65.8901667 37.13,65.9251667 37.1083333,65.9618333 C36.8383333,66.6401667 36.2383333,67.0385 35.4183333,67.0385 C34.57,67.0385 33.9483333,66.6401667 33.6933333,65.8468333 C33.585,65.5335 33.5566667,65.2835 33.5566667,64.5351667" id="Fill-42" fill="#464648"></path>
                <path d="M37.7626667,65.1771667 L37.7626667,62.1821667 C37.7626667,62.1388333 37.791,62.1105 37.8343333,62.1105 L38.7393333,62.1105 C38.7826667,62.1105 38.811,62.1388333 38.811,62.1821667 L38.811,65.2055 C38.811,65.7838333 39.1326667,66.1121667 39.6243333,66.1121667 C40.1093333,66.1121667 40.431,65.7838333 40.431,65.2055 L40.431,62.1821667 C40.431,62.1388333 40.4593333,62.1105 40.501,62.1105 L41.4076667,62.1105 C41.451,62.1105 41.4776667,62.1388333 41.4776667,62.1821667 L41.4776667,65.1771667 C41.4776667,66.3821667 40.7076667,67.0388333 39.6243333,67.0388333 C38.5326667,67.0388333 37.7626667,66.3821667 37.7626667,65.1771667" id="Fill-43" fill="#464648"></path>
                <path d="M44.9853333,63.6151667 C44.9853333,63.2518333 44.7286667,63.0151667 44.3286667,63.0151667 L43.4736667,63.0151667 C43.4453333,63.0151667 43.4303333,63.0301667 43.4303333,63.0585 L43.4303333,64.1785 C43.4303333,64.2068333 43.4453333,64.2218333 43.4736667,64.2218333 L44.3286667,64.2218333 C44.7286667,64.2218333 44.9853333,63.9868333 44.9853333,63.6151667 Z M45.0636667,66.9601667 C44.9986667,66.9601667 44.977,66.9385 44.957,66.8885 L44.122,65.1135 L43.4736667,65.1135 C43.4453333,65.1135 43.4303333,65.1268333 43.4303333,65.1551667 L43.4303333,66.8885 C43.4303333,66.9318333 43.402,66.9601667 43.3586667,66.9601667 L42.4536667,66.9601667 C42.4103333,66.9601667 42.382,66.9318333 42.382,66.8885 L42.382,62.1818333 C42.382,62.1385 42.4103333,62.1101667 42.4536667,62.1101667 L44.3853333,62.1101667 C45.377,62.1101667 46.0336667,62.7301667 46.0336667,63.6151667 C46.0336667,64.2351667 45.7053333,64.7285 45.1703333,64.9635 L46.127,66.8751667 C46.1486667,66.9168333 46.127,66.9601667 46.0753333,66.9601667 L45.0636667,66.9601667 Z" id="Fill-44" fill="#464648"></path>
                <path d="M46.8295,62.1815 C46.8295,62.1398333 46.8578333,62.1098333 46.9011667,62.1098333 L47.8061667,62.1098333 C47.8495,62.1098333 47.8778333,62.1398333 47.8778333,62.1815 L47.8778333,66.8898333 C47.8778333,66.9315 47.8495,66.9598333 47.8061667,66.9598333 L46.9011667,66.9598333 C46.8578333,66.9598333 46.8295,66.9315 46.8295,66.8898333 L46.8295,62.1815 Z" id="Fill-45" fill="#464648"></path>
                <path d="M49.8746667,66.9603333 C49.833,66.9603333 49.803,66.932 49.803,66.8903333 L49.803,63.087 C49.803,63.0586667 49.7896667,63.0436667 49.7596667,63.0436667 L48.533,63.0436667 C48.4913333,63.0436667 48.463,63.0153333 48.463,62.9736667 L48.463,62.182 C48.463,62.1386667 48.4913333,62.1103333 48.533,62.1103333 L52.1213333,62.1103333 C52.1646667,62.1103333 52.193,62.1386667 52.193,62.182 L52.193,62.9736667 C52.193,63.0153333 52.1646667,63.0436667 52.1213333,63.0436667 L50.8946667,63.0436667 C50.8663333,63.0436667 50.8513333,63.0586667 50.8513333,63.087 L50.8513333,66.8903333 C50.8513333,66.932 50.823,66.9603333 50.7813333,66.9603333 L49.8746667,66.9603333 Z" id="Fill-46" fill="#464648"></path>
                <path d="M53.8806667,66.9603333 C53.839,66.9603333 53.809,66.932 53.809,66.8903333 L53.809,65.027 L52.3756667,62.182 C52.3606667,62.1453333 52.3756667,62.1103333 52.4256667,62.1103333 L53.3523333,62.1103333 C53.4023333,62.1103333 53.439,62.132 53.459,62.182 L54.3373333,63.9503333 L54.359,63.9503333 L55.2356667,62.182 C55.2573333,62.132 55.2923333,62.1103333 55.3423333,62.1103333 L56.2406667,62.1103333 C56.2906667,62.1103333 56.3123333,62.1453333 56.2906667,62.182 L54.8573333,65.027 L54.8573333,66.8903333 C54.8573333,66.932 54.829,66.9603333 54.7856667,66.9603333 L53.8806667,66.9603333 Z" id="Fill-47" fill="#464648"></path>
                <path d="M28.5761667,72.2263333 C28.5761667,71.8346667 28.3128333,71.5696667 27.8695,71.5696667 L27.0711667,71.5696667 C27.0428333,71.5696667 27.0295,71.5846667 27.0295,71.613 L27.0295,72.833 C27.0295,72.8613333 27.0428333,72.8746667 27.0711667,72.8746667 L27.8695,72.8746667 C28.3128333,72.8746667 28.5761667,72.618 28.5761667,72.2263333 Z M26.0511667,75.5146667 C26.0095,75.5146667 25.9795,75.4863333 25.9795,75.443 L25.9795,70.7363333 C25.9795,70.693 26.0095,70.663 26.0511667,70.663 L27.9345,70.663 C28.9895,70.663 29.6245,71.2996667 29.6245,72.2263333 C29.6245,73.1396667 28.9828333,73.7813333 27.9345,73.7813333 L27.0711667,73.7813333 C27.0428333,73.7813333 27.0295,73.7946667 27.0295,73.823 L27.0295,75.443 C27.0295,75.4863333 26.9995,75.5146667 26.9561667,75.5146667 L26.0511667,75.5146667 Z" id="Fill-48" fill="#464648"></path>
                <path d="M32.8965,72.169 C32.8965,71.8056667 32.6398333,71.569 32.2398333,71.569 L31.3848333,71.569 C31.3565,71.569 31.3415,71.584 31.3415,71.6123333 L31.3415,72.7323333 C31.3415,72.7606667 31.3565,72.7756667 31.3848333,72.7756667 L32.2398333,72.7756667 C32.6398333,72.7756667 32.8965,72.5406667 32.8965,72.169 Z M32.9748333,75.514 C32.9098333,75.514 32.8881667,75.4923333 32.8681667,75.4423333 L32.0331667,73.6673333 L31.3848333,73.6673333 C31.3565,73.6673333 31.3415,73.6806667 31.3415,73.709 L31.3415,75.4423333 C31.3415,75.4856667 31.3131667,75.514 31.2698333,75.514 L30.3648333,75.514 C30.3215,75.514 30.2931667,75.4856667 30.2931667,75.4423333 L30.2931667,70.7356667 C30.2931667,70.6923333 30.3215,70.664 30.3648333,70.664 L32.2965,70.664 C33.2881667,70.664 33.9448333,71.284 33.9448333,72.169 C33.9448333,72.789 33.6165,73.2823333 33.0815,73.5173333 L34.0381667,75.429 C34.0598333,75.4706667 34.0381667,75.514 33.9865,75.514 L32.9748333,75.514 Z" id="Fill-49" fill="#464648"></path>
                <path d="M37.252,74.1301667 C37.3086667,73.9585 37.3303333,73.7235 37.3303333,73.0885 C37.3303333,72.4535 37.3086667,72.2185 37.252,72.0485 C37.1453333,71.7118333 36.8886667,71.5135 36.4886667,71.5135 C36.0886667,71.5135 35.832,71.7118333 35.7253333,72.0485 C35.6686667,72.2185 35.647,72.4535 35.647,73.0885 C35.647,73.7235 35.6686667,73.9585 35.7253333,74.1301667 C35.832,74.4651667 36.0886667,74.6651667 36.4886667,74.6651667 C36.8886667,74.6651667 37.1453333,74.4651667 37.252,74.1301667 M34.7203333,74.4151667 C34.612,74.0801667 34.5836667,73.8101667 34.5836667,73.0885 C34.5836667,72.3685 34.612,72.0968333 34.7203333,71.7618333 C34.9686667,70.9785 35.6403333,70.5851667 36.4886667,70.5851667 C37.337,70.5851667 38.0086667,70.9785 38.257,71.7618333 C38.3653333,72.0968333 38.3936667,72.3685 38.3936667,73.0885 C38.3936667,73.8101667 38.3653333,74.0801667 38.257,74.4151667 C38.0086667,75.2001667 37.337,75.5918333 36.4886667,75.5918333 C35.6403333,75.5918333 34.9686667,75.2001667 34.7203333,74.4151667" id="Fill-50" fill="#464648"></path>
                <path d="M40.2801667,74.5798333 L40.8301667,74.5798333 C41.3135,74.5798333 41.6068333,74.4365 41.7285,74.0448333 C41.7785,73.9015 41.8068333,73.7165 41.8068333,73.0898333 C41.8068333,72.4615 41.7785,72.2765 41.7285,72.1331667 C41.6068333,71.7415 41.3135,71.5981667 40.8301667,71.5981667 L40.2801667,71.5981667 C40.2518333,71.5981667 40.2385,71.6131667 40.2385,71.6415 L40.2385,74.5381667 C40.2385,74.5665 40.2518333,74.5798333 40.2801667,74.5798333 Z M39.1885,70.7348333 C39.1885,70.6931667 39.2185,70.6631667 39.2601667,70.6631667 L41.0651667,70.6631667 C41.9135,70.6631667 42.5051667,71.0281667 42.7418333,71.7548333 C42.8268333,72.0265 42.8685,72.2965 42.8685,73.0898333 C42.8685,73.8798333 42.8268333,74.1515 42.7418333,74.4231667 C42.5051667,75.1498333 41.9135,75.5148333 41.0651667,75.5148333 L39.2601667,75.5148333 C39.2185,75.5148333 39.1885,75.4865 39.1885,75.4431667 L39.1885,70.7348333 Z" id="Fill-51" fill="#464648"></path>
                <path d="M43.658,73.731 L43.658,70.736 C43.658,70.6926667 43.6863333,70.6643333 43.7296667,70.6643333 L44.6346667,70.6643333 C44.678,70.6643333 44.7063333,70.6926667 44.7063333,70.736 L44.7063333,73.7593333 C44.7063333,74.3376667 45.028,74.666 45.5196667,74.666 C46.0046667,74.666 46.3263333,74.3376667 46.3263333,73.7593333 L46.3263333,70.736 C46.3263333,70.6926667 46.3546667,70.6643333 46.3963333,70.6643333 L47.303,70.6643333 C47.3463333,70.6643333 47.373,70.6926667 47.373,70.736 L47.373,73.731 C47.373,74.936 46.603,75.5926667 45.5196667,75.5926667 C44.428,75.5926667 43.658,74.936 43.658,73.731" id="Fill-52" fill="#464648"></path>
                <path d="M48.1486667,73.089 C48.1486667,72.3406667 48.177,72.0906667 48.2853333,71.7773333 C48.5403333,70.9856667 49.162,70.5856667 50.0103333,70.5856667 C50.8303333,70.5856667 51.4303333,70.9856667 51.7003333,71.6623333 C51.722,71.699 51.7086667,71.734 51.6653333,71.749 L50.887,72.0973333 C50.8453333,72.119 50.8086667,72.1056667 50.7886667,72.0623333 C50.652,71.749 50.4236667,71.5123333 50.017,71.5123333 C49.6386667,71.5123333 49.397,71.7123333 49.2903333,72.0473333 C49.2336667,72.2256667 49.2103333,72.3973333 49.2103333,73.089 C49.2103333,73.7806667 49.2336667,73.9523333 49.2903333,74.1306667 C49.397,74.4656667 49.6386667,74.6656667 50.017,74.6656667 C50.4236667,74.6656667 50.652,74.4306667 50.7886667,74.1173333 C50.8086667,74.074 50.8453333,74.059 50.887,74.0806667 L51.6653333,74.4306667 C51.7086667,74.444 51.722,74.479 51.7003333,74.5156667 C51.4303333,75.194 50.8303333,75.5923333 50.0103333,75.5923333 C49.162,75.5923333 48.5403333,75.194 48.2853333,74.4006667 C48.177,74.0873333 48.1486667,73.8373333 48.1486667,73.089" id="Fill-53" fill="#464648"></path>
                <path d="M53.3606667,75.5141667 C53.319,75.5141667 53.289,75.4858333 53.289,75.4441667 L53.289,71.6408333 C53.289,71.6125 53.2756667,71.5975 53.2456667,71.5975 L52.019,71.5975 C51.9773333,71.5975 51.949,71.5691667 51.949,71.5275 L51.949,70.7358333 C51.949,70.6925 51.9773333,70.6641667 52.019,70.6641667 L55.6073333,70.6641667 C55.6506667,70.6641667 55.679,70.6925 55.679,70.7358333 L55.679,71.5275 C55.679,71.5691667 55.6506667,71.5975 55.6073333,71.5975 L54.3806667,71.5975 C54.3523333,71.5975 54.3373333,71.6125 54.3373333,71.6408333 L54.3373333,75.4441667 C54.3373333,75.4858333 54.309,75.5141667 54.2673333,75.5141667 L53.3606667,75.5141667 Z" id="Fill-54" fill="#464648"></path>
                <path d="M30.9595,93.0086667 C30.9711667,92.9553333 30.9845,92.9303333 31.0295,92.8936667 L33.6661667,90.832 C33.9511667,90.6153333 34.1278333,90.387 34.1928333,90.077 C34.2761667,89.6803333 34.0995,89.3386667 33.6845,89.252 C33.2795,89.1653333 32.9811667,89.362 32.8311667,89.8086667 C32.8195,89.862 32.7778333,89.882 32.7178333,89.8586667 L31.7811667,89.497 C31.7295,89.477 31.7128333,89.427 31.7328333,89.3753333 C31.9695,88.5603333 32.7928333,87.977 33.9478333,88.2203333 C35.0945,88.462 35.6361667,89.3486667 35.4311667,90.3203333 C35.3111667,90.8936667 34.9878333,91.2953333 34.5161667,91.647 L32.5461667,93.177 L32.5428333,93.1936667 L34.6411667,93.637 C34.6945,93.647 34.7228333,93.6903333 34.7111667,93.7436667 L34.5278333,94.617 C34.5161667,94.6686667 34.4745,94.697 34.4211667,94.6853333 L30.8561667,93.9353333 C30.8045,93.9253333 30.7761667,93.882 30.7861667,93.8286667 L30.9595,93.0086667 Z" id="Fill-55" fill="#FEFEFE"></path>
                <path d="M38.0886667,94.0901667 C38.4036667,94.1118333 38.627,93.9918333 38.737,93.7185 C38.8003333,93.5601667 38.8303333,93.3818333 38.9203333,92.0418333 C39.0086667,90.7018333 39.0036667,90.5218333 38.9603333,90.3551667 C38.8886667,90.0718333 38.682,89.9218333 38.3686667,89.9018333 C38.0436667,89.8801667 37.8286667,90.0001667 37.7203333,90.2735 C37.6553333,90.4318333 37.6253333,90.6101667 37.537,91.9501667 C37.447,93.2885 37.452,93.4701667 37.4953333,93.6351667 C37.567,93.9201667 37.7653333,94.0685 38.0886667,94.0901667 M36.2503333,91.8635 C36.3403333,90.5068333 36.4036667,90.2301667 36.512,89.9668333 C36.8153333,89.2018333 37.477,88.7768333 38.4386667,88.8401667 C39.4003333,88.9051667 39.9986667,89.4135 40.1986667,90.2135 C40.2703333,90.4885 40.297,90.7701667 40.2053333,92.1268333 C40.1153333,93.4851667 40.052,93.7601667 39.9436667,94.0235 C39.6403333,94.7901667 38.9803333,95.2151667 38.0186667,95.1501667 C37.0553333,95.0868333 36.457,94.5768333 36.2586667,93.7785 C36.1853333,93.5035 36.1603333,93.2201667 36.2503333,91.8635" id="Fill-56" fill="#FEFEFE"></path>
                <path d="M42.7956667,90.366 L42.779,90.3676667 L41.8556667,91.1043333 C41.804,91.1426667 41.759,91.1293333 41.754,91.0576667 L41.6706667,89.9426667 C41.6673333,89.8876667 41.6823333,89.851 41.7256667,89.811 L42.6956667,88.9993333 C42.739,88.9593333 42.7906667,88.9376667 42.854,88.9326667 L43.8606667,88.8593333 C43.914,88.856 43.954,88.8893333 43.9573333,88.9426667 L44.3923333,94.876 C44.3956667,94.931 44.3623333,94.9676667 44.3073333,94.9726667 L43.229,95.051 C43.1756667,95.056 43.1373333,95.021 43.1323333,94.9676667 L42.7956667,90.366 Z" id="Fill-57" fill="#FEFEFE"></path>
                <path d="M48.4093333,89.2315 L48.4043333,89.2048333 L47.1426667,89.4798333 C47.1076667,89.4865 47.0943333,89.5081667 47.1026667,89.5431667 L47.2393333,90.1681667 C47.2493333,90.2215 47.2226667,90.2648333 47.1693333,90.2765 L46.191,90.4881667 C46.1376667,90.4998333 46.096,90.4731667 46.0843333,90.4198333 L45.721,88.7548333 C45.711,88.7015 45.7376667,88.6581667 45.791,88.6481667 L49.3776667,87.8681667 C49.431,87.8548333 49.4726667,87.8831667 49.4843333,87.9365 L49.6843333,88.8531667 C49.6926667,88.8965 49.6926667,88.9348333 49.6893333,88.9631667 L48.8293333,94.1798333 C48.8176667,94.2465 48.786,94.2715 48.7243333,94.2865 L47.6226667,94.5248333 C47.5693333,94.5365 47.536,94.5065 47.5476667,94.4398333 L48.4093333,89.2315 Z" id="Fill-58" fill="#FEFEFE"></path>
                <path d="M10.9873333,41.6193333 C11.019,41.6326667 11.0306667,41.6626667 11.0173333,41.696 L10.8673333,42.041 C10.849,42.0843333 10.8206667,42.1043333 10.7756667,42.1043333 L7.87233333,42.121 L7.864,42.1376667 L9.83733333,44.256 C9.869,44.2876667 9.87233333,44.321 9.854,44.3643333 L9.704,44.7093333 C9.69066667,44.7426667 9.659,44.7526667 9.62733333,44.7393333 L6.119,43.211 C6.08733333,43.196 6.07566667,43.166 6.089,43.1343333 L6.23566667,42.801 C6.249,42.7676667 6.279,42.756 6.31233333,42.7693333 L8.82566667,43.8643333 L8.83233333,43.8493333 L7.23566667,42.0843333 C7.19733333,42.041 7.194,42.0076667 7.214,41.961 L7.30733333,41.7493333 C7.33066667,41.6943333 7.35733333,41.676 7.414,41.6743333 L9.794,41.6426667 L9.80066667,41.6276667 L7.28733333,40.5326667 C7.25566667,40.5176667 7.244,40.4876667 7.25733333,40.4543333 L7.40233333,40.121 C7.41733333,40.0893333 7.44733333,40.076 7.479,40.0893333 L10.9873333,41.6193333 Z" id="Fill-59" fill="#FEFEFE"></path>
                <path d="M9.25916667,45.8421667 C9.2925,45.8521667 9.3075,45.8805 9.29916667,45.9121667 L8.61916667,48.1871667 C8.60916667,48.2188333 8.57916667,48.2338333 8.54583333,48.2238333 L8.1975,48.1188333 C8.1625,48.1088333 8.1475,48.0805 8.1575,48.0488333 L8.69583333,46.2488333 C8.7025,46.2255 8.69416667,46.2121667 8.6725,46.2038333 L7.56083333,45.8721667 C7.53916667,45.8655 7.52583333,45.8738333 7.5175,45.8955 L7.06083333,47.4221667 C7.05083333,47.4571667 7.0225,47.4721667 6.98916667,47.4621667 L6.63916667,47.3571667 C6.60583333,47.3471667 6.59083333,47.3188333 6.60083333,47.2855 L7.0575,45.7571667 C7.06416667,45.7371667 7.05583333,45.7221667 7.03416667,45.7155 L5.88416667,45.3705 C5.8625,45.3638333 5.8475,45.3721667 5.84083333,45.3955 L5.3025,47.1938333 C5.2925,47.2271667 5.26416667,47.2438333 5.23083333,47.2321667 L4.88083333,47.1288333 C4.8475,47.1188333 4.8325,47.0888333 4.84083333,47.0555 L5.52083333,44.7838333 C5.53083333,44.7505 5.56083333,44.7355 5.5925,44.7455 L9.25916667,45.8421667 Z" id="Fill-60" fill="#FEFEFE"></path>
                <path d="M4.94483333,48.4038333 C4.9715,48.3871667 5.0065,48.3871667 5.0315,48.4138333 L5.2815,48.7188333 C5.3065,48.7488333 5.29983333,48.7755 5.2715,48.8005 C5.0265,49.0138333 4.75483333,49.3638333 4.67316667,49.8088333 C4.57316667,50.3438333 4.7815,50.7121667 5.17483333,50.7855 C5.50483333,50.8455 5.76316667,50.7005 5.9565,50.0938333 L6.0215,49.9055 C6.26316667,49.1721667 6.69316667,48.8521667 7.30316667,48.9638333 C7.9915,49.0921667 8.34483333,49.6705 8.2015,50.4405 C8.11816667,50.8955 7.88816667,51.3071667 7.62483333,51.5521667 C7.5965,51.5755 7.5665,51.5771667 7.54316667,51.5471667 L7.2665,51.2955 C7.2415,51.2688333 7.2465,51.2388333 7.26983333,51.2155 C7.5215,50.9388333 7.6715,50.6655 7.73316667,50.3338333 C7.81983333,49.8621667 7.61316667,49.5538333 7.24316667,49.4838333 C6.91816667,49.4238333 6.6615,49.5988333 6.4715,50.1838333 L6.4065,50.3671667 C6.16483333,51.1055 5.7465,51.4221667 5.11483333,51.3038333 C4.4365,51.1788333 4.0365,50.6105 4.20816667,49.6755 C4.30983333,49.1288333 4.62983333,48.6405 4.94483333,48.4038333" id="Fill-61" fill="#FEFEFE"></path>
                <path d="M4.27233333,52.3676667 C4.29733333,52.346 4.33233333,52.3426667 4.36066667,52.3676667 L4.64066667,52.646 C4.669,52.671 4.66566667,52.6993333 4.64066667,52.726 C4.419,52.966 4.18733333,53.3443333 4.154,53.7943333 C4.114,54.3376667 4.36066667,54.681 4.759,54.711 C5.094,54.736 5.334,54.5626667 5.46233333,53.9376667 L5.50566667,53.7443333 C5.66733333,52.9893333 6.06066667,52.6243333 6.679,52.6693333 C7.379,52.7226667 7.79233333,53.2593333 7.73233333,54.0393333 C7.699,54.501 7.51566667,54.936 7.279,55.2076667 C7.254,55.2343333 7.224,55.2393333 7.19733333,55.2143333 L6.894,54.9926667 C6.86733333,54.9676667 6.869,54.9393333 6.889,54.911 C7.109,54.6076667 7.229,54.321 7.254,53.986 C7.29066667,53.5076667 7.05066667,53.221 6.674,53.1926667 C6.34566667,53.1693333 6.11066667,53.371 5.98233333,53.9726667 L5.94066667,54.1593333 C5.779,54.9226667 5.39733333,55.281 4.75566667,55.2343333 C4.06733333,55.1826667 3.60733333,54.661 3.67733333,53.7126667 C3.719,53.156 3.98566667,52.636 4.27233333,52.3676667" id="Fill-62" fill="#FEFEFE"></path>
                <path d="M5.07683333,58.4115 L6.8435,57.7265 L6.84183333,57.7148333 L5.03016667,57.1548333 L5.07683333,58.4115 Z M7.5335,57.4398333 C7.5685,57.4515 7.59183333,57.4665 7.59516667,57.5081667 L7.6085,57.8831667 C7.6085,57.9248333 7.58683333,57.9481667 7.55183333,57.9615 L3.78183333,59.4498333 C3.74683333,59.4648333 3.7235,59.4465 3.72183333,59.4131667 L3.7085,59.0065 C3.70683333,58.9665 3.72183333,58.9415 3.76183333,58.9298333 L4.6085,58.5981667 L4.55016667,57.0048333 L3.68183333,56.7348333 C3.64016667,56.7181667 3.62183333,56.6981667 3.62183333,56.6615 L3.60683333,56.2565 C3.60516667,56.2231667 3.6285,56.2048333 3.6635,56.2148333 L7.5335,57.4398333 Z" id="Fill-63" fill="#FEFEFE"></path>
                <path d="M5.7815,60.1821667 C6.42483333,60.0855 6.66483333,60.0838333 6.89816667,60.1188333 C7.52983333,60.2238333 7.9115,60.6605 8.00983333,61.3188333 C8.1115,62.0021667 7.8315,62.4721667 7.42983333,62.7321667 C7.39816667,62.7538333 7.36816667,62.7521667 7.34816667,62.7255 L7.12983333,62.4071667 C7.1065,62.3755 7.11483333,62.3455 7.1465,62.3221667 C7.4665,62.0805 7.59483333,61.8055 7.53483333,61.3905 C7.46816667,60.9488333 7.21983333,60.6988333 6.82816667,60.6338333 C6.6765,60.6038333 6.45483333,60.6088333 5.85816667,60.6971667 C5.2615,60.7871667 5.04816667,60.8488333 4.91316667,60.9205 C4.55816667,61.0971667 4.39316667,61.4088333 4.45816667,61.8505 C4.51816667,62.2455 4.7615,62.5388333 5.1465,62.6038333 C5.28483333,62.6238333 5.47983333,62.6305 5.7715,62.5871667 C5.79483333,62.5838333 5.80483333,62.5705 5.8015,62.5471667 L5.68816667,61.7905 C5.68316667,61.7555 5.7015,61.7305 5.7365,61.7238333 L6.06983333,61.6738333 C6.10483333,61.6688333 6.12983333,61.6888333 6.13483333,61.7238333 L6.3215,62.9688333 C6.3265,63.0021667 6.3065,63.0288333 6.27316667,63.0338333 L5.9815,63.0771667 C5.62983333,63.1305 5.30316667,63.1388333 5.10483333,63.1088333 C4.4865,63.0088333 4.07983333,62.5705 3.98316667,61.9221667 C3.88483333,61.2621667 4.1215,60.7338333 4.69483333,60.4505 C4.90983333,60.3471667 5.13816667,60.2771667 5.7815,60.1821667" id="Fill-64" fill="#FEFEFE"></path>
                <path d="M8.359,63.829 C8.39233333,63.8206667 8.42066667,63.8373333 8.429,63.8706667 L8.52066667,64.2606667 C8.529,64.294 8.51233333,64.324 8.479,64.3306667 L4.75566667,65.2156667 C4.72066667,65.2256667 4.694,65.2073333 4.684,65.174 L4.59233333,64.784 C4.584,64.7506667 4.60233333,64.7223333 4.63566667,64.714 L8.359,63.829 Z" id="Fill-65" fill="#FEFEFE"></path>
                <path d="M8.76966667,65.5493333 C8.803,65.5376667 8.83133333,65.5526667 8.843,65.586 L8.95966667,65.9376667 C8.97466667,65.9826667 8.973,66.0143333 8.93633333,66.0493333 L6.69633333,68.676 L6.703,68.6993333 L9.508,67.7643333 C9.54133333,67.7543333 9.56966667,67.7693333 9.58133333,67.801 L9.69633333,68.1493333 C9.70633333,68.181 9.693,68.211 9.65966667,68.221 L6.03133333,69.4293333 C5.998,69.441 5.96966667,69.426 5.958,69.3943333 L5.83966667,69.041 C5.828,69.0026667 5.828,68.966 5.86466667,68.9293333 L8.09133333,66.301 L8.08633333,66.2843333 L5.293,67.2143333 C5.25966667,67.226 5.22966667,67.211 5.21966667,67.1776667 L5.10466667,66.8326667 C5.093,66.7976667 5.108,66.7693333 5.14133333,66.7576667 L8.76966667,65.5493333 Z" id="Fill-66" fill="#FEFEFE"></path>
                <path d="M8.30966667,70.001 C8.89633333,69.726 9.12633333,69.656 9.35966667,69.6243333 C9.99466667,69.5443333 10.4846667,69.851 10.768,70.4543333 C11.0596667,71.0793333 10.9246667,71.6076667 10.6146667,71.9726667 C10.5896667,72.001 10.5613333,72.0093333 10.5346667,71.991 L10.2346667,71.7476667 C10.2046667,71.7226667 10.2013333,71.691 10.2263333,71.661 C10.4646667,71.3376667 10.5096667,71.036 10.3313333,70.6576667 C10.143,70.256 9.833,70.086 9.44133333,70.136 C9.288,70.151 9.07633333,70.2176667 8.53133333,70.4743333 C7.98466667,70.7276667 7.798,70.8476667 7.68966667,70.956 C7.39966667,71.2276667 7.33133333,71.5726667 7.52133333,71.9743333 C7.68966667,72.3376667 8.00633333,72.5476667 8.39466667,72.501 C8.53133333,72.481 8.71966667,72.431 8.98633333,72.306 C9.008,72.296 9.013,72.281 9.003,72.261 L8.67966667,71.5676667 C8.66466667,71.536 8.67466667,71.5043333 8.70633333,71.491 L9.01133333,71.3476667 C9.043,71.3326667 9.07466667,71.3443333 9.088,71.376 L9.62133333,72.5126667 C9.63633333,72.546 9.62466667,72.576 9.593,72.5893333 L9.32633333,72.716 C9.00633333,72.866 8.69466667,72.966 8.498,72.9943333 C7.87633333,73.076 7.363,72.7726667 7.08633333,72.181 C6.803,71.576 6.87966667,71.0043333 7.34633333,70.5676667 C7.52133333,70.4093333 7.723,70.276 8.30966667,70.001" id="Fill-67" fill="#FEFEFE"></path>
                <path d="M12.9665,75.904 C13.1615,75.769 13.2131667,75.5156667 13.0565,75.2923333 C12.8998333,75.0623333 12.6581667,75.0406667 12.4565,75.179 C12.3181667,75.274 12.2631667,75.4173333 12.1165,75.879 C12.6498333,76.0473333 12.8098333,76.014 12.9665,75.904 M10.3315,77.029 C10.4865,77.254 10.7131667,77.3573333 11.1431667,77.4073333 L11.5448333,76.154 C11.0448333,76.0006667 10.7398333,75.999 10.5015,76.164 C10.1831667,76.3856667 10.1081667,76.7056667 10.3315,77.029 M11.6781667,75.7456667 C11.8531667,75.2006667 11.9515,74.9573333 12.1848333,74.794 C12.5848333,74.519 13.0965,74.6223333 13.3965,75.0573333 C13.7098333,75.5106667 13.5965,76.019 13.2148333,76.284 C12.9281667,76.4806667 12.6215,76.4756667 11.9748333,76.2856667 L11.6098333,77.449 L12.2431667,77.499 C12.2798333,77.5006667 12.3015,77.5206667 12.2981667,77.5573333 L12.2648333,77.8556667 C12.2631667,77.894 12.2415,77.914 12.2048333,77.9123333 L11.4748333,77.8673333 L11.3798333,78.1673333 C11.3465,78.2806667 11.3431667,78.359 11.3965,78.4373333 L11.4465,78.509 C11.4665,78.5356667 11.4598333,78.569 11.4315,78.589 L11.1648333,78.7723333 C11.1365,78.7923333 11.1031667,78.7873333 11.0831667,78.759 L10.9948333,78.629 C10.8631667,78.439 10.8431667,78.319 10.9315,78.059 L11.0098333,77.8156667 C10.5098333,77.744 10.1931667,77.5823333 9.95816667,77.244 C9.57983333,76.6956667 9.7265,76.144 10.2181667,75.804 C10.5748333,75.5573333 11.0065,75.5473333 11.6781667,75.7456667" id="Fill-68" fill="#FEFEFE"></path>
                <path d="M13.4425,80.9468333 C13.4425,80.9135 13.4641667,80.8868333 13.5008333,80.8818333 L13.8958333,80.8551667 C13.9308333,80.8518333 13.9525,80.8735 13.9558333,80.9085 C13.9875,81.2335 14.1175,81.6585 14.4308333,81.9835 C14.8125,82.3735 15.2341667,82.4168333 15.5208333,82.1385 C15.7625,81.9035 15.7908333,81.6085 15.4075,81.0985 L15.2925,80.9385 C14.8325,80.3151667 14.8208333,79.7785 15.2658333,79.3468333 C15.7691667,78.8568333 16.4441667,78.9035 16.9908333,79.4651667 C17.3141667,79.7968333 17.5158333,80.2235 17.5641667,80.5818333 C17.5675,80.6168333 17.5508333,80.6418333 17.5141667,80.6468333 L17.1475,80.7268333 C17.1108333,80.7285 17.0908333,80.7085 17.0825,80.6768333 C17.0025,80.3101667 16.8658333,80.0285 16.6325,79.7885 C16.2975,79.4435 15.9241667,79.4335 15.6541667,79.6951667 C15.4158333,79.9251667 15.4125,80.2368333 15.7791667,80.7301667 L15.8908333,80.8885 C16.3541667,81.5151667 16.3708333,82.0401667 15.9091667,82.4868333 C15.4141667,82.9685 14.7175,82.9668333 14.0541667,82.2851667 C13.6658333,81.8851667 13.4525,81.3401667 13.4425,80.9468333" id="Fill-69" fill="#FEFEFE"></path>
                <path d="M18.6085,81.2511667 C18.6301667,81.2245 18.6618333,81.2211667 18.6901667,81.2428333 L18.9835,81.4778333 C19.0185,81.5061667 19.0301667,81.5378333 19.0201667,81.5811667 L18.2785,84.3861667 L18.2918333,84.3961667 L20.8501667,83.0461667 C20.8885,83.0261667 20.9218333,83.0311667 20.9585,83.0611667 L21.2518333,83.2961667 C21.2785,83.3178333 21.2818333,83.3495 21.2618333,83.3761667 L18.8718333,86.3595 C18.8501667,86.3878333 18.8185,86.3911667 18.7901667,86.3678333 L18.5051667,86.1411667 C18.4785,86.1195 18.4751667,86.0845 18.4968333,86.0595 L20.2085,83.9211667 L20.1951667,83.9111667 L18.0785,84.9895 C18.0268333,85.0145 17.9935,85.0111667 17.9518333,84.9778333 L17.7718333,84.8328333 C17.7268333,84.7961667 17.7151667,84.7645 17.7301667,84.7095 L18.3201667,82.4078333 L18.3068333,82.3961667 L16.5935,84.5345 C16.5718333,84.5628333 16.5401667,84.5661667 16.5118333,84.5428333 L16.2285,84.3161667 C16.2001667,84.2945 16.1968333,84.2611667 16.2185,84.2345 L18.6085,81.2511667 Z" id="Fill-70" fill="#FEFEFE"></path>
                <path d="M20.2696667,86.8711667 C20.2613333,86.8395 20.2746667,86.8061667 20.3096667,86.7945 L20.6846667,86.6711667 C20.7196667,86.6595 20.7446667,86.6728333 20.7563333,86.7095 C20.868,87.0145 21.0963333,87.3945 21.4813333,87.6311667 C21.9463333,87.9145 22.3646667,87.8511667 22.5746667,87.5128333 C22.7496667,87.2261667 22.7046667,86.9345 22.2096667,86.5345 L22.0563333,86.4061667 C21.4596667,85.9178333 21.3163333,85.4011667 21.6396667,84.8728333 C22.0063333,84.2761667 22.6713333,84.1545 23.338,84.5628333 C23.733,84.8061667 24.0346667,85.1678333 24.1696667,85.5011667 C24.1813333,85.5378333 24.1713333,85.5645 24.1363333,85.5761667 L23.8013333,85.7461667 C23.7663333,85.7578333 23.743,85.7428333 23.7263333,85.7128333 C23.558,85.3795 23.358,85.1395 23.073,84.9645 C22.663,84.7111667 22.2996667,84.7961667 22.1013333,85.1161667 C21.9296667,85.3978333 22.0013333,85.7011667 22.478,86.0878333 L22.6246667,86.2128333 C23.2263333,86.7045 23.373,87.2078333 23.0363333,87.7545 C22.6763333,88.3428333 21.9996667,88.5128333 21.1913333,88.0145 C20.7163333,87.7245 20.378,87.2511667 20.2696667,86.8711667" id="Fill-71" fill="#FEFEFE"></path>
                <path d="M57.116,87.4245 C56.7876667,86.8645 56.6993333,86.6428333 56.6443333,86.4128333 C56.5076667,85.7878333 56.7693333,85.2711667 57.3443333,84.9345 C57.9393333,84.5861667 58.481,84.6728333 58.8693333,84.9478333 C58.9026667,84.9695 58.911,84.9978333 58.896,85.0261667 L58.681,85.3478333 C58.6593333,85.3795 58.6276667,85.3845 58.596,85.3645 C58.2526667,85.1561667 57.9476667,85.1378333 57.586,85.3495 C57.2026667,85.5745 57.0626667,85.8995 57.1476667,86.2845 C57.176,86.4361667 57.2626667,86.6411667 57.566,87.1611667 C57.871,87.6811667 58.0076667,87.8578333 58.1243333,87.9545 C58.4193333,88.2195 58.771,88.2561667 59.156,88.0311667 C59.501,87.8278333 59.681,87.4945 59.5993333,87.1128333 C59.5676667,86.9778333 59.501,86.7945 59.351,86.5395 C59.3393333,86.5195 59.3226667,86.5161667 59.3026667,86.5278333 L58.6426667,86.9145 C58.6126667,86.9311667 58.581,86.9228333 58.5643333,86.8928333 L58.3943333,86.6028333 C58.376,86.5728333 58.3843333,86.5411667 58.416,86.5245 L59.501,85.8895 C59.531,85.8711667 59.5626667,85.8795 59.5793333,85.9095 L59.7293333,86.1645 C59.9076667,86.4695 60.036,86.7695 60.0826667,86.9645 C60.2193333,87.5745 59.9643333,88.1145 59.3993333,88.4461667 C58.8243333,88.7828333 58.246,88.7578333 57.7676667,88.3328333 C57.5943333,88.1711667 57.4443333,87.9845 57.116,87.4245" id="Fill-72" fill="#FEFEFE"></path>
                <path d="M59.5248333,83.7083333 C59.5048333,83.68 59.5098333,83.6483333 59.5365,83.6283333 L59.8598333,83.3883333 C59.8865,83.37 59.9181667,83.3733333 59.9398333,83.4016667 L61.9415,86.11 C61.9565,86.13 61.9715,86.1316667 61.9915,86.1183333 L63.5015,85.0016667 C63.5298333,84.98 63.5615,84.985 63.5831667,85.0116667 L63.7998333,85.3066667 C63.8198333,85.3333333 63.8148333,85.3666667 63.7881667,85.3866667 L61.8815,86.7983333 C61.8531667,86.8183333 61.8198333,86.8133333 61.7998333,86.785 L59.5248333,83.7083333 Z" id="Fill-73" fill="#FEFEFE"></path>
                <path d="M65.5761667,82.4735 C65.5128333,82.3351667 65.3711667,82.1185 64.9878333,81.6985 C64.6045,81.2801667 64.4028333,81.1185 64.2711667,81.0435 C63.9278333,80.8485 63.5811667,80.8801667 63.2561667,81.1768333 C62.9345,81.4701667 62.8695,81.8118333 63.0328333,82.1735 C63.0961667,82.3118333 63.2395,82.5268333 63.6211667,82.9468333 C64.0045,83.3668333 64.2061667,83.5268333 64.3378333,83.6035 C64.6828333,83.7985 65.0278333,83.7651667 65.3495,83.4735 C65.6745,83.1751667 65.7411667,82.8351667 65.5761667,82.4735 M64.0645,84.0501667 C63.8561667,83.9335 63.6745,83.7768333 63.2361667,83.2985 C62.7978333,82.8185 62.6595,82.6235 62.5628333,82.4051667 C62.3028333,81.8185 62.4428333,81.2668333 62.9311667,80.8218333 C63.4228333,80.3718333 63.9861667,80.2851667 64.5461667,80.5951667 C64.7545,80.7118333 64.9361667,80.8685 65.3728333,81.3485 C65.8111667,81.8268333 65.9495,82.0235 66.0461667,82.2418333 C66.3061667,82.8268333 66.1661667,83.3785 65.6745,83.8285 C65.1861667,84.2735 64.6245,84.3618333 64.0645,84.0501667" id="Fill-74" fill="#FEFEFE"></path>
                <path d="M67.7496667,81.0021667 L68.3563333,80.3088333 C68.6646667,79.9538333 68.6396667,79.5955 68.3413333,79.3355 C68.0496667,79.0821667 67.6863333,79.1021667 67.3763333,79.4555 L66.7713333,80.1505 C66.7563333,80.1671667 66.7563333,80.1838333 66.7746667,80.1988333 L67.7013333,81.0055 C67.718,81.0205 67.7346667,81.0188333 67.7496667,81.0021667 Z M67.0046667,79.1688333 C67.2896667,78.8421667 67.2696667,78.4855 66.9946667,78.2455 C66.7113333,77.9971667 66.3596667,78.0288333 66.0746667,78.3571667 L65.488,79.0305 C65.473,79.0471667 65.473,79.0621667 65.4913333,79.0788333 L66.368,79.8455 C66.3863333,79.8605 66.403,79.8588333 66.418,79.8405 L67.0046667,79.1688333 Z M64.8163333,79.1738333 C64.7896667,79.1505 64.788,79.1188333 64.8096667,79.0938333 L65.728,78.0388333 C66.2496667,77.4421667 66.8146667,77.4121667 67.2913333,77.8271667 C67.6363333,78.1271667 67.7013333,78.4755 67.5896667,78.7871667 L67.5996667,78.7955 C67.8313333,78.6438333 68.2796667,78.5971667 68.6763333,78.9438333 C69.2313333,79.4271667 69.2196667,80.0321667 68.678,80.6505 L67.7796667,81.6821667 C67.7563333,81.7088333 67.7246667,81.7105 67.698,81.6871667 L64.8163333,79.1738333 Z" id="Fill-75" fill="#FEFEFE"></path>
                <path d="M70.3306667,76.1931667 L68.5056667,75.6848333 L68.499,75.6948333 L69.6156667,77.2281667 L70.3306667,76.1931667 Z M67.779,75.4998333 C67.7573333,75.4715 67.749,75.4448333 67.7723333,75.4098333 L67.9856667,75.0998333 C68.009,75.0665 68.0423333,75.0615 68.0756667,75.0715 L71.9906667,76.1365 C72.0256667,76.1465 72.0356667,76.1748333 72.0156667,76.2031667 L71.784,76.5381667 C71.7606667,76.5698333 71.734,76.5798333 71.694,76.5648333 L70.8173333,76.3265 L69.9106667,77.6365 L70.444,78.3731667 C70.4673333,78.4098333 70.469,78.4381667 70.449,78.4681667 L70.219,78.8015 C70.199,78.8298333 70.169,78.8298333 70.1473333,78.8015 L67.779,75.4998333 Z" id="Fill-76" fill="#FEFEFE"></path>
                <path d="M69.2621667,73.2255 C69.2305,73.2088333 69.2221667,73.1771667 69.2388333,73.1455 L69.4288333,72.7971667 C69.4455,72.7655 69.4771667,72.7555 69.5071667,72.7721667 L72.4655,74.3771667 C72.4855,74.3871667 72.5021667,74.3838333 72.5138333,74.3638333 L73.4071667,72.7121667 C73.4238333,72.6821667 73.4555,72.6738333 73.4871667,72.6905 L73.8071667,72.8638333 C73.8371667,72.8805 73.8471667,72.9105 73.8305,72.9421667 L72.7005,75.0255 C72.6838333,75.0555 72.6538333,75.0638333 72.6221667,75.0488333 L69.2621667,73.2255 Z" id="Fill-77" fill="#FEFEFE"></path>
                <path d="M74.4621667,67.7021667 L72.5655,67.6938333 L72.5621667,67.7055 L74.0455,68.8905 L74.4621667,67.7021667 Z M71.8171667,67.7071667 C71.7888333,67.6855 71.7721667,67.6621667 71.7855,67.6221667 L71.9105,67.2671667 C71.9255,67.2288333 71.9538333,67.2155 71.9905,67.2155 L76.0488333,67.2088333 C76.0855,67.2105 76.1021667,67.2338333 76.0905,67.2671667 L75.9555,67.6488333 C75.9421667,67.6888333 75.9188333,67.7055 75.8755,67.7005 L74.9671667,67.7021667 L74.4371667,69.2055 L75.1471667,69.7755 C75.1805,69.8055 75.1888333,69.8321667 75.1771667,69.8655 L75.0421667,70.2488333 C75.0321667,70.2821667 75.0038333,70.2905 74.9755,70.2671667 L71.8171667,67.7071667 Z" id="Fill-78" fill="#FEFEFE"></path>
                <path d="M77.0328333,63.3838333 C77.0245,63.4171667 76.9995,63.4288333 76.9628333,63.4321667 L73.9145,63.6305 L73.9128333,63.6421667 L76.6045,65.0805 C76.6361667,65.0988333 76.6528333,65.1271667 76.6461667,65.1605 L76.5778333,65.4721667 C76.5711667,65.5055 76.5445,65.5221667 76.5095,65.5221667 L72.5711667,65.6388333 C72.5345,65.6405 72.5161667,65.6205 72.5245,65.5805 L72.6061667,65.2071667 C72.6145,65.1671667 72.6361667,65.1488333 72.6778333,65.1521667 L75.6845,65.0871667 L75.6861667,65.0771667 L73.0011667,63.6571667 C72.9695,63.6388333 72.9528333,63.6105 72.9595,63.5771667 L73.0228333,63.2888333 C73.0311667,63.2471667 73.0578333,63.2371667 73.0928333,63.2338333 L76.1295,63.0388333 L76.1328333,63.0271667 L73.4195,61.7371667 C73.3811667,61.7188333 73.3695,61.6921667 73.3778333,61.6521667 L73.4595,61.2838333 C73.4661667,61.2455 73.4911667,61.2388333 73.5245,61.2505 L77.0578333,62.9921667 C77.0911667,63.0038333 77.1078333,63.0388333 77.0995,63.0721667 L77.0328333,63.3838333 Z" id="Fill-79" fill="#FEFEFE"></path>
                <path d="M76.4226667,48.6 C76.406,48.6283333 76.3743333,48.6416667 76.341,48.6266667 L75.9843333,48.4566667 C75.951,48.44 75.9426667,48.4133333 75.9576667,48.38 C76.0893333,48.0816667 76.186,47.6483333 76.071,47.2116667 C75.9343333,46.6833333 75.5876667,46.4383333 75.2026667,46.54 C74.876,46.625 74.706,46.8666667 74.786,47.4983333 L74.8076667,47.6966667 C74.9026667,48.4633333 74.6476667,48.9383333 74.0476667,49.095 C73.3676667,49.2716667 72.8026667,48.8983333 72.606,48.1416667 C72.4893333,47.6916667 72.521,47.2233333 72.656,46.8866667 C72.671,46.8533333 72.6976667,46.8416667 72.731,46.855 L73.0893333,46.9666667 C73.1226667,46.98 73.131,47.0083333 73.121,47.04 C73.011,47.4 72.991,47.71 73.076,48.035 C73.1976667,48.5016667 73.5176667,48.6933333 73.8826667,48.5983333 C74.201,48.515 74.3593333,48.245 74.2843333,47.6366667 L74.2626667,47.445 C74.1693333,46.6716667 74.4126667,46.205 75.036,46.0433333 C75.7026667,45.8683333 76.3093333,46.215 76.5493333,47.135 C76.6893333,47.6733333 76.6076667,48.2516667 76.4226667,48.6" id="Fill-83" fill="#FEFEFE"></path>
            </g>
        </g>
    </g>
</svg>