<?xml version="1.0" encoding="UTF-8"?>
<svg width="50px" height="50px" viewBox="0 0 50 50" version="1.1" xmlns="http://www.w3.org/2000/svg" xmlns:xlink="http://www.w3.org/1999/xlink">
    <!-- Generator: Sketch 46.2 (44496) - http://www.bohemiancoding.com/sketch -->
    <title>chat</title>
    <desc>Created with Sketch.</desc>
    <defs></defs>
    <g id="Homepage" stroke="none" stroke-width="1" fill="none" fill-rule="evenodd">
        <g id="chat" fill-rule="nonzero">
            <g id="Group" transform="translate(8.500000, 1.500000)">
                <path d="M28.2359558,0.533302736 L4.73184973,0.533302736 C2.49873915,0.533302736 0.68844535,2.34359654 0.68844535,4.57670712 L0.68844535,42.7708794 C0.68844535,45.00399 2.49873915,46.8142838 4.73184973,46.8142838 L28.2359558,46.8142838 C30.4668546,46.8089531 32.2740294,45.0017782 32.2793602,42.7708794 L32.2793602,4.5670107 C32.274014,2.33768775 30.4652851,0.533296326 28.2359558,0.533302736 Z M30.0588815,42.7708794 C30.0536413,43.7770579 29.2420922,44.5929237 28.2359558,44.6035016 L4.73184973,44.6035016 C3.72571327,44.5929237 2.91416416,43.7770579 2.90892402,42.7708794 L2.90892402,37.9905476 L30.0588815,37.9905476 L30.0588815,42.7708794 Z M30.0588815,35.7894618 L2.90892402,35.7894618 L2.90892402,11.5484283 L30.0588815,11.5484283 L30.0588815,35.7894618 Z M30.0588815,9.3473425 L2.90892402,9.3473425 L2.90892402,4.5670107 C2.91422557,3.55708558 3.73162102,2.73969013 4.74154615,2.73438857 L28.2359558,2.73438857 C29.2420922,2.74496642 30.0536413,3.56083228 30.0588815,4.5670107 L30.0588815,9.3473425 Z" id="Shape" fill="#FF6000"></path>
                <path d="M18.6849886,4.93547441 L14.2828169,4.93547441 C13.7148923,4.98884114 13.2808416,5.46559081 13.2808416,6.03601733 C13.2808416,6.60644385 13.7148923,7.08319353 14.2828169,7.13656025 L18.694685,7.13656025 C19.1125355,7.17582481 19.5165796,6.97506921 19.7376724,6.6183358 C19.9587651,6.2616024 19.9587651,5.81043227 19.7376724,5.45369886 C19.5165796,5.09696546 19.1125355,4.89620985 18.694685,4.93547441 L18.6849886,4.93547441 Z" id="Shape" fill="#FF6000"></path>
                <path d="M14.2828169,42.4024157 L18.694685,42.4024157 C19.1125355,42.4416803 19.5165796,42.2409247 19.7376724,41.8841913 C19.9587651,41.5274579 19.9587651,41.0762877 19.7376724,40.7195543 C19.5165796,40.3628209 19.1125355,40.1620653 18.694685,40.2013299 L14.2828169,40.2013299 C13.7148923,40.2546966 13.2808416,40.7314463 13.2808416,41.3018728 C13.2808416,41.8722993 13.7148923,42.349049 14.2828169,42.4024157 L14.2828169,42.4024157 Z" id="Shape" fill="#FF6000"></path>
                <path d="M9.32794968,17.7153473 L7.8250056,17.7153473 C7.25708095,17.768714 6.82303026,18.2454637 6.82303026,18.8158902 C6.82303026,19.3863167 7.25708095,19.8630664 7.8250056,19.9164331 L9.32794968,19.9164331 C9.89587433,19.8630664 10.329925,19.3863167 10.329925,18.8158902 C10.329925,18.2454637 9.89587433,17.768714 9.32794968,17.7153473 L9.32794968,17.7153473 Z" id="Shape" fill="#09A2E7"></path>
                <path d="M25.1427999,17.7153473 L12.9738011,17.7153473 C12.4058765,17.768714 11.9718258,18.2454637 11.9718258,18.8158902 C11.9718258,19.3863167 12.4058765,19.8630664 12.9738011,19.9164331 L25.1427999,19.9164331 C25.7107246,19.8630664 26.1447752,19.3863167 26.1447752,18.8158902 C26.1447752,18.2454637 25.7107246,17.768714 25.1427999,17.7153473 L25.1427999,17.7153473 Z" id="Shape" fill="#09A2E7"></path>
                <path d="M23.6398558,24.7743362 L25.1427999,24.7743362 C25.7107246,24.7209695 26.1447752,24.2442198 26.1447752,23.6737933 C26.1447752,23.1033668 25.7107246,22.6266171 25.1427999,22.5732504 L23.6398558,22.5732504 C23.0719312,22.6266171 22.6378805,23.1033668 22.6378805,23.6737933 C22.6378805,24.2442198 23.0719312,24.7209695 23.6398558,24.7743362 L23.6398558,24.7743362 Z" id="Shape" fill="#09A2E7"></path>
                <path d="M7.8250056,24.7743362 L19.9940044,24.7743362 C20.5619291,24.7209695 20.9959797,24.2442198 20.9959797,23.6737933 C20.9959797,23.1033668 20.5619291,22.6266171 19.9940044,22.5732504 L7.8250056,22.5732504 C7.25708095,22.6266171 6.82303026,23.1033668 6.82303026,23.6737933 C6.82303026,24.2442198 7.25708095,24.7209695 7.8250056,24.7743362 L7.8250056,24.7743362 Z" id="Shape" fill="#09A2E7"></path>
                <path d="M9.32794968,27.4117606 L7.8250056,27.4117606 C7.25708095,27.4651274 6.82303026,27.941877 6.82303026,28.5123036 C6.82303026,29.0827301 7.25708095,29.5594798 7.8250056,29.6128465 L9.32794968,29.6128465 C9.89587433,29.5594798 10.329925,29.0827301 10.329925,28.5123036 C10.329925,27.941877 9.89587433,27.4651274 9.32794968,27.4117606 L9.32794968,27.4117606 Z" id="Shape" fill="#09A2E7"></path>
                <path d="M25.1427999,27.4117606 L12.9738011,27.4117606 C12.4058765,27.4651274 11.9718258,27.941877 11.9718258,28.5123036 C11.9718258,29.0827301 12.4058765,29.5594798 12.9738011,29.6128465 L25.1427999,29.6128465 C25.7107246,29.5594798 26.1447752,29.0827301 26.1447752,28.5123036 C26.1447752,27.941877 25.7107246,27.4651274 25.1427999,27.4117606 L25.1427999,27.4117606 Z" id="Shape" fill="#09A2E7"></path>
            </g>
        </g>
    </g>
</svg>