<svg xmlns="http://www.w3.org/2000/svg" width="16" height="19"><g fill="#1672B9" fill-rule="nonzero"><path d="M1.80172246.00002637C.7976157.00002637 0 .82046266 0 1.799902v11.4029287C0 14.1614983.76538709 14.9665756 1.73920526 15c0-.0153604-.00284189-.0307204-.00284189-.0460817V3.55006431c0-1.17371728.96622784-2.17485357 2.19484362-2.17575569L12 1.37521212C11.8086508.59453816 11.106717 0 10.2522829 0L1.80172246.00002637z"/><path d="M3.80184991 2C2.79767212 2 2 2.82058452 2 3.80020081V15.2061151C2 16.1432782 2.7303971 16.933116 3.6729991 17c0-.0144595-.00284209-.0289191-.00284209-.0433786V5.5516325c0-1.17392934.96629618-2.17614878 2.19499887-2.17614878H14c-.1913627-.78081501-.8933462-1.37546058-1.7468949-1.37546058L3.80184991 2z"/><path d="M5.79362429 4C4.79403067 4 4 4.82023915 4 5.79944314V17.2005569C4 18.179784 4.79403067 19 5.79362429 19h8.41275141C15.2059693 19 16 18.1797609 16 17.2005569V5.79944314C16 4.82021602 15.2059693 4 14.2063757 4H5.79362429zm.2932682 2.24932705h7.82611841c.0697828-.00090329.1376801.02529469.1867183.07226725.0499797.04697257.0782709.1111112.0782709.17795784 0 .06684663-.0282912.13098527-.0782709.17886204-.0490357.04697256-.1169355.07226725-.1867183.07136304H6.08689249c-.06978276.00090329-.1376801-.02439048-.18671827-.07136304-.04997968-.04787677-.07827084-.11201541-.07827084-.17886204 0-.06684664.02829116-.13098527.07827084-.17795784.04903817-.04697256.11693551-.07317146.18671827-.07226725zm0 2.50033146h7.82611841c.0697828-.00090328.1376801.02439049.1867183.07136305.0499797.04787677.0782709.11201541.0782709.17886204 0 .06684664-.0282912.13098527-.0782709.17795783-.0490357.04697256-.1169355.07317147-.1867183.07226726H6.08689249c-.06978276.00090328-.1376801-.0252947-.18671827-.07226726-.04997968-.04697256-.07827084-.11111119-.07827084-.17795783 0-.06684663.02829116-.13098527.07827084-.17886204.04903817-.04697256.11693551-.07226725.18671827-.07136305zm0 2.49963769h7.82611841c.0697828-.0009033.1376801.0252947.1867183.0722673.0499797.0469725.0782709.1111112.0782709.1779578s-.0282912.1309853-.0782709.178862c-.0490357.0469726-.1169355.0722673-.1867183.0713631H6.08689249c-.06978276.0009033-.1376801-.0243905-.18671827-.0713631-.04997968-.0478767-.07827084-.1120154-.07827084-.178862 0-.0668466.02829116-.1309853.07827084-.1779578.04903817-.0469726.11693551-.0731715.18671827-.0722673zm0 2.5003315h7.82611841c.0697828-.0009033.1376801.0243905.1867183.071363.0499797.0478768.0782709.1120154.0782709.1788621 0 .0668466-.0282912.1309852-.0782709.1779578-.0490357.0469726-.1169355.0731715-.1867183.071363H6.08689249c-.06978276.0018068-.1376801-.0243904-.18671827-.071363-.04997968-.0469749-.07827084-.1111112-.07827084-.1779578 0-.0668467.02829116-.1309853.07827084-.1788621.04903817-.0469725.11693551-.0722672.18671827-.071363zm0 2.5003314h7.82611841c.0697828-.0018068.1376801.0243905.1867183.0713631.0499797.0469726.0782709.1111112.0782709.1779578 0 .0668467-.0282912.1309853-.0782709.1788621-.0490357.0469725-.1169355.0722672-.1867183.071363H6.08689249c-.06978276.0009035-.1376801-.0243905-.18671827-.071363-.04997968-.0478768-.07827084-.1120154-.07827084-.1788621 0-.0668466.02829116-.1309852.07827084-.1779578.04903817-.0469726.11693551-.0731715.18671827-.0713631z"/></g></svg>
