<?xml version="1.0" encoding="UTF-8"?>
<svg width="50px" height="50px" viewBox="0 0 50 50" version="1.1" xmlns="http://www.w3.org/2000/svg" xmlns:xlink="http://www.w3.org/1999/xlink">
    <!-- Generator: Sketch 46.2 (44496) - http://www.bohemiancoding.com/sketch -->
    <title>email</title>
    <desc>Created with Sketch.</desc>
    <defs></defs>
    <g id="Homepage" stroke="none" stroke-width="1" fill="none" fill-rule="evenodd">
        <g id="email" fill-rule="nonzero" fill="#FF6000">
            <g id="Group-4" transform="translate(1.500000, 9.000000)">
                <path d="M44.3929229,27.5975535 C44.3876743,28.6078794 43.5699411,29.4256127 42.5596152,29.4308612 L4.47288693,29.4308612 C3.46256104,29.4256127 2.64482775,28.6078794 2.6395792,27.5975535 L2.6395792,4.1580902 C2.64375537,3.93720647 2.68933674,3.71906708 2.77395778,3.51499272 L17.4020258,15.2923152 L6.71892887,23.930938 C6.28922536,24.326228 6.24167616,24.9877809 6.61043179,25.4404602 C6.97918741,25.8931395 7.63668779,25.9803543 8.11070699,25.6394656 L19.1201519,16.6936918 L19.1201519,16.6936918 L22.8059643,19.659619 C23.20838,19.987432 23.7857282,19.987432 24.1881439,19.659619 L27.9123502,16.6552979 C27.9123502,16.6552979 27.9123502,16.7032902 27.969941,16.7224872 L38.9793859,25.6682611 C39.4511828,26.0499394 40.1430612,25.9768839 40.5247396,25.5050871 C40.9064179,25.0332902 40.8333625,24.3414118 40.3615656,23.9597334 L29.6688702,15.2635198 L44.2585443,3.50539425 C44.3443487,3.71246134 44.3899532,3.93396891 44.3929229,4.1580902 L44.3929229,27.5975535 Z M42.2236687,2.32478246 L23.516251,17.4423724 L4.80883338,2.32478246 L42.2236687,2.32478246 Z M42.5596152,0.165126756 L4.47288693,0.165126756 C3.4037045,0.165126756 2.37831299,0.589857826 1.62228683,1.34588398 C0.866260681,2.10191013 0.441529612,3.12730164 0.441529612,4.19648408 L0.441529612,27.5975535 C0.441529612,28.6667359 0.866260681,29.6921274 1.62228683,30.4481536 C2.37831299,31.2041797 3.4037045,31.6289108 4.47288693,31.6289108 L42.5596152,31.6289108 C44.7838828,31.6236338 46.5856954,29.8218212 46.5909725,27.5975535 L46.5909725,27.5975535 L46.5909725,4.1580902 C46.5856954,1.93382252 44.7838828,0.132009928 42.5596152,0.126732877 L42.5596152,0.165126756 Z" id="Shape"></path>
            </g>
        </g>
    </g>
</svg>