<?xml version="1.0" encoding="UTF-8"?>
<svg width="84px" height="84px" viewBox="0 0 84 84" version="1.1" xmlns="http://www.w3.org/2000/svg" xmlns:xlink="http://www.w3.org/1999/xlink">
    <!-- Generator: Sketch 50.2 (55047) - http://www.bohemiancoding.com/sketch -->
    <title>Group 2</title>
    <desc>Created with Sketch.</desc>
    <defs></defs>
    <g id="Regional-landing-pages" stroke="none" stroke-width="1" fill="none" fill-rule="evenodd">
        <g id="rcs">
            <g id="Group-2">
                <circle id="Oval-2" fill="#FF5202" cx="42" cy="42" r="42"></circle>
                <g id="Group" transform="translate(18.045759, 29.101562)">
                    <path d="M17.0304792,19.1214137 L13.3490188,19.1214137 L11.2560058,14.9353877 L9.61149553,14.9353877 L9.61149553,19.1214137 L6.39722552,19.1214137 L6.39722552,6.65677364 L12.6388894,6.65677364 C15.4046566,6.65677364 16.9744164,8.48816004 16.9744164,10.8054245 C16.9744164,12.973188 15.6475956,14.1318202 14.4889634,14.5429477 L17.0304792,19.1214137 Z M12.1530114,12.1322452 C12.9939541,12.1322452 13.7040835,11.6650548 13.7040835,10.7867369 C13.7040835,9.94579412 12.9939541,9.45991609 12.1530114,9.45991609 L9.61149553,9.45991609 L9.61149553,12.1322452 L12.1530114,12.1322452 Z M24.8605905,19.3456651 C21.0296291,19.3456651 18.114361,16.7293988 18.114361,12.8984375 C18.114361,9.04878853 21.0296291,6.45120986 24.8605905,6.45120986 C27.8692967,6.45120986 29.4764317,8.15178295 30.2986868,9.79629319 L27.5329196,11.1044263 C27.121792,10.1139827 26.0565979,9.29172755 24.8605905,9.29172755 C22.8236403,9.29172755 21.3846938,10.8614873 21.3846938,12.8984375 C21.3846938,14.9353877 22.8236403,16.5051475 24.8605905,16.5051475 C26.0565979,16.5051475 27.121792,15.6828923 27.5329196,14.6924487 L30.2986868,16.0005818 C29.4951193,17.6077168 27.8692967,19.3456651 24.8605905,19.3456651 Z M36.3160993,19.3456651 C33.7932711,19.3456651 32.0366351,18.5607853 30.7845648,17.3647778 L32.4851379,14.9540753 C33.3821435,15.8510809 34.7650271,16.5985855 36.4656002,16.5985855 C37.5681696,16.5985855 38.2409238,16.1687704 38.2409238,15.5707666 C38.2409238,13.8701935 31.1770048,15.2343895 31.1770048,10.4316721 C31.1770048,8.33865911 32.9523283,6.46989748 36.1479107,6.46989748 C38.1474857,6.46989748 39.885434,7.0679012 41.2122548,8.2078458 L39.4556188,10.5064226 C38.4091123,9.64679226 37.0449163,9.21697708 35.8115336,9.21697708 C34.8771528,9.21697708 34.4660253,9.59072941 34.4660253,10.1139827 C34.4660253,11.7024301 41.5112566,10.5437978 41.5112566,15.1783267 C41.5112566,17.6824673 39.6611826,19.3456651 36.3160993,19.3456651 Z" id="RCS" fill="#FFFFFF"></path>
                    <rect id="Rectangle-8" stroke="#FFFFFF" stroke-width="2.5" x="1.25" y="1.25" width="45.4084821" height="23.296875"></rect>
                </g>
            </g>
        </g>
    </g>
</svg>