<?xml version="1.0" encoding="UTF-8"?>
<svg width="64px" height="98px" viewBox="0 0 64 98" version="1.1" xmlns="http://www.w3.org/2000/svg" xmlns:xlink="http://www.w3.org/1999/xlink">
    <!-- Generator: Sketch 51.2 (57519) - http://www.bohemiancoding.com/sketch -->
    <title>Group 2</title>
    <desc>Created with Sketch.</desc>
    <defs></defs>
    <g id="Regional-landing-pages" stroke="none" stroke-width="1" fill="none" fill-rule="evenodd">
        <g id="NA" transform="translate(-663.000000, -3517.000000)" fill-rule="nonzero">
            <g id="Group-2" style="mix-blend-mode: multiply;" transform="translate(663.613673, 3517.000000)">
                <rect id="Rectangle-path" fill="#FFFFFF" x="0" y="0" width="63.3902439" height="62.7560976"></rect>
                <rect id="Rectangle-path" fill="#505053" x="0.682926829" y="0.682926829" width="62.0243902" height="61.4146341"></rect>
                <rect id="Rectangle-path" fill="#969799" x="4.85365854" y="26.1707317" width="5.43902439" height="5.43902439"></rect>
                <rect id="Rectangle-path" fill="#969799" x="12.3414634" y="23.4878049" width="8.17073171" height="8.17073171"></rect>
                <rect id="Rectangle-path" fill="#969799" x="22.5365854" y="19.3902439" width="12.2439024" height="12.2439024"></rect>
                <rect id="Rectangle-path" fill="#969799" x="37.1463415" y="13.2926829" width="18.3902439" height="18.3658537"></rect>
                <polygon id="Shape" fill="#FFFFFF" points="58.2195122 42.3902439 58.2195122 42.7317073 57.5365854 42.7317073 57.5365854 44.6341463 57.1707317 44.6341463 57.1707317 42.7317073 56.4634146 42.7317073 56.4634146 42.3902439"></polygon>
                <polygon id="Shape" fill="#FFFFFF" points="59.0243902 42.3902439 59.5853659 44.195122 60.1219512 42.3902439 60.6585366 42.3902439 60.6585366 44.6341463 60.3170732 44.6341463 60.3170732 42.7804878 59.7560976 44.6341463 59.3902439 44.6341463 58.8292683 42.7804878 58.8292683 44.6341463 58.4878049 44.6341463 58.4878049 42.3902439"></polygon>
                <g id="Group" transform="translate(4.878049, 34.146341)">
                    <path d="M11.3170732,4.43902439 L9.75609756,4.43902439 L9.75609756,2.92682927 L1.48780488,2.92682927 L1.48780488,8.97560976 L9.75609756,8.97560976 L9.75609756,7.46341463 L5.65853659,7.46341463 L5.65853659,5.95121951 L11.3170732,5.95121951 L11.3170732,8.97560976 C11.3172864,9.38526545 11.1512876,9.7774796 10.8570564,10.0625161 C10.5628251,10.3475526 10.1655401,10.5010196 9.75609756,10.4878049 L1.48780488,10.4878049 C0.662182978,10.4744867 -0.000107411831,9.80133906 4.4408921e-16,8.97560976 L4.4408921e-16,2.92682927 C1.52723362e-15,2.09166696 0.677032817,1.41463415 1.51219512,1.41463415 L9.75609756,1.41463415 C10.5912599,1.41463415 11.2682927,2.09166696 11.2682927,2.92682927 L11.3170732,4.43902439 Z" id="Shape" fill="#FFFFFF"></path>
                    <path d="M22.1219512,2.92682927 L22.1219512,4.43902439 L23.6341463,4.43902439 L23.6341463,2.92682927 C23.6341463,2.09166696 22.9571135,1.41463415 22.1219512,1.41463415 L13.902439,1.41463415 C13.0672767,1.41463415 12.3902439,2.09166696 12.3902439,2.92682927 L12.3902439,4.87804878 C12.3902439,5.71321109 13.0672767,6.3902439 13.902439,6.3902439 L22.1219512,6.82926829 L22.1219512,8.87804878 L13.902439,8.87804878 L13.902439,7.36585366 L12.3902439,7.36585366 L12.3902439,8.87804878 C12.3902439,9.71321109 13.0672767,10.3902439 13.902439,10.3902439 L22.1219512,10.3902439 C22.9571135,10.3902439 23.6341463,9.71321109 23.6341463,8.87804878 L23.6341463,6.82926829 C23.6341463,5.99410599 22.9571135,5.31707317 22.1219512,5.31707317 L13.902439,4.87804878 L13.902439,2.92682927 L22.1219512,2.92682927 Z" id="Shape" fill="#FFFFFF"></path>
                    <path d="M40.9756098,6.92682927 L40.9756098,10.4878049 L39.4634146,10.4878049 L39.4634146,2.92682927 C39.4634146,2.09166696 40.1404475,1.41463415 40.9756098,1.41463415 L49.1707317,1.41463415 C49.5695846,1.41458055 49.9517573,1.57467462 50.2314867,1.85898972 C50.511216,2.14330483 50.6650752,2.52803001 50.6585366,2.92682927 L50.6585366,10.4878049 L49.1463415,10.4878049 L49.1463415,6.92682927 L40.9756098,6.92682927 Z M43.902439,2.92682927 L40.9756098,2.92682927 L40.9756098,5.36585366 L49.1463415,5.36585366 L49.1463415,2.92682927 L43.902439,2.92682927 Z" id="Shape" fill="#FFFFFF"></path>
                    <path d="M26.2439024,2.92682927 L26.2439024,10.4878049 L24.7317073,10.4878049 L24.7317073,2.92682927 C24.7250437,2.52376431 24.8822231,2.13524774 25.167272,1.85019883 C25.4523209,1.56514992 25.8408375,1.40797054 26.2439024,1.41463415 L36.8292683,1.41463415 C37.2281211,1.41458055 37.6102939,1.57467462 37.8900232,1.85898972 C38.1697526,2.14330483 38.3236117,2.52803001 38.3170732,2.92682927 L38.3170732,10.4878049 L36.804878,10.4878049 L36.804878,2.92682927 L32.2682927,2.92682927 L32.2682927,10.4878049 L30.7560976,10.4878049 L30.7560976,2.92682927 L26.2439024,2.92682927 Z" id="Shape" fill="#FFFFFF"></path>
                    <path d="M5.31707317,36.0731707 L6.3902439,36.0731707 L10.195122,47.4878049 L9.09756098,47.4878049 L8.12195122,44.3414634 L3.56097561,44.3414634 L2.43902439,47.4878049 L1.51219512,47.4878049 L5.31707317,36.0731707 Z M3.85365854,43.3902439 L7.80487805,43.3902439 L5.87804878,37.1463415 L3.85365854,43.3902439 Z" id="Shape" fill="#ABACAE"></path>
                    <path d="M14.6341463,40.2682927 C14.1923586,40.0548627 13.7100161,39.9384352 13.2195122,39.9268293 C12.8554331,39.9068899 12.4989233,40.0360144 12.2320567,40.2844764 C11.9651901,40.5329385 11.810962,40.8793285 11.804878,41.2439024 C11.804878,42.0243902 12.097561,42.1707317 13.2195122,42.804878 C14.3414634,43.4390244 15.2439024,43.8536585 15.2439024,45.2439024 C15.2439024,46.5909384 14.151914,47.6829268 12.804878,47.6829268 C12.0792349,47.6883433 11.3591631,47.5559163 10.6829268,47.2926829 L10.8292683,46.2195122 C11.3941029,46.5738189 12.0412022,46.7755122 12.7073171,46.804878 C13.1019655,46.8180297 13.4856549,46.6737589 13.773868,46.403845 C14.0620812,46.1339311 14.231175,45.760516 14.2439024,45.3658537 C14.2439024,44.5609756 13.7560976,44.2195122 12.7560976,43.7317073 C11.3658537,43.0243902 10.804878,42.5853659 10.804878,41.4146341 C10.8823898,40.1250637 11.9520067,39.1196238 13.2439024,39.1219512 C13.7643612,39.1378362 14.2806918,39.2197934 14.7804878,39.3658537 L14.6341463,40.2682927 Z" id="Shape" fill="#ABACAE"></path>
                    <path d="M19.5121951,40.2682927 C19.0704074,40.0548627 18.5880649,39.9384352 18.097561,39.9268293 C17.7334819,39.9068899 17.3769721,40.0360144 17.1101055,40.2844764 C16.8432388,40.5329385 16.6890108,40.8793285 16.6829268,41.2439024 C16.6829268,42.0243902 16.9756098,42.1707317 18.097561,42.804878 C19.2195122,43.4390244 20.1219512,43.8536585 20.1219512,45.2439024 C20.1219512,46.5909384 19.0299628,47.6829268 17.6829268,47.6829268 C16.9575398,47.6854464 16.2380032,47.5531178 15.5609756,47.2926829 L15.7073171,46.2195122 C16.2797363,46.5768246 16.9354824,46.7785926 17.6097561,46.804878 C18.4265696,46.8190054 19.1069345,46.1818383 19.1463415,45.3658537 C19.1463415,44.5609756 18.6341463,44.2195122 17.6585366,43.7317073 C16.2439024,43.0243902 15.6829268,42.5853659 15.6829268,41.4146341 C15.7604386,40.1250637 16.8300555,39.1196238 18.1219512,39.1219512 C18.6424099,39.1378362 19.1587406,39.2197934 19.6585366,39.3658537 L19.5121951,40.2682927 Z" id="Shape" fill="#ABACAE"></path>
                    <path d="M20.8536585,43.3170732 C20.8536585,41.2195122 21.5365854,39.0487805 23.9756098,39.0487805 C26.4146341,39.0487805 27.097561,41.2195122 27.097561,43.3170732 C27.097561,45.4146341 26.4146341,47.6097561 23.9756098,47.6097561 C21.5365854,47.6097561 20.8536585,45.4146341 20.8536585,43.3170732 M26.097561,43.3170732 C26.097561,42.6585366 26.097561,39.9268293 23.9756098,39.9268293 C21.8536585,39.9268293 21.9512195,42.6585366 21.9512195,43.3170732 C21.9512195,43.9756098 21.9512195,46.7317073 24.0487805,46.7317073 C26.1463415,46.7317073 26.1707317,44 26.1707317,43.3170732" id="Shape" fill="#ABACAE"></path>
                    <path d="M32.8292683,40.4146341 C32.3876046,40.1051301 31.8558134,39.9507391 31.3170732,39.9756098 C30.0487805,39.9756098 28.8780488,40.8780488 28.8780488,43.0731707 C28.8780488,46.1219512 30.5609756,46.6585366 31.4634146,46.6585366 C31.9708009,46.6746147 32.4689156,46.5200274 32.8780488,46.2195122 L32.8780488,47.2926829 C32.365506,47.4963938 31.8198031,47.6038808 31.2682927,47.6097561 C29.4878049,47.6097561 27.804878,46.2195122 27.804878,43.3414634 C27.804878,40.4634146 29,39.0243902 31.3170732,39.0243902 C31.8522527,39.0103239 32.3843168,39.1100859 32.8780488,39.3170732 L32.8292683,40.4146341 Z" id="Shape" fill="#ABACAE"></path>
                    <path d="M33.8292683,35.8292683 L34.9756098,35.8292683 L34.9756098,37.3170732 L33.8292683,37.3170732 L33.8292683,35.8292683 Z M33.8292683,39.1463415 L34.7804878,39.1463415 L34.7804878,47.4878049 L33.8292683,47.4878049 L33.8292683,39.1463415 Z" id="Shape" fill="#ABACAE"></path>
                    <path d="M41.7560976,45.6341463 C41.7560976,46.2439024 41.7560976,46.8780488 41.7560976,47.4878049 L40.902439,47.4878049 L40.902439,46.2926829 C40.4594453,47.1521984 39.5505176,47.668852 38.5853659,47.6097561 C37.2383299,47.6097561 36.1463415,46.5177677 36.1463415,45.1707317 C36.1463415,42.4878049 38.9756098,42.4390244 40.1707317,42.4390244 L40.7804878,42.4390244 C40.7804878,41.3902439 40.7804878,40 39.0487805,40 C38.2745175,40.0451514 37.5369739,40.3453145 36.9512195,40.8536585 L36.804878,39.8536585 C37.4842981,39.3973657 38.2794253,39.1436018 39.097561,39.1219512 C39.8242284,39.0792121 40.532006,39.3632755 41.0275031,39.8965247 C41.5230002,40.429774 41.7544224,41.1564685 41.6585366,41.8780488 L41.7560976,45.6341463 Z M40.8780488,43.195122 C38.9268293,43.195122 37.2682927,43.195122 37.2682927,45.097561 C37.2616323,45.5070943 37.4213824,45.9018125 37.7110044,46.1914346 C38.0006265,46.4810567 38.3953448,46.6408067 38.804878,46.6341463 C39.2439024,46.6341463 40.8780488,46.4390244 40.8780488,44.195122 L40.8780488,43.195122 Z" id="Shape" fill="#ABACAE"></path>
                    <path d="M44.6829268,37.195122 L44.6829268,39.1463415 L46.3414634,39.1463415 L46.3414634,40.0243902 L44.6585366,40.0243902 L44.6585366,45.4634146 C44.6585366,46.1219512 44.6585366,46.7317073 45.5609756,46.7317073 C45.8338501,46.7371361 46.1032465,46.669787 46.3414634,46.5365854 L46.3414634,47.4878049 C45.9827359,47.5775012 45.61357,47.6185196 45.2439024,47.6097561 C44.0243902,47.6097561 43.7073171,46.6585366 43.7073171,45.7317073 L43.7073171,40.0243902 L42.4634146,40.0243902 L42.4634146,39.1463415 L43.7073171,39.1463415 L43.7073171,37.4878049 L44.6829268,37.195122 Z" id="Shape" fill="#ABACAE"></path>
                    <path d="M47.8536585,43.6341463 C47.8536585,46.7317073 49.8292683,46.7317073 50.2926829,46.7317073 C50.9560056,46.7021654 51.5907865,46.4533999 52.097561,46.0243902 L52.097561,47.1219512 C51.5054998,47.4636502 50.8295479,47.6326382 50.1463415,47.6097561 C46.8780488,47.6097561 46.8780488,44.1463415 46.8780488,43.3170732 C46.8780488,40.1707317 48.4390244,39.0487805 49.8292683,39.0487805 C52.2682927,39.0487805 52.5121951,41.4878049 52.5121951,43.6341463 L47.8536585,43.6341463 Z M51.4390244,42.7560976 C51.4390244,40.5365854 50.5121951,39.9268293 49.7317073,39.9268293 C48.4390244,39.9268293 47.8536585,41.6585366 47.8536585,42.7560976 L51.4390244,42.7560976 Z" id="Shape" fill="#ABACAE"></path>
                    <polygon id="Shape" fill="#ABACAE" points="5.29268293 52.2439024 6.82926829 52.2439024 10 62.1463415 10.0487805 62.1463415 13.2195122 52.2439024 14.7560976 52.2439024 14.7560976 63.6585366 13.804878 63.6585366 13.804878 53.195122 13.7804878 53.195122 10.4146341 63.6585366 9.65853659 63.6585366 6.26829268 53.195122 6.2195122 53.195122 6.2195122 63.6585366 5.29268293 63.6585366"></polygon>
                    <path d="M17.0731707,59.804878 C17.0731707,62.8780488 19.0731707,62.8780488 19.5121951,62.8780488 C20.1729816,62.8572293 20.8080179,62.6169453 21.3170732,62.195122 L21.3170732,63.2926829 C20.725012,63.6343819 20.0490601,63.8033699 19.3658537,63.7804878 C16.097561,63.7804878 16.097561,60.3170732 16.097561,59.4878049 C16.097561,56.3414634 17.6585366,55.195122 19.0487805,55.195122 C21.4878049,55.195122 21.7073171,57.7804878 21.7073171,59.804878 L17.0731707,59.804878 Z M20.6829268,58.9268293 C20.6829268,56.7073171 19.7560976,56.097561 18.9756098,56.097561 C17.6829268,56.097561 17.0731707,57.8292683 17.0731707,58.9268293 L20.6829268,58.9268293 Z" id="Shape" fill="#ABACAE"></path>
                    <path d="M23,57.902439 C23,57.0243902 23,56.195122 23,55.3170732 L23.902439,55.3170732 C23.902439,55.7073171 23.902439,55.9512195 23.902439,56.5365854 C24.2052465,55.7337934 24.9712831,55.2004768 25.8292683,55.195122 C26.7001267,55.138703 27.4923966,55.6973549 27.7317073,56.5365854 C28.1286332,55.7468008 28.9217976,55.2335768 29.804878,55.195122 C31.4878049,55.195122 31.9756098,56.6097561 31.9756098,57.9268293 L31.9756098,63.6585366 L31.0243902,63.6585366 L31.0243902,58.0243902 C31.0243902,57.4634146 31.0243902,56.097561 29.6585366,56.097561 C28.2926829,56.097561 27.9512195,57.1219512 27.9512195,58.3170732 L27.9512195,63.6585366 L27,63.6585366 L27,57.8536585 C27,56.7804878 26.5121951,56.097561 25.7317073,56.097561 C24.9512195,56.097561 23.9268293,57.195122 23.9268293,58.5365854 L23.9268293,63.6585366 L22.9756098,63.6585366 L23,57.902439 Z" id="Shape" fill="#ABACAE"></path>
                    <path d="M33.5853659,51.3902439 L34.5121951,51.3902439 L34.5121951,56.2682927 C34.928043,55.5042553 35.7404627,55.041365 36.6097561,55.0731707 C38.7073171,55.0731707 39.3658537,57.5121951 39.3658537,59.0487805 C39.3658537,60.2195122 39.3658537,63.6585366 36.5609756,63.6585366 C35.6497697,63.6791277 34.8031115,63.1899474 34.3658537,62.3902439 L34.3658537,63.5365854 L33.4878049,63.5365854 C33.4878049,62.804878 33.4878049,62.0731707 33.4878049,60.7804878 L33.5853659,51.3902439 Z M36.5853659,56.097561 C34.5365854,56.097561 34.5365854,58.5365854 34.5365854,59.5853659 C34.5365854,61.2926829 34.9756098,62.8780488 36.5853659,62.8780488 C38.195122,62.8780488 38.4878049,60.1707317 38.4878049,59.4878049 C38.4878049,57.5609756 38,56.097561 36.5853659,56.097561 Z" id="Shape" fill="#ABACAE"></path>
                    <path d="M41.2195122,59.804878 C41.2195122,62.8780488 43.195122,62.8780488 43.6585366,62.8780488 C44.319323,62.8572293 44.9543593,62.6169453 45.4634146,62.195122 L45.4634146,63.2926829 C44.8713535,63.6343819 44.1954015,63.8033699 43.5121951,63.7804878 C40.2439024,63.7804878 40.2439024,60.3170732 40.2439024,59.4878049 C40.2439024,56.3414634 41.804878,55.195122 43.195122,55.195122 C45.6341463,55.195122 45.8536585,57.7804878 45.8536585,59.804878 L41.2195122,59.804878 Z M44.804878,58.9268293 C44.804878,56.7073171 43.8780488,56.097561 43.097561,56.097561 C41.804878,56.097561 41.2195122,57.8292683 41.2195122,58.9268293 L44.804878,58.9268293 Z" id="Shape" fill="#ABACAE"></path>
                    <path d="M47.0243902,57.902439 C47.0243902,57.0243902 47.0243902,56.195122 47.0243902,55.3170732 L47.9268293,55.3170732 C47.9268293,55.804878 47.9268293,56.2926829 47.9268293,56.6341463 C48.2552222,55.7070373 49.1659314,55.1165775 50.1463415,55.195122 L50.1463415,56.2195122 C48.6341463,56.2195122 47.9512195,56.8780488 47.9512195,58.4146341 L47.9512195,63.6585366 L47,63.6585366 L47.0243902,57.902439 Z" id="Shape" fill="#ABACAE"></path>
                </g>
            </g>
        </g>
    </g>
</svg>