<?xml version="1.0" encoding="UTF-8"?>
<svg width="44px" height="52px" viewBox="0 0 44 52" version="1.1" xmlns="http://www.w3.org/2000/svg" xmlns:xlink="http://www.w3.org/1999/xlink">
    <!-- Generator: Sketch 51.2 (57519) - http://www.bohemiancoding.com/sketch -->
    <title>Shape</title>
    <desc>Created with Sketch.</desc>
    <defs></defs>
    <g id="Regional-landing-pages" stroke="none" stroke-width="1" fill="none" fill-rule="evenodd">
        <g id="NA" transform="translate(-1053.000000, -2597.000000)" fill="#FFFFFF" fill-rule="nonzero" stroke="#FFFFFF" stroke-width="0.5">
            <g id="Group-15" transform="translate(0.000000, 2296.000000)">
                <path d="M1090.13542,328.899246 C1089.4879,328.899246 1088.87298,329.069135 1088.3267,329.388321 C1088.21859,329.128053 1088.07215,328.888378 1087.90741,328.662431 C1092.12661,324.6463 1095.77665,319.650877 1095.77665,314.36544 C1095.77665,307.582463 1090.25783,302.0625 1083.47257,302.0625 C1080.19205,302.0625 1077.08771,303.356974 1074.78935,305.65019 C1072.49041,303.35583 1069.38665,302.0625 1066.10499,302.0625 C1059.32144,302.0625 1053.80148,307.581319 1053.80148,314.36544 C1053.80148,321.818249 1061.04664,328.698468 1066.92812,333.058381 C1066.90696,333.21111 1066.89323,333.365555 1066.89265,333.525719 C1066.89265,335.192005 1066.88064,338.641839 1066.88465,338.645843 C1066.88465,342.342788 1068.38905,345.699956 1070.82012,348.131028 C1073.24662,350.557523 1076.60379,352.0625 1080.30073,352.0625 C1087.70263,352.0625 1093.72139,346.04431 1093.72139,338.641839 L1093.7254,332.489797 C1093.72139,331.531096 1093.34901,330.625021 1092.67403,329.950041 C1091.99562,329.271057 1091.08954,328.899246 1090.13542,328.899246 Z M1067.93201,331.203903 C1062.43721,327.091673 1055.87046,320.828087 1055.87046,314.366012 C1055.87046,308.722493 1060.4609,304.130913 1066.10556,304.130913 C1069.16471,304.130913 1072.03966,305.484305 1073.9931,307.844447 C1074.38665,308.317505 1075.19434,308.317505 1075.58617,307.844447 C1077.53961,305.484305 1080.41342,304.130913 1083.47371,304.130913 C1089.11666,304.130913 1093.70881,308.721921 1093.70881,314.366012 C1093.70881,319.062843 1090.2298,323.658427 1086.21882,327.399418 C1085.84129,327.264994 1085.43859,327.183768 1085.0153,327.183768 C1084.26653,327.179763 1083.57152,327.41429 1082.99665,327.810698 C1082.8422,327.552146 1082.6603,327.305035 1082.44236,327.086525 C1081.76624,326.410973 1080.86016,326.039162 1079.90547,326.039162 C1079.36434,326.039162 1078.8501,326.156425 1078.37647,326.37894 L1078.37647,321.404109 C1078.37246,320.445408 1078.00065,319.547914 1077.3251,318.864925 C1076.64154,318.189373 1075.7429,317.81699 1074.78592,317.821566 C1073.82664,317.809554 1072.92057,318.190517 1072.24559,318.864925 C1071.56947,319.540477 1071.19422,320.442548 1071.19823,321.401248 L1071.19823,330.687943 C1070.16173,330.412803 1069.15155,330.477441 1068.34672,330.917894 C1068.19628,331.000265 1068.06071,331.099223 1067.93201,331.203903 Z M1091.65527,338.646987 C1091.65126,344.90428 1086.55917,349.996947 1080.30588,349.996947 C1074.04458,349.996947 1068.95134,344.905424 1068.95134,338.651563 C1068.95134,338.651563 1068.96336,335.193149 1068.96336,333.526863 C1068.96336,333.000608 1069.18187,332.823855 1069.34775,332.729472 C1069.70755,332.530982 1070.40827,332.519542 1071.19251,332.875336 L1071.19594,337.117986 C1071.19594,337.401134 1071.30977,337.660258 1071.4951,337.845591 C1071.68558,338.035501 1071.94414,338.14876 1072.22728,338.14876 C1072.80159,338.14876 1073.26378,337.687142 1073.26378,337.112837 L1073.26378,321.403536 C1073.2592,320.994544 1073.42108,320.614725 1073.70824,320.327573 C1073.99997,320.035844 1074.37178,319.882543 1074.7842,319.882543 C1075.62564,319.882543 1076.3092,320.558667 1076.3092,321.39896 L1076.3092,334.568506 C1076.3092,335.134231 1076.77425,335.599853 1077.34054,335.599853 C1077.91485,335.599853 1078.3799,335.134803 1078.37647,334.56393 L1078.37647,329.629712 C1078.37647,328.787703 1079.06003,328.104715 1079.90146,328.104715 C1080.7429,328.104715 1081.42646,328.787703 1081.42646,329.629712 L1081.42646,330.761733 C1081.42188,330.765738 1081.42646,330.770886 1081.42188,330.773746 L1081.42646,330.77775 L1081.42646,334.563358 C1081.42646,335.138235 1081.88751,335.599281 1082.46238,335.599281 C1083.02811,335.599281 1083.49373,335.134231 1083.49373,334.567934 L1083.49373,330.773746 C1083.49373,329.931737 1084.17729,329.248749 1085.01873,329.248749 C1085.85559,329.252753 1086.54372,329.931737 1086.53915,330.769742 L1086.53915,334.563358 C1086.53915,335.138235 1087.00077,335.599281 1087.57507,335.599281 C1088.14537,335.595277 1088.60642,335.134231 1088.61099,334.563358 L1088.60699,332.488653 C1088.61099,332.080233 1088.76887,331.695837 1089.05602,331.408685 C1089.34318,331.121532 1089.72757,330.963655 1090.13199,330.963655 C1090.94482,330.96766 1091.65298,331.675817 1091.65698,332.488653 L1091.65698,338.646415 L1091.65527,338.646415 L1091.65527,338.646987 Z" id="Shape"></path>
            </g>
        </g>
    </g>
</svg>