<svg xmlns="http://www.w3.org/2000/svg" width="16" height="21"><path fill="#1672B9" fill-rule="nonzero" d="M14.5142857 20.0571429c.3633829 0 .7125029-.1446423.9696457-.4017829.2571429-.2571406.4017829-.60624.4017829-.9696457V1.42857143c0-.36338286-.1446423-.71250286-.4017829-.96964572-.2571405-.25714285-.60624-.40178285-.9696457-.40178285H1.54285714c-.75714285 0-1.37142857.61428571-1.37142857 1.37142857V18.6857143c0 .3633828.14464229.7125028.40178286.9696457.25714057.2571429.60624.4017829.96964571.4017829H14.5142857zM1.6 1.48571429h12.8571429v8.84297141L12.6714286 8.0144l-.0464275-.05357257c-.2624914-.28304-.6285714-.44820572-1.0151771-.45714286-.3866057-.00803566-.7598171.13928686-1.0348114.41072l-.7607086.77499429 2.9643429 3.76434284c.2205348.31072.1580365.7392914-.141072.9749943-.2991086.2348114-.7303543.1946423-.9803658-.0928571L7.75366629 8.37519314l-.84285715-1.04642285c-.24553143-.30267429-.60356571-.49284572-.99195428-.52500572-.38838857-.03216-.77321143.095536-1.06518857.35357714l-.06428572.06428572-3.18925714 3.62491427L1.6 1.48571429z"/></svg>
