<?xml version="1.0" encoding="UTF-8"?>
<svg width="84px" height="84px" viewBox="0 0 84 84" version="1.1" xmlns="http://www.w3.org/2000/svg" xmlns:xlink="http://www.w3.org/1999/xlink">
    <!-- Generator: Sketch 50.2 (55047) - http://www.bohemiancoding.com/sketch -->
    <title>Group</title>
    <desc>Created with Sketch.</desc>
    <defs></defs>
    <g id="Regional-landing-pages" stroke="none" stroke-width="1" fill="none" fill-rule="evenodd">
        <g id="puzzle">
            <g id="Group">
                <circle id="Oval-2" fill="#FF5202" cx="42" cy="42" r="42"></circle>
                <g id="puzzle" transform="translate(15.625244, 15.625244)" fill="#FFFFFF" fill-rule="nonzero">
                    <path d="M53.158706,25.9040832 L40.3836601,13.1277832 L27.6074645,0.352737253 C27.1371482,-0.117579084 26.3745041,-0.117579084 25.9040832,0.352737253 L13.1277832,13.1277832 L0.352737253,25.9040832 C-0.117579084,26.3743996 -0.117579084,27.1370436 0.352737253,27.6074645 L13.1277832,40.3836601 L25.9039787,53.158706 C26.1392414,53.3939687 26.4474554,53.5115477 26.7556694,53.5115477 C27.0638833,53.5115477 27.3720973,53.3939687 27.60736,53.158706 L40.3835556,40.3836601 L53.1586015,27.6074645 C53.6291268,27.1370436 53.6291268,26.3745041 53.158706,25.9040832 Z M26.7557739,2.90791366 L37.8284837,13.9796828 L33.910435,17.8977315 C33.6845787,18.1235878 33.5575933,18.430025 33.5575933,18.7494221 C33.5575933,19.0688191 33.6845787,19.3752564 33.910435,19.6011127 L35.1727641,20.8634418 C35.4144022,21.1050798 35.7470726,21.2322743 36.0886268,21.2145068 C36.7704809,21.1780311 37.4192039,21.4141299 37.8670496,21.8619756 C38.7829123,22.7777338 38.7829123,24.2680095 37.8670496,25.1837676 C36.9512914,26.0996303 35.4610157,26.0996303 34.5453621,25.1837676 C33.9298748,24.5683848 33.8334077,23.7127227 33.8203433,23.3733633 C33.8087422,23.069957 33.6830109,22.7822279 33.4685467,22.5675546 L32.2062176,21.3052256 C31.970955,21.0699629 31.662741,20.9523838 31.354527,20.9523838 C31.046313,20.9523838 30.73789,21.0699629 30.5028364,21.3052256 L26.7557739,25.0522881 L23.7743863,22.0710051 L23.843157,22.0022344 C24.6855459,21.9029454 25.8781636,21.5874154 26.8125254,20.6514859 C28.6675575,18.7964537 28.6675575,15.7779635 26.8125254,13.9227223 C25.9139076,13.0241045 24.7190951,12.5292272 23.4481958,12.5292272 C22.1772966,12.5292272 20.9824841,13.024209 20.0831347,13.9234539 C19.2554825,14.7523603 18.7752372,15.8021064 18.699464,16.9255353 L18.6642426,16.9607568 L15.6830641,13.9794738 L26.7557739,2.90791366 Z M2.90791366,26.7557739 L13.9796828,15.6830641 L17.8122384,19.5156197 C18.2824502,19.9858315 19.0447807,19.985936 19.5153061,19.5159332 L20.7499388,18.2825547 C20.9918904,18.0408121 21.1197119,17.7077237 21.1014218,17.3661695 C21.066932,16.7216271 21.3108694,16.1035269 21.7875611,15.6261035 C22.7033193,14.7103454 24.193595,14.7103454 25.1092486,15.6261035 C25.5529137,16.0697686 25.7971647,16.6595453 25.7971647,17.2870518 C25.7971647,17.9145583 25.5529137,18.504335 25.108517,18.9486272 C24.5318047,19.5261756 23.6241987,19.6196118 23.2608009,19.6329897 C22.956663,19.6441728 22.6680978,19.7701131 22.452902,19.9853089 L21.2195235,21.2199415 C20.7495207,21.6904669 20.7496252,22.4527974 21.219837,22.9230093 L25.0524971,26.7556694 L22.0712141,29.7369524 L22.0024434,29.6681817 C21.9031544,28.8257928 21.5876244,27.6331751 20.6516949,26.6988133 C19.7530771,25.8003001 18.5582646,25.3053183 17.2873654,25.3053183 C16.0163616,25.3053183 14.8216536,25.8003001 13.9230358,26.6988133 C13.0243136,27.5973266 12.5295408,28.7922436 12.5295408,30.0631429 C12.5295408,31.3340421 13.0243136,32.5288547 13.9237674,33.428204 C14.7528829,34.2559608 15.8023154,34.736206 16.9258489,34.8119792 L16.9610703,34.8470961 L13.9798918,37.8282746 L2.90791366,26.7557739 Z M26.7557739,50.6036341 L15.6830641,39.5319694 L19.5156197,35.6994139 C19.9858315,35.229202 19.985936,34.4668715 19.5159332,33.9963461 L18.2825547,32.7617135 C18.0409166,32.5197619 17.7077237,32.3923584 17.3661695,32.4102304 C16.7224632,32.4447203 16.1035269,32.2007829 15.6261035,31.7240911 C15.1824385,31.2804261 14.9381875,30.6906494 14.9381875,30.0631429 C14.9381875,29.4357409 15.1824385,28.8458597 15.6261035,28.4022991 C16.0697686,27.958634 16.6595453,27.7143831 17.2870518,27.7143831 C17.9145583,27.7143831 18.504335,27.958634 18.9485227,28.4030307 C19.5260711,28.9797431 19.6195073,29.8873491 19.6328852,30.2507468 C19.6440683,30.5548847 19.7700085,30.8434499 19.9852044,31.0586458 L21.219837,32.2920243 C21.6903624,32.762027 22.4524839,32.761818 22.9229047,32.2917107 L26.7555648,28.4590506 L29.6509367,31.3544225 L29.5509161,31.4544431 C28.4201711,31.6003457 27.3735605,32.0925056 26.6240853,32.8418763 C25.7255721,33.7403895 25.2305902,34.9353066 25.2305902,36.2062058 C25.2305902,37.4771051 25.7255721,38.6719176 26.6240853,39.5705354 C27.5225985,40.4691531 28.7175156,40.9640304 29.9884148,40.9640304 C31.2594186,40.9640304 32.4541266,40.4690486 33.3528489,39.5705354 C34.1535363,38.7697434 34.6294964,37.6836262 34.7003574,36.5270661 L34.7620211,36.4654024 L37.8283791,39.5317604 L26.7557739,50.6036341 Z M39.5318649,37.8284837 L35.6138163,33.9103305 C35.3879599,33.6844742 35.0815227,33.5574887 34.7621257,33.5574887 C34.4427286,33.5574887 34.1362914,33.6844742 33.910435,33.9103305 L32.6482105,35.1726596 C32.4065724,35.4142976 32.2788554,35.7472816 32.2971455,36.0885222 C32.3335166,36.770899 32.0975223,37.4190994 31.6496766,37.8669451 C30.734023,38.7828078 29.2437473,38.7828078 28.3278846,37.8669451 C27.4120219,36.9511869 27.4120219,35.4610157 28.3278846,34.5452576 C28.9432674,33.9297703 29.7989296,33.8333031 30.138289,33.8202388 C30.4416953,33.8086377 30.7294243,33.6829064 30.9440976,33.4684422 L32.2064267,32.2061131 C32.676743,31.7357968 32.676743,30.9730482 32.2064267,30.5027319 L28.4593642,26.7556694 L31.354736,23.8602975 L31.4546521,23.9603181 C31.6005547,25.0910631 32.0927146,26.1376737 32.8420853,26.8871489 C33.7405986,27.7856621 34.9355156,28.280644 36.2064149,28.280644 C37.4773141,28.280644 38.6721267,27.7856621 39.5707444,26.8871489 C40.4693622,25.9885312 40.9642395,24.7937186 40.9642395,23.5228194 C40.9642395,22.2518156 40.4692576,21.0571076 39.5707444,20.1583853 C38.7699525,19.3575934 37.6840443,18.8816332 36.5272751,18.8108768 L36.4656114,18.7492131 L39.5319694,15.682855 L50.6037386,26.7555648 L39.5318649,37.8284837 Z" id="Shape"></path>
                </g>
            </g>
        </g>
    </g>
</svg>