<?xml version="1.0" encoding="UTF-8"?>
<svg width="141px" height="66px" viewBox="0 0 141 66" version="1.1" xmlns="http://www.w3.org/2000/svg" xmlns:xlink="http://www.w3.org/1999/xlink">
    <!-- Generator: Sketch 51.2 (57519) - http://www.bohemiancoding.com/sketch -->
    <title>Group 2</title>
    <desc>Created with Sketch.</desc>
    <defs></defs>
    <g id="Regional-landing-pages" stroke="none" stroke-width="1" fill="none" fill-rule="evenodd">
        <g id="NA" transform="translate(-1216.000000, -3534.000000)" fill-rule="nonzero">
            <g id="Group-2" transform="translate(1216.472656, 3534.500000)">
                <rect id="Rectangle-path" fill="#505053" x="0" y="8.45275234" width="139.885599" height="47.9060271"></rect>
                <rect id="Rectangle-path" fill="#F6F6F6" x="5.36547504" y="13.0304394" width="1.06457838" height="5.1312678"></rect>
                <g id="Group" transform="translate(5.185649, 0.000000)">
                    <path d="M3.54389327,18.2468734 C2.22381607,18.2468734 1.96831726,17.4590854 2.03219196,16.5861312 L3.09677035,16.5861312 C3.09677035,17.0758372 3.09677035,17.480377 3.71422581,17.480377 C3.86524065,17.4878866 4.01182759,17.4281316 4.11455507,17.3171859 C4.21728255,17.2062402 4.26560178,17.0554966 4.246515,16.9055047 C4.246515,15.9686757 2.11735823,15.9260926 2.11735823,14.3930997 C2.11735823,13.5840201 2.50060645,12.9452731 3.79939208,12.9452731 C5.0981777,12.9452731 5.37496808,13.4136876 5.28980181,14.4995575 L4.246515,14.4995575 C4.246515,14.1163093 4.246515,13.7117695 3.75680894,13.7117695 C3.60633956,13.698608 3.45775642,13.7526895 3.35095226,13.8594936 C3.2441481,13.9662978 3.19006667,14.1148809 3.20322818,14.2653503 C3.20322818,15.2447624 5.33238494,15.1595961 5.33238494,16.7564637 C5.33238494,18.3533313 4.3742644,18.2468734 3.54389327,18.2468734" id="Shape" fill="#F6F6F6"></path>
                    <path d="M6.05629824,15.6067191 C6.05629824,14.2440587 6.05629824,12.9452731 7.82349836,12.9452731 C9.59069847,12.9452731 9.59069847,14.2440587 9.59069847,15.6067191 C9.59069847,16.9693794 9.59069847,18.2468734 7.82349836,18.2468734 C6.05629824,18.2468734 6.05629824,16.9480878 6.05629824,15.6067191 M8.50482852,15.6067191 C8.50482852,14.2866419 8.50482852,13.7117695 7.82349836,13.7117695 C7.14216819,13.7117695 7.14216819,14.2866419 7.14216819,15.6067191 C7.14216819,16.9267963 7.14216819,17.480377 7.82349836,17.480377 C8.50482852,17.480377 8.50482852,16.9055047 8.50482852,15.6067191" id="Shape" fill="#F6F6F6"></path>
                    <path d="M12.763142,17.0332541 C12.7315317,17.1518359 12.7315317,17.276629 12.763142,17.3952107 C12.8266506,17.4969037 12.9417645,17.5544607 13.061224,17.5442517 C13.55093,17.5442517 13.4870553,17.1397119 13.4870553,15.9686757 C13.2722258,16.1810531 12.9799455,16.2964269 12.6779758,16.2880492 C11.9114793,16.2880492 11.6133974,15.6067191 11.6133974,14.9466805 C11.6133974,14.2866419 11.9114793,13.1794804 13.0399324,13.1794804 C14.5090506,13.1794804 14.487759,14.3505166 14.487759,15.75576 C14.487759,17.1610035 14.4877759,18.268165 13.0186409,18.268165 C12.1669781,18.268165 11.6772721,17.9700831 11.6985637,17.0332541 L12.763142,17.0332541 Z M13.1250987,15.6067191 C13.55093,15.6067191 13.5722216,15.0318467 13.5722216,14.7337648 C13.5722216,14.4356828 13.5722216,13.8608105 13.1463903,13.8608105 C12.7205589,13.8608105 12.6992673,14.4356828 12.6992673,14.7550564 C12.6992673,15.0744299 12.6992673,15.6067191 13.1250987,15.6067191 Z" id="Shape" fill="#F6F6F6"></path>
                    <path d="M17.7240773,15.6705938 C17.7240773,17.2248782 17.7240773,18.2255819 16.2975423,18.2255819 C14.8710072,18.2255819 14.8710072,17.2248782 14.8710072,15.6705938 C14.8710072,13.7756442 15.0839229,13.1368972 16.2975423,13.1368972 C17.5111616,13.1368972 17.7240773,13.7756442 17.7240773,15.6705938 M15.8717109,15.6705938 C15.8717109,17.1610035 15.8717109,17.480377 16.2975423,17.480377 C16.7233736,17.480377 16.7233736,17.1610035 16.7233736,15.6705938 C16.7233736,14.180184 16.7233736,13.839519 16.2975423,13.839519 C15.8717109,13.839519 15.8717109,14.1376009 15.8717109,15.6705938" id="Shape" fill="#F6F6F6"></path>
                    <path d="M20.8752293,15.6705938 C20.8752293,17.2248782 20.8752293,18.2255819 19.4486943,18.2255819 C18.0221592,18.2255819 18.0221592,17.2248782 18.0221592,15.6705938 C18.0221592,13.7756442 18.2350749,13.1368972 19.4486943,13.1368972 C20.6623136,13.1368972 20.8752293,13.7756442 20.8752293,15.6705938 M19.0228629,15.6705938 C19.0228629,17.1610035 19.0228629,17.480377 19.4486943,17.480377 C19.8745256,17.480377 19.8745256,17.1610035 19.8745256,15.6705938 C19.8745256,14.180184 19.8745256,13.839519 19.4486943,13.839519 C19.0228629,13.839519 19.0228629,14.1376009 19.0228629,15.6705938" id="Shape" fill="#F6F6F6"></path>
                    <path d="M21.3649354,13.9672684 C21.7376306,13.7866666 22.0650479,13.5247327 22.3230559,13.2007719 L23.2811764,13.2007719 L23.2811764,18.1617072 L22.2165981,18.1617072 L22.2165981,14.3505166 C21.9492827,14.5593662 21.6643232,14.7445899 21.3649354,14.9040973 L21.3649354,13.9672684 Z" id="Shape" fill="#F6F6F6"></path>
                    <rect id="Rectangle-path" fill="#F6F6F6" x="0.179825582" y="20.141823" width="1.06457838" height="5.1312678"></rect>
                    <path d="M3.54389327,25.358257 C2.22381607,25.358257 1.96831726,24.570469 2.03219196,23.6975148 L3.09677035,23.6975148 C3.09677035,24.1872208 3.09677035,24.5917606 3.71422581,24.5917606 C3.86524065,24.5992702 4.01182759,24.5395152 4.11455507,24.4285695 C4.21728255,24.3176238 4.26560178,24.1668802 4.246515,24.0168883 C4.246515,23.0800593 2.11735823,23.0374762 2.11735823,21.5044833 C2.11735823,20.6954037 2.50060645,20.0566567 3.79939208,20.0566567 C5.0981777,20.0566567 5.37496808,20.5250712 5.28980181,21.6109411 L4.246515,21.6109411 C4.246515,21.2276929 4.246515,20.8231531 3.75680894,20.8231531 C3.60633956,20.8099916 3.45775642,20.864073 3.35095226,20.9708772 C3.2441481,21.0776814 3.19006667,21.2262645 3.20322818,21.3767339 C3.20322818,22.356146 5.33238494,22.2709797 5.33238494,23.8678473 C5.33238494,25.4647149 4.3742644,25.358257 3.54389327,25.358257" id="Shape" fill="#F6F6F6"></path>
                    <path d="M6.05629824,22.7181026 C6.05629824,21.3554423 6.05629824,20.0566567 7.82349836,20.0566567 C9.59069847,20.0566567 9.59069847,21.3554423 9.59069847,22.7181026 C9.59069847,24.080763 9.59069847,25.358257 7.82349836,25.358257 C6.05629824,25.358257 6.05629824,24.0594714 6.05629824,22.7181026 M8.50482852,22.7181026 C8.50482852,21.3980255 8.50482852,20.8231531 7.82349836,20.8231531 C7.14216819,20.8231531 7.14216819,21.3980255 7.14216819,22.7181026 C7.14216819,24.0381798 7.14216819,24.5917606 7.82349836,24.5917606 C8.50482852,24.5917606 8.50482852,24.0168883 8.50482852,22.7181026" id="Shape" fill="#F6F6F6"></path>
                    <path d="M20.8752293,22.7819773 C20.8752293,24.3362618 20.8752293,25.3369655 19.4486943,25.3369655 C18.0221592,25.3369655 18.0221592,24.3362618 18.0221592,22.7819773 C18.0221592,20.8870278 18.2350749,20.2482808 19.4486943,20.2482808 C20.6623136,20.2482808 20.8752293,20.8870278 20.8752293,22.7819773 M19.0228629,22.7819773 C19.0228629,24.2723871 19.0228629,24.5917606 19.4486943,24.5917606 C19.8745256,24.5917606 19.8745256,24.2723871 19.8745256,22.7819773 C19.8745256,21.2915676 19.8745256,20.9509025 19.4486943,20.9509025 C19.0228629,20.9509025 19.0228629,21.2489845 19.0228629,22.7819773" id="Shape" fill="#F6F6F6"></path>
                    <path d="M24.0263813,22.7819773 C24.0263813,24.3362618 24.0263813,25.3369655 22.5998463,25.3369655 C21.1733113,25.3369655 21.1733113,24.3362618 21.1733113,22.7819773 C21.1733113,20.8870278 21.3862269,20.2482808 22.5998463,20.2482808 C23.8134656,20.2482808 24.0263813,20.8870278 24.0263813,22.7819773 M22.1740149,22.7819773 C22.1740149,24.2723871 22.1740149,24.5917606 22.5998463,24.5917606 C23.0256776,24.5917606 23.0256776,24.2723871 23.0256776,22.7819773 C23.0256776,21.2915676 23.0256776,20.9509025 22.5998463,20.9509025 C22.1740149,20.9509025 22.1740149,21.2489845 22.1740149,22.7819773" id="Shape" fill="#F6F6F6"></path>
                    <path d="M24.6225452,21.0786519 C24.9952404,20.8980501 25.3226577,20.6361163 25.5806657,20.3121555 L26.5387863,20.3121555 L26.5387863,25.2730908 L25.4742079,25.2730908 L25.4742079,21.4619002 C25.2121612,21.6780306 24.9264479,21.8637443 24.6225452,22.0154809 L24.6225452,21.0786519 Z" id="Shape" fill="#F6F6F6"></path>
                    <path d="M0.264991852,43.1792991 L0.264991852,37.4305759 L2.39414861,37.4305759 C3.28839445,37.4305759 4.05489089,37.7073662 4.05489089,38.9209856 C4.11834409,39.5346775 3.68611544,40.0890578 3.07547878,40.1771881 C3.92714148,40.3049375 4.14005716,40.8372267 4.14005716,41.6250147 C4.14005716,43.0941329 2.88385467,43.1580076 2.37285705,43.1580076 L0.264991852,43.1792991 Z M1.45731964,39.7726483 L2.26639921,39.7726483 C2.44792202,39.7682243 2.61898322,39.6867533 2.73681682,39.5486036 C2.85465041,39.4104539 2.9081188,39.2286832 2.88385467,39.048735 C2.89562542,38.860777 2.82907338,38.6763301 2.70000123,38.5391909 C2.57092908,38.4020518 2.39085037,38.3244535 2.20252451,38.3248217 L1.45731964,38.3248204 L1.45731964,39.7726483 Z M1.45731964,42.2850533 L2.11735823,42.2850533 C2.34464047,42.3306145 2.57976928,42.2611434 2.74579408,42.0993756 C2.91181889,41.9376079 2.98737283,41.7043625 2.94772937,41.4759737 C2.94772937,40.9649761 2.75610526,40.6668941 2.15994137,40.6668941 L1.45731964,40.6668941 L1.45731964,42.2850533 Z" id="Shape" fill="#F6F6F6"></path>
                    <path d="M8.97324301,37.4305759 L8.97324301,41.4972653 C8.99829614,42.0079711 8.79259665,42.5029161 8.4129462,42.8454269 C8.03329575,43.1879376 7.51986008,43.3417775 7.01441879,43.2644654 C5.69434159,43.2644654 5.07688613,42.5831352 5.07688613,41.4972653 L5.07688613,37.4305759 L6.26921392,37.4305759 L6.26921392,41.4333906 C6.26921392,42.1360123 6.56729587,42.4128027 7.01441879,42.4128027 C7.46154171,42.4128027 7.75962365,42.050846 7.75962365,41.4333906 L7.75962365,37.4305759 L8.97324301,37.4305759 Z" id="Shape" fill="#F6F6F6"></path>
                    <path d="M11.1236913,43.1792991 L9.93136355,43.1792991 L9.93136355,37.4305759 L12.0605203,37.4305759 C12.8695999,37.4305759 13.4018891,37.9628651 13.4018891,38.9422772 C13.4904879,39.6228581 13.0164637,40.2485699 12.3373107,40.3475206 C12.6337258,40.3324127 12.921554,40.4496622 13.1230381,40.667594 C13.3245223,40.8855258 13.4188716,41.1816521 13.3805975,41.4759737 C13.3659724,42.0395345 13.4087764,42.6031198 13.5083469,43.1580076 L12.3373107,43.1580076 C12.2098904,42.7963684 12.1662101,42.4105262 12.2095613,42.0295545 C12.2095613,41.3482243 12.2095613,40.773352 11.336607,40.773352 L11.0385251,40.773352 L11.1236913,43.1792991 Z M11.1236913,39.9216893 L11.6559805,39.9216893 C12.124395,39.9216893 12.273436,39.4319832 12.273436,39.0700266 C12.273436,38.7080699 12.0392287,38.3248217 11.6559805,38.3248217 L11.1236913,38.3248217 L11.1236913,39.9216893 Z" id="Shape" fill="#F6F6F6"></path>
                    <polygon id="Shape" fill="#F6F6F6" points="14.3600096 43.1792991 14.3600096 37.4305759 17.4898701 37.4305759 17.4898701 38.3248217 15.5523374 38.3248217 15.5523374 39.7300652 17.3408291 39.7300652 17.3408291 40.6030194 15.5523374 40.6030194 15.5523374 42.2850533 17.5537448 42.2850533 17.5537448 43.1792991"></polygon>
                    <path d="M17.8944098,43.1792991 L19.4912774,37.4305759 L21.0668534,37.4305759 L22.6211378,43.1792991 L21.3649354,43.1792991 L21.0455618,41.9018051 L19.4061111,41.9018051 L19.0867376,43.1792991 L17.8944098,43.1792991 Z M20.2151907,38.5377374 L19.66161,41.0288508 L20.8113546,41.0288508 L20.2151907,38.5377374 Z" id="Shape" fill="#F6F6F6"></path>
                    <path d="M27.0710755,37.4305759 L27.0710755,41.4972653 C27.0961286,42.0079711 26.8904291,42.5029161 26.5107787,42.8454269 C26.1311282,43.1879376 25.6176926,43.3417775 25.1122513,43.2644654 C23.7921741,43.2644654 23.153427,42.5831352 23.153427,41.4972653 L23.153427,37.4305759 L24.3670464,37.4305759 L24.3670464,41.4333906 C24.3670464,42.1360123 24.6651283,42.4128027 25.1122513,42.4128027 C25.5593742,42.4128027 25.8574561,42.050846 25.8574561,41.4333906 L25.8574561,37.4305759 L27.0710755,37.4305759 Z" id="Shape" fill="#F6F6F6"></path>
                    <polygon id="Shape" fill="#F6F6F6" points="29.3492732 37.4305759 30.5841841 37.4305759 31.47843 41.6037231 31.4997215 41.6037231 32.5004252 37.4305759 33.6714614 37.4305759 32.1597601 43.1792991 30.7545167 43.1792991"></polygon>
                    <polygon id="Shape" fill="#F6F6F6" points="34.2250422 43.1792991 34.2250422 37.4305759 37.3549026 37.4305759 37.3549026 38.3248217 35.41737 38.3248217 35.41737 39.7300652 37.2058617 39.7300652 37.2058617 40.6030194 35.41737 40.6030194 35.41737 42.2850533 37.4187773 42.2850533 37.4187773 43.1792991"></polygon>
                    <path d="M39.3776016,43.1792991 L38.1639822,43.1792991 L38.1639822,37.4305759 L40.293139,37.4305759 C41.1235101,37.4305759 41.6345077,37.9628651 41.6345077,38.9422772 C41.6829383,39.2703129 41.5974113,39.6040434 41.3971772,39.8683524 C41.1969431,40.1326614 40.8988271,40.3053397 40.5699293,40.3475206 C40.8663444,40.3324127 41.1541726,40.4496622 41.3556568,40.667594 C41.5571409,40.8855258 41.6514903,41.1816521 41.6132162,41.4759737 C41.5944681,42.040622 41.6445165,42.6054532 41.7622571,43.1580076 L40.5699293,43.1580076 C40.4527218,42.7940959 40.4092911,42.4104582 40.4421799,42.0295545 C40.4421799,41.3482243 40.4421799,40.773352 39.5905172,40.773352 L39.2924353,40.773352 L39.3776016,43.1792991 Z M39.3776016,39.9216893 L39.9098908,39.9216893 C40.3783052,39.9216893 40.5060546,39.4319832 40.5060546,39.0700266 C40.5060546,38.7080699 40.2718474,38.3248217 39.9098908,38.3248217 L39.3776016,38.3248217 L39.3776016,39.9216893 Z" id="Shape" fill="#F6F6F6"></path>
                    <rect id="Rectangle-path" fill="#F6F6F6" x="42.6139198" y="37.4305759" width="1.19232779" height="5.72743169"></rect>
                    <polygon id="Shape" fill="#F6F6F6" points="48.2348937 37.4305759 48.2348937 38.3886964 46.8935249 38.3886964 46.8935249 43.1792991 45.7011971 43.1792991 45.7011971 38.3886964 44.3598284 38.3886964 44.3598284 37.4305759"></polygon>
                    <path d="M48.0432696,43.1792991 L49.6401372,37.4305759 L51.2157132,37.4305759 L52.7699976,43.1792991 L51.5137951,43.1792991 L51.1944216,41.9018051 L49.5549709,41.9018051 L49.2355974,43.1792991 L48.0432696,43.1792991 Z M50.3640505,38.5377374 L49.8317613,41.0288508 L50.9602143,41.0288508 L50.3640505,38.5377374 Z" id="Shape" fill="#F6F6F6"></path>
                    <path d="M54.8778628,43.2644654 C53.3874531,43.2644654 53.1106627,42.3915111 53.1745374,41.3908074 L54.4307399,41.3908074 C54.4307399,41.9443882 54.4307399,42.4128027 55.11207,42.4128027 C55.7934002,42.4128027 55.7082339,42.1573039 55.7082339,41.7527641 C55.7082339,40.7307688 53.3022868,40.6668941 53.3022868,38.9635687 C53.3022868,38.0480313 53.7281181,37.3454096 55.1759447,37.3454096 C56.6237713,37.3454096 56.9431448,37.8564072 56.8579786,39.0700266 L55.6869424,39.0700266 C55.6869424,38.6441952 55.6869424,38.1970723 55.1333616,38.1970723 C54.9640346,38.1760901 54.7944924,38.2343625 54.6738444,38.3550106 C54.5531964,38.4756586 54.4949239,38.6452007 54.5159061,38.8145278 C54.5159061,39.9003977 56.9218533,39.7939399 56.9218533,41.6037231 C56.9218533,43.0941329 55.8359833,43.2644654 54.9204459,43.2644654" id="Shape" fill="#F6F6F6"></path>
                    <path d="M0.137242446,48.0550681 C0.137242446,46.6924078 0.137242446,45.3936222 1.90444256,45.3936222 C2.99031251,45.3936222 3.43743543,46.0110776 3.39485229,47.0969476 L2.35156548,47.0969476 C2.35156548,46.4156174 2.22381607,46.1601186 1.90444256,46.1601186 C1.58506904,46.1601186 1.22311239,46.7349909 1.22311239,48.0550681 C1.22311239,49.3751453 1.22311239,49.9287261 1.90444256,49.9287261 C2.58577272,49.9287261 2.37285705,49.289979 2.39414861,48.8854392 L3.45872699,48.8854392 C3.45872699,50.2480996 2.90514624,50.6952225 1.90444256,50.6952225 C0.137242446,50.6952225 0.137242446,49.3964369 0.137242446,48.0550681" id="Shape" fill="#F6F6F6"></path>
                    <path d="M5.01301143,48.9706055 C5.01301143,49.3964369 5.01301143,50.0351839 5.46013435,50.0351839 C5.90725727,50.0351839 5.8859657,49.6945188 5.8859657,49.3964369 L6.90796095,49.3964369 C6.90976313,49.7472311 6.77186459,50.0843164 6.52471273,50.3332658 C6.22437487,50.5749045 5.8449602,50.6963172 5.46013435,50.6739309 C4.16134873,50.6739309 3.99101618,49.8861429 3.99101618,48.7789814 C3.99101618,47.6718199 4.14005716,46.9479066 5.46013435,46.9479066 C6.78021154,46.9479066 6.95054408,47.8208609 6.92925252,49.0770634 L5.01301143,48.9706055 Z M5.92854884,48.4170248 C5.92854884,48.0763597 5.92854884,47.5653621 5.46013435,47.5653621 C4.99171986,47.5653621 5.01301143,48.1189428 5.01301143,48.4170248 L5.92854884,48.4170248 Z" id="Shape" fill="#F6F6F6"></path>
                    <path d="M8.58999479,47.0330729 L8.58999479,47.4801958 C8.75878537,47.1229695 9.13354678,46.9100368 9.52682377,46.9479066 L9.52682377,47.8421524 C8.65386949,47.8421524 8.63257793,48.3105669 8.63257793,48.651232 L8.63257793,50.6100562 L7.58929111,50.6100562 L7.58929111,47.0330729 L8.58999479,47.0330729 Z" id="Shape" fill="#F6F6F6"></path>
                    <path d="M9.71844787,47.0330729 L10.1229877,47.0330729 L10.1229877,46.4582005 L11.1236913,46.0110776 L11.1236913,47.0330729 L11.6559805,47.0330729 L11.6559805,47.6505283 L11.1236913,47.6505283 L11.1236913,49.5667694 C11.1236913,49.8222682 11.1236913,50.0138923 11.4430649,50.0138923 L11.634689,50.0138923 L11.634689,50.6313478 L11.1023998,50.6313478 C10.2507371,50.6313478 10.1229877,50.0564755 10.1229877,49.8222682 L10.1229877,47.6931115 L9.71844787,47.6931115 L9.71844787,47.0330729 Z" id="Shape" fill="#F6F6F6"></path>
                    <path d="M13.3380144,46.2665764 L12.3373107,46.2665764 L12.3373107,45.4787884 L13.3380144,45.4787884 L13.3380144,46.2665764 Z M13.3380144,50.52489 L12.3373107,50.52489 L12.3373107,46.9479066 L13.3380144,46.9479066 L13.3380144,50.52489 Z" id="Shape" fill="#F6F6F6"></path>
                    <path d="M15.8291278,46.0962439 C15.424588,46.0962439 15.3394217,46.2239933 15.3394217,46.5859499 L15.3394217,47.0330729 L15.8078362,47.0330729 L15.8078362,47.6505283 L15.3394217,47.6505283 L15.3394217,50.6100562 L14.338718,50.6100562 L14.338718,47.6505283 L13.9767614,47.6505283 L13.9767614,47.0330729 L14.4451759,47.0330729 C14.4451759,45.9897861 14.338718,45.4574969 15.573629,45.4574969 L15.914294,45.4574969 L15.8291278,46.0962439 Z" id="Shape" fill="#F6F6F6"></path>
                    <path d="M17.4685785,46.2665764 L16.4678748,46.2665764 L16.4678748,45.4787884 L17.4685785,45.4787884 L17.4685785,46.2665764 Z M17.4685785,50.52489 L16.4678748,50.52489 L16.4678748,46.9479066 L17.4685785,46.9479066 L17.4685785,50.52489 Z" id="Shape" fill="#F6F6F6"></path>
                    <path d="M20.1726076,48.3105669 C20.1726076,47.7782777 20.0448582,47.5866536 19.7254847,47.5866536 C19.4061111,47.5866536 19.2570702,47.9699018 19.2570702,48.7151067 C19.2570702,49.8009767 19.2570702,50.0351839 19.7254847,50.0351839 C20.1938991,50.0351839 20.1938991,49.7583935 20.1938991,49.289979 L21.1946028,49.289979 C21.1946028,50.2693911 20.6623136,50.6739309 19.7254847,50.6739309 C18.426699,50.6739309 18.2563665,49.8861429 18.2563665,48.7789814 C18.2563665,47.6718199 18.4054075,46.9479066 19.7254847,46.9479066 C20.6410221,46.9479066 21.1733113,47.3737379 21.1733113,48.3105669 L20.1726076,48.3105669 Z" id="Shape" fill="#F6F6F6"></path>
                    <path d="M24.6225452,49.9500176 C24.6225452,50.1629333 24.6225452,50.3971405 24.6225452,50.6100562 L23.7070078,50.6100562 L23.7070078,50.1416417 C23.5250619,50.4863954 23.1594756,50.6941149 22.7701788,50.6739309 C22.0675571,50.6739309 21.8120583,50.1629333 21.8120583,49.5454778 C21.8120583,48.3531501 22.7275957,48.3105669 23.6644247,48.3105669 L23.6644247,48.0337765 C23.6644247,47.7356946 23.6644247,47.5227789 23.2598849,47.5227789 C22.8553451,47.5227789 22.8766367,47.7782777 22.8766367,48.0550681 L21.8972246,48.0550681 C21.8692481,47.7180159 22.0134138,47.3896383 22.2804728,47.1821138 C22.5593643,47.0051607 22.8879489,46.9230145 23.2173017,46.9479066 C24.4735042,46.9479066 24.6438368,47.5014874 24.6438368,48.1615259 L24.6225452,49.9500176 Z M22.7701788,49.5028947 C22.7701788,49.7583935 22.7701788,50.0564755 23.153427,50.0564755 C23.5366753,50.0564755 23.6431331,49.2686875 23.6431331,48.8854392 C23.153427,48.8854392 22.7701788,48.8854392 22.7701788,49.5028947 Z" id="Shape" fill="#F6F6F6"></path>
                    <path d="M25.0057934,47.0330729 L25.4103332,47.0330729 L25.4103332,46.4582005 L26.4110369,46.0110776 L26.4110369,47.0330729 L26.9220345,47.0330729 L26.9220345,47.6505283 L26.4110369,47.6505283 L26.4110369,49.5667694 C26.4110369,49.8222682 26.4110369,50.0138923 26.7304104,50.0138923 L26.9220345,50.0138923 L26.9220345,50.6313478 L26.3897453,50.6313478 C25.516791,50.6313478 25.4103332,50.0564755 25.4103332,49.8222682 L25.4103332,47.6931115 L25.0057934,47.6931115 L25.0057934,47.0330729 Z" id="Shape" fill="#F6F6F6"></path>
                    <path d="M28.4763189,46.2665764 L27.4756153,46.2665764 L27.4756153,45.4787884 L28.4763189,45.4787884 L28.4763189,46.2665764 Z M28.4763189,50.52489 L27.4756153,50.52489 L27.4756153,46.9479066 L28.4763189,46.9479066 L28.4763189,50.52489 Z" id="Shape" fill="#F6F6F6"></path>
                    <path d="M29.2853985,48.7789814 C29.2853985,47.7995693 29.4131479,46.9479066 30.7332251,46.9479066 C32.0533023,46.9479066 32.2023433,47.7995693 32.2023433,48.7789814 C32.2023433,49.7583935 32.0320107,50.6739309 30.7332251,50.6739309 C29.4344395,50.6739309 29.2853985,49.8861429 29.2853985,48.7789814 M31.2016396,48.7789814 C31.2016396,48.0337765 31.2016396,47.6505283 30.7332251,47.6505283 C30.2648106,47.6505283 30.2861022,48.0337765 30.2861022,48.7789814 C30.2861022,49.8648514 30.2861022,50.0990586 30.7332251,50.0990586 C31.180348,50.0990586 31.2016396,49.8648514 31.2016396,48.7789814" id="Shape" fill="#F6F6F6"></path>
                    <path d="M33.9056687,47.3950295 C33.986397,47.2453897 34.1133719,47.1258838 34.2676253,47.0543644 C34.4288144,47.0178118 34.5961423,47.0178118 34.7573314,47.0543644 C34.9811816,47.0368312 35.2025906,47.1106986 35.3710731,47.2591236 C35.5395555,47.4075487 35.6407482,47.6178779 35.6515772,47.8421524 L35.6515772,50.7165141 L34.6508736,50.7165141 L34.6508736,48.2466922 C34.6508736,47.9273187 34.6508736,47.6718199 34.2676253,47.6718199 C33.8843771,47.6718199 33.8843771,47.9273187 33.8843771,48.2466922 L33.8843771,50.7165141 L32.8836734,50.7165141 L32.8836734,47.1395307 L33.8843771,47.1395307 L33.9056687,47.3950295 Z" id="Shape" fill="#F6F6F6"></path>
                    <path d="M96.8648341,64.8115318 C100.391914,64.8160285 103.900311,64.2994547 107.276411,63.278539 C110.927241,62.0017674 114.080033,59.601769 116.282744,56.4226542 C120.540498,49.131035 122.809162,40.849308 122.861838,32.4057659 C122.80618,23.9626346 120.537722,15.6816631 116.282744,8.38887764 C114.101943,5.22019035 110.97034,2.82675145 107.340285,1.55428444 C103.885879,0.524855143 100.29901,0.00834609502 96.6945016,0.0212915676 C93.0899929,0.00834609502 89.5031245,0.524855143 86.0487178,1.55428444 C82.4250688,2.82806328 79.3006545,5.22170765 77.1275509,8.38887764 C72.8539272,15.6738161 70.5840735,23.9598841 70.5484566,32.4057659 C70.5810343,40.8520627 72.8511008,49.1389076 77.1275509,56.4226542 C79.369559,59.6577212 82.6183712,62.0606445 86.3680913,63.2572474 C89.7716513,64.2881882 93.3085637,64.8119095 96.8648341,64.8115318 Z" id="Shape" fill="#747577"></path>
                    <path d="M120.924306,32.4057659 C120.847745,39.4449342 119.401399,46.4018602 116.665992,52.888254 C114.791221,57.8077117 110.648792,61.5136779 105.551794,62.831416 C102.671862,63.5699676 99.7102069,63.9419629 96.7370847,63.9385776 C93.7640469,63.9406048 90.8025619,63.5686308 87.9223757,62.831416 C82.8224688,61.5100747 78.6749175,57.8066206 76.7868859,52.888254 C74.0618202,46.3986427 72.6158994,39.4437635 72.5285723,32.4057659 C72.6158312,25.3608793 74.0617008,18.399017 76.7868859,11.9019863 C78.6835149,6.99387186 82.8288629,3.3003113 87.9223757,1.98011579 C90.8025619,1.242901 93.7640469,0.870927045 96.7370847,0.872954272 C99.7102069,0.869568918 102.671862,1.2415642 105.551794,1.98011579 C110.642367,3.29674477 114.782575,6.9927917 116.665992,11.9019863 C119.400979,18.3959708 120.847251,25.3597707 120.924306,32.4057659" id="Shape" fill="#F6F6F6"></path>
                    <path d="M97.0138751,8.51662705 C99.4794945,8.51742514 101.934499,8.83951027 104.316883,9.47474759 C106.756132,10.1491501 108.769104,11.8734401 109.810107,14.180184 C112.257842,19.9348379 113.497085,26.1310496 113.450965,32.3844743 C113.493278,38.6465486 112.246717,44.8503613 109.788816,50.6100562 C108.742796,52.9086591 106.730591,54.6244925 104.295591,55.2942011 C101.916243,55.94695 99.459843,56.2763798 96.9925835,56.2736132 C94.5254775,56.2740697 92.0693842,55.9446811 89.6895758,55.2942011 C87.2545761,54.6244925 85.2423715,52.9086591 84.1963514,50.6100562 C81.7486164,44.8554023 80.5093741,38.6591907 80.5554933,32.4057659 C80.5093741,26.1523412 81.7486164,19.9561295 84.1963514,14.2014756 C85.2373547,11.8947317 87.2503266,10.1704417 89.6895758,9.49603916 C92.072241,8.8622231 94.527059,8.54016242 96.9925835,8.53791861 L97.0138751,8.51662705 Z" id="Shape" fill="#747577"></path>
                    <path d="M100.441817,17.6507096 C100.101152,17.0545457 100.441817,17.6507096 100.015986,16.9055047" id="Shape" fill="#F6F6F6"></path>
                    <rect id="Rectangle-path" fill="#F6F6F6" x="84.7499322" y="31.1282719" width="8.26112824" height="2.40594714"></rect>
                    <path d="M91.1374024,51.9301334 C90.9843333,51.6481067 90.8969908,51.3351293 90.8819036,51.014596 L95.6086316,51.014596 C95.5689769,51.7107493 95.2067773,52.3485355 94.6292195,52.739213 C93.9013655,53.245559 92.9566421,53.3188565 92.1593977,52.9308371 C91.7350855,52.6950497 91.3820695,52.3493882 91.1374024,51.9301334" id="Shape" fill="#F6F6F6"></path>
                    <polygon id="Shape" fill="#F6F6F6" points="96.2473787 50.0138923 93.7136821 50.0138923 93.7136821 48.8428561 96.2473787 48.8428561 97.0564582 47.9060271 97.8655378 48.8428561 100.420526 48.8428561 100.420526 50.0351839 97.8655378 50.0351839 97.8655378 52.9521287 96.2473787 52.9521287"></polygon>
                    <path d="M96.5454606,46.3517427 C97.0564582,46.1814102 97.8016631,45.8833282 97.9507041,45.3936222 C98.0035929,44.6041765 98.3182795,43.8549228 98.8449499,43.2644654 C99.0228264,43.0687123 99.0872099,42.7950826 99.0152825,42.5405521 C99.8810361,42.6394757 100.623898,43.2027447 100.952815,44.0096703 C101.264491,44.8107357 101.152479,45.7148342 100.654733,46.4156174 C100.075501,47.1857385 99.1122458,47.5644544 98.1636198,47.3950295 C97.4958753,47.2484736 96.9137602,46.842525 96.5454606,46.2665764" id="Shape" fill="#F6F6F6"></path>
                    <path d="M90.4347807,35.8124167 C89.94112,35.5873905 89.3741569,35.5873905 88.8804963,35.8124167 C88.4157082,35.9794977 88.0803405,36.3884827 88.007542,36.8769951 C88.007542,38.3035301 88.007542,38.7506531 88.007542,40.3262291 C88.007542,40.5604363 87.8372095,40.6881857 87.5391275,40.6881857 C87.2410456,40.6881857 87.070713,40.5391447 87.0920046,40.3262291 L87.0920046,36.8131204 C87.1060671,36.4387666 86.9765891,36.0731818 86.7300479,35.7911252 L84.9202647,36.3872891 L84.7499322,36.3872891 C85.2183466,36.7279541 85.4312623,36.7279541 85.4738455,37.3028265 L85.4738455,42.0295545 L85.4738455,42.1785954 L85.4738455,42.3276364 L85.4738455,42.4340943 C85.7456034,42.8362977 86.1675396,43.1124741 86.6448817,43.2005907 C86.8359346,43.2215152 87.0287011,43.2215152 87.219754,43.2005907 C87.716101,43.2482071 88.2134168,43.1201106 88.6249975,42.838634 C89.3702023,42.2637617 89.2211614,41.2417665 89.2211614,39.7513567 C89.2211614,39.3255254 89.2211614,39.0913181 89.5192433,38.8571109 C89.7505771,38.6836998 90.0467084,38.6213564 90.3283229,38.6867784 C90.5737589,38.7487086 90.8050443,38.8571236 91.009653,39.0061519 C91.009653,37.7286578 91.009653,36.1530818 90.2431566,35.748542" id="Shape" fill="#F6F6F6"></path>
                    <path d="M107.297702,41.4546821 C105.977625,40.1558965 103.678136,38.3248217 103.486512,37.5583253 C103.347908,36.9873909 103.297643,36.398583 103.337471,35.8124167 L104.508507,34.8968793 C104.508507,35.8124167 104.338174,36.7492457 104.785297,37.3028265 L107.829991,40.3049375 C108.249366,40.6677315 108.416176,41.2432247 108.255823,41.7740557 C108.127533,42.0411075 107.978012,42.2974296 107.8087,42.5405521 C107.809262,42.1204054 107.6218,41.7220481 107.297702,41.4546821" id="Shape" fill="#F6F6F6"></path>
                    <path d="M99.7817789,34.8330046 C100.803774,34.8330046 101.123148,34.8330046 102.187726,34.8330046 L102.187726,41.9230966 L99.7817789,41.9230966 L99.7817789,34.8330046 Z" id="Shape" fill="#F6F6F6"></path>
                    <path d="M105.147254,35.4930432 L105.807293,34.8117131 L106.403456,35.5356264 L106.403456,37.6647831 C107.255119,37.2602433 107.042203,36.046624 107.042203,35.0033372 C107.553201,35.4078769 107.8087,35.6420842 108.298406,36.0892071 C108.575196,37.3028265 107.829991,37.9841566 107.297702,38.8358193 L105.168545,36.7066626 L105.147254,35.4930432 Z" id="Shape" fill="#F6F6F6"></path>
                    <path d="M107.106078,30.0636935 L107.425452,28.7223247 L108.468738,28.5519922 L108.468738,25.2092161 L107.574493,25.358257 L107.574493,22.8032689 C107.020912,22.9310183 106.44604,23.1226424 105.849876,23.2503918 L105.849876,27.5087054 C105.849876,27.721621 105.530502,27.7854957 105.466627,27.7854957 C105.253712,27.7854957 105.040796,27.6364548 105.040796,27.4874138 L105.040796,23.4207244 L103.358762,23.6336401 L103.358762,25.3369655 C102.69903,26.5460416 101.921675,27.6871132 101.037981,28.7436163 L102.911639,28.8926573 L103.46522,30.084985 L107.106078,30.0636935 Z" id="Shape" fill="#F6F6F6"></path>
                    <path d="M88.0288336,29.2333223 C88.0288336,28.1261608 88.0288336,27.4022475 88.0288336,26.295086 C88.3770581,26.2570818 88.7231866,26.3829466 88.9656625,26.6357511 C88.9656625,28.019703 88.9656625,27.9984114 88.9656625,29.4675296 L88.1991661,29.4675296 L88.0288336,29.2333223 Z" id="Shape" fill="#F6F6F6"></path>
                    <path d="M87.8797926,22.8671436 C87.7094601,21.7599821 87.6881685,21.6748158 87.5817106,20.8870278 L86.9003805,20.8870278 L86.9003805,20.1205314 L89.9663662,20.1205314 L89.9663662,20.8870278 L89.2424529,20.8870278 L88.944371,23.4633075 C88.6378586,23.1884534 88.2743014,22.9848614 87.8797926,22.8671436" id="Shape" fill="#F6F6F6"></path>
                    <path d="M87.7733348,19.5669506 C86.8509706,18.3538843 86.5155103,16.7936035 86.8577973,15.3086371 C87.036172,15.8529763 87.4392359,16.2947964 87.9649589,16.5222565 C87.9649589,16.2241745 87.6242938,15.9686757 87.5604191,15.6493022 C87.2791683,14.9956212 87.343081,14.2446464 87.7307516,13.6478948 C88.012491,13.2840327 88.4110145,13.0283761 88.8592047,12.9239815 C88.6669533,13.4462371 88.6669533,14.0198852 88.8592047,14.5421407 L89.3914939,14.0737262 C89.4500327,14.0175414 89.5142524,13.9675927 89.583118,13.9246852 C90.1188442,14.8591393 90.328572,15.9452294 90.1792819,17.0119625 L90.0089494,17.4590854 C90.0089494,16.7351721 89.8386168,16.3945071 89.3489108,16.1177167 C89.3489108,16.543548 89.5618264,16.84163 89.6257011,17.3952107 C89.8439803,18.141794 89.6585143,18.9481678 89.1359951,19.5243675 L87.7733348,19.5669506 Z" id="Shape" fill="#F6F6F6"></path>
                    <path d="M100.441817,17.6507096 L99.3985307,18.8217458 C99.1004487,18.5449554 99.0791572,18.5023723 98.7810752,18.2042903 C99.334656,17.6507096 99.3985307,17.5868349 100.015986,16.9055047" id="Shape" fill="#F6F6F6"></path>
                    <path d="M101.825769,14.9040973 C102.059977,13.9033937 102.166434,12.7749406 103.273596,12.3278176 C103.732557,12.1886941 104.230306,12.2756027 104.614965,12.5620249 C105.062545,12.9060269 105.256334,13.4873932 105.104671,14.0311431 C104.785297,15.2021793 103.486512,15.415095 102.421933,15.6918853 L101.825769,14.9040973 Z" id="Shape" fill="#F6F6F6"></path>
                    <rect id="Rectangle-path" fill="#F6F6F6" x="100.910232" y="31.1282719" width="8.26112824" height="2.40594714"></rect>
                    <path d="M89.2211614,47.2672801 C88.8804963,45.7342872 90.7328627,45.1381233 91.158694,43.924504 C91.2034834,41.7799196 91.8691003,39.6943199 93.0749351,37.9202819 C93.1243836,34.8806637 94.3268761,31.9733717 96.4390028,29.7869031 C96.2982812,29.1176982 96.0987863,28.462215 95.8428389,27.8280789 C95.5646269,27.8320652 95.2963487,27.7247539 95.097634,27.5299969 C94.9183595,27.2950526 94.8077997,27.0149677 94.7782605,26.7209174 C94.0080586,27.7540628 93.0729004,28.6532534 92.0103567,29.3823633 C91.797441,29.3823633 91.5632338,29.3823633 91.2225687,28.9352404 C89.9237831,27.9345367 89.7108674,25.6137558 87.7520432,25.7202137 C86.8577973,25.4221317 86.9003805,24.3788449 86.7513395,23.5910569 C87.1482664,23.3999397 87.6106151,23.3999397 88.007542,23.5910569 C89.2424529,24.2510955 90.1366988,25.7202137 91.2225687,26.5505848 C91.4813322,26.8222236 91.7748578,27.0584759 92.095523,27.2532065 C92.8709262,26.6486604 93.5094913,25.8867361 93.9691809,25.0175919 C94.3221881,24.4834232 94.9260221,24.1694295 95.5660485,24.1872208 L96.034463,23.6336401 L95.8002557,22.2709797 C95.3280956,21.6742059 94.9278942,21.0238786 94.607928,20.3334471 C94.7569689,19.5456591 94.8634268,18.6301217 95.6725063,18.2042903 C96.4815859,17.778459 96.6093353,18.6301217 97.0351667,18.2042903 C97.3199346,18.1448376 97.616395,18.2150519 97.8442462,18.3959144 C98.2245951,18.917948 98.4729678,19.5242696 98.5681595,20.1631145 C98.3513234,20.795486 98.0806378,21.4080903 97.75908,21.9941893 C97.75908,22.1219388 97.5035812,22.1645219 97.3971233,22.2709797 C97.4403889,22.5484451 97.5499452,22.81138 97.7164968,23.0374762 C97.9629669,23.0812845 98.2152316,23.0812845 98.4617017,23.0374762 C98.7636511,22.4000773 99.3616508,21.9535708 100.058569,21.8451484 L101.42123,20.9509025 C101.208314,19.9076157 101.868353,18.9920783 101.42123,17.9487915 C100.750436,17.5205697 100.317486,16.8042338 100.250193,16.0112588 C100.380772,15.5555125 100.59761,15.1290642 100.88894,14.7550564 C101.666439,15.5484541 102.236784,16.5209648 102.549683,17.5868349 C102.724949,18.9990523 102.781924,20.4234439 102.720015,21.8451484 C101.965361,22.5125262 101.136675,23.0911772 100.250193,23.5697654 L99.6327379,24.7620931 C99.6327379,25.9970041 99.185615,27.1254571 99.0152825,28.3177849 C99.7202379,29.779073 99.9581266,31.421992 99.6966126,33.0232214 C99.296098,33.7112079 98.7238569,34.2834491 98.0358703,34.6839636 L96.6306269,35.8124167 C98.0358703,37.3667012 97.7164968,39.1339013 97.75908,41.3695159 C97.75908,41.9230966 98.7172005,42.3702196 98.2062029,42.987675 C97.6952053,43.6051305 97.0990414,44.2438775 97.2054992,45.1168318 C96.7409126,45.7066966 96.0175994,46.032585 95.2679666,45.9897861 C95.2192324,45.9959275 95.1702194,45.9807316 95.133507,45.9480983 C95.0967945,45.915465 95.075957,45.8685716 95.0763424,45.8194535 C95.2267693,45.4613923 95.4121965,45.1190653 95.6299232,44.7974583 C96.1196293,44.0309618 95.885422,42.9663834 96.524169,42.2424702 C95.8574464,40.6282256 95.3511086,38.9523189 95.0124677,37.2389518 C94.6908821,37.9643052 94.6908821,38.791796 95.0124677,39.5171495 C93.4196971,41.0268863 92.4032244,43.0447727 92.1381061,45.2232896 C91.4378345,46.2119119 90.8115766,47.2509307 90.2644482,48.3318585 C90.1154072,48.5234826 89.8386168,48.3318585 89.6682843,48.3318585 C89.360121,48.1287619 89.1396895,47.8171173 89.0508288,47.4589042" id="Shape" fill="#F6F6F6"></path>
                    <path d="M104.380757,39.7300652 C105.722126,41.0501424 108.021616,42.8599256 108.191948,43.626422 C108.349516,44.1941048 108.400057,44.7861545 108.340989,45.3723306 L107.191244,46.3091596 C107.191244,45.3936222 107.340285,44.4567932 106.893162,43.9032124 C105.828584,42.8173425 104.764006,41.7740557 103.86976,40.9011014 C103.43682,40.5378445 103.268247,39.9478404 103.443929,39.4106917 C103.564233,39.1461406 103.714238,38.8961321 103.891051,38.6654868 C103.891485,39.074724 104.070295,39.463441 104.380757,39.7300652" id="Shape" fill="#F6F6F6"></path>
                    <path d="M106.531206,45.7129957 C106.275707,45.9897861 106.190541,46.0962439 105.892459,46.3730343 L105.296295,45.649121 L105.296295,43.5199642 C104.444632,43.9457956 104.657548,45.1594149 104.657548,46.2027017 C104.14655,45.7768704 103.891051,45.5639547 103.401345,45.0955402 C103.124555,43.8819209 103.848468,43.2005907 104.402049,42.348928 L106.531206,44.4780847 L106.531206,45.7129957 Z" id="Shape" fill="#F6F6F6"></path>
                    <path d="M102.954222,51.9301334 C103.125969,51.6548665 103.221492,51.3389079 103.231013,51.014596 L98.5042848,51.014596 C98.5219801,51.7116786 98.8798912,52.3559186 99.4624054,52.739213 C100.198404,53.244984 101.148826,53.3180934 101.953519,52.9308371 C102.371285,52.6936937 102.717079,52.3479001 102.954222,51.9301334" id="Shape" fill="#F6F6F6"></path>
                    <path d="M97.6952053,62.2352521 C97.6952053,60.9364665 98.9514078,60.2551364 99.824362,59.4034736 C100.078346,59.1424522 100.138247,58.7488176 99.973403,58.4240615 C99.9075976,58.2433322 99.7557696,58.1074861 99.5688632,58.0621049 C99.3276967,57.98999 99.0665889,58.0374641 98.8662415,58.1898543 C98.6343228,58.4182617 98.5171028,58.7386632 98.546868,59.0628086 L97.6526221,59.0628086 C97.5714642,58.5842756 97.7037101,58.0941878 98.0145788,57.7214398 C98.4576869,57.2994721 99.069478,57.1033852 99.6753211,57.1891506 C100.2167,57.2437015 100.691617,57.5737284 100.931524,58.0621049 C101.188799,58.6416955 101.098247,59.3167189 100.697316,59.8080134 C100.165027,60.3615942 99.4624054,60.6809677 99.036574,61.2984232 L101.29348,61.1706738 L101.29348,61.9797533 L97.6952053,62.2352521 Z" id="Shape" fill="#747577"></path>
                    <path d="M89.6469927,56.5716952 L88.156583,61.1067991 L87.219754,60.7874255 L88.2417492,57.6788567 L87.0494215,57.2956085 L87.2410456,56.6994446 C87.6939817,56.895539 88.215611,56.8473886 88.6249975,56.5716952 C88.7740384,56.4439458 88.8166216,56.4226542 88.8804963,56.3161963 L89.6469927,56.5716952 Z" id="Shape" fill="#747577"></path>
                    <path d="M107.659659,59.0841001 C107.581362,58.6286162 107.251159,58.2571376 106.807996,58.1259796 L106.509914,58.1259796 C106.860738,57.9134986 107.046385,57.508452 106.978329,57.1039843 C106.900918,56.659831 106.579606,56.2973248 106.147958,56.1671554 C105.750314,56.0615163 105.331982,56.0615163 104.934338,56.1671554 C104.52617,56.241925 104.148747,56.4343371 103.848468,56.7207361 C103.536145,57.0324093 103.421477,57.4910827 103.550386,57.9130639 C103.678597,58.3068085 104.031733,58.5842722 104.444632,58.6156856 L104.210425,58.8073098 C103.883162,59.1278493 103.760224,59.6032095 103.891051,60.0422207 C104.010666,60.5457652 104.393629,60.945025 104.891755,61.0855075 C105.305042,61.1810293 105.734671,61.1810293 106.147958,61.0855075 C106.554646,60.977247 106.932601,60.7810014 107.255119,60.5106352 C107.62264,60.1517645 107.776033,59.6270001 107.659659,59.1266833 M104.55109,57.8278976 C104.394801,57.6118997 104.394801,57.3199823 104.55109,57.1039843 C104.675831,56.9708439 104.84003,56.8812806 105.019505,56.8484855 C105.194396,56.8060402 105.376902,56.8060402 105.551794,56.8484855 C105.808253,56.945821 105.977778,57.191632 105.977625,57.465941 C105.965626,57.6244222 105.888551,57.7708643 105.764709,57.8704808 C105.638129,57.9854726 105.484191,58.0661066 105.317586,58.104688 C105.157107,58.147108 104.98836,58.147108 104.82788,58.104688 C104.674253,58.0662207 104.543299,57.9660798 104.465924,57.8278976 M106.44604,59.9570544 C106.281635,60.1018722 106.084259,60.204215 105.871167,60.2551364 C105.663067,60.3191748 105.440521,60.3191748 105.23242,60.2551364 C105.008638,60.180335 104.839488,59.9950754 104.785297,59.7654303 C104.679634,59.4689523 104.784027,59.1383763 105.040796,58.9563507 C105.179577,58.8521334 105.339437,58.7794699 105.509211,58.7434351 C105.671903,58.7246005 105.836225,58.7246005 105.998917,58.7434351 C106.316395,58.7944814 106.565326,59.043412 106.616372,59.3608905 C106.665801,59.5888133 106.602394,59.8265902 106.44604,59.9996375" id="Shape" fill="#747577"></path>
                    <path d="M95.3531328,60.7874255 C95.4231302,60.3407649 95.2434479,59.8915592 94.8847183,59.6163893 L94.6292195,59.4673484 C95.0264713,59.3594468 95.3202102,59.0237452 95.3744244,58.6156856 C95.4430585,58.1764958 95.2523728,57.7370897 94.8847183,57.4872326 C94.5308991,57.2731825 94.127109,57.1557163 93.7136821,57.1465675 C93.306075,57.0940294 92.8919733,57.1605814 92.5213543,57.3381916 C92.1293097,57.5490504 91.8841676,57.9576206 91.8826073,58.40277 C91.8868901,58.815355 92.1388482,59.1848935 92.5213543,59.3395989 L92.244564,59.4673484 C91.8256436,59.666045 91.5598982,60.0895767 91.5632338,60.5532183 C91.5322186,61.0678918 91.7855538,61.558218 92.2232724,61.8307124 C92.5816114,62.0549055 92.9931024,62.1798224 93.4156002,62.192669 C93.8384019,62.2226786 94.2621699,62.1496152 94.6505111,61.9797533 C95.1076029,61.7519776 95.4080612,61.2972298 95.4382991,60.7874255 M92.8620194,58.6582688 C92.8010453,58.3961982 92.9231762,58.1257656 93.1601014,57.9982302 C93.3264186,57.9459258 93.5047817,57.9459258 93.671099,57.9982302 C93.8558865,57.9949783 94.0362178,58.0550887 94.1820966,58.1685627 C94.3997218,58.3305602 94.4861082,58.6156352 94.3950123,58.8711845 C94.3443033,59.0195124 94.2372144,59.1418998 94.0969303,59.2118495 C93.9364509,59.2542695 93.7677037,59.2542695 93.6072243,59.2118495 C93.4349555,59.2185565 93.2645578,59.1741049 93.1175182,59.0841001 C92.9807251,58.9995291 92.8874723,58.8596498 92.8620194,58.7008519 M94.0969303,61.3835894 C93.8876991,61.4396067 93.6674145,61.4396067 93.4581833,61.3835894 C93.2366082,61.3914442 93.018924,61.323887 92.8407278,61.1919653 C92.6554726,61.0513098 92.5518338,60.8280878 92.5639375,60.5958014 C92.5628487,60.2818149 92.758686,60.000831 93.0536435,59.8931797 C93.2230765,59.8684233 93.3952081,59.8684233 93.5646411,59.8931797 C93.7271678,59.9073788 93.8858239,59.9506486 94.0330556,60.0209291 C94.3215538,60.1619947 94.4915285,60.467949 94.458887,60.7874255 C94.4312182,61.0183204 94.2973482,61.2230627 94.0969303,61.3410063" id="Shape" fill="#747577"></path>
                    <rect id="Rectangle-path" fill="#747577" transform="translate(114.256678, 15.321498) rotate(-23.330000) translate(-114.256678, -15.321498) " x="111.861377" y="14.8211646" width="4.79060271" height="1.00070368"></rect>
                    <path d="M100.079861,7.19654985 L98.9301162,2.25690617 L99.9946946,2.25690617 C100.186319,3.49181709 100.399234,4.87576898 100.654733,5.89776423 C101.101856,4.93964369 101.591562,3.61956649 102.038685,2.46982184 L103.081972,2.57627968 L100.952815,7.19654985 L100.079861,7.19654985 Z" id="Shape" fill="#747577"></path>
                    <polygon id="Shape" fill="#747577" points="81.3219898 10.0283283 80.2574114 11.9445694 79.341874 11.4335718 80.5767849 9.24054035 79.8741632 8.85729213 78.1708378 11.9445694 82.3652766 14.2653503 84.068602 11.1993646 83.3659803 10.8161163 82.1523609 13.0091478 80.9813247 12.3491092 82.0459031 10.4328681"></polygon>
                    <path d="M78.7882932,30.4256501 C78.5241763,29.9329015 77.978302,29.6599643 77.4256329,29.74432 C76.9330532,29.8078223 76.5198162,30.1466766 76.3610545,30.6172742 C76.2709052,30.2332139 75.9448791,29.950086 75.5519749,29.9146525 C75.1021542,29.8114657 74.6355076,29.9981243 74.3809387,30.383067 C74.1492076,31.4380108 74.0774332,32.5218041 74.168023,33.5980937 L78.9373342,33.5980937 L78.9373342,33.2574286 C79.0400577,32.3116238 78.9897326,31.3554463 78.7882932,30.4256501 M76.0629726,32.5548069 L74.8919363,32.5548069 C74.8919363,31.4689369 74.7428954,30.872773 75.4242255,30.7876068 C76.1055557,30.7024405 75.9352232,30.7876068 76.0203894,31.1069803 C76.0944037,31.5867514 76.0944037,32.0750358 76.0203894,32.5548069 M78.1495462,32.5548069 L76.7868859,32.5548069 C76.7868859,31.4902285 76.6591365,30.872773 77.2978835,30.7450236 C77.5181465,30.6676841 77.7630568,30.7166662 77.9366305,30.872773 C78.2134209,31.1282719 78.1282546,31.5753948 78.1495462,32.5548069" id="Shape" fill="#747577"></path>
                    <polygon id="Shape" fill="#747577" points="116.729867 17.5016686 117.496363 17.2887529 118.454484 21.0573604 117.687987 21.2489845 117.326031 19.8650326 113.472257 20.8444447 113.23805 19.8863242 117.070532 18.8856205"></polygon>
                    <path d="M92.5000628,7.47334023 C91.9777923,7.59075738 91.4304566,7.50713665 90.9670699,7.23913299 C90.644023,7.06642586 90.4226081,6.75011877 90.370906,6.38747028 L89.8173252,2.9595279 L90.7967374,2.81048693 L91.3503181,6.23842931 C91.4204082,6.50599118 91.6498885,6.70147438 91.9251904,6.72813537 C92.07248,6.76044801 92.2250238,6.76044801 92.3723134,6.72813537" id="Shape" fill="#747577"></path>
                    <path d="M92.5000628,7.47334023 C93.0333536,7.4216087 93.5275359,7.17071618 93.8840147,6.7707185 C94.1242944,6.49694342 94.2262456,6.12835084 94.160805,5.77001482 L93.6072243,2.34207244 L92.6491037,2.51240498 L93.1813929,5.94034736 C93.1936133,6.2107244 93.0539878,6.46533545 92.8194363,6.60038596 C92.6840427,6.68422341 92.5309307,6.73526077 92.3723134,6.74942693" id="Shape" fill="#747577"></path>
                    <path d="M118.94419,24.2936786 L113.961963,23.292975 L114.089712,24.2723871 L115.175582,24.4640112 L115.40979,26.1886282 L114.430377,26.6783342 L114.558127,27.6364548 L119.071939,25.3156739 L118.94419,24.2936786 Z M116.176286,25.80538 L116.005953,24.6130522 L118.13511,24.9324257 L116.176286,25.80538 Z" id="Shape" fill="#747577"></path>
                    <path d="M118.305443,32.5335153 L118.411901,32.5335153 C118.699666,32.314559 118.839651,31.9522452 118.773857,31.5966863 C118.815579,31.2587697 118.646787,30.9296254 118.348026,30.7663152 C118.192692,30.6652254 117.992362,30.6652254 117.837028,30.7663152 C117.304739,31.5753948 117.687987,33.2787202 116.282744,33.5768021 C115.709256,33.6839513 115.130163,33.419953 114.834917,32.9167635 C114.356702,32.0712581 114.356702,31.0369483 114.834917,30.1914429 C115.116098,29.810076 115.553976,29.5754981 116.027245,29.5526959 L116.027245,30.4895248 C115.721629,30.5113362 115.448456,30.6880952 115.303332,30.9579393 C115.086229,31.4661239 115.159442,32.0518247 115.494956,32.4909322 C115.676708,32.6070734 115.909368,32.6070734 116.09112,32.4909322 C116.6447,32.0863924 116.538243,31.1069803 116.815033,30.3617754 C116.928827,30.0550805 117.147582,29.7986089 117.432488,29.6378621 C117.942558,29.4164354 118.535222,29.5166039 118.94419,29.8933609 C119.530593,30.5937736 119.678345,31.5623738 119.327438,32.4057659 C119.107997,32.9238968 118.611889,33.271172 118.049944,33.3000118 L118.049944,32.3631828 L118.305443,32.5335153 Z" id="Shape" fill="#747577"></path>
                    <path d="M79.5973728,25.2943823 C79.5456413,25.8276732 79.2947487,26.3218554 78.8947511,26.6783342 C78.629978,26.9353253 78.2562879,27.0466373 77.8940474,26.9764162 L74.466105,26.444127 L74.615146,25.4647149 L78.0430884,25.9970041 C78.3207231,26.0160377 78.5820283,25.8643121 78.7031269,25.6137558 C78.7839087,25.484687 78.8348297,25.3391986 78.8521679,25.1879245" id="Shape" fill="#747577"></path>
                    <path d="M79.5973728,25.2943823 C79.6939499,24.7715872 79.6114365,24.2314994 79.3631655,23.7613895 C79.181137,23.440928 78.8565154,23.2271527 78.4902113,23.1865171 L75.0622689,22.6329364 L74.9132279,23.6123485 L78.3411703,24.1659292 C78.6016668,24.240306 78.7988352,24.4539051 78.8521679,24.71951 C78.8843108,24.8739939 78.8843108,25.0334406 78.8521679,25.1879245" id="Shape" fill="#747577"></path>
                    <path d="M84.9202647,4.76931115 L84.0260189,5.3228919 L85.0905972,10.2838272 L85.9209684,9.77282954 L85.6867611,8.70825115 L87.1558793,7.79271375 L88.007542,8.51662705 L88.8379131,8.00562942 L84.9202647,4.76931115 Z M85.495137,7.87788002 L84.9628478,5.74872326 L86.5171323,7.15396672 L85.495137,7.87788002 Z" id="Shape" fill="#747577"></path>
                    <polygon id="Shape" fill="#747577" points="108.21324 6.34488715 106.190541 5.49322444 106.573789 4.5351039 108.915861 5.51451601 109.213943 4.76931115 105.956333 3.40665082 104.103967 7.85658845 107.361577 9.19795721 107.659659 8.47404391 105.338878 7.4946318 105.871167 6.25972088 107.893866 7.11138358"></polygon>
                    <path d="M79.0012089,17.0332541 C79.030086,16.7195686 78.921318,16.408803 78.7031269,16.1815914 C78.4045548,15.9035547 78.002533,15.7643933 77.5959654,15.7983432 C76.5313871,15.9686757 76.3823461,17.2035866 75.8074738,19.1411193 L80.4064524,20.5037796 L80.6832427,19.5456591 L78.8734595,19.0133699 C78.9702528,18.6274061 79.0984289,18.2499987 79.2567077,17.8849168 C79.5973728,17.1184204 80.8109921,17.8849168 81.3858645,17.8849168 L81.6626548,16.9267963 C80.8535753,16.9267963 79.7464138,16.2454661 79.1715414,17.1397119 M78.2134209,18.8643289 L76.9998015,18.5023723 C77.2553004,17.6932927 77.3830498,16.8629216 77.9579221,16.9055047 C78.1642672,16.9261434 78.3548101,17.0252257 78.4902113,17.1822951 C78.7031269,17.4590854 78.4902113,18.0765409 78.2134209,18.8643289" id="Shape" fill="#747577"></path>
                    <path d="M112.535428,7.4307571 L108.724237,10.3264103 L109.320401,11.1354899 L110.832102,9.98574521 C111.083974,10.2942746 111.311755,10.62171 111.513433,10.9651573 C111.917972,11.6890706 110.597895,12.2213598 110.38498,12.6684827 L110.981143,13.4562707 C111.428266,12.753649 112.663177,12.3065261 112.279929,11.327114 C112.513161,11.5472434 112.837768,11.6422505 113.152883,11.5826128 C113.551861,11.5228647 113.899172,11.2781681 114.089712,10.9225742 C114.60071,9.96445364 113.685173,9.13408251 112.471553,7.51592337 M113.174175,10.4967428 C113.047719,10.6504407 112.862009,10.7432953 112.663177,10.7522416 C112.301221,10.7522416 111.960556,10.1773693 111.449558,9.53862229 L112.450262,8.77212586 C112.961259,9.47474759 113.557423,10.0496199 113.174175,10.4967428" id="Shape" fill="#747577"></path>
                    <path d="M14.8284241,25.2517992 L11.9540625,25.2517992 L11.9540625,24.4001365 C12.422477,23.8252642 12.6779758,23.4845991 13.0186409,23.0161846 C13.6573879,22.1219388 13.8064289,21.8025652 13.8064289,21.419317 C13.8064289,21.0360688 13.6786795,20.9509025 13.4231806,20.9509025 C13.1676818,20.9509025 13.0399324,21.0999435 13.0399324,21.4406086 L13.0399324,21.6748158 L12.0605203,21.6748158 C12.0605203,20.8870278 12.0605203,20.8231531 12.273436,20.6102375 C12.5923928,20.3398394 13.0068467,20.2093632 13.4231806,20.2482808 C14.3813012,20.2482808 14.8071325,20.631529 14.8071325,21.5044833 C14.760456,22.2038715 14.4481509,22.8589506 13.9341783,23.3355581 C13.6025861,23.7531786 13.2471339,24.151285 12.8695999,24.5278859 L14.8284241,24.5278859 L14.8284241,25.2517992 Z" id="Shape" fill="#F6F6F6"></path>
                    <polygon id="Shape" fill="#F6F6F6" points="17.8944098 20.9509025 16.7233736 25.2517992 15.6587952 25.2517992 16.9149977 21.0573604 15.2542555 21.0573604 15.2542555 20.3121555 17.8944098 20.3121555"></polygon>
                </g>
            </g>
        </g>
    </g>
</svg>