<?xml version="1.0" encoding="UTF-8"?>
<svg width="36px" height="50px" viewBox="0 0 36 50" version="1.1" xmlns="http://www.w3.org/2000/svg" xmlns:xlink="http://www.w3.org/1999/xlink">
    <!-- Generator: Sketch 51.2 (57519) - http://www.bohemiancoding.com/sketch -->
    <title>Group 14</title>
    <desc>Created with Sketch.</desc>
    <defs></defs>
    <g id="Regional-landing-pages" stroke="none" stroke-width="1" fill="none" fill-rule="evenodd">
        <g id="NA" transform="translate(-255.000000, -2596.000000)" fill="#FFFFFF" fill-rule="nonzero">
            <g id="Group-15" transform="translate(0.000000, 2296.000000)">
                <g id="Group-14" transform="translate(255.121094, 300.000000)">
                    <path d="M17.5807409,49.940975 L16.6275381,48.8284551 C15.9538154,48.0426703 0.123358,29.4457645 0.123358,18.3084133 C0.123358,8.68322513 7.95420261,0.851030372 17.5807409,0.851030372 C27.2072792,0.851030372 35.0381238,8.68322513 35.0381238,18.3084133 C35.0381238,29.4457645 19.2076664,48.0426703 18.5339437,48.8284551 L17.5807409,49.940975 Z M17.5807409,3.36230123 C9.33810187,3.36230123 2.63462886,10.0671244 2.63462886,18.3084133 C2.63462886,27.0479059 14.1473206,41.8306503 17.5807409,46.0444548 C21.0128111,41.8306503 32.5268529,27.0425053 32.5268529,18.3084133 C32.5268529,10.0671244 25.8233799,3.36230123 17.5807409,3.36230123 Z" id="Shape"></path>
                    <path d="M17.5807409,24.9646312 C13.9096949,24.9646312 10.924523,21.9781091 10.924523,18.3084133 C10.924523,14.6387175 13.9096949,11.6521953 17.5807409,11.6521953 C21.2517868,11.6521953 24.2369588,14.6387175 24.2369588,18.3084133 C24.2369588,21.9781091 21.2517868,24.9646312 17.5807409,24.9646312 Z M17.5807409,14.1634662 C15.2962945,14.1634662 13.4357938,16.0226167 13.4357938,18.3084133 C13.4357938,20.5942098 15.2962945,22.4533603 17.5807409,22.4533603 C19.8651873,22.4533603 21.725688,20.5942098 21.725688,18.3084133 C21.725688,16.0226167 19.8651873,14.1634662 17.5807409,14.1634662 Z" id="Shape"></path>
                </g>
            </g>
        </g>
    </g>
</svg>