<svg width="29" height="19" xmlns="http://www.w3.org/2000/svg"><g fill="#FFF" fill-rule="nonzero"><path d="M17.07 8.275l9.961-7.246A4.25 4.25 0 0 0 24.25 0H4.246a4.25 4.25 0 0 0-2.781 1.03l10 7.249a4.77 4.77 0 0 0 5.605-.004zM0 4.183V14.73c0 .83.252 1.641.722 2.33l10-7.254a4.76 4.76 0 0 1 .424-.26 5.697 5.697 0 0 1-.424-.28L.654 1.962A4.113 4.113 0 0 0 0 4.183zM28.496 14.73V4.183c0-.786-.227-1.556-.654-2.221l-10.034 7.3a4.299 4.299 0 0 1-.424.272c.14.088.28.18.424.276l9.966 7.25c.47-.689.721-1.5.722-2.33zM24.25 18.913a4.26 4.26 0 0 0 2.683-.924l-9.863-7.192a4.558 4.558 0 0 0-1.168-.61 5.953 5.953 0 0 1-3.278 0 4.695 4.695 0 0 0-1.16.606L1.564 17.99c.76.602 1.707.929 2.683.924H24.25z"/></g></svg>
