<?xml version="1.0" encoding="UTF-8"?>
<svg width="151px" height="52px" viewBox="0 0 151 52" version="1.1" xmlns="http://www.w3.org/2000/svg" xmlns:xlink="http://www.w3.org/1999/xlink">
    <!-- Generator: Sketch 51.2 (57519) - http://www.bohemiancoding.com/sketch -->
    <title>MEF</title>
    <desc>Created with Sketch.</desc>
    <defs>
        <linearGradient x1="15.1608787%" y1="84.8438501%" x2="86.2137901%" y2="13.787544%" id="linearGradient-1">
            <stop stop-color="#7C7C7C" offset="0%"></stop>
            <stop stop-color="#3D3D3D" offset="20%"></stop>
            <stop stop-color="#606060" offset="50%"></stop>
            <stop stop-color="#666666" offset="60%"></stop>
            <stop stop-color="#DADADA" offset="80%"></stop>
            <stop stop-color="#666666" offset="100%"></stop>
        </linearGradient>
        <linearGradient x1="86.593281%" y1="13.4117483%" x2="14.1904352%" y2="85.811135%" id="linearGradient-2">
            <stop stop-color="#FFFFFF" offset="1%"></stop>
            <stop stop-color="#9F9F9F" offset="20%"></stop>
            <stop stop-color="#7F7F7F" offset="50%"></stop>
            <stop stop-color="#3E3E3E" offset="75%"></stop>
        </linearGradient>
    </defs>
    <g id="Regional-landing-pages" stroke="none" stroke-width="1" fill="none" fill-rule="evenodd">
        <g id="NA" transform="translate(-423.000000, -3541.000000)" fill-rule="nonzero">
            <g id="MEF" style="mix-blend-mode: multiply;" transform="translate(423.425781, 3541.038462)">
                <path d="M7.77692308,7.77692308 C0.407341201,15.1464036 -1.79729816,26.2295752 2.19103025,35.8583454 C6.17935866,45.4871157 15.5752168,51.7652507 25.9973077,51.7652507 C36.4193986,51.7652507 45.8152567,45.4871157 49.8035851,35.8583454 C53.7919135,26.2295752 51.5872742,15.1464036 44.2176923,7.77692308 C34.1542834,-2.2845453 17.840332,-2.2845453 7.77692308,7.77692308 Z M44.0769231,44.0769231 C35.9030769,52.2438462 21.1846154,50.7692308 11.2038462,40.7930769 C1.22307692,30.8169231 -0.246923077,16.0938462 7.92461538,7.92461538 C16.0961538,-0.244615385 30.81,1.22076923 40.7930769,11.2038462 C50.7761538,21.1869231 52.2438462,35.9030769 44.0769231,44.0769231 Z M44.0769231,44.0769231 C38.2407692,49.9130769 25.4169231,46.5530769 15.4361538,36.57 C5.45538462,26.5869231 2.07692308,13.7607692 7.92461538,7.92461538 C4.42153846,11.4253846 9.67615385,22.3569231 19.6569231,32.34 C29.6376923,42.3230769 40.5715385,47.5753846 44.0769231,44.0769231 Z M44.0769231,44.0769231 C47.58,40.5761538 42.3253846,29.6446154 32.3446154,19.6615385 C22.3638462,9.67846154 11.43,4.43076923 7.92923077,7.92923077 C13.7607692,2.07692308 26.5846154,5.44846154 36.5653846,15.4315385 C46.5461538,25.4146154 49.9084615,38.2361538 44.0769231,44.0769231 Z M44.0769231,44.0769231 C42.75,45.4061538 33.5792308,38.3907692 23.5984615,28.4076923 C13.6176923,18.4246154 6.6,9.25384615 7.92923077,7.92923077 C9.25846154,6.60461538 18.42,13.6153846 28.4030769,23.5938462 C38.3861538,33.5723077 45.4015385,42.7453846 44.0769231,44.0769231 Z" id="Shape" fill="url(#linearGradient-1)" opacity="0.8"></path>
                <path d="M44.2176923,7.77692308 C36.8482118,0.407341201 25.7650402,-1.79729816 16.1362699,2.19103025 C6.50749972,6.17935866 0.229364684,15.5752168 0.229364684,25.9973077 C0.229364684,36.4193986 6.50749972,45.8152567 16.1362699,49.8035851 C25.7650402,53.7919135 36.8482118,51.5872742 44.2176923,44.2176923 C54.2791607,34.1542834 54.2791607,17.840332 44.2176923,7.77692308 Z M7.92461538,44.0769231 C-0.246923077,35.9030769 1.22076923,21.1846154 11.2038462,11.2038462 C21.1869231,1.22307692 35.9030769,-0.246923077 44.0769231,7.92461538 C52.2507692,16.0961538 50.7692308,30.81 40.7930769,40.7930769 C30.8169231,50.7761538 16.0938462,52.2438462 7.92461538,44.0769231 Z M7.92461538,44.0769231 C2.07692308,38.2361538 5.44846154,25.4123077 15.4315385,15.4315385 C25.4146154,5.45076923 38.2361538,2.07692308 44.0769231,7.92461538 C40.5761538,4.42153846 29.6446154,9.67615385 19.6615385,19.6569231 C9.67846154,29.6376923 4.42153846,40.5715385 7.92461538,44.0769231 Z M7.92461538,44.0769231 C11.4253846,47.58 22.3569231,42.3253846 32.34,32.3446154 C42.3230769,22.3638462 47.5707692,11.43 44.0723077,7.92923077 C49.9084615,13.7653846 46.5484615,26.5892308 36.5653846,36.57 C26.5823077,46.5507692 13.7607692,49.9084615 7.92461538,44.0769231 Z M7.92461538,44.0769231 C6.59538462,42.75 13.6107692,33.5792308 23.5938462,23.5984615 C33.5769231,13.6176923 42.7476923,6.6 44.0723077,7.92923077 C45.3969231,9.25846154 38.3861538,18.4246154 28.4030769,28.4076923 C18.42,38.3907692 9.25153846,45.4015385 7.92461538,44.0769231 Z" id="Shape" fill="url(#linearGradient-2)"></path>
                <rect id="Rectangle-path" fill="#000000" x="56.2153846" y="41.5130769" width="92.9630769" height="1"></rect>
                <rect id="Rectangle-path" fill="#000000" x="56.2153846" y="50.9169231" width="92.9630769" height="1"></rect>
                <path d="M60.0761538,45.6530769 L58.5969231,47.6238462 L58.4284615,47.6238462 L56.9815385,45.6461538 L56.9815385,48.9484615 L56.1253846,48.9484615 L56.1253846,44.4092308 L57.1130769,44.4092308 L58.5323077,46.3592308 L59.9515385,44.4092308 L60.9230769,44.4092308 L60.9230769,48.9484615 L60.0669231,48.9484615 L60.0761538,45.6530769 Z M66.1961538,46.6984615 C66.1823077,47.8707692 65.4646154,49.0453846 63.8676923,49.0453846 C62.2707692,49.0453846 61.5346154,47.8915385 61.5346154,46.7030769 C61.5346154,45.5146154 62.3076923,44.3076923 63.8676923,44.3076923 C65.4276923,44.3076923 66.21,45.51 66.1961538,46.6984615 Z M62.3769231,46.7169231 C62.3953846,47.4623077 62.7992308,48.2607692 63.8676923,48.2607692 C64.9361538,48.2607692 65.34,47.4553846 65.3538462,46.71 C65.3676923,45.9646154 64.9384615,45.0946154 63.8676923,45.0946154 C62.7969231,45.0946154 62.3584615,45.9507692 62.3769231,46.7169231 Z M70.5138462,45.7176923 C70.5207904,46.1044199 70.2858908,46.4544664 69.9253846,46.5946154 C70.3519376,46.7502844 70.6395203,47.1514347 70.65,47.6053846 C70.65,48.6161538 69.8930769,48.9415385 68.9515385,48.9415385 L66.7984615,48.9415385 L66.7984615,44.4023077 L68.9515385,44.4023077 C69.8469231,44.4023077 70.5138462,44.8038462 70.5138462,45.7176923 Z M67.6407692,46.2230769 L68.9515385,46.2230769 C69.4892308,46.2230769 69.6646154,45.9923077 69.6646154,45.7384615 C69.6646154,45.5307692 69.4961538,45.18 68.9515385,45.18 L67.6407692,45.18 L67.6407692,46.2230769 Z M67.6407692,48.1430769 L68.9515385,48.1430769 C69.3023077,48.1430769 69.8007692,48.0276923 69.8007692,47.5984615 C69.8007692,47.1692308 69.3023077,46.9753846 68.9515385,46.9753846 L67.6407692,46.9753846 L67.6407692,48.1430769 Z M71.2592308,48.9415385 L71.2592308,44.4023077 L72.1084615,44.4023077 L72.1084615,48.9415385 L71.2592308,48.9415385 Z M73.77,44.4023077 L73.77,48.15 L76.1030769,48.15 L76.1030769,48.9415385 L72.9230769,48.9415385 L72.9230769,44.4023077 L73.77,44.4023077 Z M80.0907692,48.9415385 L76.6938462,48.9415385 L76.6938462,44.4023077 L80.0907692,44.4023077 L80.0907692,45.2307692 L77.5384615,45.2307692 L77.5384615,46.2761538 L79.9961538,46.2761538 L79.9961538,47.0769231 L77.5384615,47.0769231 L77.5384615,48.1015385 L80.0769231,48.1015385 L80.0907692,48.9415385 Z" id="Shape" fill="#898989"></path>
                <path d="M86.5015385,48.9230769 L83.1023077,48.9230769 L83.1023077,44.3884615 L86.5015385,44.3884615 L86.5015385,45.2307692 L83.9630769,45.2307692 L83.9630769,46.2738462 L86.4207692,46.2738462 L86.4207692,47.0723077 L83.9515385,47.0723077 L83.9515385,48.0969231 L86.49,48.0969231 L86.5015385,48.9230769 Z M91.1630769,48.3530769 C90.7009596,48.7994947 90.079269,49.0421867 89.4369231,49.0269231 C87.7523077,49.0269231 87.0392308,47.8730769 87.0323077,46.6869231 C87.0253846,45.5007692 87.7961538,44.3076923 89.4369231,44.3076923 C90.0624715,44.3067172 90.6624199,44.5560032 91.1030769,45 L90.5330769,45.5515385 C90.2374031,45.2716411 89.8440192,45.1184284 89.4369231,45.1246154 C88.3407692,45.1246154 87.8676923,45.9415385 87.8746154,46.7007692 C87.8815385,47.46 88.3153846,48.2376923 89.4369231,48.2376923 C89.8625378,48.2347463 90.2710298,48.069699 90.5792308,47.7761538 L91.1630769,48.3530769 Z M96.1038462,46.68 C96.09,47.8546154 95.37,49.0269231 93.7753846,49.0269231 C92.1807692,49.0269231 91.44,47.8730769 91.44,46.6869231 C91.44,45.5007692 92.2061538,44.3076923 93.7753846,44.3076923 C95.3446154,44.3076923 96.1153846,45.4984615 96.1038462,46.6846154 L96.1038462,46.68 Z M92.2846154,46.6984615 C92.3030769,47.4438462 92.7046154,48.2423077 93.7753846,48.2423077 C94.8461538,48.2423077 95.2476923,47.4392308 95.2592308,46.6938462 C95.2707692,45.9484615 94.8461538,45.0784615 93.7753846,45.0784615 C92.7046154,45.0784615 92.2638462,45.9392308 92.2846154,46.7030769 L92.2846154,46.6984615 Z M99.6692308,45.48 C99.4130681,45.1481946 99.0127766,44.9600748 98.5938462,44.9746154 C97.9569231,44.9746154 97.6523077,45.24 97.6523077,45.5769231 C97.6523077,45.9738462 98.1138462,46.0823077 98.6630769,46.1469231 C99.6115385,46.2646154 100.493077,46.5115385 100.493077,47.5938462 C100.493077,48.6046154 99.5976923,49.0407692 98.5869231,49.0407692 C97.6638462,49.0407692 96.9461538,48.7546154 96.6092308,47.9238462 L97.3223077,47.5546154 C97.5230769,48.0553846 98.0492308,48.2746154 98.5984615,48.2746154 C99.1476923,48.2746154 99.6438462,48.0876923 99.6438462,47.5823077 C99.6438462,47.1553846 99.1961538,46.98 98.5938462,46.9153846 C97.6707692,46.8046154 96.81,46.5576923 96.81,45.5307692 C96.81,44.6076923 97.7330769,44.2153846 98.5661538,44.2084615 C99.2746154,44.2084615 100.006154,44.4092308 100.35,45.1084615 L99.6692308,45.48 Z M102.865385,46.2576923 L104.072308,44.3838462 L105.103846,44.3838462 L105.103846,44.4230769 L103.294615,47.0492308 L103.294615,48.9230769 L102.438462,48.9230769 L102.438462,47.0538462 L100.693846,44.4276923 L100.693846,44.3884615 L101.711538,44.3884615 L102.865385,46.2576923 Z M108.279231,45.48 C108.023068,45.1481946 107.622777,44.9600748 107.203846,44.9746154 C106.569231,44.9746154 106.262308,45.24 106.262308,45.5769231 C106.262308,45.9738462 106.723846,46.0823077 107.275385,46.1469231 C108.221538,46.2646154 109.103077,46.5115385 109.103077,47.5938462 C109.103077,48.6046154 108.207692,49.0407692 107.196923,49.0407692 C106.273846,49.0407692 105.556154,48.7546154 105.219231,47.9238462 L105.932308,47.5546154 C106.133077,48.0553846 106.659231,48.2746154 107.210769,48.2746154 C107.762308,48.2746154 108.253846,48.0876923 108.253846,47.5823077 C108.253846,47.1553846 107.806154,46.98 107.203846,46.9153846 C106.280769,46.8046154 105.42,46.5576923 105.42,45.5307692 C105.42,44.6076923 106.343077,44.2153846 107.178462,44.2084615 C107.884615,44.2084615 108.616154,44.4092308 108.96,45.1084615 L108.279231,45.48 Z M110.937692,45.1615385 L109.497692,45.1615385 L109.497692,44.3838462 L113.233846,44.3838462 L113.233846,45.1615385 L111.793846,45.1615385 L111.793846,48.9230769 L110.930769,48.9230769 L110.937692,45.1615385 Z M117.129231,48.9230769 L113.732308,48.9230769 L113.732308,44.3884615 L117.129231,44.3884615 L117.129231,45.2307692 L114.590769,45.2307692 L114.590769,46.2738462 L117.048462,46.2738462 L117.048462,47.0723077 L114.581538,47.0723077 L114.581538,48.0969231 L117.12,48.0969231 L117.129231,48.9230769 Z M121.744615,45.6369231 L120.265385,47.6076923 L120.096923,47.6076923 L118.652308,45.63 L118.652308,48.93 L117.796154,48.93 L117.796154,44.3953846 L118.781538,44.3953846 L120.200769,46.3476923 L121.622308,44.3953846 L122.600769,44.3953846 L122.600769,48.9346154 L121.744615,48.9346154 L121.744615,45.6369231 Z" id="Shape" fill="#000000"></path>
                <path d="M125.282308,48.9415385 L125.282308,44.4092308 L128.538462,44.4092308 L128.538462,45.2307692 L126.138462,45.2307692 L126.138462,46.47 L128.416154,46.47 L128.416154,47.2615385 L126.138462,47.2615385 L126.138462,48.9415385 L125.282308,48.9415385 Z M133.733077,46.6984615 C133.719231,47.8707692 132.999231,49.0453846 131.404615,49.0453846 C129.81,49.0453846 129.069231,47.8915385 129.069231,46.7030769 C129.069231,45.5146154 129.835385,44.3076923 131.404615,44.3076923 C132.973846,44.3076923 133.744615,45.51 133.733077,46.6984615 Z M129.913846,46.7169231 C129.932308,47.4623077 130.333846,48.2607692 131.404615,48.2607692 C132.475385,48.2607692 132.876923,47.4553846 132.888462,46.71 C132.9,45.9646154 132.473077,45.0946154 131.404615,45.0946154 C130.336154,45.0946154 129.893077,45.9507692 129.923077,46.7169231 L129.913846,46.7169231 Z M138.387692,48.9415385 L137.37,48.9415385 L136.045385,47.4230769 L135.230769,47.4230769 L135.230769,48.9415385 L134.374615,48.9415385 L134.374615,44.3953846 C135.094615,44.3953846 135.814615,44.3953846 136.532308,44.3953846 C137.603077,44.3953846 138.168462,45.1153846 138.168462,45.9 C138.216657,46.6041923 137.713353,47.2262763 137.014615,47.3261538 L138.399231,48.8746154 L138.387692,48.9415385 Z M135.230769,45.1984615 L135.230769,46.6523077 L136.532308,46.6523077 C136.80584,46.6741205 137.068461,46.5405369 137.211916,46.3066215 C137.355371,46.0727062 137.355371,45.7780631 137.211916,45.5441477 C137.068461,45.3102324 136.80584,45.1766487 136.532308,45.1984615 L135.230769,45.1984615 Z M142.846154,44.4092308 L142.846154,47.0076923 C142.846154,48.3507692 142.022308,49.0384615 140.88,49.0384615 C139.790769,49.0384615 138.863077,48.3761538 138.863077,47.0076923 L138.863077,44.4092308 L139.714615,44.4092308 L139.714615,47.0076923 C139.714615,47.8246154 140.176154,48.2607692 140.886923,48.2607692 C141.597692,48.2607692 141.996923,47.7992308 141.996923,47.0076923 L141.996923,44.4092308 L142.846154,44.4092308 Z M147.636923,45.6530769 L146.157692,47.6238462 L145.989231,47.6238462 L144.544615,45.6461538 L144.544615,48.9484615 L143.688462,48.9484615 L143.688462,44.4092308 L144.692308,44.4092308 L146.111538,46.3592308 L147.533077,44.4092308 L148.511538,44.4092308 L148.511538,48.9484615 L147.646154,48.9484615 L147.636923,45.6530769 Z" id="Shape" fill="#898989"></path>
                <path d="M89.6169231,15.1776923 L89.6007692,15.1776923 L89.6169231,15.1776923 L89.6169231,39.3392308 L84.5861538,39.3392308 L84.5861538,22.6476923 L74.5038462,39.3253846 L71.2223077,39.3253846 L61.2323077,22.6153846 L61.2323077,39.3576923 L56.2015385,39.3576923 L56.2015385,15.1823077 C56.2015385,12.4823077 59.6076923,12.6438462 59.6076923,12.6438462 L59.9515385,12.6438462 C61.4561538,12.6438462 61.5946154,12.6438462 62.6953846,14.5038462 L72.8653846,31.9269231 L83.1253846,14.5038462 C84.1453846,12.7753846 84.3392308,12.6576923 85.5646154,12.6438462 L86.2130769,12.6438462 C86.2130769,12.6438462 89.6169231,12.4776923 89.6169231,15.1776923 Z M116.561538,12.6738462 L95.4323077,12.6738462 C95.1461538,12.6738462 93.2238462,12.6923077 93.2238462,14.3884615 L93.2307692,14.3884615 L93.2169231,14.3884615 L93.2169231,37.6776923 C93.2446154,39.33 94.74,39.3530769 94.9592308,39.3461538 L116.538462,39.3461538 C116.686154,39.3461538 119.930769,39.4546154 119.930769,36.8076923 L119.930769,34.3384615 L98.2153846,34.3384615 L98.2153846,28.3846154 L116.55,28.3846154 L116.55,23.6861538 L98.2153846,23.6861538 L98.2153846,17.6676923 L119.935385,17.6676923 L119.935385,15.2053846 C119.935385,12.6484615 116.884615,12.6669231 116.561538,12.6738462 Z M149.792308,17.6676923 L149.792308,15.2053846 C149.792308,12.5446154 146.496923,12.6669231 146.395385,12.6669231 L125.28,12.6669231 C124.996154,12.6669231 123.071538,12.6853846 123.071538,14.3815385 L123.087692,14.3815385 L123.071538,14.3815385 L123.071538,37.6776923 C123.099231,39.33 124.596923,39.3530769 124.813846,39.3461538 L128.060769,39.3461538 L128.060769,28.3846154 L146.395385,28.3846154 L146.395385,23.6861538 L128.063077,23.6861538 L128.063077,17.6676923 L149.792308,17.6676923 Z" id="Shape" fill="#000000"></path>
            </g>
        </g>
    </g>
</svg>