<?xml version="1.0" encoding="UTF-8"?>
<svg width="147px" height="51px" viewBox="0 0 147 51" version="1.1" xmlns="http://www.w3.org/2000/svg" xmlns:xlink="http://www.w3.org/1999/xlink">
    <!-- Generator: Sketch 51.2 (57519) - http://www.bohemiancoding.com/sketch -->
    <title>Group</title>
    <desc>Created with Sketch.</desc>
    <defs></defs>
    <g id="Regional-landing-pages" stroke="none" stroke-width="1" fill="none" fill-rule="evenodd">
        <g id="NA" transform="translate(-826.000000, -3540.000000)">
            <g id="Group" style="mix-blend-mode: multiply;" transform="translate(825.000000, 3540.437500)">
                <path d="M53.75,0.84375 C53.4393318,0.559207871 53.0443862,0.383676492 52.625,0.34375 L43.5625,0.34375 C43.0364059,0.345523634 42.5236068,0.509182923 42.09375,0.8125 C41.8388046,1.01633927 41.6173696,1.25886331 41.4375,1.53125 L32.65625,16 C32.65625,16 32.3125,16.46875 32.15625,16.46875 C32,16.46875 31.6875,16 31.6875,16 L22.875,1.53125 C22.6951304,1.25886331 22.4736954,1.01633927 22.21875,0.8125 C21.7888932,0.509182923 21.2760941,0.345523634 20.75,0.34375 L11.6875,0.34375 C11.2681138,0.383676492 10.8731682,0.559207871 10.5625,0.84375 C10.1621362,1.12230213 9.91841897,1.57491989 9.90625,2.0625 L9.90625,40.625 C9.94911759,41.0990451 10.1596453,41.5422613 10.5,41.875 C10.8121225,42.1951143 11.2404056,42.3754441 11.6875,42.375 L19.5625,42.375 C20.0058695,42.3328888 20.4231105,42.1462283 20.75,41.84375 C21.1029148,41.5498253 21.30864,41.1155164 21.3125,40.65625 L21.3125,18.40625 L30.375,32.875 C30.375,32.875 31.3125,34.46875 32.15625,34.46875 C33.03125,34.46875 33.96875,32.875 33.96875,32.875 L43.03125,18.40625 L43.03125,40.625 C43.0213613,41.087311 43.2297699,41.5272848 43.59375,41.8125 C43.917951,42.1190256 44.3366549,42.3063405 44.78125,42.34375 L52.625,42.34375 C53.0808675,42.3421856 53.5181311,42.1627954 53.84375,41.84375 C54.1704208,41.5048452 54.3692484,41.063006 54.40625,40.59375 L54.40625,2.09375 C54.394081,1.60616989 54.1503638,1.15355213 53.75,0.875" id="Shape" fill="#ABADAE" fill-rule="nonzero"></path>
                <path d="M100.28125,0.9375 C99.9705818,0.652957871 99.5756362,0.477426492 99.15625,0.4375 L90.09375,0.4375 C89.5723432,0.439475374 89.0625017,0.591343057 88.625,0.875 C88.3718955,1.09272038 88.1509457,1.34523441 87.96875,1.625 L79.1875,16.0625 C79.1875,16.0625 78.84375,16.5625 78.6875,16.5625 C78.53125,16.5625 78.21875,16.0625 78.21875,16.0625 L69.40625,1.625 C69.2240543,1.34523441 69.0031045,1.09272038 68.75,0.875 C68.3124983,0.591343057 67.8026568,0.439475374 67.28125,0.4375 L58.21875,0.4375 C57.7993638,0.477426492 57.4044182,0.652957871 57.09375,0.9375 C56.6894273,1.21250149 56.4445254,1.66731921 56.4375,2.15625 L56.4375,40.625 C56.4821927,41.0894959 56.693025,41.522257 57.03125,41.84375 C57.3358383,42.1784651 57.7662103,42.3709999 58.21875,42.375 L66.09375,42.375 C66.5371195,42.3328888 66.9543605,42.1462283 67.28125,41.84375 C67.6341648,41.5498253 67.83989,41.1155164 67.84375,40.65625 L67.84375,18.375 L76.90625,32.875 C76.90625,32.875 77.84375,34.46875 78.6875,34.46875 C79.5625,34.46875 80.5,32.875 80.5,32.875 L89.5625,18.375 L89.5625,40.625 C89.5526113,41.087311 89.7610199,41.5272848 90.125,41.8125 C90.449201,42.1190256 90.8679049,42.3063405 91.3125,42.34375 L99.15625,42.34375 C99.6173149,42.3373205 100.05646,42.1458983 100.375,41.8125 C100.697299,41.483179 100.895996,41.0526687 100.9375,40.59375 L100.9375,2.09375 C100.930475,1.60481921 100.685573,1.15000149 100.28125,0.875" id="Shape" fill="#ABADAE" fill-rule="nonzero"></path>
                <path d="M1.75,25.09375 L18.0625,25.09375" id="Shape" stroke="#878480" stroke-width="1.13" stroke-linecap="round"></path>
                <path d="M1.75,31.15625 L18.0625,31.15625" id="Shape" stroke="#878480" stroke-width="1.13" stroke-linecap="round"></path>
                <path d="M1.75,37.1875 L18.0625,37.1875" id="Shape" stroke="#505053" stroke-width="1.13" stroke-linecap="round"></path>
                <path d="M147.53125,40.625 L131.25,1.75 C130.98772,1.23433782 130.587443,0.801605635 130.09375,0.5 C129.70091,0.211867807 129.235636,0.0387428101 128.75,-1.42108547e-14 L121.25,-1.42108547e-14 C120.764364,0.0387428101 120.29909,0.211867807 119.90625,0.5 C119.408869,0.80682712 118.999684,1.23754854 118.71875,1.75 L102.3125,40.625 C102.140024,41.0129435 102.140024,41.4558065 102.3125,41.84375 C102.51567,42.182903 102.886052,42.3860156 103.28125,42.375 L111.125,42.375 C111.640834,42.3199764 112.134855,42.1374032 112.5625,41.84375 C113.01333,41.5463791 113.379397,41.1372452 113.625,40.65625 L116.03125,34.875 L133.65625,34.875 L136.0625,40.65625 C136.308103,41.1372452 136.67417,41.5463791 137.125,41.84375 C137.552645,42.1374032 138.046666,42.3199764 138.5625,42.375 L146.40625,42.375 C146.801448,42.3860156 147.17183,42.182903 147.375,41.84375 C147.555736,41.4576019 147.555736,41.0111481 147.375,40.625 M129.28125,25 C129.28125,25 128.625,25 128.625,25 L120.9375,25 C120.9375,25 120.46875,25 120.3125,24.8125 C120.15625,24.625 120.3125,23.9375 120.3125,23.9375 L124.125,14.25 C124.125,14.25 124.34375,13.59375 124.65625,13.59375 C124.96875,13.59375 125.09375,14.15625 125.09375,14.15625 L128.90625,23.96875 C128.90625,23.96875 129.28125,24.6875 129.15625,24.875" id="Shape" fill="#ABADAE" fill-rule="nonzero"></path>
                <polygon id="Shape" fill="#454547" fill-rule="nonzero" points="14.3125 50.0625 14.3125 46.59375 12.8125 48.875 12.78125 48.875 11.3125 46.625 11.3125 50.0625 10.15625 50.0625 10.15625 44.75 11.4375 44.75 12.8125 47 14.21875 44.75 15.46875 44.75 15.46875 50.0625"></polygon>
                <path d="M19.34375,50.15625 C18.6065901,50.1816846 17.890733,49.9065138 17.3604082,49.3938665 C16.8300834,48.8812192 16.5308113,48.1750984 16.53125,47.4375 C16.5310588,46.6971956 16.8293538,45.9880813 17.3586764,45.4705213 C17.8879991,44.9529614 18.6036367,44.6706749 19.34375,44.6875 C20.0863661,44.6618229 20.807132,44.9412156 21.3384248,45.4607019 C21.8697176,45.9801882 22.1652347,46.6944944 22.15625,47.4375 C22.1652347,48.1805056 21.8697176,48.8948118 21.3384248,49.4142981 C20.807132,49.9337844 20.0863661,50.2131771 19.34375,50.1875 L19.34375,50.15625 Z M20.9375,47.4375 C20.9545097,47.0040897 20.7941368,46.5824682 20.4933872,46.2699246 C20.1926377,45.9573809 19.7774938,45.7809163 19.34375,45.78125 C18.9100062,45.7809163 18.4948623,45.9573809 18.1941128,46.2699246 C17.8933632,46.5824682 17.7329903,47.0040897 17.75,47.4375 C17.733131,47.8738288 17.8925731,48.2985871 18.1923905,48.6160409 C18.492208,48.9334946 18.9071698,49.1169288 19.34375,49.125 C19.7774938,49.1253337 20.1926377,48.9488691 20.4933872,48.6363254 C20.7941368,48.3237818 20.9545097,47.9021603 20.9375,47.46875 L20.9375,47.4375 Z" id="Shape" fill="#454547" fill-rule="nonzero"></path>
                <path d="M25.71875,50 L23.1875,50 L23.1875,44.6875 L25.65625,44.6875 C26.75,44.6875 27.40625,45.21875 27.40625,46.0625 C27.4254254,46.5419603 27.1541632,46.9858439 26.71875,47.1875 C27.319799,47.3345749 27.7364828,47.8814723 27.71875,48.5 C27.71875,49.46875 26.9375,49.9375 25.71875,49.9375 L25.71875,50 Z M26.25,46.1875 C26.25,45.84375 26,45.65625 25.5,45.65625 L24.34375,45.65625 L24.34375,46.78125 L25.40625,46.78125 C25.9375,46.78125 26.25,46.625 26.25,46.21875 L26.25,46.1875 Z M26.5625,48.3125 C26.5625,47.96875 26.28125,47.75 25.6875,47.75 L24.34375,47.75 L24.34375,48.90625 L25.71875,48.90625 C26.25,48.90625 26.5625,48.90625 26.5625,48.34375 L26.5625,48.3125 Z" id="Shape" fill="#454547" fill-rule="nonzero"></path>
                <rect id="Rectangle-path" fill="#454547" fill-rule="nonzero" x="28.71875" y="44.75" width="1.15625" height="5.3125"></rect>
                <polygon id="Shape" fill="#454547" fill-rule="nonzero" points="31.21875 50.0625 31.21875 44.75 32.40625 44.75 32.40625 49 35.03125 49 35.03125 50.0625"></polygon>
                <polygon id="Shape" fill="#454547" fill-rule="nonzero" points="35.90625 50.0625 35.90625 44.75 39.9375 44.75 39.9375 45.78125 37.09375 45.78125 37.09375 46.875 39.59375 46.875 39.59375 47.90625 37.09375 47.90625 37.09375 49.03125 39.96875 49.03125 39.96875 50.0625"></polygon>
                <polygon id="Shape" fill="#454547" fill-rule="nonzero" points="47.4375 50.0625 47.4375 46.59375 45.9375 48.875 45.90625 48.875 44.40625 46.625 44.40625 50.0625 43.28125 50.0625 43.28125 44.75 44.53125 44.75 45.9375 47 47.3125 44.75 48.59375 44.75 48.59375 50.0625"></polygon>
                <path d="M53.8125,50 L53.3125,48.8125 L51.09375,48.8125 L50.59375,50 L49.40625,50 L51.6875,44.65625 L52.75,44.65625 L55.03125,50 L53.8125,50 Z M52.21875,46.0625 L51.5,47.78125 L52.90625,47.78125 L52.21875,46.0625 Z" id="Shape" fill="#454547" fill-rule="nonzero"></path>
                <path d="M59.0625,50 L57.9375,48.3125 L57.03125,48.3125 L57.03125,50 L55.84375,50 L55.84375,44.6875 L58.28125,44.6875 C59.53125,44.6875 60.28125,45.34375 60.28125,46.4375 C60.3059406,47.1680776 59.8487617,47.8284471 59.15625,48.0625 L60.4375,49.96875 L59.0625,50 Z M59.0625,46.5 C59.0625,46 58.71875,45.75 58.15625,45.75 L57,45.75 L57,47.28125 L58.1875,47.28125 C58.75,47.28125 59.0625,46.96875 59.0625,46.53125 L59.0625,46.5 Z" id="Shape" fill="#454547" fill-rule="nonzero"></path>
                <polygon id="Shape" fill="#454547" fill-rule="nonzero" points="64.78125 50.0625 63.125 47.8125 62.5 48.4375 62.5 50.0625 61.34375 50.0625 61.34375 44.75 62.5 44.75 62.5 47.0625 64.65625 44.75 66.0625 44.75 63.90625 47 66.15625 50.0625"></polygon>
                <polygon id="Shape" fill="#454547" fill-rule="nonzero" points="66.875 50.0625 66.875 44.75 70.875 44.75 70.875 45.78125 68.03125 45.78125 68.03125 46.875 70.53125 46.875 70.53125 47.90625 68.03125 47.90625 68.03125 49.03125 70.90625 49.03125 70.90625 50.0625"></polygon>
                <polygon id="Shape" fill="#454547" fill-rule="nonzero" points="74.375 45.84375 74.375 50.0625 73.1875 50.0625 73.1875 45.84375 71.5625 45.84375 71.5625 44.75 75.96875 44.75 75.96875 45.84375"></polygon>
                <rect id="Rectangle-path" fill="#454547" fill-rule="nonzero" x="76.9375" y="44.75" width="1.15625" height="5.3125"></rect>
                <polygon id="Shape" fill="#454547" fill-rule="nonzero" points="83.15625 50.0625 80.5625 46.6875 80.5625 50.0625 79.40625 50.0625 79.40625 44.75 80.5 44.75 82.96875 48.03125 82.96875 44.75 84.15625 44.75 84.15625 50.0625"></polygon>
                <path d="M87.96875,50.15625 C87.2318841,50.1911892 86.5136759,49.9181219 85.986154,49.4024545 C85.4586322,48.8867871 85.1693146,48.1749696 85.1875,47.4375 C85.1788272,46.7000772 85.4700967,45.9907685 85.9945072,45.4722502 C86.5189177,44.9537319 87.2314723,44.6704956 87.96875,44.6875 C88.7350239,44.672289 89.4801681,44.9392063 90.0625,45.4375 L89.3125,46.3125 C88.9420621,45.9611723 88.4479259,45.770256 87.9375,45.78125 C87.5146989,45.7975048 87.1157141,45.9812174 86.8284813,46.2918978 C86.5412485,46.6025782 86.389345,47.0147244 86.40625,47.4375 C86.3803996,47.8761846 86.5368293,48.306076 86.8385629,48.6255586 C87.1402966,48.9450413 87.5605551,49.125761 88,49.125 C88.3892103,49.1455371 88.7741382,49.0355577 89.09375,48.8125 L89.09375,48.0625 L87.9375,48.0625 L87.9375,46.875 L90.25,46.875 L90.25,49.1875 C89.6149037,49.732424 88.8055829,50.0317618 87.96875,50.03125" id="Shape" fill="#454547" fill-rule="nonzero"></path>
                <path d="M97.59375,50 L97.09375,48.8125 L94.84375,48.8125 L94.375,50 L93.1875,50 L95.46875,44.65625 L96.53125,44.65625 L98.8125,50 L97.59375,50 Z M95.96875,46.0625 L95.28125,47.78125 L96.6875,47.78125 L95.96875,46.0625 Z" id="Shape" fill="#454547" fill-rule="nonzero"></path>
                <path d="M101.4375,50.15625 C100.600571,50.1777527 99.7900118,49.8625353 99.1875,49.28125 L99.875,48.46875 C100.303614,48.8819884 100.87343,49.1166189 101.46875,49.125 C101.9375,49.125 102.21875,48.9375 102.21875,48.625 C102.21875,48.34375 102.03125,48.1875 101.15625,47.9375 C100.28125,47.6875 99.40625,47.375 99.40625,46.34375 C99.4109695,45.8775036 99.6157424,45.4357482 99.9684921,45.1308291 C100.321242,44.8259099 100.787977,44.687209 101.25,44.75 C101.961845,44.7381011 102.656414,44.9696241 103.21875,45.40625 L102.625,46.3125 C102.234612,45.9940649 101.753078,45.8080176 101.25,45.78125 C100.78125,45.78125 100.5625,45.96875 100.5625,46.25 C100.5625,46.59375 100.78125,46.71875 101.71875,46.9375 C102.65625,47.15625 103.375,47.625 103.375,48.53125 C103.375,49.59375 102.59375,50.1875 101.4375,50.1875" id="Shape" fill="#454547" fill-rule="nonzero"></path>
                <path d="M106.25,50.15625 C105.413071,50.1777527 104.602512,49.8625353 104,49.28125 L104.6875,48.46875 C105.116114,48.8819884 105.68593,49.1166189 106.28125,49.125 C106.75,49.125 107.03125,48.9375 107.03125,48.625 C107.03125,48.34375 106.84375,48.1875 105.96875,47.9375 C105.09375,47.6875 104.21875,47.375 104.21875,46.34375 C104.223469,45.8775036 104.428242,45.4357482 104.780992,45.1308291 C105.133742,44.8259099 105.600477,44.687209 106.0625,44.75 C106.774345,44.7381011 107.468914,44.9696241 108.03125,45.40625 L107.4375,46.3125 C107.047112,45.9940649 106.565578,45.8080176 106.0625,45.78125 C105.59375,45.78125 105.375,45.96875 105.375,46.25 C105.375,46.59375 105.59375,46.71875 106.5,46.9375 C107.40625,47.15625 108.1875,47.625 108.1875,48.53125 C108.1875,49.59375 107.40625,50.1875 106.25,50.1875" id="Shape" fill="#454547" fill-rule="nonzero"></path>
                <path d="M111.75,50.15625 C111.01284,50.1816846 110.296983,49.9065138 109.766658,49.3938665 C109.236333,48.8812192 108.937061,48.1750984 108.9375,47.4375 C108.937066,46.691617 109.239631,45.9775521 109.775814,45.4590454 C110.311998,44.9405386 111.0358,44.662072 111.78125,44.6875 C112.523866,44.6618229 113.244632,44.9412156 113.775925,45.4607019 C114.307218,45.9801882 114.602735,46.6944944 114.59375,47.4375 C114.594184,48.183383 114.291619,48.8974479 113.755436,49.4159546 C113.219252,49.9344614 112.49545,50.212928 111.75,50.1875 L111.75,50.15625 Z M113.375,47.4375 C113.392316,46.9986093 113.227734,46.5720287 112.920122,46.2585009 C112.61251,45.9449731 112.189141,45.7722961 111.75,45.78125 C111.316256,45.7809163 110.901112,45.9573809 110.600363,46.2699246 C110.299613,46.5824682 110.13924,47.0040897 110.15625,47.4375 C110.147883,47.8767873 110.314406,48.3013983 110.619169,48.6178832 C110.923933,48.9343682 111.34196,49.1167897 111.78125,49.125 C112.214994,49.1253337 112.630138,48.9488691 112.930887,48.6363254 C113.231637,48.3237818 113.39201,47.9021603 113.375,47.46875 L113.375,47.4375 Z" id="Shape" fill="#454547" fill-rule="nonzero"></path>
                <path d="M118.125,50.15625 C117.398778,50.1735484 116.697157,49.892668 116.183494,49.3790056 C115.669832,48.8653433 115.388952,48.1637223 115.40625,47.4375 C115.38896,46.7029907 115.673136,45.9934267 116.192656,45.4739063 C116.712177,44.9543859 117.421741,44.6702102 118.15625,44.6875 C118.943464,44.6520291 119.707341,44.9598603 120.25,45.53125 L119.5,46.375 C119.149399,46.0055031 118.665504,45.791689 118.15625,45.78125 C117.730534,45.7889944 117.326417,45.9701371 117.037369,46.2827801 C116.748322,46.5954231 116.599382,47.012485 116.625,47.4375 C116.599476,47.8655368 116.747509,48.2858013 117.035656,48.6033515 C117.323803,48.9209016 117.727754,49.1089448 118.15625,49.125 C118.688829,49.1091657 119.193864,48.884706 119.5625,48.5 L120.28125,49.25 C119.74458,49.877011 118.949573,50.2226664 118.125,50.1875" id="Shape" fill="#454547" fill-rule="nonzero"></path>
                <rect id="Rectangle-path" fill="#454547" fill-rule="nonzero" x="121.28125" y="44.75" width="1.15625" height="5.3125"></rect>
                <path d="M127.71875,50 L127.25,48.8125 L125,48.8125 L124.5,50 L123.3125,50 L125.59375,44.65625 L126.6875,44.65625 L128.9375,50 L127.71875,50 Z M126.125,46.0625 L125.40625,47.78125 L126.8125,47.78125 L126.125,46.0625 Z" id="Shape" fill="#454547" fill-rule="nonzero"></path>
                <polygon id="Shape" fill="#454547" fill-rule="nonzero" points="131.5 45.84375 131.5 50.0625 130.3125 50.0625 130.3125 45.84375 128.71875 45.84375 128.71875 44.75 133.09375 44.75 133.09375 45.84375"></polygon>
                <rect id="Rectangle-path" fill="#454547" fill-rule="nonzero" x="134.0625" y="44.75" width="1.15625" height="5.3125"></rect>
                <path d="M139.125,50.15625 C138.38784,50.1816846 137.671983,49.9065138 137.141658,49.3938665 C136.611333,48.8812192 136.312061,48.1750984 136.3125,47.4375 C136.312066,46.691617 136.614631,45.9775521 137.150814,45.4590454 C137.686998,44.9405386 138.4108,44.662072 139.15625,44.6875 C139.898866,44.6618229 140.619632,44.9412156 141.150925,45.4607019 C141.682218,45.9801882 141.977735,46.6944944 141.96875,47.4375 C141.969184,48.183383 141.666619,48.8974479 141.130436,49.4159546 C140.594252,49.9344614 139.87045,50.212928 139.125,50.1875 L139.125,50.15625 Z M140.75,47.4375 C140.758393,47.0011345 140.590901,46.5797355 140.28524,46.2681964 C139.979579,45.9566572 139.561446,45.7811693 139.125,45.78125 C138.691256,45.7809163 138.276112,45.9573809 137.975363,46.2699246 C137.674613,46.5824682 137.51424,47.0040897 137.53125,47.4375 C137.514249,47.8792005 137.677919,48.3087668 137.984527,48.6271682 C138.291136,48.9455696 138.714223,49.1253271 139.15625,49.125 C139.589994,49.1253337 140.005138,48.9488691 140.305887,48.6363254 C140.606637,48.3237818 140.76701,47.9021603 140.75,47.46875 L140.75,47.4375 Z" id="Shape" fill="#454547" fill-rule="nonzero"></path>
                <polygon id="Shape" fill="#454547" fill-rule="nonzero" points="146.71875 50.0625 144.15625 46.6875 144.15625 50.0625 143 50.0625 143 44.75 144.0625 44.75 146.5625 48.03125 146.5625 44.75 147.71875 44.75 147.71875 50.0625"></polygon>
            </g>
        </g>
    </g>
</svg>