<?xml version="1.0" encoding="UTF-8"?>
<svg width="85px" height="84px" viewBox="0 0 85 84" version="1.1" xmlns="http://www.w3.org/2000/svg" xmlns:xlink="http://www.w3.org/1999/xlink">
    <!-- Generator: Sketch 51.2 (57519) - http://www.bohemiancoding.com/sketch -->
    <title>omni-icon</title>
    <desc>Created with Sketch.</desc>
    <defs></defs>
    <g id="Regional-landing-pages" stroke="none" stroke-width="1" fill="none" fill-rule="evenodd">
        <g id="NA" transform="translate(-673.000000, -1468.000000)">
            <g id="Group-12" transform="translate(0.000000, 1357.000000)">
                <g id="omni-icon" transform="translate(673.000000, 111.000000)">
                    <circle id="Oval-2" fill="#FF5202" cx="42.5" cy="42" r="42"></circle>
                    <path d="M42.5000001,12.9697266 C39.6004171,12.9697266 37.2215401,15.3484993 37.2215401,18.2479563 C37.2215401,20.6900744 38.9154586,22.747502 41.1803852,23.3406233 L41.1803852,30.8662243 C40.8679589,30.9034358 40.5566542,30.9480632 40.2525305,31.0105509 C39.8879737,31.0854555 39.5312254,31.1897006 39.1803432,31.299204 C37.0750527,31.9562183 35.2133313,33.2032462 33.8400264,34.8661327 C33.7207555,35.0105517 33.6221892,35.1694066 33.5101231,35.3197306 L27.200714,31.299204 C27.6909593,29.1068583 26.7249206,26.7245425 24.6851975,25.5467584 C22.1747692,24.0971849 18.9179497,24.9741166 17.4685531,27.4848583 C16.0191572,29.9955935 16.8963092,33.2516146 19.4067375,34.701188 C21.5944041,35.9643938 24.3339768,35.4602701 25.9635748,33.6496657 L32.1905076,37.608338 C31.6103326,38.9607722 31.2832723,40.4390328 31.2832723,42.0000099 C31.2832723,43.5609144 31.6103326,45.0392146 32.1905076,46.391629 L25.9017179,50.4121885 C24.2649818,48.6554617 21.5678011,48.195332 19.4067375,49.4431056 C16.8959925,50.8928373 16.0189744,54.1277984 17.4685531,56.6388502 C18.9181324,59.149902 22.1744525,60.0267479 24.6851975,58.5769502 C26.7633612,57.3770106 27.7142706,54.9480353 27.1594759,52.721414 L33.5101231,48.6802694 C35.3069909,51.090573 38.0512362,52.7612647 41.1803852,53.1337757 L41.1803852,60.6593437 C38.9154586,61.2524848 37.2215401,63.3099388 37.2215401,65.7520437 C37.2215401,68.6515073 39.6004171,71.0302734 42.5000001,71.0302734 C45.399583,71.0302734 47.7784601,68.6515073 47.7784601,65.7520437 C47.7784601,63.3099388 46.0845415,61.2524848 43.8196149,60.6593437 L43.8196149,53.1337757 C44.1320412,53.0968281 44.4433453,53.0518972 44.747469,52.9894162 C47.4893371,52.4260971 49.872415,50.8498857 51.489877,48.6802694 L57.8405243,52.721414 C57.2857295,54.9480353 58.2366389,57.3770106 60.314802,58.5769502 C62.825547,60.0267479 66.0818677,59.149902 67.5314471,56.6388502 C68.9810258,54.1277984 68.104007,50.8928373 65.593262,49.4431056 C63.432199,48.195332 60.7350183,48.6554617 59.0982822,50.4121885 L52.8094918,46.391629 C53.3896676,45.0392146 53.7167272,43.5609144 53.7167272,42.0000099 C53.7167272,40.4390328 53.3896676,38.9607722 52.8094918,37.608338 L59.0364253,33.6496657 C60.6660233,35.4602701 63.4055961,35.9643938 65.593262,34.701188 C68.1036903,33.2516146 68.980843,29.9955935 67.5314471,27.4848583 C66.0820505,24.9741166 62.8252303,24.0971849 60.314802,25.5467584 C58.2750796,26.7245425 57.3090408,29.1068583 57.7992861,31.299204 L51.489877,35.3197306 C51.3778109,35.1694066 51.2792446,35.0105517 51.1599731,34.8661327 C50.7022048,34.3118394 50.1884866,33.7981423 49.6341682,33.3403944 C48.0171594,32.0050881 46.0045882,31.126342 43.8196149,30.8662243 L43.8196149,23.3406233 C46.0845415,22.747502 47.7784601,20.6900744 47.7784601,18.2479563 C47.7784601,15.3484993 45.399583,12.9697266 42.5000001,12.9697266 Z M42.5000001,15.6088414 C43.9732371,15.6088414 45.1392297,16.7747826 45.1392297,18.2479563 C45.1392297,19.72113 43.9732371,20.8870712 42.5000001,20.8870712 C41.026763,20.8870712 39.8607697,19.72113 39.8607697,18.2479563 C39.8607697,16.7747826 41.026763,15.6088414 42.5000001,15.6088414 Z M21.8603971,27.4848583 C22.3659625,27.4504839 22.8873526,27.559222 23.3655827,27.8353658 C24.640863,28.5717382 25.0709589,30.1680926 24.3346749,31.4435306 C23.5983915,32.7189687 22.0016333,33.1489531 20.726353,32.4125806 C19.4510726,31.6762016 19.0209774,30.0798472 19.7572608,28.8044158 C20.217438,28.0072645 21.0177878,27.5422063 21.8603971,27.4848583 Z M63.139603,27.4848583 C63.9822123,27.5421931 64.7825622,28.0072645 65.2427394,28.8044158 C65.9790227,30.0798472 65.5489268,31.6762016 64.2736471,32.4125806 C62.9983668,33.1489531 61.401608,32.7189687 60.6653253,31.4435306 C59.9290412,30.1680926 60.3591365,28.5717382 61.6344175,27.8353658 C62.1126469,27.559222 62.6340377,27.4504509 63.139603,27.4848583 Z M42.5000001,33.4228668 C47.2528513,33.4228668 51.0774975,37.2473335 51.0774975,42.0000099 C51.0774975,46.7526599 47.2528513,50.5771332 42.5000001,50.5771332 C37.7471488,50.5771332 33.9225027,46.7526599 33.9225027,42.0000099 C33.9225027,41.7029775 33.93457,41.4025143 33.9637388,41.1133993 C34.4013324,36.7771752 38.0441997,33.4228668 42.4999981,33.4228668 L42.5000001,33.4228668 Z M22.2315385,51.3606204 C23.0742719,51.4180212 23.8743842,51.8828353 24.3346749,52.6801779 C25.071141,53.955926 24.641179,55.5517328 23.3655827,56.2883097 C22.0899863,57.0248867 20.4937262,56.5950409 19.7572608,55.3192927 C19.0207947,54.0435446 19.450756,52.4476719 20.726353,51.7110949 C21.2047011,51.4349115 21.7258993,51.32618 22.2315385,51.3606204 Z M62.7684616,51.3606204 C63.2741009,51.3263119 63.795299,51.4349115 64.2736471,51.7110949 C65.5492435,52.4476719 65.9792055,54.0435446 65.2427394,55.3192927 C64.5062739,56.5950409 62.9100139,57.0248867 61.6344175,56.2883097 C60.3588204,55.5517328 59.9288591,53.955926 60.6653253,52.6801779 C61.1256159,51.8828353 61.9257283,51.4179552 62.7684616,51.3606204 Z M42.5000001,63.1129288 C43.9732371,63.1129288 45.1392297,64.2788898 45.1392297,65.7520437 C45.1392297,67.2251976 43.9732371,68.3911586 42.5000001,68.3911586 C41.026763,68.3911586 39.8607697,67.2251976 39.8607697,65.7520437 C39.8607697,64.2788898 41.026763,63.1129288 42.5000001,63.1129288 Z" id="Shape" fill="#FFFFFF" fill-rule="nonzero"></path>
                </g>
            </g>
        </g>
    </g>
</svg>