<?xml version="1.0" encoding="UTF-8"?>
<svg width="105px" height="59px" viewBox="0 0 105 59" version="1.1" xmlns="http://www.w3.org/2000/svg" xmlns:xlink="http://www.w3.org/1999/xlink">
    <!-- Generator: Sketch 51.2 (57519) - http://www.bohemiancoding.com/sketch -->
    <title>Group 2</title>
    <desc>Created with Sketch.</desc>
    <defs></defs>
    <g id="Regional-landing-pages" stroke="none" stroke-width="1" fill="none" fill-rule="evenodd">
        <g id="NA" transform="translate(-1036.000000, -3537.000000)" fill-rule="nonzero">
            <g id="Group-2" style="mix-blend-mode: multiply;" transform="translate(1036.000000, 3537.000000)">
                <rect id="Rectangle-path" fill="#ABADAE" x="0" y="46.9043478" width="104.347826" height="11.9478261"></rect>
                <rect id="Rectangle-path" fill="#505053" x="0" y="0" width="104.347826" height="46.9826087"></rect>
                <g id="Group" transform="translate(5.217391, 7.826087)" fill="#F6F6F6">
                    <path d="M54.3913043,28.6956522 C54.3580007,28.2565853 54.402151,27.8150821 54.5217391,27.3913043 C54.7494437,26.6415325 55.4612359,26.1454349 56.2434783,26.1913043 C56.9882148,26.1435994 57.6765945,26.5883986 57.9391304,27.2869565 L57.1565217,27.626087 C57.1565217,27.626087 57.1565217,27.626087 57.1565217,27.626087 C57.0429052,27.2924465 56.7262896,27.0708156 56.373913,27.0782609 C56.0352632,27.0767988 55.7368966,27.3005737 55.6434783,27.626087 C55.5902481,27.9631286 55.5902481,28.3064366 55.6434783,28.6434783 C55.5892237,28.9891887 55.5892237,29.3412461 55.6434783,29.6869565 C55.7368966,30.0124698 56.0352632,30.2362447 56.373913,30.2347826 C56.7262896,30.2422279 57.0429052,30.020597 57.1565217,29.6869565 C57.1565217,29.6869565 57.1565217,29.6869565 57.1565217,29.6869565 L57.9391304,30.026087 C57.6765945,30.7246448 56.9882148,31.1694441 56.2434783,31.1217391 C55.4612359,31.1676086 54.7494437,30.671511 54.5217391,29.9217391 C54.4007013,29.4893181 54.3565523,29.0389989 54.3913043,28.5913043" id="Shape"></path>
                    <path d="M58.6173913,29.8956522 C58.5419576,29.4553817 58.5419576,29.0054879 58.6173913,28.5652174 C58.5434168,28.1335813 58.5434168,27.6925056 58.6173913,27.2608696 C58.8656844,26.5030144 59.5954793,26.0093296 60.3913043,26.0608696 C61.1871294,26.0093296 61.9169243,26.5030144 62.1652174,27.2608696 C62.2391919,27.6925056 62.2391919,28.1335813 62.1652174,28.5652174 C62.2406511,29.0054879 62.2406511,29.4553817 62.1652174,29.8956522 C61.9169243,30.6535074 61.1871294,31.1471921 60.3913043,31.0956522 C59.5954793,31.1471921 58.8656844,30.6535074 58.6173913,29.8956522 M61.226087,29.6086957 C61.2767641,29.2627154 61.2767641,28.9111976 61.226087,28.5652174 C61.2757021,28.2279016 61.2757021,27.8851418 61.226087,27.5478261 C61.138869,27.2067762 60.8208023,26.976452 60.4695652,27 C60.1183281,26.976452 59.8002614,27.2067762 59.7130435,27.5478261 C59.6634283,27.8851418 59.6634283,28.2279016 59.7130435,28.5652174 C59.6623664,28.9111976 59.6623664,29.2627154 59.7130435,29.6086957 C59.8002614,29.9497455 60.1183281,30.1800697 60.4695652,30.1565217 C60.8208023,30.1800697 61.138869,29.9497455 61.226087,29.6086957" id="Shape"></path>
                    <path d="M63.1043478,26.2173913 C63.1043478,26.2173913 63.1043478,26.2173913 63.1043478,26.2173913 L63.9652174,26.2173913 C63.9652174,26.2173913 63.9652174,26.2173913 63.9652174,26.2173913 L65.1913043,28.9826087 L66.3913043,26.2173913 C66.3913043,26.2173913 66.3913043,26.2173913 66.3913043,26.2173913 L67.226087,26.2173913 L67.226087,30.9391304 L66.4173913,30.9391304 C66.4173913,30.9391304 66.4173913,30.9391304 66.4173913,30.9391304 L66.4173913,28.3304348 L65.5304348,30.3913043 L65.2173913,30.3913043 L64.3043478,28.3304348 L64.3043478,30.9391304 L63.4956522,30.9391304 C63.4956522,30.9391304 63.4956522,30.9391304 63.4956522,30.9391304 L63.1043478,26.2173913 Z" id="Shape"></path>
                    <path d="M68.6086957,31.0173913 L68.6086957,26.2956522 L70.4347826,26.2956522 C70.8739325,26.2506506 71.3112651,26.3963797 71.6356438,26.6958062 C71.9600225,26.9952327 72.1402167,27.4195283 72.1304348,27.8608696 C72.1402167,28.3022108 71.9600225,28.7265065 71.6356438,29.025933 C71.3112651,29.3253595 70.8739325,29.4710885 70.4347826,29.426087 L69.573913,29.426087 C69.573913,29.426087 69.573913,29.426087 69.573913,29.426087 L69.573913,31.0434783 L68.6086957,31.0173913 Z M71.2173913,27.7043478 C71.2265923,27.5193207 71.1533789,27.3397187 71.0174455,27.2138545 C70.8815121,27.0879902 70.6968173,27.0287883 70.5130435,27.0521739 L69.7043478,27.0521739 C69.7043478,27.0521739 69.7043478,27.0521739 69.7043478,27.0521739 L69.7043478,28.2782609 C69.7043478,28.2782609 69.7043478,28.2782609 69.7043478,28.2782609 L70.4347826,28.2782609 C70.6185564,28.3016465 70.8032513,28.2424445 70.9391847,28.1165803 C71.075118,27.990716 71.1483314,27.8111141 71.1391304,27.626087 L71.2173913,27.7043478 Z" id="Shape"></path>
                    <path d="M72.8608696,26.2173913 L73.7478261,26.2173913 L73.7478261,30.026087 L75.8869565,30.026087 C75.8869565,30.026087 75.8869565,30.026087 75.8869565,30.026087 L75.8869565,30.8347826 L73.0434783,30.8347826 L72.8608696,26.2173913 Z" id="Shape"></path>
                    <rect id="Rectangle-path" x="76.773913" y="26.1391304" width="1.04347826" height="4.85217391" rx="0.03"></rect>
                    <path d="M80.0608696,26.2173913 C80.0608696,26.2173913 80.0608696,26.2173913 80.0608696,26.2173913 L80.9478261,26.2173913 C80.9478261,26.2173913 80.9478261,26.2173913 80.9478261,26.2173913 L82.5913043,30.9391304 C82.5913043,30.9391304 82.5913043,30.9391304 82.5913043,30.9391304 L81.6521739,30.9391304 L81.3652174,30.0782609 L79.6695652,30.0782609 L79.4086957,30.9391304 C79.4086957,30.9391304 79.4086957,30.9391304 79.4086957,30.9391304 L78.4695652,30.9391304 C78.4695652,30.9391304 78.4695652,30.9391304 78.4695652,30.9391304 L80.0608696,26.2173913 Z M81.1565217,29.1913043 L80.6086957,27.4956522 L80.0608696,29.1913043 L81.1565217,29.1913043 Z" id="Shape"></path>
                    <path d="M83.4782609,26.2173913 L84.3391304,26.2173913 C84.3794871,26.1940914 84.4292086,26.1940914 84.4695652,26.2173913 L86.1652174,29.2695652 L86.1652174,26.2173913 C86.1652174,26.2173913 86.1652174,26.2173913 86.1652174,26.2173913 L86.973913,26.2173913 L86.973913,30.9391304 L86.0869565,30.9391304 L84.3652174,27.8869565 L84.3652174,30.9391304 L83.4782609,30.9391304 L83.4782609,26.2173913 Z" id="Shape"></path>
                    <path d="M89.1130435,31.0173913 L89.1130435,27.2086957 L87.8869565,27.2086957 C87.8869565,27.2086957 87.8869565,27.2086957 87.8869565,27.2086957 L87.8869565,26.4 L91.3043478,26.4 L91.3043478,27.2086957 C91.3043478,27.2086957 91.3043478,27.2086957 91.3043478,27.2086957 L90.0782609,27.2086957 L90.0782609,31.0173913 L89.1130435,31.0173913 Z" id="Shape"></path>
                    <path d="M2.60869565,43.1217391 C2.60869565,43.1217391 2.60869565,43.1217391 2.60869565,43.1217391 L3.23478261,43.1217391 L3.23478261,46.7217391 C3.23478261,46.7217391 3.23478261,46.7217391 3.23478261,46.7217391 L5.26956522,46.7217391 C5.26956522,46.7217391 5.26956522,46.7217391 5.26956522,46.7217391 L5.26956522,47.2695652 L2.50434783,47.2695652 L2.60869565,43.1217391 Z" id="Shape"></path>
                    <path d="M6.67826087,43.1217391 L9.28695652,43.1217391 C9.28695652,43.1217391 9.28695652,43.1217391 9.28695652,43.1217391 L9.28695652,43.6695652 C9.28695652,43.6695652 9.28695652,43.6695652 9.28695652,43.6695652 L7.27826087,43.6695652 C7.27826087,43.6695652 7.27826087,43.6695652 7.27826087,43.6695652 L7.27826087,44.7391304 L8.97391304,44.7391304 L8.97391304,45.2869565 C8.97391304,45.2869565 8.97391304,45.2869565 8.97391304,45.2869565 L7.27826087,45.2869565 C7.27826087,45.2869565 7.27826087,45.2869565 7.27826087,45.2869565 L7.27826087,46.4086957 C7.27826087,46.4086957 7.27826087,46.4086957 7.27826087,46.4086957 L9.28695652,46.4086957 C9.28695652,46.4086957 9.28695652,46.4086957 9.28695652,46.4086957 L9.28695652,46.9565217 L6.67826087,46.9565217 C6.67826087,46.9565217 6.67826087,46.9565217 6.67826087,46.9565217 L6.67826087,43.1217391 Z" id="Shape"></path>
                    <path d="M11.8956522,47.426087 C11.8956522,47.426087 11.8956522,47.426087 11.8956522,47.426087 L10.5130435,43.173913 C10.5130435,43.173913 10.5130435,43.173913 10.5130435,43.173913 L11.1130435,43.173913 C11.1130435,43.173913 11.1130435,43.173913 11.1130435,43.173913 L12.0782609,46.2782609 L13.0173913,43.173913 C13.0173913,43.173913 13.0173913,43.173913 13.0173913,43.173913 L13.6434783,43.173913 C13.6434783,43.173913 13.6434783,43.173913 13.6434783,43.173913 L12.2608696,47.426087 L11.8956522,47.426087 Z" id="Shape"></path>
                    <path d="M14.9217391,43.1217391 C14.9217391,43.1217391 14.9217391,43.1217391 14.9217391,43.1217391 L17.6869565,43.1217391 C17.6869565,43.1217391 17.6869565,43.1217391 17.6869565,43.1217391 L17.6869565,43.6695652 C17.6869565,43.6695652 17.6869565,43.6695652 17.6869565,43.6695652 L15.6521739,43.6695652 C15.6521739,43.6695652 15.6521739,43.6695652 15.6521739,43.6695652 L15.6521739,44.7391304 L17.3478261,44.7391304 L17.3478261,45.2869565 C17.3478261,45.2869565 17.3478261,45.2869565 17.3478261,45.2869565 L15.6521739,45.2869565 C15.6521739,45.2869565 15.6521739,45.2869565 15.6521739,45.2869565 L15.6521739,46.4086957 C15.6521739,46.4086957 15.6521739,46.4086957 15.6521739,46.4086957 L17.6608696,46.4086957 C17.6608696,46.4086957 17.6608696,46.4086957 17.6608696,46.4086957 L17.6608696,46.9565217 L14.8956522,46.9565217 L14.9217391,43.1217391 Z" id="Shape"></path>
                    <path d="M19.0434783,43.1217391 L19.6695652,43.1217391 L19.6695652,46.7217391 C19.6695652,46.7217391 19.6695652,46.7217391 19.6695652,46.7217391 L21.6782609,46.7217391 L21.6782609,47.2695652 C21.6782609,47.2695652 21.6782609,47.2695652 21.6782609,47.2695652 L19.0695652,47.2695652 C19.0695652,47.2695652 19.0695652,47.2695652 19.0695652,47.2695652 L19.0434783,43.1217391 Z" id="Shape"></path>
                    <path d="M26.0869565,43.9043478 L25.4086957,44.4 C25.4086957,44.4 25.4086957,44.4 25.4086957,44.4 L25.4086957,43.7478261 C25.4086957,43.7478261 25.4086957,43.7478261 25.4086957,43.7478261 L26.1130435,43.2521739 L26.6608696,43.2521739 C26.6608696,43.2521739 26.6608696,43.2521739 26.6608696,43.2521739 L26.6608696,47.5043478 L26.0869565,47.5043478 C26.0869565,47.5043478 26.0869565,47.5043478 26.0869565,47.5043478 L26.0869565,43.9043478 Z" id="Shape"></path>
                    <path d="M30.7304348,46.9565217 L31.1217391,46.4869565 C31.4433901,46.7802787 31.8604413,46.9470992 32.2956522,46.9565217 C32.8173913,46.9565217 33.1304348,46.6956522 33.1304348,46.3304348 C33.1304348,45.9652174 32.9217391,45.8086957 32.3217391,45.7304348 L32.0869565,45.7304348 C31.2521739,45.7304348 30.7826087,45.2086957 30.7826087,44.4782609 C30.7788632,44.0982316 30.9410526,43.7354685 31.2267569,43.4848507 C31.5124612,43.2342328 31.893263,43.1206879 32.2695652,43.173913 C32.7714537,43.1605784 33.2646476,43.3067099 33.6782609,43.5913043 C33.6782609,43.5913043 33.6782609,43.5913043 33.6782609,43.5913043 L33.3913043,44.0608696 C33.3913043,44.0608696 33.3913043,44.0608696 33.3913043,44.0608696 C33.0864661,43.8435326 32.7221924,43.7251436 32.3478261,43.7217391 C31.9043478,43.7217391 31.6434783,43.9565217 31.6434783,44.2956522 C31.6434783,44.6347826 31.8782609,44.8173913 32.4521739,44.8956522 L32.6869565,44.8956522 C33.5478261,44.8956522 33.9913043,45.4173913 33.9913043,46.173913 C33.9913043,46.9304348 33.4434783,47.5304348 32.3478261,47.5304348 C31.7593976,47.5270216 31.1894068,47.3247667 30.7304348,46.9565217" id="Shape"></path>
                    <path d="M35.2173913,43.1217391 C35.2173913,43.1217391 35.2173913,43.1217391 35.2173913,43.1217391 L37.9826087,43.1217391 C37.9826087,43.1217391 37.9826087,43.1217391 37.9826087,43.1217391 L37.9826087,43.6695652 C37.9826087,43.6695652 37.9826087,43.6695652 37.9826087,43.6695652 L35.973913,43.6695652 C35.973913,43.6695652 35.973913,43.6695652 35.973913,43.6695652 L35.973913,44.7391304 L37.6695652,44.7391304 L37.6695652,45.2869565 C37.6695652,45.2869565 37.6695652,45.2869565 37.6695652,45.2869565 L35.973913,45.2869565 C35.973913,45.2869565 35.973913,45.2869565 35.973913,45.2869565 L35.973913,46.4086957 C35.973913,46.4086957 35.973913,46.4086957 35.973913,46.4086957 L37.9826087,46.4086957 C37.9826087,46.4086957 37.9826087,46.4086957 37.9826087,46.4086957 L37.9826087,46.9565217 L35.2173913,46.9565217 L35.2173913,43.1217391 Z" id="Shape"></path>
                    <path d="M41.7391304,47.426087 C41.7391304,47.426087 41.7391304,47.426087 41.7391304,47.426087 L40.9043478,45.7043478 L40.1478261,45.7043478 C40.1478261,45.7043478 40.1478261,45.7043478 40.1478261,45.7043478 L40.1478261,47.373913 C40.1478261,47.373913 40.1478261,47.373913 40.1478261,47.373913 L39.5217391,47.373913 C39.5217391,47.373913 39.5217391,47.373913 39.5217391,47.373913 L39.5217391,43.1217391 L41.2173913,43.1217391 C41.5835975,43.1001597 41.9424634,43.2307444 42.209162,43.4826264 C42.4758606,43.7345084 42.6267222,44.085333 42.626087,44.4521739 C42.6344136,44.9899419 42.2984005,45.4729609 41.7913043,45.6521739 L42.7043478,47.426087 C42.7043478,47.426087 42.7043478,47.426087 42.7043478,47.426087 L41.7391304,47.426087 Z M41.7391304,44.373913 C41.739741,44.1984165 41.6666658,44.0307207 41.5377096,43.9116842 C41.4087533,43.7926476 41.2357567,43.7332002 41.0608696,43.7478261 L40.1217391,43.7478261 C40.1217391,43.7478261 40.1217391,43.7478261 40.1217391,43.7478261 L40.1217391,44.9217391 L41.0869565,44.9217391 C41.2504725,44.9361419 41.4127494,44.8829227 41.5359783,44.7744813 C41.6592072,44.6660398 41.7326266,44.5118462 41.7391304,44.3478261 L41.7391304,44.373913 Z" id="Shape"></path>
                    <path d="M44.7913043,47.426087 C44.7913043,47.426087 44.7913043,47.426087 44.7913043,47.426087 L43.4086957,43.173913 C43.4086957,43.173913 43.4086957,43.173913 43.4086957,43.173913 L44.0347826,43.173913 L45,46.2782609 L45.9391304,43.173913 C45.9391304,43.173913 45.9391304,43.173913 45.9391304,43.173913 L46.5391304,43.173913 C46.5391304,43.173913 46.5391304,43.173913 46.5391304,43.173913 L45.1565217,47.426087 C45.1565217,47.426087 45.1565217,47.426087 45.1565217,47.426087 L44.7913043,47.426087 Z" id="Shape"></path>
                    <rect id="Rectangle-path" x="47.8173913" y="43.0434783" width="1" height="4.3826087" rx="0.02"></rect>
                    <path d="M49.8782609,45.2347826 C49.8171713,44.8458626 49.8171713,44.4497896 49.8782609,44.0608696 C50.064852,43.3788466 50.7131118,42.928361 51.4173913,42.9913043 C52.0627674,42.9545694 52.6601984,43.3318942 52.9043478,43.9304348 C52.9043478,43.9304348 52.9043478,43.9304348 52.9043478,43.9304348 L52.3565217,44.1913043 C52.3565217,44.1913043 52.3565217,44.1913043 52.3565217,44.1913043 C52.2352757,43.848362 51.9115685,43.6186343 51.5478261,43.6173913 C51.1824522,43.5941243 50.8528496,43.8358329 50.7652174,44.1913043 C50.7018577,44.5187019 50.7018577,44.8552112 50.7652174,45.1826087 C50.6984461,45.5184525 50.6984461,45.8641562 50.7652174,46.2 C50.8616615,46.549485 51.1855133,46.7869763 51.5478261,46.773913 C51.9115685,46.7726701 52.2352757,46.5429423 52.3565217,46.2 C52.3565217,46.2 52.3565217,46.2 52.3565217,46.2 L52.9043478,46.4608696 C52.9043478,46.4608696 52.9043478,46.4608696 52.9043478,46.4608696 C52.6480435,47.0491038 52.0586841,47.4213308 51.4173913,47.4 C50.7187084,47.4424176 50.0821379,47.000055 49.8782609,46.3304348 C49.8161436,45.9328464 49.8161436,45.5280232 49.8782609,45.1304348" id="Shape"></path>
                    <path d="M54.1826087,43.1217391 C54.1826087,43.1217391 54.1826087,43.1217391 54.1826087,43.1217391 L56.7913043,43.1217391 L56.7913043,43.6695652 L54.7826087,43.6695652 C54.7826087,43.6695652 54.7826087,43.6695652 54.7826087,43.6695652 L54.7826087,44.7391304 C54.7826087,44.7391304 54.7826087,44.7391304 54.7826087,44.7391304 L56.4782609,44.7391304 C56.4782609,44.7391304 56.4782609,44.7391304 56.4782609,44.7391304 L56.4782609,45.2869565 L54.7826087,45.2869565 C54.7826087,45.2869565 54.7826087,45.2869565 54.7826087,45.2869565 L54.7826087,46.4086957 C54.7826087,46.4086957 54.7826087,46.4086957 54.7826087,46.4086957 L56.7913043,46.4086957 L56.7913043,46.9565217 C56.7913043,46.9565217 56.7913043,46.9565217 56.7913043,46.9565217 L54.1826087,46.9565217 L54.1826087,43.1217391 Z" id="Shape"></path>
                    <path d="M60.3652174,47.426087 C60.3652174,47.426087 60.3652174,47.426087 60.3652174,47.426087 L60.3652174,43.173913 L62.0086957,43.173913 C62.3838352,43.1443018 62.7539686,43.2749397 63.0274104,43.5334664 C63.3008522,43.7919932 63.4520237,44.1542254 63.4434783,44.5304348 C63.4596208,44.9111081 63.3117786,45.2804343 63.0374178,45.5448183 C62.763057,45.8092023 62.3885103,45.9432692 62.0086957,45.9130435 L61.0956522,45.9130435 C61.0956522,45.9130435 61.0956522,45.9130435 61.0956522,45.9130435 L61.0956522,47.4782609 L60.3652174,47.426087 Z M62.6086957,44.3478261 C62.6100506,44.1604045 62.5307054,43.9814593 62.3908969,43.8566303 C62.2510884,43.7318012 62.0643324,43.6731561 61.8782609,43.6956522 L61.0173913,43.6956522 C61.0173913,43.6956522 61.0173913,43.6956522 61.0173913,43.6956522 L61.0173913,44.973913 C61.0173913,44.973913 61.0173913,44.973913 61.0173913,44.973913 L61.8782609,44.973913 C62.0598731,44.9959645 62.2423968,44.9407212 62.3812999,44.8216614 C62.5202029,44.7026017 62.6027117,44.5306743 62.6086957,44.3478261 Z" id="Shape"></path>
                    <path d="M67.0956522,47.426087 C67.0956522,47.426087 67.0956522,47.426087 67.0956522,47.426087 L66.2608696,45.7043478 L65.5043478,45.7043478 C65.5043478,45.7043478 65.5043478,45.7043478 65.5043478,45.7043478 L65.5043478,47.373913 C65.5043478,47.373913 65.5043478,47.373913 65.5043478,47.373913 L64.8782609,47.373913 C64.8782609,47.373913 64.8782609,47.373913 64.8782609,47.373913 L64.8782609,43.1217391 C64.8782609,43.1217391 64.8782609,43.1217391 64.8782609,43.1217391 L66.573913,43.1217391 C66.9401193,43.1001597 67.2989851,43.2307444 67.5656837,43.4826264 C67.8323823,43.7345084 67.983244,44.085333 67.9826087,44.4521739 C67.9909354,44.9899419 67.6549222,45.4729609 67.1478261,45.6521739 L68.0608696,47.426087 C68.0608696,47.426087 68.0608696,47.426087 68.0608696,47.426087 L67.0956522,47.426087 Z M67.0956522,44.373913 C67.0962627,44.1984165 67.0231876,44.0307207 66.8942313,43.9116842 C66.7652751,43.7926476 66.5922784,43.7332002 66.4173913,43.7478261 L65.4782609,43.7478261 C65.4782609,43.7478261 65.4782609,43.7478261 65.4782609,43.7478261 L65.4782609,44.9217391 L66.4434783,44.9217391 C66.6156662,44.9443984 66.7892253,44.8913367 66.9193054,44.7762658 C67.0493855,44.6611949 67.1232237,44.4954053 67.1217391,44.3217391 L67.0956522,44.373913 Z" id="Shape"></path>
                    <path d="M69.026087,46.4608696 C68.9050329,46.0641876 68.8607634,45.6480542 68.8956522,45.2347826 C68.8621839,44.8301244 68.9064583,44.4227998 69.026087,44.0347826 C69.2315411,43.3694986 69.8711414,42.9358712 70.5652174,42.9913043 C71.2660561,42.9331132 71.9145963,43.3654734 72.1304348,44.0347826 C72.1893513,44.4326131 72.1893513,44.8369521 72.1304348,45.2347826 C72.1904103,45.6412779 72.1904103,46.0543742 72.1304348,46.4608696 C71.9066949,47.1241632 71.2635422,47.5529317 70.5652174,47.5043478 C69.873753,47.5500217 69.2396402,47.1201147 69.026087,46.4608696 M71.4,46.2521739 C71.4496151,45.9148582 71.4496151,45.5720984 71.4,45.2347826 C71.4505196,44.9062788 71.4505196,44.5719821 71.4,44.2434783 C71.2908743,43.8799967 70.9436722,43.6412953 70.5652174,43.6695652 C70.1933801,43.6438882 69.855029,43.8840083 69.7565217,44.2434783 C69.7060021,44.5719821 69.7060021,44.9062788 69.7565217,45.2347826 C69.7069066,45.5720984 69.7069066,45.9148582 69.7565217,46.2521739 C69.855029,46.6116438 70.1933801,46.851764 70.5652174,46.826087 C70.9436722,46.8543569 71.2908743,46.6156554 71.4,46.2521739" id="Shape"></path>
                    <path d="M74.5826087,47.426087 C74.5826087,47.426087 74.5826087,47.426087 74.5826087,47.426087 L73.173913,43.173913 C73.173913,43.173913 73.173913,43.173913 73.173913,43.173913 L73.8,43.173913 C73.8,43.173913 73.8,43.173913 73.8,43.173913 L74.7652174,46.2782609 L75.7043478,43.173913 C75.7043478,43.173913 75.7043478,43.173913 75.7043478,43.173913 L76.3304348,43.173913 C76.3304348,43.173913 76.3304348,43.173913 76.3304348,43.173913 L74.9478261,47.426087 L74.5826087,47.426087 Z" id="Shape"></path>
                    <rect id="Rectangle-path" x="77.6086957" y="43.0434783" width="1" height="4.3826087" rx="0.02"></rect>
                    <path d="M79.8,43.1217391 C79.8,43.1217391 79.8,43.1217391 79.8,43.1217391 L81.3652174,43.1217391 C82.0272175,43.0578017 82.6409371,43.4742543 82.826087,44.1130435 C82.902179,44.5094247 82.902179,44.9166622 82.826087,45.3130435 C82.9036129,45.7180626 82.9036129,46.1341113 82.826087,46.5391304 C82.639763,47.1741407 82.0224243,47.5820252 81.3652174,47.5043478 L79.8,47.5043478 L79.8,43.1217391 Z M80.5826087,46.7478261 L81.2347826,46.7478261 C81.7304348,46.7478261 82.0173913,46.5913043 82.1478261,46.2 C82.2033491,45.8806563 82.2033491,45.5541263 82.1478261,45.2347826 C82.2046379,44.9243167 82.2046379,44.6061181 82.1478261,44.2956522 C82.0173913,43.9043478 81.7304348,43.7478261 81.2347826,43.7478261 L80.5826087,43.7478261 C80.5826087,43.7478261 80.5826087,43.7478261 80.5826087,43.7478261 L80.5826087,46.6956522 C80.5826087,46.6956522 80.5826087,46.6956522 80.5826087,46.6956522 L80.5826087,46.7478261 Z" id="Shape"></path>
                    <path d="M84.2869565,43.1217391 C84.2869565,43.1217391 84.2869565,43.1217391 84.2869565,43.1217391 L87.0521739,43.1217391 C87.0521739,43.1217391 87.0521739,43.1217391 87.0521739,43.1217391 L87.0521739,43.6695652 C87.0521739,43.6695652 87.0521739,43.6695652 87.0521739,43.6695652 L85.0173913,43.6695652 C85.0173913,43.6695652 85.0173913,43.6695652 85.0173913,43.6695652 L85.0173913,44.7391304 C85.0173913,44.7391304 85.0173913,44.7391304 85.0173913,44.7391304 L86.7130435,44.7391304 C86.7130435,44.7391304 86.7130435,44.7391304 86.7130435,44.7391304 L86.7130435,45.2869565 L85.0173913,45.2869565 C85.0173913,45.2869565 85.0173913,45.2869565 85.0173913,45.2869565 L85.0173913,46.4086957 C85.0173913,46.4086957 85.0173913,46.4086957 85.0173913,46.4086957 L87.0521739,46.4086957 C87.0521739,46.4086957 87.0521739,46.4086957 87.0521739,46.4086957 L87.0521739,46.9565217 L84.2869565,46.9565217 L84.2869565,43.1217391 Z" id="Shape"></path>
                    <path d="M90.9130435,47.426087 C90.9130435,47.426087 90.9130435,47.426087 90.9130435,47.426087 L90.0782609,45.7043478 L89.3217391,45.7043478 L89.3217391,47.373913 L88.6956522,47.373913 C88.6956522,47.373913 88.6956522,47.373913 88.6956522,47.373913 L88.6956522,43.1217391 L90.3913043,43.1217391 C90.7551678,43.0997809 91.1116181,43.2310874 91.3742848,43.4838421 C91.6369515,43.7365969 91.7818655,44.0877353 91.773913,44.4521739 C91.794297,44.9855628 91.4672546,45.4708515 90.9652174,45.6521739 L91.8782609,47.426087 C91.8782609,47.426087 91.8782609,47.426087 91.8782609,47.426087 L90.9130435,47.426087 Z M90.9130435,44.373913 C90.9212505,44.2008346 90.8542329,44.0326588 90.729236,43.9126618 C90.6042391,43.7926648 90.433469,43.7325644 90.2608696,43.7478261 L89.3217391,43.7478261 C89.3217391,43.7478261 89.3217391,43.7478261 89.3217391,43.7478261 L89.3217391,44.9217391 L90.3130435,44.9217391 C90.4810022,44.936401 90.6473795,44.8797208 90.7714556,44.7655708 C90.8955317,44.6514209 90.9658561,44.4903353 90.9652174,44.3217391 L90.9130435,44.373913 Z" id="Shape"></path>
                    <path d="M3.6,30.9130435 C3.48462924,30.913269 3.37431079,30.8657314 3.29523959,30.7817182 C3.21616839,30.6977051 3.17539779,30.5847106 3.1826087,30.4695652 L3.1826087,1.9826087 C3.17479289,1.86969442 3.21625152,1.75892721 3.29628502,1.67889372 C3.37631852,1.59886022 3.48708572,1.55740158 3.6,1.56521739 L10.4347826,1.56521739 C15.6521739,1.56521739 19.0695652,4.17391304 19.0695652,10.8 C19.0695652,17.426087 15.6521739,20.0347826 10.4347826,20.0347826 L9,20.0347826 C8.92854393,20.0262834 8.85713653,20.0510222 8.80625329,20.1019055 C8.75537006,20.1527887 8.73063122,20.2241961 8.73913043,20.2956522 L8.73913043,30.4695652 C8.74634134,30.5847106 8.70557074,30.6977051 8.62649954,30.7817182 C8.54742834,30.8657314 8.43710989,30.913269 8.32173913,30.9130435 L3.6,30.9130435 Z M13.4869565,10.8 C13.4869565,7.46086957 12.5478261,6.52173913 10.3304348,6.52173913 L9.07826087,6.52173913 C9.0068048,6.51323991 8.9353974,6.53797876 8.88451416,6.58886199 C8.83363093,6.63974522 8.80889209,6.71115262 8.8173913,6.7826087 L8.8173913,14.8173913 C8.80889209,14.8888474 8.83363093,14.9602548 8.88451416,15.011138 C8.9353974,15.0620212 9.0068048,15.0867601 9.07826087,15.0782609 L10.4347826,15.0782609 C12.6521739,15.0782609 13.5913043,14.1130435 13.5913043,10.8 L13.4869565,10.8 Z" id="Shape"></path>
                    <path d="M21.8608696,16.226087 C21.8608696,8.63478261 22.0173913,7.30434783 22.4086957,6.05217391 C23.3560411,2.88296665 26.4226948,0.834880091 29.7130435,1.17391304 C31.7847243,0.928901311 33.8580156,1.61831869 35.3704507,3.05513201 C36.8828858,4.49194533 37.67765,6.52718065 37.5391304,8.60869565 C37.5391304,8.84347826 37.5391304,9.07826087 37.1478261,9.10434783 L32.6086957,9.88695652 C32.4908496,9.92298449 32.3627814,9.89715431 32.2681132,9.81826417 C32.173445,9.73937404 32.124944,9.61806321 32.1391304,9.49565217 C32.1391304,7.17391304 31.3304348,6.26086957 29.8956522,6.26086957 C29.0148536,6.17818769 28.2014701,6.73876283 27.9652174,7.59130435 C27.5809573,10.4528869 27.4935361,13.3465264 27.7043478,16.226087 C27.4935361,19.1056475 27.5809573,21.999287 27.9652174,24.8608696 C28.1920675,25.7200641 29.0119831,26.2851411 29.8956522,26.1913043 C31.3304348,26.1913043 32.0608696,25.3043478 32.1391304,22.9565217 C32.1367231,22.8376399 32.1885014,22.724113 32.2798476,22.6479911 C32.3711939,22.5718692 32.4921968,22.5414118 32.6086957,22.5652174 L37.1478261,23.3478261 C37.4608696,23.3478261 37.5391304,23.6086957 37.5391304,23.8695652 C37.67765,25.9510802 36.8828858,27.9863155 35.3704507,29.4231289 C33.8580156,30.8599422 31.7847243,31.5493596 29.7130435,31.3043478 C26.425341,31.6327449 23.3648518,29.5887753 22.4086957,26.426087 C22.0173913,25.173913 21.8608696,23.8173913 21.8608696,16.226087" id="Shape"></path>
                    <rect id="Rectangle-path" x="40.1217391" y="1.56521739" width="5.66086957" height="29.3478261" rx="0.17"></rect>
                    <path d="M55.0173913,1.9826087 C55.0090705,1.90424661 55.036618,1.82632263 55.0923399,1.77060077 C55.1480618,1.7148789 55.2259857,1.68733138 55.3043478,1.69565217 L60.3130435,1.69565217 C62.5816519,1.38488101 64.7353284,2.7836606 65.373913,4.9826087 C65.8732696,7.14469977 66.0490967,9.36891279 65.8956522,11.5826087 C66.0490967,13.7963046 65.8732696,16.0205176 65.373913,18.1826087 C64.7353284,20.3815568 62.5816519,21.7803364 60.3130435,21.4695652 L55.3043478,21.4695652 C55.2259857,21.477886 55.1480618,21.4503385 55.0923399,21.3946166 C55.036618,21.3388948 55.0090705,21.2609708 55.0173913,21.1826087 L55.0173913,1.9826087 Z M59.0086957,18.0521739 L60,18.0521739 C60.8172392,18.1547789 61.5810575,17.6268457 61.773913,16.826087 C62.1564308,15.1150082 62.2708382,13.3548947 62.1130435,11.6086957 C62.2708382,9.86249657 62.1564308,8.10238312 61.773913,6.39130435 C61.5694303,5.6042147 60.8043975,5.097943 60,5.2173913 L59.0869565,5.2173913 C58.9565217,5.2173913 58.9043478,5.2173913 58.9043478,5.37391304 L58.9043478,17.9478261 C58.8948641,17.9985793 58.9110198,18.0507446 58.9475289,18.0872537 C58.984038,18.1237628 59.0362033,18.1399185 59.0869565,18.1304348 L59.0086957,18.0521739 Z" id="Shape"></path>
                    <path d="M73.0434783,21.7304348 C71.6002913,21.9127169 70.1527377,21.4270509 69.1115233,20.4112321 C68.070309,19.3954132 67.5490544,17.9602907 67.6956522,16.5130435 C67.6956522,16.3565217 67.6956522,16.226087 67.9304348,16.2 L71.0347826,15.7043478 C71.2434783,15.7043478 71.3478261,15.7826087 71.3478261,15.9391304 C71.3478261,17.7652174 71.9478261,18.5478261 73.0695652,18.5478261 C74.1913043,18.5478261 74.6347826,18 74.6347826,16.2 C74.6347826,14.4 74.2956522,13.826087 72.8086957,13.2521739 L71.6086957,12.7826087 C69.1197561,12.0678933 67.5316709,9.63579079 67.8782609,7.06956522 C67.8782609,3.49565217 69.573913,1.56521739 73.0956522,1.56521739 C74.4699257,1.39115711 75.8501476,1.83975289 76.859481,2.78852625 C77.8688143,3.7372996 78.4018457,5.08716192 78.3130435,6.46956522 C78.3281167,6.54984248 78.3082653,6.6327391 78.2584641,6.69748072 C78.2086628,6.76222235 78.1336317,6.80267305 78.0521739,6.80869565 L75.0782609,7.27826087 C75.0041149,7.30462338 74.9216926,7.29208672 74.8587381,7.24487088 C74.7957837,7.19765503 74.7606702,7.12203986 74.7652174,7.04347826 C74.7652174,5.60869565 74.2434783,4.87826087 73.2,4.87826087 C72.1565217,4.87826087 71.6869565,5.53043478 71.6869565,6.86086957 C71.6869565,8.19130435 72,8.8173913 73.5391304,9.46956522 L74.7391304,9.93913043 C77.2489915,10.632729 78.8631877,13.0707219 78.5217391,15.6521739 C78.5217391,19.6956522 76.9826087,21.7826087 73.0434783,21.7826087" id="Shape"></path>
                    <path d="M85.3565217,21.7304348 C83.9113883,21.9111103 82.462381,21.4258997 81.4174571,20.4114105 C80.3725332,19.3969213 79.8447161,17.9628848 79.9826087,16.5130435 C79.9665572,16.3632419 80.0690873,16.2265351 80.2173913,16.2 L83.4782609,15.6521739 C83.6608696,15.6521739 83.7913043,15.6521739 83.7913043,15.8869565 C83.7913043,17.7130435 84.3652174,18.4956522 85.5130435,18.4956522 C86.6608696,18.4956522 87.0782609,17.9478261 87.0782609,16.1478261 C87.0782609,14.3478261 86.7130435,13.773913 85.2521739,13.2 L84.0521739,12.7304348 C81.5527761,12.0262433 79.9516584,9.59121014 80.2956522,7.0173913 C80.2956522,3.44347826 82.0173913,1.51304348 85.5130435,1.51304348 C86.8893837,1.32910667 88.275425,1.77433619 89.2871804,2.72538625 C90.2989358,3.67643631 90.828967,5.03231492 90.7304348,6.4173913 C90.7455081,6.49766857 90.7256566,6.58056518 90.6758554,6.64530681 C90.6260541,6.71004844 90.551023,6.75049913 90.4695652,6.75652174 L87.5217391,7.22608696 C87.4448082,7.25040758 87.3609528,7.23776191 87.2946153,7.19183592 C87.2282777,7.14590993 87.1869243,7.07187259 87.1826087,6.99130435 C87.1826087,5.55652174 86.6608696,4.82608696 85.6173913,4.82608696 C84.573913,4.82608696 84.1043478,5.47826087 84.1043478,6.80869565 C84.1043478,8.13913043 84.4434783,8.76521739 85.9826087,9.4173913 L87.1565217,9.88695652 C89.7119036,10.5968859 91.3280858,13.110947 90.9130435,15.7304348 C90.9130435,19.773913 89.373913,21.8608696 85.4608696,21.8608696" id="Shape"></path>
                </g>
            </g>
        </g>
    </g>
</svg>