<svg width="14" height="20" xmlns="http://www.w3.org/2000/svg"><g fill="#FFF" fill-rule="nonzero"><path d="M9.706 14.52a1.444 1.444 0 0 0-.406.36s-.882 1.152-2.003.688c-1.203-.5-2.353-2.51-3.115-4.183-.761-1.673-1.573-3.838-1.176-5.08.365-1.15 1.818-1.081 1.818-1.081.184.008.368-.016.544-.071L3.235.568C2.132 1.079.73 1.8.397 3.738.05 5.776.56 8.706 2.221 12.285c1.661 3.58 3.564 5.862 5.347 6.915 1.69 1 3.15.394 4.244-.109l-2.106-4.57zM5.703 5l.712-.33c.572-.266.82-.944.556-1.517L5.838.715A1.232 1.232 0 0 0 4.203.126l-.63.295L5.704 5zM13.391 17l-1.132-2.438a1.141 1.141 0 0 0-1.515-.556l-.712.33 2.127 4.593.632-.294a1.232 1.232 0 0 0 .6-1.635z"/></g></svg>
