<svg xmlns="http://www.w3.org/2000/svg" width="23" height="23"><g fill="#FFF" fill-rule="nonzero"><path d="M13.999838 6.486337c-.005299-1.010085-.618141-1.916852-1.552406-2.300086-.935146-.382309-2.008053-.165109-2.719738.550949-.712612.716065-.923662 1.78971-.536013 2.722086C9.579331 8.392543 10.489768 9 11.499989 9c1.38374-.005298 2.502493-1.130153 2.500007-2.513685l-.000158.000022zm-4.09645 0h.000883c.005299-.644548.39737-1.221966.994307-1.46479.596936-.242825 1.281313-.10242 1.734316.354935.453885.45735.58812 1.142517.339973 1.73761-.247265.594211-.82831.981831-1.472922.981831-.884825-.005298-1.598318-.72488-1.595674-1.609586h-.000883z"/><path d="M22.966736 20.530305l-1.023155-5.553958c-.183564-.995427-1.068011-1.71927-2.101606-1.72029H15.63134l1.391325-1.82954c1.06593-1.365018 1.598893-3.056636 1.502933-4.77196C18.270068 2.930137 15.156822 0 11.434268 0S4.598461 2.930138 4.34294 6.661614c-.095955 1.716212.437004 3.407908 1.502933 4.773006l1.391325 1.82954H3.160063c-1.033595 0-1.918042.724863-2.101606 1.71927L.035302 20.53033c-.114729.610517.053192 1.239435.459965 1.717232C.900978 22.72434 1.502777 23 2.136907 23h18.72785c.63309 0 1.232805-.27464 1.638516-.750399.40571-.474739.57467-1.102637.46309-1.712135l.000373-.007161zM5.408095 6.733227c.191908-2.7924 2.498986-5.687776 6.026255-5.687776 3.527268 0 5.834546 2.87499 6.026254 5.679412.078224 1.466089-.381734 2.912888-1.29539 4.076736l-4.731025 6.205275-4.7393-6.197172c-.910534-1.165913-1.36735-2.611589-1.287035-4.076736l.00024.000261zm16.287175 14.840438v-.001021c-.204425.242986-.508961.38389-.830219.381825H2.137202c-.318108 0-.618486-.13885-.821862-.377748-.202337-.239923-.285773-.555396-.227369-.860667l1.022114-5.557095c.091782-.49821.535047-.860667 1.052365-.859648h4.867462l2.976548 3.893782c.10117.132723.259703.211335.428673.211335.168962 0 .328547-.078612.428674-.211335l2.969339-3.891953h5.00844c.515235.001021.957445.361413 1.050282.857584l1.022114 5.557095c.056321.303233-.028161.616659-.229457.854525l.010744.003321z"/></g></svg>
