<?xml version="1.0" encoding="UTF-8"?>
<svg width="50px" height="50px" viewBox="0 0 50 50" version="1.1" xmlns="http://www.w3.org/2000/svg" xmlns:xlink="http://www.w3.org/1999/xlink">
    <!-- Generator: Sketch 46.2 (44496) - http://www.bohemiancoding.com/sketch -->
    <title>push</title>
    <desc>Created with Sketch.</desc>
    <defs></defs>
    <g id="Homepage" stroke="none" stroke-width="1" fill="none" fill-rule="evenodd">
        <g id="push" fill-rule="nonzero">
            <g id="Group-3" transform="translate(1.500000, 1.500000)">
                <path d="M36.4634576,17.3680915 L36.6032,17.3680915 L36.6032,42.0559205 C36.5980986,43.2011746 35.67095,44.1283231 34.5256959,44.1334246 L4.57423548,44.1334246 C3.42534488,44.133436 2.4925442,43.2047996 2.48741522,42.0559205 L2.48741522,12.0858277 C2.49251665,10.9405736 3.41966523,10.013425 4.56491932,10.0083236 L29.2434321,10.0083236 L29.2434321,7.5395407 L4.57423548,7.5395407 C2.06092427,7.54456604 0.0204284413,9.57259448 0,12.0858277 L0,42.0559205 C0.00512520269,44.580075 2.05008096,46.6250307 4.57423548,46.6301559 L34.5256959,46.6301559 C37.0498504,46.6250307 39.0948062,44.580075 39.0999314,42.0559205 L39.0999314,17.3867238 L39.2303577,17.3867238 L36.4634576,17.3680915 Z" id="Shape" fill="#FF6000"></path>
                <path d="M37.6838748,0.738742524 C34.1381532,0.738742524 30.9415661,2.87463371 29.5846772,6.15045336 C28.2277883,9.426273 28.9778135,13.1969045 31.4850173,15.7041083 C33.9922211,18.2113122 37.7628527,18.9613374 41.0386723,17.6044485 C44.3144919,16.2475595 46.4503831,13.0509725 46.4503831,9.50525085 C46.4503831,4.66364199 42.5254837,0.738742524 37.6838748,0.738742524 Z M42.3419557,14.1260671 C40.1451811,16.3229053 36.7036746,16.6650312 34.1173868,14.9436851 C31.5310991,13.222339 30.5182095,9.91551692 31.6967666,7.04098741 C32.8753237,4.1664579 35.9180571,2.52244133 38.968341,3.11208959 C42.0186249,3.70173785 44.229434,6.36131308 44.2517689,9.46798621 C44.2544741,11.2191233 43.5527996,12.8977702 42.3046911,14.1260671 L42.3419557,14.1260671 Z" id="Shape" fill="#09A2E7"></path>
                <path d="M35.4014151,7.68859929 C35.2349979,7.81174801 35.1469211,8.01432466 35.1703625,8.22002056 C35.1938038,8.42571647 35.3252019,8.60328152 35.5150605,8.68582868 C35.704919,8.76837584 35.9243939,8.74336423 36.0908111,8.62021547 L36.0908111,8.62021547 L37.1714859,7.81902555 L37.1714859,12.9056499 C37.2086556,13.1989165 37.4581333,13.4187703 37.753746,13.4187703 C38.0493587,13.4187703 38.2988364,13.1989165 38.3360061,12.9056499 L38.3360061,5.51793357 L35.4014151,7.68859929 Z" id="Shape" fill="#09A2E7"></path>
            </g>
        </g>
    </g>
</svg>