<?xml version="1.0" encoding="UTF-8"?>
<svg width="50px" height="50px" viewBox="0 0 50 50" version="1.1" xmlns="http://www.w3.org/2000/svg" xmlns:xlink="http://www.w3.org/1999/xlink">
    <!-- Generator: Sketch 46.2 (44496) - http://www.bohemiancoding.com/sketch -->
    <title>RCS</title>
    <desc>Created with Sketch.</desc>
    <defs>
        <polygon id="path-1" points="0.0003 45 49.436 45 49.436 0.1402 0.0003 0.1402"></polygon>
        <polygon id="path-3" points="0.0003 45 49.436 45 49.436 0.1402 0.0003 0.1402"></polygon>
    </defs>
    <g id="Homepage" stroke="none" stroke-width="1" fill="none" fill-rule="evenodd">
        <g id="RCS">
            <g id="Page-1" transform="translate(0.000000, 2.000000)">
                <g id="Group-3" transform="translate(0.000000, 0.860000)">
                    <mask id="mask-2" fill="white">
                        <use xlink:href="#path-1"></use>
                    </mask>
                    <g id="Clip-2"></g>
                    <path d="M45.1703,31.4492 L40.4363,31.4492 L40.4363,26.1402 L47.1003,26.1402 L47.1003,29.5192 C47.1003,30.5852 46.2353,31.4492 45.1703,31.4492 L45.1703,31.4492 Z M35.8283,32.7162 C35.0183,33.5272 34.5633,34.6262 34.5633,35.7732 L34.5633,42.0572 C34.5743,42.2082 34.5523,42.3582 34.5123,42.5042 C34.4003,42.4342 34.2913,42.3592 34.1953,42.2692 L24.9983,33.9202 C23.2263,32.4592 21.0273,31.6132 18.7333,31.5072 L11.2003,31.5072 L11.2003,2.4952 L38.2353,2.4952 L38.2353,31.5132 C37.3313,31.6522 36.4843,32.0602 35.8283,32.7162 L35.8283,32.7162 Z M2.3943,29.5772 L2.3943,26.1402 L9.0003,26.1402 L9.0003,31.5072 L4.3253,31.5072 C3.2583,31.5072 2.3943,30.6432 2.3943,29.5772 L2.3943,29.5772 Z M2.3943,15.9402 L9.0003,15.9402 L9.0003,10.1402 L2.3943,10.1402 L2.3943,15.9402 Z M2.3943,23.9402 L9.0003,23.9402 L9.0003,18.1402 L2.3943,18.1402 L2.3943,23.9402 Z M4.3253,2.5532 L4.3253,2.4952 L9.0003,2.4952 L9.0003,7.9402 L2.3943,7.9402 L2.3943,4.4832 C2.3943,3.4172 3.2583,2.5532 4.3253,2.5532 L4.3253,2.5532 Z M40.4363,15.9402 L47.1003,15.9402 L47.1003,10.1402 L40.4363,10.1402 L40.4363,15.9402 Z M40.4363,23.9402 L47.1003,23.9402 L47.1003,18.1402 L40.4363,18.1402 L40.4363,23.9402 Z M45.1703,2.4952 C46.2353,2.4952 47.1003,3.3592 47.1003,4.4252 L47.1003,7.9402 L40.4363,7.9402 L40.4363,2.4952 L45.1703,2.4952 Z M45.1113,0.1982 L4.3253,0.1982 L4.3253,0.1402 C1.9363,0.1402 0.0003,2.0762 0.0003,4.4632 L0.0003,29.5582 C0.0003,31.9462 1.9363,33.8812 4.3253,33.8812 L18.7533,33.8812 C20.4623,33.9852 22.0983,34.6162 23.4343,35.6862 L32.6323,44.0352 C33.1823,44.6062 33.9263,44.9502 34.7173,45.0002 C35.0553,44.9952 35.3873,44.9062 35.6823,44.7402 C36.1233,44.4802 36.4643,44.0792 36.6483,43.6012 C36.8223,43.1392 36.9083,42.6472 36.8993,42.1532 L36.8993,35.8702 C36.8993,34.8042 37.7633,33.9392 38.8283,33.9392 L45.1113,33.9392 C46.2583,33.9392 47.3583,33.4842 48.1693,32.6732 C48.9803,31.8622 49.4363,30.7622 49.4363,29.6162 L49.4363,4.5212 C49.4363,2.1332 47.5003,0.1982 45.1113,0.1982 L45.1113,0.1982 Z" id="Fill-1" fill="#FF6002" mask="url(#mask-2)"></path>
                </g>
            </g>
            <g id="Page-1" transform="translate(0.000000, 2.000000)">
                <g id="Group-3" transform="translate(0.000000, 0.860000)">
                    <mask id="mask-4" fill="white">
                        <use xlink:href="#path-3"></use>
                    </mask>
                    <g id="Clip-2"></g>
                    <path d="M45.1703,31.4492 L40.4363,31.4492 L40.4363,26.1402 L47.1003,26.1402 L47.1003,29.5192 C47.1003,30.5852 46.2353,31.4492 45.1703,31.4492 L45.1703,31.4492 Z M35.8283,32.7162 C35.0183,33.5272 34.5633,34.6262 34.5633,35.7732 L34.5633,42.0572 C34.5743,42.2082 34.5523,42.3582 34.5123,42.5042 C34.4003,42.4342 34.2913,42.3592 34.1953,42.2692 L24.9983,33.9202 C23.2263,32.4592 21.0273,31.6132 18.7333,31.5072 L11.2003,31.5072 L11.2003,2.4952 L38.2353,2.4952 L38.2353,31.5132 C37.3313,31.6522 36.4843,32.0602 35.8283,32.7162 L35.8283,32.7162 Z M2.3943,29.5772 L2.3943,26.1402 L9.0003,26.1402 L9.0003,31.5072 L4.3253,31.5072 C3.2583,31.5072 2.3943,30.6432 2.3943,29.5772 L2.3943,29.5772 Z M2.3943,15.9402 L9.0003,15.9402 L9.0003,10.1402 L2.3943,10.1402 L2.3943,15.9402 Z M2.3943,23.9402 L9.0003,23.9402 L9.0003,18.1402 L2.3943,18.1402 L2.3943,23.9402 Z M4.3253,2.5532 L4.3253,2.4952 L9.0003,2.4952 L9.0003,7.9402 L2.3943,7.9402 L2.3943,4.4832 C2.3943,3.4172 3.2583,2.5532 4.3253,2.5532 L4.3253,2.5532 Z M40.4363,15.9402 L47.1003,15.9402 L47.1003,10.1402 L40.4363,10.1402 L40.4363,15.9402 Z M40.4363,23.9402 L47.1003,23.9402 L47.1003,18.1402 L40.4363,18.1402 L40.4363,23.9402 Z M45.1703,2.4952 C46.2353,2.4952 47.1003,3.3592 47.1003,4.4252 L47.1003,7.9402 L40.4363,7.9402 L40.4363,2.4952 L45.1703,2.4952 Z M45.1113,0.1982 L4.3253,0.1982 L4.3253,0.1402 C1.9363,0.1402 0.0003,2.0762 0.0003,4.4632 L0.0003,29.5582 C0.0003,31.9462 1.9363,33.8812 4.3253,33.8812 L18.7533,33.8812 C20.4623,33.9852 22.0983,34.6162 23.4343,35.6862 L32.6323,44.0352 C33.1823,44.6062 33.9263,44.9502 34.7173,45.0002 C35.0553,44.9952 35.3873,44.9062 35.6823,44.7402 C36.1233,44.4802 36.4643,44.0792 36.6483,43.6012 C36.8223,43.1392 36.9083,42.6472 36.8993,42.1532 L36.8993,35.8702 C36.8993,34.8042 37.7633,33.9392 38.8283,33.9392 L45.1113,33.9392 C46.2583,33.9392 47.3583,33.4842 48.1693,32.6732 C48.9803,31.8622 49.4363,30.7622 49.4363,29.6162 L49.4363,4.5212 C49.4363,2.1332 47.5003,0.1982 45.1113,0.1982 L45.1113,0.1982 Z" id="Fill-1" fill="#FF6002" mask="url(#mask-4)"></path>
                </g>
                <path d="M22.437,15.2916 L27.127,17.9996 L22.437,20.7076 L22.437,15.2916 Z M29.627,17.1336 L21.937,12.6936 C21.627,12.5156 21.247,12.5156 20.937,12.6936 C20.627,12.8726 20.437,13.2026 20.437,13.5596 L20.437,22.4396 C20.437,22.7966 20.627,23.1266 20.937,23.3056 C21.247,23.4836 21.627,23.4836 21.937,23.3056 L29.627,18.8656 C29.937,18.6876 30.127,18.3566 30.127,17.9996 C30.127,17.6426 29.937,17.3126 29.627,17.1336 L29.627,17.1336 Z" id="Fill-4" fill="#09A2E7"></path>
            </g>
        </g>
    </g>
</svg>