<?xml version="1.0" encoding="UTF-8"?>
<svg width="84px" height="84px" viewBox="0 0 84 84" version="1.1" xmlns="http://www.w3.org/2000/svg" xmlns:xlink="http://www.w3.org/1999/xlink">
    <!-- Generator: Sketch 50.2 (55047) - http://www.bohemiancoding.com/sketch -->
    <title>Group</title>
    <desc>Created with Sketch.</desc>
    <defs></defs>
    <g id="Regional-landing-pages" stroke="none" stroke-width="1" fill="none" fill-rule="evenodd">
        <g id="dashbosrd">
            <g id="Group">
                <circle id="Oval-2" fill="#FF5202" cx="42" cy="42" r="42"></circle>
                <g id="dashobard-icon" transform="translate(18.000000, 18.000000)" fill="#FFFFFF" fill-rule="nonzero">
                    <path d="M40.5291238,6.95362615 C36.0449716,2.4695667 30.0830115,0 23.741375,0 C17.3998311,0 11.4378711,2.46947396 6.95371889,6.95362615 L6.95353341,6.95371889 L6.95344067,6.95381163 C2.46947396,11.4380566 0,17.3999239 0,23.741375 C0,23.7414677 0,23.7415604 0,23.7415604 L0,23.7416532 C9.2739746e-05,28.9260832 1.64186446,33.8519548 4.74799677,37.9869419 C5.01072848,38.3367562 5.42277117,38.5425457 5.86022455,38.5425457 L41.6227109,38.5425457 C42.060257,38.5425457 42.4722069,38.3367562 42.7349386,37.9868491 C45.8408855,33.8517693 47.4825645,28.9258977 47.4826572,23.7416532 L47.4826572,23.7415604 L47.4827499,23.7415604 C47.4827499,23.7415604 47.4827499,23.7414677 47.4827499,23.741375 C47.4827499,17.3998311 45.0131832,11.4377784 40.5291238,6.95362615 Z M40.9140865,35.760446 L6.56884895,35.760446 C4.35524395,32.6078511 3.07701203,28.9694854 2.82809855,25.1325639 L4.37119519,25.1324712 C5.13945124,25.1324712 5.76229138,24.5095383 5.76219864,23.7412822 C5.76219864,22.9730262 5.13926576,22.3502788 4.37100971,22.3502788 L2.82948965,22.3503715 C3.14128068,17.6164712 5.03094574,13.3071334 7.97738021,9.94476118 L9.0609514,11.0282396 C9.33258612,11.2998743 9.68852126,11.4356453 10.0445491,11.4356453 C10.400577,11.4356453 10.7566049,11.2997816 11.0282396,11.0281469 C11.5715091,10.4848775 11.5714163,9.60412809 11.0281469,9.06085866 L9.94466844,7.97747295 C13.3070407,5.03103848 17.6163784,3.14128068 22.3502788,2.82948965 L22.3502788,4.37119519 C22.3502788,5.13945124 22.9731189,5.76229138 23.741375,5.76229138 C24.509631,5.76229138 25.1324712,5.13945124 25.1324712,4.37119519 L25.1324712,2.82948965 C29.8663715,3.14128068 34.1757093,5.03103848 37.5381742,7.97756569 L36.454603,9.06085866 C35.9113336,9.60403535 35.9112409,10.4848775 36.4544176,11.0281469 C36.7260523,11.2997816 37.0821729,11.4356453 37.4381081,11.4356453 C37.7940432,11.4356453 38.1500711,11.2998743 38.4216131,11.0282396 L39.505277,9.94476118 C42.4518042,13.3071334 44.3414693,17.6164712 44.6532603,22.3503715 L43.1116475,22.3502788 C43.1115548,22.3502788 43.1115548,22.3502788 43.1115548,22.3502788 C42.3433914,22.3502788 41.7205513,22.9730262 41.7204586,23.7412822 C41.7203658,24.5095383 42.343206,25.1324712 43.111462,25.1324712 L44.6546514,25.1325639 C44.4056452,28.9693927 43.1275987,32.6076656 40.9140865,35.760446 Z" id="Shape"></path>
                    <path d="M32.6813937,44.7005576 L14.8012635,44.7005576 C14.0330074,44.7005576 13.4101673,45.3233977 13.4101673,46.0916537 C13.4101673,46.8599098 14.0330074,47.4827499 14.8012635,47.4827499 L32.6814865,47.4827499 C33.4497425,47.4827499 34.0725827,46.8599098 34.0725827,46.0916537 C34.0725827,45.3233977 33.4497425,44.7005576 32.6813937,44.7005576 Z" id="Shape"></path>
                    <path d="M32.4616005,15.0210567 C31.9185166,14.4776945 31.0376745,14.4776945 30.4944051,15.0210567 L26.7825895,18.7327795 C25.895441,18.1921068 24.8540664,17.880223 23.7412822,17.880223 C20.5093948,17.880223 17.8801303,20.5094876 17.8801303,23.741375 C17.8801303,26.9732624 20.5094876,29.6025269 23.7412822,29.6025269 C26.9731696,29.6025269 29.6023414,26.9731696 29.6023414,23.741375 C29.6023414,22.6285908 29.2905504,21.5873089 28.7498777,20.7000677 L32.4616005,16.9883449 C33.00487,16.4450755 33.00487,15.5643261 32.4616005,15.0210567 Z M23.741375,26.8203345 C22.0435884,26.8203345 20.6624154,25.4390688 20.6624154,23.741375 C20.6624154,22.0436812 22.0436812,20.6624154 23.741375,20.6624154 C25.4390688,20.6624154 26.8202418,22.0435884 26.8202418,23.741375 C26.8202418,25.4391615 25.4390688,26.8203345 23.741375,26.8203345 Z" id="Shape"></path>
                </g>
            </g>
        </g>
    </g>
</svg>