<?xml version="1.0" encoding="UTF-8"?>
<svg width="50px" height="50px" viewBox="0 0 50 50" version="1.1" xmlns="http://www.w3.org/2000/svg" xmlns:xlink="http://www.w3.org/1999/xlink">
    <!-- Generator: Sketch 46.2 (44496) - http://www.bohemiancoding.com/sketch -->
    <title>SMS</title>
    <desc>Created with Sketch.</desc>
    <defs></defs>
    <g id="Homepage" stroke="none" stroke-width="1" fill="none" fill-rule="evenodd">
        <g id="SMS">
            <g id="Group-12" transform="translate(0.000000, 2.000000)">
                <path d="M4.76109094,1.52107309 L4.76109094,0.343579557 C2.37306101,0.343579557 0.43718026,2.27946031 0.43718026,4.66749024 L0.43718026,29.7616147 C0.43718026,32.1496447 2.37306101,34.0855254 4.76109094,34.0855254 L19.1902125,34.0855254 C20.8995023,34.1892746 22.5347308,34.8197647 23.8712319,35.8903721 L33.0691937,44.2389943 C33.6192953,44.8096271 34.3629193,45.1538975 35.1539364,45.2041529 C35.4923679,45.1992386 35.8241806,45.1096492 36.119095,44.9435601 C36.5606083,44.6843079 36.9009292,44.2827292 37.0842536,43.8046729 C37.259809,43.3426078 37.3449987,42.8511289 37.3351949,42.3569349 L37.3351949,36.0737522 C37.3351949,35.0076674 38.1994273,34.1434349 39.2655121,34.1434349 L45.5486948,34.1434349 C46.6954673,34.1434349 47.7952709,33.6878814 48.6061614,32.8769908 C49.417052,32.0661003 49.8726055,30.9662967 49.8726055,29.8195243 L49.8726055,4.72539976 C49.8726055,2.33736983 47.9367248,0.401489075 45.5486948,0.401489075 L4.76109094,0.401489075 L4.76109094,2.69856663 L45.6066044,2.69856663 C46.6726892,2.69856663 47.5369216,3.56279911 47.5369216,4.6288839 L47.5369216,29.7230084 C47.5369216,30.7890932 46.6726892,31.6533257 45.6066044,31.6533257 L39.3234217,31.6533257 C38.1766492,31.6533257 37.0768456,32.1088792 36.2659551,32.9197698 C35.4550645,33.7306603 34.999511,34.8304639 34.999511,35.9772364 L34.999511,42.2604191 C35.0163733,42.4679022 34.9832775,42.6764056 34.9029951,42.868469 L35.0960268,42.9939396 L34.9898594,42.8009079 L34.9126467,42.868469 L35.1056784,42.9939396 L34.999511,42.8009079 L35.1539364,43.0808039 L35.1539364,42.8491658 L34.999511,42.8491658 L35.1539364,43.1290618 L35.1539364,42.9167269 L35.1539364,42.8105595 L35.1539364,42.8105595 L35.1539364,42.9167269 L35.1539364,42.8105595 L35.0091626,42.75265 C34.8732342,42.6743067 34.7469097,42.5803731 34.6327507,42.472754 L25.4347889,34.1241318 C23.6627321,32.6635617 21.4648751,31.8169296 19.1709094,31.7112352 L4.76109094,31.7112352 C3.69500615,31.7112352 2.83077367,30.8470027 2.83077367,29.7809179 L2.83077367,4.68679341 C2.83077367,3.62070862 3.69500615,2.75647614 4.76109094,2.75647614 L4.76109094,1.52107309 Z" id="Shape" fill="#FF6000" fill-rule="nonzero"></path>
                <circle id="Oval" stroke="#09A2E7" stroke-width="2" cx="14.1231297" cy="17.5620096" r="3.50352584"></circle>
                <circle id="Oval" stroke="#09A2E7" stroke-width="2" cx="25.1548929" cy="17.5620096" r="3.50352584"></circle>
                <circle id="Oval" stroke="#09A2E7" stroke-width="2" cx="36.1866561" cy="17.5620096" r="3.50352584"></circle>
            </g>
        </g>
    </g>
</svg>