<?xml version="1.0" encoding="UTF-8"?>
<svg width="154px" height="34px" viewBox="0 0 154 34" version="1.1" xmlns="http://www.w3.org/2000/svg" xmlns:xlink="http://www.w3.org/1999/xlink">
    <!-- Generator: Sketch 50.2 (55047) - http://www.bohemiancoding.com/sketch -->
    <title>Group</title>
    <desc>Created with Sketch.</desc>
    <defs></defs>
    <g id="Page-1" stroke="none" stroke-width="1" fill="none" fill-rule="evenodd">
        <g id="Group" fill="#1C1C1C">
            <path d="M138.461404,0.816200026 L154.000005,31.354401 L144.760005,31.354401 L138.600004,19.0344006 L132.332204,31.354401 L123.092204,31.354401 L138.461404,0.816200026 Z M143.789805,3.34180011 L144.991005,3.34180011 L144.991005,6.68360021 L145.591605,6.68360021 L145.591605,3.34180011 L146.792805,3.34180011 L146.792805,2.83360009 L143.789805,2.83360009 L143.789805,3.34180011 Z M146.869805,6.68360021 L147.470405,6.68360021 L147.639805,3.60360011 L148.671605,6.60660021 L149.179805,6.60660021 L150.211605,3.60360011 L150.381005,6.68360021 L150.920005,6.68360021 L150.673605,2.83360009 L149.811205,2.83360009 L148.871805,5.74420018 L147.932405,2.83360009 L147.070005,2.83360009 L146.869805,6.68360021 Z M116.932204,33.110001 L132.440004,2.57180008 L123.200004,2.57180008 L117.040004,14.8918005 L110.772203,2.57180008 L101.532203,2.57180008 L116.932204,33.110001 Z M26.8576008,10.7800003 L35.4200011,10.7800003 L35.4200011,31.400601 L45.1066014,31.400601 L45.1066014,10.7800003 L53.5920017,10.7800003 L53.5920017,2.57180008 L26.8576008,2.57180008 L26.8576008,10.7800003 Z M14.5376005,21.3290007 C15.6002005,21.5292007 18.3106006,22.0682007 17.6176006,23.5158007 C16.7552005,25.2252008 10.5798003,23.8238008 8.76260028,23.0230007 C7.49435489,22.5109228 6.30253015,21.826919 5.22060016,20.9902007 L0,27.1040009 C5.08200016,30.507401 8.28520026,31.878001 14.7686005,31.847201 C21.2520007,31.816401 27.0116009,29.4910009 27.4274009,23.1154007 C27.9972009,14.2912005 20.0508006,14.1372004 13.8600004,12.4432004 C12.8898004,12.1814004 11.1342004,11.8734004 11.4422004,10.5182003 C11.6732004,9.4710003 14.0294004,9.6558003 14.9380005,9.74820031 C17.4906232,10.0661347 19.9301308,10.9901906 22.0528007,12.4432004 L26.7652008,6.00600019 C22.9569226,3.15903565 18.2688782,1.74171988 13.5212004,2.00200006 C7.57680024,2.17140007 2.00200006,4.54300014 1.57080005,11.2420004 C1.12420004,18.5878006 8.93200028,20.1432006 14.5068005,21.2674007 L14.5376005,21.3290007 Z M81.2812026,28.7980009 L76.2762024,21.5600007 C77.0679533,21.196721 77.8083913,20.7307111 78.4784025,20.1740006 C80.2912217,18.7797141 81.4809722,16.7267027 81.7894026,14.4606005 C82.4673335,10.9965868 81.1756559,7.44151083 78.4322025,5.22060016 C75.9389412,3.48164293 72.9547826,2.58585574 69.9160022,2.66420008 L54.8240017,2.66420008 L54.8240017,31.400601 L64.433602,31.400601 L64.433602,23.1000007 C66.8514021,23.1000007 66.3432021,22.8690007 67.1132021,24.0240008 L71.7332023,30.938601 C71.8872023,31.215801 71.8872023,31.339001 72.2876023,31.339001 L88.9658028,31.339001 L95.480003,19.0190006 L101.840203,31.339001 L110.880003,31.339001 L95.480003,0.770000024 L81.2812026,28.7980009 Z M68.9612022,16.2778005 L64.341202,16.2778005 L64.341202,10.6414003 L68.3760022,10.6414003 C70.1470022,10.6414003 72.3030023,11.0880003 72.2414023,13.2902004 C72.1798023,15.4924005 70.9786022,16.2162005 68.9766022,16.2162005 L68.9612022,16.2778005 Z" id="Shape"></path>
        </g>
    </g>
</svg>