<svg xmlns="http://www.w3.org/2000/svg" width="23" height="23"><path fill="#FFF" fill-rule="nonzero" d="M11.509351 0v8.466838h1.209537v2.419097h1.483558l.179541-.207891 1.937134-2.211206H23V0H11.509351zm1.209537 1.209548h9.07153V7.25729h-6.019262l-.179541.207891L13.9285 9.364535V7.25726h-1.209537l-.000076-6.047712zm-8.164376.34962L0 6.113723l.018899.283487c.278762 3.502248 2.257238 7.596266 5.622534 10.961532 3.365295 3.365266 7.459216 5.33441 10.96143 5.61291L16.8769 23l4.12936-4.129398.434678-.425217-4.790977-4.79102-2.80649 2.806514c-1.45994-.832743-2.818312-1.797782-4.167157-3.14664-1.348846-1.348858-2.313936-2.697867-3.146611-4.157822l2.381276-2.381298.434677-.425217-4.791143-4.790734zm0 1.710362l3.080692 3.08072-2.296246 2.286802-.321284.321286.21734.396883c.923692 1.695031 2.039914 3.268502 3.590813 4.819446 1.550898 1.550943 3.11486 2.667144 4.809724 3.590846l.39688.217341 2.617499-2.617523 3.08069 3.08072-3.288428 3.279085c-3.077063-.321286-6.84961-2.124965-9.950258-5.225551-3.104277-3.104306-4.897114-6.872351-5.21613-9.95035L4.554513 3.26953z"/></svg>
