<?xml version="1.0" encoding="UTF-8"?>
<svg width="50px" height="50px" viewBox="0 0 50 50" version="1.1" xmlns="http://www.w3.org/2000/svg" xmlns:xlink="http://www.w3.org/1999/xlink">
    <!-- Generator: Sketch 46.2 (44496) - http://www.bohemiancoding.com/sketch -->
    <title>voice</title>
    <desc>Created with Sketch.</desc>
    <defs></defs>
    <g id="Homepage" stroke="none" stroke-width="1" fill="none" fill-rule="evenodd">
        <g id="voice" fill-rule="nonzero">
            <g id="Group-2" transform="translate(0.000000, 2.000000)">
                <path d="M0.493635591,21.0308368 L0.493635591,24.8944845 C0.493635591,25.7333381 1.17366077,26.4133633 2.01251433,26.4133633 C2.8513679,26.4133633 3.53139307,25.7333381 3.53139307,24.8944845 L3.53139307,21.0308368 C3.53139307,20.1919832 2.8513679,19.511958 2.01251433,19.511958 C1.17366077,19.511958 0.493635591,20.1919832 0.493635591,21.0308368" id="Shape" fill="#FF6000"></path>
                <path d="M8.22093118,13.2940482 L8.22093118,32.6312731 C8.22093115,33.1739163 8.51042779,33.6753392 8.98037052,33.9466608 C9.45031326,34.2179824 10.0293066,34.2179824 10.4992493,33.9466608 C10.969192,33.6753392 11.2586887,33.1739163 11.2586887,32.6312731 L11.2586887,13.2940482 C11.2586887,12.4551946 10.5786635,11.7751694 9.73980992,11.7751694 C8.90095636,11.7751694 8.22093118,12.4551946 8.22093118,13.2940482" id="Shape" fill="#FF6000"></path>
                <path d="M15.9482268,16.9963151 L15.9482268,38.4219983 C15.9482268,39.2608519 16.6282519,39.9408771 17.4671055,39.9408771 C18.3059591,39.9408771 18.9859843,39.2608519 18.9859843,38.4219983 L18.9859843,16.9963151 C18.9859843,16.1574615 18.3059591,15.4774364 17.4671055,15.4774364 C16.6282519,15.4774364 15.9482268,16.1574615 15.9482268,16.9963151" id="Shape" fill="#FF6000"></path>
                <path d="M15.9482268,7.50332297 L15.9482268,11.8416204 C15.9482268,12.6804739 16.6282519,13.3604991 17.4671055,13.3604991 C18.3059591,13.3604991 18.9859843,12.6804739 18.9859843,11.8416204 L18.9859843,7.50332297 C18.9859843,6.66446941 18.3059591,5.98444423 17.4671055,5.98444423 C16.6282519,5.98444423 15.9482268,6.66446941 15.9482268,7.50332297" id="Shape" fill="#09A2E7"></path>
                <path d="M23.6660294,37.7764749 L23.6660294,44.2317095 C23.6660294,45.0705631 24.3460545,45.7505882 25.1849081,45.7505882 C26.0237617,45.7505882 26.7037868,45.0705631 26.7037868,44.2317095 L26.7037868,37.7764749 C26.7037868,36.9376213 26.0237617,36.2575961 25.1849081,36.2575961 C24.3460545,36.2575961 23.6660294,36.9376213 23.6660294,37.7764749" id="Shape" fill="#09A2E7"></path>
                <path d="M23.6660294,1.70310479 L23.6660294,32.840119 C23.6660294,33.6789725 24.3460545,34.3589977 25.1849081,34.3589977 C26.0237617,34.3589977 26.7037868,33.6789725 26.7037868,32.840119 L26.7037868,1.70310479 C26.7037868,0.864251221 26.0237617,0.184226046 25.1849081,0.184226046 C24.3460545,0.184226046 23.6660294,0.864251221 23.6660294,1.70310479" id="Shape" fill="#FF6000"></path>
                <path d="M31.383832,15.2306186 L31.383832,30.6947027 C31.383832,31.5335563 32.0638571,32.2135815 32.9027107,32.2135815 C33.7415643,32.2135815 34.4215894,31.5335563 34.4215894,30.6947027 L34.4215894,15.2306186 C34.4215894,14.391765 33.7415643,13.7117398 32.9027107,13.7117398 C32.0638571,13.7117398 31.383832,14.391765 31.383832,15.2306186" id="Shape" fill="#FF6000"></path>
                <path d="M39.1016346,9.43040038 L39.1016346,36.5233999 C39.1016346,37.3622535 39.7816597,38.0422786 40.6205133,38.0422786 C41.4593669,38.0422786 42.139392,37.3622535 42.139392,36.5233999 L42.139392,9.43040038 C42.139392,8.59154681 41.4593669,7.91152164 40.6205133,7.91152164 C39.7816597,7.91152164 39.1016346,8.59154681 39.1016346,9.43040038" id="Shape" fill="#FF6000"></path>
                <path d="M46.8289302,19.1702103 L46.8289302,26.764604 C46.8289302,27.6034576 47.5089553,28.2834827 48.3478089,28.2834827 C49.1866625,28.2834827 49.8666876,27.6034576 49.8666876,26.764604 L49.8666876,19.1702103 C49.8666876,18.3313567 49.1866625,17.6513316 48.3478089,17.6513316 C47.5089553,17.6513316 46.8289302,18.3313567 46.8289302,19.1702103" id="Shape" fill="#FF6000"></path>
            </g>
        </g>
    </g>
</svg>