<?xml version="1.0" encoding="UTF-8"?>
<svg width="84px" height="84px" viewBox="0 0 84 84" version="1.1" xmlns="http://www.w3.org/2000/svg" xmlns:xlink="http://www.w3.org/1999/xlink">
    <!-- Generator: Sketch 50.2 (55047) - http://www.bohemiancoding.com/sketch -->
    <title>Group</title>
    <desc>Created with Sketch.</desc>
    <defs></defs>
    <g id="Regional-landing-pages" stroke="none" stroke-width="1" fill="none" fill-rule="evenodd">
        <g id="flow">
            <g id="Group">
                <circle id="Oval-2" fill="#FF5202" cx="42" cy="42" r="42"></circle>
                <g id="flow" transform="translate(19.735069, 18.875977)" fill="#FFFFFF" fill-rule="nonzero">
                    <path d="M13.6495495,17.3804264 L13.6495495,29.2100359 L30.9389789,29.2100359 L30.9389789,17.3804264 L13.6495495,17.3804264 Z M28.209069,26.480126 L16.3794594,26.480126 L16.3794594,20.1103363 L28.209069,20.1103363 L28.209069,26.480126 Z" id="Shape"></path>
                    <path d="M13.6495495,0 L13.6495495,11.8296096 L30.9389789,11.8296096 L30.9389789,0 L13.6495495,0 Z M28.209069,9.09969966 L16.3794594,9.09969966 L16.3794594,2.7299099 L28.209069,2.7299099 L28.209069,9.09969966 Z" id="Shape"></path>
                    <path d="M13.6495495,34.7608527 L13.6495495,46.5904623 L30.9389789,46.5904623 L30.9389789,34.7608527 L13.6495495,34.7608527 Z M28.209069,43.8605524 L16.3794594,43.8605524 L16.3794594,37.4907626 L28.209069,37.4907626 L28.209069,43.8605524 Z" id="Shape"></path>
                    <polygon id="Shape" points="37.419057 4.54984983 38.9496265 3.01928035 37.0193072 1.08896106 32.1934634 5.91480478 37.0193072 10.7406485 38.9496265 8.81032921 37.419057 7.27975973 41.8586184 7.27975973 41.8586184 21.9302762 35.0337527 21.9302762 35.0337527 24.6601861 44.5885283 24.6601861 44.5885283 4.54984983"></polygon>
                    <polygon id="Shape" points="7.56922118 35.8498138 5.63890189 37.7801331 7.16947137 39.3107025 2.7299099 39.3107025 2.7299099 24.6601861 9.55477564 24.6601861 9.55477564 21.9302762 0 21.9302762 0 42.0406124 7.16947137 42.0406124 5.63890189 43.5711819 7.56922118 45.5015012 12.3950649 40.6756575"></polygon>
                </g>
            </g>
        </g>
    </g>
</svg>