<svg xmlns="http://www.w3.org/2000/svg" width="16" height="22"><g fill="#1672B9" fill-rule="nonzero"><path d="M12.6855567 3.70588235H16c-.0347651-.04481767-.0676988-.09054851-.108867-.130791L12.3652043.04910322c-.0402549-.04024482-.0859971-.07317028-.1299102-.10792675v3.3136187c0 .24877896.2012695.45091626.4501151.45091626l.0001475.00017092zM3.76470588 6.58823529h.94117647v.94117647h-.94117647zM3.76470588 8.47058824h.94117647v.94117646h-.94117647zM3.76470588 5.65283594h.94069925v.93539935h.94165369v-.94791438h-.94165369v-.93443856h-.94069925zM4.70588235 7.52941176h.94117647v.94117648h-.94117647zM3.76470588 14.1176471h.94117647v.9411764h-.94117647zM3.76470588 17.8823529h.94117647v.9411765h-.94117647zM3.76470588 12.2352941h.94117647v.9411765h-.94117647zM3.76470588 16h.94117647v.9411765h-.94117647zM4.70588235 9.4117647h.94117647v.9411765h-.94117647zM3.76470588 10.3529412h.94117647v.9411764h-.94117647zM3.76470588 2.88235294h.94117647v.94117647h-.94117647z"/><path d="M4.70588235 3.82352941h.94117647v.94117647h-.94117647zM12.4147545 4.96660919c-.7410781 0-1.344671-.60705479-1.344671-1.35442307V0H6.58823529v21.6470588H14.655329c.743805 0 1.344671-.6098249 1.344671-1.354423V4.96660919h-3.5852455zM0 1.35442307V20.2926358c0 .7446216.54473014 1.354423 1.20984738 1.354423h1.61368203V0H1.20984738C.54470917 0 0 .60982491 0 1.35442307zM4.70588235 16.9411765h.94117647v.9411764h-.94117647zM4.70588235 13.1764706h.94117647v.9411765h-.94117647zM4.70588235 15.0588235h.94117647V16h-.94117647zM4.70588235 11.2941176h.94117647v.9411765h-.94117647z"/></g></svg>
