<svg width="693" height="211" xmlns="http://www.w3.org/2000/svg"><g fill="#FFF" fill-rule="evenodd"><path fill-opacity=".6" opacity=".15" d="M468.5 147.31h224v63h-224z"/><path d="M569.617 182.368c0-.277.046-.554.1-.83.054-.277.208-.57.208-.6.03-.498.103-.991.215-1.477.085-.292 0-.369-.038-.56.016-.246.06-.488.13-.724.05-.517.135-1.031.254-1.537a.484.484 0 0 1 .085-.223c.085-.275.142-.559.169-.846.054-.223.046-.469.107-.769.108-.507.216-1.038.331-1.491.215-.892.769-1.761.892-2.637.14-.601.32-1.192.538-1.769.138-.453.177-.96.361-1.468.323-.884.639-1.869 1.03-2.784a18.03 18.03 0 0 1 .992-2.06c.308-.507.77-.992 1.061-1.422v.069a.969.969 0 0 0 .1-.2c.177.046.223-.23.37-.37.169-.622.568-1.09.1-1.79a1.392 1.392 0 0 0-2.092-.139 5.213 5.213 0 0 0-1.084 2.014 235.434 235.434 0 0 0-1.645 4.421 71.733 71.733 0 0 0-2.03 6.92 51.363 51.363 0 0 0-.769 3.59 131.967 131.967 0 0 0-.538 3.299 5.543 5.543 0 0 1-.254 1.537c-.369-.215-.246-1.445-.323-1.814 0-.07-.1 0 0-.161a.623.623 0 0 1-.123 0 4.036 4.036 0 0 0-.061-1.008c-.1-.423-.1-.807-.177-1.153-.138-.692-.377-1.315-.446-2.007a2.706 2.706 0 0 1-.054-.807c-.223-.192-.261-1.207-.338-1.66-.108-.608-.085-1.538-.769-1.83-1.022-.393-1.33.976-1.538 1.676-.407 1.26-.768 2.552-1.26 3.782-.177.477-.885 1.93-.623 2.438.353.684.968.253 1.368.038.042-.413.211-.803.485-1.115-.054-.13.069-.384.138-.561h-.046c.07-.046 0 0 .07 0 0-.377.399-.861.291-1.123h.116s0-.046-.062 0a.2.2 0 0 0 0-.115c.192-.038.062-.261.215-.338.154-.077.316.123.277.284.092-.038 0 0 .123 0-.069.316.162.592.092.93.246.224.2 1.27.262 1.684.084.585.215 1.223.307 1.838.146.938.254 1.814.408 2.706.054.323.3 1.2.108 1.376.26 0 .6 2.791.7 3.237.138.6.514 1.269 1.214.77.515-.347.492-1.17.577-1.723.184-1.2.33-2.36.476-3.498zm3.283-7.643c-.769.63-.707 1.63-.769 2.53 0 .73-.1 1.33-.153 2.014 0 .485-.285 1.715 0 2.13.284.415 1.276-.146 1.537-.492.131 0 .077-.208.108-.492.03-.285.046-.423.054-.646 0-.492.077-1.007.138-1.5.062-.491.146-1.176.238-1.768.002-.494.058-.986.17-1.468-.116-.162-.108-.515-.331-.646-.223-.13-.8.177-.992.338zm2.053-3.767c0-1.292-1.538-.215-1.738.43-.33.93.485.939 1.061.516.308-.177.692-.562.677-.946zm12.924 2.691a9.55 9.55 0 0 0 .054-1.576l.115.061a.892.892 0 0 1-.084-.238s0 .054.084.077a.846.846 0 0 1 0-.546 2.468 2.468 0 0 1 .054-.561h-.046c.02-.256.02-.513 0-.77-.092-.199 0-.422 0-.583h.054v-.077h-.085c.06-.135.099-.277.116-.423-.046-.123 0-.5 0-.677h-.054c.077-.407-.438-.423-.769-.269-.441.253-.73.708-.769 1.215-.1.823-.1 1.676-.207 2.445-.108.769-.43 1.937-.154 2.652.277.715 1.545-.284 1.691-.73zm1.077-8.411c.077-.769-.938-.561-1.346-.215-.253.223-.546.638-.407.999.192 1.015 1.699-.215 1.753-.784zm-28.586 32.453l-.892-2.607H558.3v3.79h.769v-2.66l.922 2.66h.646l.93-2.682v2.683h.77v-3.79h-1.13l-.839 2.606zm16.43-24.803c-.915.069-1.145 1-1.191 1.768a52.166 52.166 0 0 1-.177 2.115c-.07.7-.446 3.013.53 2.944 1.476-.107 1.277-1.991 1.315-3.014.038-1.022.154-1.953 1.053-2.683.454-.377 1.054-.769.685-1.407-.37-.638-.923-.184-1.277 0h.046a8.457 8.457 0 0 0-.984.277zm-11.532 24.357h1.837v-.646h-1.845v-.815h1.968v-.7h-2.798v3.79h2.875v-.699h-2.045l.008-.93zm32.137 1.192v-.246-.216c.008-.094.008-.19 0-.284a.707.707 0 0 0-.092-.262.63.63 0 0 0-.415-.338c.19-.07.35-.203.454-.377.098-.176.149-.375.146-.576a1.007 1.007 0 0 0-.3-.77 1.107 1.107 0 0 0-.354-.222 1.23 1.23 0 0 0-.461-.085h-2.038v3.79h.83v-1.46h.831a.615.615 0 0 1 .454.138c.106.123.17.277.184.439 0 .146 0 .307.046.476.006.147.035.292.085.43h.83l-.084-.2a1.092 1.092 0 0 1-.123-.237h.007zm-.96-1.769a.6.6 0 0 1-.431.13h-.915v-1.068h.915a.638.638 0 0 1 .43.13.5.5 0 0 1 .139.4.523.523 0 0 1-.139.408zm-4.56-1.107a1.607 1.607 0 0 0-.584-.423 2.076 2.076 0 0 0-1.538 0 1.538 1.538 0 0 0-.584.423c-.164.184-.29.398-.37.63a2.407 2.407 0 0 0-.122.77c-.003.26.038.52.123.768.08.23.205.442.369.623.16.18.36.322.584.415a2.076 2.076 0 0 0 1.538 0c.222-.095.421-.236.584-.415.159-.183.281-.394.361-.623a2.307 2.307 0 0 0 0-1.537 1.96 1.96 0 0 0-.361-.63zm-.4 1.884a1.138 1.138 0 0 1-.177.407.869.869 0 0 1-.315.285.93.93 0 0 1-.477.107.915.915 0 0 1-.476-.107.961.961 0 0 1-.323-.285 1.492 1.492 0 0 1-.177-.407 1.891 1.891 0 0 1-.054-.462 1.991 1.991 0 0 1 .054-.484c.035-.147.095-.288.177-.415a.907.907 0 0 1 .769-.4.93.93 0 0 1 .476.108c.13.067.238.168.316.292.088.124.148.266.176.415.04.158.061.321.062.484.01.16 0 .32-.03.477v-.015zm6.92-27.571c-.13.085-.7 0-.984.061-.337.137-.66.301-.969.493a4.106 4.106 0 0 1-.807.384c-.462.123-.546-.092-.77-.323.14-.223-.214-.392 0-.607-.045-.123-.068-.116 0-.239 0 .039 0 .054-.053 0-.054-.054.092-.33.092-.33 0-.254-.33-1.307 0-1.538-.084-.138-.084 0 0-.177a.284.284 0 0 1-.069-.2.469.469 0 0 0 .108 0c-.062-.2-.093-.353 0-.446a1.538 1.538 0 0 1 0-.23l-.108.069c0-.17 0-.361.138-.423a1.538 1.538 0 0 1 0-.2c-.146-.1-.115-.138-.046-.246-.276-.361-.23-.769-.96-.769-.483.047-.931.268-1.262.623-.369.338-.576.73-1.122.769a2.245 2.245 0 0 0-1.538.292c-.83.692-.6 2.376-.638 3.352 0 .615-.354 2.038 0 2.568.5.769 2.014-.407 1.684-1.069l.061.077c0-.192.085-.33-.061-.461h.084c-.069-.161-.053-.17 0-.323h-.1c0-.154 0-.484.085-.6a.623.623 0 0 1 0-.315v.123a.17.17 0 0 0 .1 0 4.09 4.09 0 0 0-.1-.515s.1-.17.123-.23c.023-.062-.192-.239.077-.324l-.1-.038s.085-.07.108-.138c-.1-.093 0-.062-.07-.139.168-.308.29-.64.362-.984.361-.054.507-.676.968-.769.839-.138.6 1.13.554 1.669-.046.538-.361 2.114 0 2.768.1.169.37.315.323.453-.046.139-.546.33-.654.4-.653.384-1.268.715-1.914 1.076-.892.5-1.853 1.092-2.699 1.538-1.276.654-2.383 1.653-3.675 2.253-.03-.77-.01-1.54.062-2.307 0-.361.069-.892.107-1.338a6.497 6.497 0 0 1 .216-1.837 3.89 3.89 0 0 1 0-.823c0-.269-.054-.769.084-.976a.915.915 0 0 0-1.33-.246c-.361.269-.361.669-.4 1.092-.069.768-.123 1.614-.184 2.306-.077.853 0 2.437-.769 2.975-1.253.877-1.1-.999-1.038-1.714.022-.783.222-1.55.584-2.245.185-.323 1.323-1.492.4-1.684-.769-.154-1.537.769-1.883 1.315a5.044 5.044 0 0 0-.715 2.114 8.55 8.55 0 0 0 0 3.306c.23.808.922.923 1.622.83.163-.04.331-.058.5-.053h-.062a7.212 7.212 0 0 1 1.023-.53c.315.045.115.883 0 1.053-.578.514-1.2.974-1.861 1.376-.408.3-.823.576-1.222.884-1.953 1.492-3.975 3.075-5.882 4.76-.485.43-.954.868-1.43 1.314-.477.446-1.453 1.092-1.73 1.799a.93.93 0 0 0 .823 1.292c.553.069.884-.377 1.268-.77 1.538-1.422 2.783-3.075 4.421-4.459 1.638-1.383 3.344-2.837 5.12-4.128.198-.146.41-.272.631-.377 0 1.63 0 3.345-.054 4.89 0 .846 0 1.7-.061 2.545a8.696 8.696 0 0 0 0 2.237 1.084 1.084 0 0 0 1.853.684c.153-.153.146-.353.346-.43-.17-.085-.139-.07-.047-.208a.623.623 0 0 1 .077-.238c-.13 0-.1 0-.138-.138-.039-.139-.115 0 0-.154a.561.561 0 0 1-.123-.108c.192 0 0 0 .1-.07.1-.068.138-.068.084 0v-.06c-.076 0-.123-.062-.2-.085h.139c.054 0-.115-.054-.108-.046.008.007 0-.085 0-.131v.092a.361.361 0 0 1-.123-.315l.131-.046a.769.769 0 0 0-.13 0l.145-.062c.02-.076.036-.153.046-.23-.123-.054-.123-.315-.153-.47-.162.062-.177-.107-.154-.284a.261.261 0 0 1 .084 0 2.83 2.83 0 0 1 0-.361c-.092-.108 0-.039 0-.123 0-.085-.076 0-.107 0-.03 0 .061-.146.1-.215-.2 0-.215-.323-.062-.454a.592.592 0 0 1-.084-.146l-.07.046c0-.161 0-.146.1-.223-.184-.184-.061-.354 0-.5a.185.185 0 0 1-.061.046v-.161c0-.077 0 .046-.07 0a.469.469 0 0 1 .047-.377h-.1c.208-.054.13-.2 0-.338h.115c-.077-.1-.238-.3 0-.454a.23.23 0 0 1 0-.284l-.054.046c0-.161.1-.454 0-.546a2.63 2.63 0 0 0 .07-1.122h-.07c.1-.1.147-.193.039-.277.1-.43.1-.877 0-1.307.138 0 0-.73 0-.892-.023-.329.07-.655.261-.923a10.91 10.91 0 0 1 2.307-1.607c2.253-1.437 4.613-2.729 6.92-3.92a17.684 17.684 0 0 1 2.121-.923 15.308 15.308 0 0 0 1.761-.6c.361-.177.661-.623.923-.769 0-.169.154-.307.177-.423.023-.115 0-.077-.047-.054.193-.269-.23-.7-.43-.76l-.023-.016zm1.884 28.301v-.93h1.837v-.646h-1.837v-.815h1.999v-.7h-2.83v3.79h2.876v-.699h-2.045zM581.98 196.9a1.615 1.615 0 0 0-.369-.177l-.3-.077-.569-.146a1.991 1.991 0 0 1-.346-.115.461.461 0 0 1-.169-.131l-.046-.177c0-.073.018-.144.054-.207l.138-.131.185-.077h.2c.094-.008.19-.008.284 0 .083.015.161.046.231.092l.161.177c.043.086.067.18.07.277h.807a1.16 1.16 0 0 0-.123-.561 1.138 1.138 0 0 0-.338-.377 1.392 1.392 0 0 0-.485-.215 2.307 2.307 0 0 0-.569-.062c-.171 0-.342.024-.507.07-.165.042-.32.112-.461.207a1.13 1.13 0 0 0-.323.361.946.946 0 0 0-.123.5.984.984 0 0 0 .092.446c.066.119.154.224.261.308.112.081.233.148.362.2l.415.13.407.1c.124.028.245.067.362.115a.83.83 0 0 1 .253.154.338.338 0 0 1 .1.254.369.369 0 0 1-.077.238l-.184.139a.861.861 0 0 1-.238.076h-.239c-.105.012-.21.012-.315 0a.723.723 0 0 1-.27-.123.561.561 0 0 1-.184-.215.669.669 0 0 1-.069-.323h-.769c-.008.21.037.42.131.608.083.164.205.307.354.415.156.115.334.199.523.246.198.05.402.075.607.077.229.004.457-.028.676-.093.181-.053.35-.139.5-.253.127-.103.228-.235.292-.385.072-.151.109-.317.108-.484a.884.884 0 0 0-.138-.515 1.207 1.207 0 0 0-.362-.346zm-6.404-1.815l-1.43 3.79h.838l.3-.845h1.414l.285.846h.869l-1.4-3.79h-.876zm-.085 2.307l.492-1.384.47 1.4-.962-.016zm8.458-1.622h1.13v3.075h.83v-3.075h1.153v-.7h-3.075l-.038.7zm-13.002 1.676h.838a.876.876 0 0 1-.261.607.9.9 0 0 1-.638.208.93.93 0 0 1-.477-.108.869.869 0 0 1-.315-.284 1.307 1.307 0 0 1-.185-.408 2.36 2.36 0 0 1-.053-.461 2.46 2.46 0 0 1 .053-.485 1.2 1.2 0 0 1 .185-.415.823.823 0 0 1 .315-.292.93.93 0 0 1 .477-.108.838.838 0 0 1 .515.154c.148.12.249.29.284.477h.77c-.02-.2-.08-.394-.178-.569a1.484 1.484 0 0 0-.36-.423 1.868 1.868 0 0 0-.493-.254 1.791 1.791 0 0 0-.569-.084 1.83 1.83 0 0 0-.769.154c-.212.094-.4.233-.553.407a1.83 1.83 0 0 0-.362.63c-.085.248-.129.508-.13.77 0 .261.043.521.13.768a1.684 1.684 0 0 0 .946 1.038c.243.103.505.155.769.154.188 0 .374-.04.546-.115.195-.089.365-.227.492-.4l.084.43h.53v-2.014h-1.59v.623z" fill-rule="nonzero"/><path fill-opacity=".6" opacity=".15" d="M0 147.31h224v63H0z"/><path d="M160.047 182.735a2.494 2.494 0 0 0-.39.177c-2.13 1.708-5.21.708-6.596-1.086a5.096 5.096 0 0 1-1.08-3.125v-5.391c0-.486.172-.655.64-.623.361.028.724.028 1.085 0 .455-.032.645.16.64.632v4.665a7.4 7.4 0 0 0 .028.776 2.83 2.83 0 0 0 3.098 2.662c1.463-.068 2.585-1.335 2.598-2.962.014-1.626 0-3.347 0-5.023 0-.74 0-.74.759-.74h1.14c.377 0 .527.163.527.526 0 3.661.045 7.327-.023 10.988a4.72 4.72 0 0 1-2.857 4.406 5.17 5.17 0 0 1-5.405-.454c-.532-.364-.527-.455-.068-.886.092-.079.18-.162.263-.25.54-.604.986-.908 1.93-.431 1.672.867 3.607-.5 3.72-2.462.01-.436-.009-.863-.009-1.4zM103.901 172.297a6.241 6.241 0 0 1 4.738 2.27c.426.487.39.605-.187.91-.331.18-.667.358-.994.553a.536.536 0 0 1-.8-.14 3.543 3.543 0 0 0-6.186 1.494 3.557 3.557 0 0 0 5.904 3.38c.795-.76.795-.76 1.763-.2 1.085.622 1.108.667.218 1.548a5.982 5.982 0 0 1-6.191 1.595 5.496 5.496 0 0 1-4.17-4.488c-.595-3.207 1.331-5.764 4.088-6.609a14.363 14.363 0 0 1 1.817-.313zM143.895 177.73v-4.87a4.715 4.715 0 0 1 3.938-4.86 8.376 8.376 0 0 1 1.85 0c.33 0 .48.213.453.558-.027.346 0 .795 0 1.19 0 .396-.145.455-.504.455a5.228 5.228 0 0 0-1.485.09c-1.104.287-1.713 1.14-1.817 2.43-.041.537 0 1.073 0 1.609a.6.6 0 0 0 .681.663h2.271c.373 0 .532.1.49.508a6.082 6.082 0 0 0 0 1.186c.042.454-.094.65-.562.636-.709-.023-1.417 0-2.126 0-.709 0-.777.113-.777.79v4.66c0 .76 0 .76-.736.76h-1.035c-.486.035-.677-.15-.668-.655.04-1.73.027-3.438.027-5.15zM141.03 178.11v4.765c0 .51-.173.677-.664.64-.409-.03-.827 0-1.24 0-.413 0-.536-.135-.536-.521v-9.789c0-.354.154-.504.495-.504h1.4c.462 0 .544.154.54.55-.005 1.612.004 3.243.004 4.86zM139.853 171.097a1.335 1.335 0 1 1-.041-2.661 1.33 1.33 0 0 1 1.417 1.317 1.285 1.285 0 0 1-1.376 1.344zM90.81 183.225c-.277-2.916-2.925-4.646-5.45-4.465a5.696 5.696 0 0 0-3.493 1.645c-1.295 1.19-2.648 2.32-3.957 3.506-.35.314-.59.34-.954 0-1.249-1.117-2.543-2.185-3.783-3.311a6.26 6.26 0 0 1-1.136-1.404c-2.294-3.901.659-8.88 5.292-8.952a6.84 6.84 0 0 1 4.374 1.64 5.31 5.31 0 0 0 3.411 1.185 11.9 11.9 0 0 0 1.227-.15c1.957-.454 3.352-1.594 3.852-3.57a4.542 4.542 0 0 0-1.604-4.879c-4.301-3.588-9.202-4.996-14.726-3.82-8.444 1.8-14.285 9.857-12.627 18.569a14.776 14.776 0 0 0 4.542 8.321c3.48 3.18 7.095 6.219 10.652 9.312.73.636 1.28.627 2.016 0l10.466-9.148a4.996 4.996 0 0 0 1.898-4.479zm-3.388 2.508a963.52 963.52 0 0 1-6.21 5.423c-1.13.986-2.27 1.962-3.397 2.966-.286.254-.454.286-.781 0-3.13-2.725-6.31-5.45-9.403-8.221a12.65 12.65 0 0 1-4.088-8.145c-.808-6.713 3.702-12.79 9.889-14.49 4.837-1.321 9.211-.38 13.131 2.726 1.395 1.104 1.69 2.426.827 3.58a2.962 2.962 0 0 1-4.002.563 20.613 20.613 0 0 0-1.776-1.168c-5.042-2.689-12.064-.068-12.786 6.577a7.654 7.654 0 0 0 2.412 6.637c1.971 1.857 4.088 3.57 6.19 5.405 1.155-1.022 2.272-2.03 3.43-3.034 1.04-.909 2.072-1.817 3.13-2.726a2.648 2.648 0 0 1 4.342 1.481 2.412 2.412 0 0 1-.908 2.426zM135.201 174.531a5.819 5.819 0 0 0-3.26-1.89c-1.74-.385-3.308.046-4.834 1.223v-.718-4.665c0-.395-.14-.577-.545-.563-.404.014-.69 0-1.035 0-.836 0-.836 0-.836.818v13.522c0 1.408-.182 1.244 1.23 1.249 1.036 0 1.036 0 1.268-1.009a5.528 5.528 0 0 0 4.392 1.227 5.764 5.764 0 0 0 3.947-2.421 5.582 5.582 0 0 0-.327-6.773zm-4.569 7.082a3.457 3.457 0 1 1 0-6.914 3.457 3.457 0 0 1 0 6.914zM122.029 174.09c0-1.394 0-1.394-1.404-1.394-.908 0-.908 0-1.008.909 0 .045-.045.086-.095.181a5.705 5.705 0 0 0-4.206-1.208 5.769 5.769 0 0 0-3.875 2.072c-1.417 1.753-1.69 4.542-.413 6.359 2.27 3.247 5.219 3.602 8.553 1.544.026.109.041.22.045.332-.05.517.205.672.681.64a6.241 6.241 0 0 1 1.09 0c.514.045.646-.177.641-.663-.018-2.93-.009-5.85-.009-8.771zm-5.905 7.523a3.457 3.457 0 1 1 3.507-3.434 3.534 3.534 0 0 1-3.53 3.434h.023z" fill-rule="nonzero"/><path fill-opacity=".6" opacity=".15" d="M233.5 147.31h224v63h-224z"/><path d="M351.741 173.03a1.778 1.778 0 0 0-1.672-1.033h-5.286c-.336 0-.336 0-.336-.349 0-.285-.012-.574 0-.86a3.055 3.055 0 0 1 1.204-2.352 3 3 0 0 1 1.888-.642h2.605c.138.005.276-.013.408-.053a1.9 1.9 0 0 0-.44-3.723c-.778-.012-1.556 0-2.335 0a7.826 7.826 0 0 0-1.727.169 6.803 6.803 0 0 0-5.202 5.522 10.32 10.32 0 0 0-.09 1.644c0 .904-.02 1.809-.022 2.713v7.407c0 .906.04 1.81 0 2.717-.025.595.018 1.19 0 1.786a222.797 222.797 0 0 0 0 5.347c-.009.294.032.588.12.868.22.634.96 1.28 1.668 1.18h.222c.39.022.771-.127 1.043-.408a2 2 0 0 0 .666-1.613v-15.296c0-.232.063-.291.291-.289 1.766.008 3.526.008 5.282 0 .67.029 1.299-.32 1.63-.902a1.833 1.833 0 0 0 .083-1.834zm-10.013 9.229h-.017.017zm2.24-2.367zM372.834 183.088v-.815a5.44 5.44 0 0 0-.116-1.346 11.02 11.02 0 0 0-1.357-3.72 10.564 10.564 0 0 0-5.265-4.481 10.185 10.185 0 0 0-7.252-.08 10.405 10.405 0 0 0-3.607 2.241 10.822 10.822 0 0 0-1.567 13.815 10.641 10.641 0 0 0 4.37 3.754c.532.249 1.085.45 1.654.599a7.673 7.673 0 0 0 2.273.328h.815c.33.01.662-.009.99-.057a10.468 10.468 0 0 0 4.452-1.744c.213-.11.401-.264.552-.45a.03.03 0 0 0 .033-.02.25.25 0 0 0 .084-.025 10.152 10.152 0 0 0 1.69-1.72 10.708 10.708 0 0 0 1.946-3.99c.217-.743.32-1.515.305-2.29zm-3.968 1.758c-.03.091-.053.187-.077.28l-.013.097a.69.69 0 0 0-.163.29 6.7 6.7 0 0 1-1.69 2.364 2.583 2.583 0 0 0-.505.472c-.375.173-.703.43-1.076.611a6.478 6.478 0 0 1-3.359.695 6.722 6.722 0 0 1-4.7-2.316 7.011 7.011 0 0 1-1.107-7.57 6.952 6.952 0 0 1 1.473-2.097 6.669 6.669 0 0 1 3.605-1.834 6.539 6.539 0 0 1 3.636.408 6.722 6.722 0 0 1 3.243 2.735 7.06 7.06 0 0 1 .733 5.867v-.002zM338.468 182.271c.02-.452-.019-.904-.114-1.346a11.02 11.02 0 0 0-1.356-3.72 10.564 10.564 0 0 0-5.266-4.481 10.185 10.185 0 0 0-7.251-.08 10.389 10.389 0 0 0-3.608 2.241 10.822 10.822 0 0 0-1.566 13.815 10.653 10.653 0 0 0 4.367 3.754c.533.249 1.087.45 1.656.599a7.659 7.659 0 0 0 2.271.328h.815c.33.01.661-.009.988-.057 1.6-.23 3.124-.827 4.455-1.744.213-.11.4-.264.552-.45a.033.033 0 0 0 .032-.02.267.267 0 0 0 .084-.025 10.217 10.217 0 0 0 1.689-1.72 10.712 10.712 0 0 0 1.943-3.988c.218-.745.322-1.52.305-2.297.004-.265.004-.536.004-.809zm-3.974 2.575c-.028.091-.05.187-.075.28l-.014.097a.709.709 0 0 0-.161.29 6.722 6.722 0 0 1-1.69 2.364c-.19.133-.36.292-.506.472-.373.173-.7.43-1.073.611-1.039.53-2.2.77-3.364.695a6.722 6.722 0 0 1-4.697-2.316 7.011 7.011 0 0 1-1.108-7.57 6.983 6.983 0 0 1 1.47-2.097 6.675 6.675 0 0 1 3.608-1.834 6.54 6.54 0 0 1 3.636.408 6.722 6.722 0 0 1 3.243 2.733 7.068 7.068 0 0 1 .731 5.867z" fill-rule="nonzero"/><path fill-opacity=".6" opacity=".15" d="M468.5 74.212h224v63h-224z"/><path fill-rule="nonzero" d="M570.037 112.72v-6.201h-3.585v6.202h-3.406V98.439h3.384v5.886h3.585v-5.886h3.377v14.282zM576.418 112.72V98.44h3.355v11.995h3.628v2.287zM593.876 112.9a8.381 8.381 0 0 1-3.9-.789V99.02a7.887 7.887 0 0 1 3.713-.79c3.126 0 4.804 1.492 4.804 3.586a3.298 3.298 0 0 1-2.775 3.312v.043c1.327.251 3.32 1.513 3.32 3.692-.029 2.84-2.251 4.037-5.162 4.037zm-.208-13.572a5.277 5.277 0 0 0-1.886.308v5.076h.932c2.94 0 3.936-.91 3.936-2.774-.028-1.743-1.06-2.61-3.01-2.61h.028zm-.932 6.338h-1.011v5.678a4.918 4.918 0 0 0 2.007.337c1.864 0 3.32-.717 3.32-2.818.028-2.222-1.255-3.197-4.345-3.197h.029zM604.537 112.9c-2.904 0-4.252-1.262-4.252-3.291 0-2.968 2.775-3.836 6.238-4.187v-.717c0-1.72-1.033-2.215-2.466-2.215-.941.034-1.863.279-2.696.717l-.43-1.076a7.363 7.363 0 0 1 3.42-.832c2.071 0 3.893.897 3.893 3.628v7.17a7.786 7.786 0 0 1-3.707.803zm1.986-6.546c-2.818.351-4.495.954-4.495 3.212 0 1.613.996 2.28 2.652 2.28a4.13 4.13 0 0 0 1.843-.373v-5.119zM616.64 112.72v-8.044c0-1.04-.438-2.15-2.345-2.15a4.66 4.66 0 0 0-2.115.394v9.8h-1.814v-10.618a9.364 9.364 0 0 1 4.08-.788c3.11 0 4.021 1.72 4.021 3.32v8.087h-1.828zM624.16 106.748l4.23-5.226h-1.907l-3.98 5.183h-.042V98.39h-1.785v14.303h1.785v-5.757h.043l4.266 5.757h2.072zM556.515 101.636v-3.255a19.537 19.537 0 0 1-2.567-.494 17.96 17.96 0 0 1-9.858-6.675l-2.868 1.627a21.444 21.444 0 0 0 4.467 4.575 21.509 21.509 0 0 0 3.735 2.25c-.997.295-1.972.632-2.932 1.019a23.71 23.71 0 0 1-2.151-1.434A23.66 23.66 0 0 1 539.258 94l-2.811 1.62a26.972 26.972 0 0 0 5.93 6.216c.214.165.437.316.659.473a42.09 42.09 0 0 0-2.151 1.27 28.514 28.514 0 0 1-6.453-6.812l-2.767 1.613a32.607 32.607 0 0 0 6.539 7.17 32.607 32.607 0 0 0-6.54 7.17l2.819 1.62a28.377 28.377 0 0 1 6.452-6.818c.717.451 1.434.874 2.151 1.276-.222.158-.452.315-.667.48a26.764 26.764 0 0 0-5.929 6.202l2.81 1.627a23.387 23.387 0 0 1 5.084-5.248c.687-.52 1.406-1 2.15-1.434.954.38 1.936.717 2.926 1.018a21.387 21.387 0 0 0-8.16 6.819l2.869 1.627a18.01 18.01 0 0 1 9.858-6.682c.818-.216 1.649-.379 2.488-.487v-3.255a28.765 28.765 0 0 1-5.442-.91l-.38-.137a27.872 27.872 0 0 1 1.814-.567 23.115 23.115 0 0 1 4.008-.716v-3.205a23.832 23.832 0 0 1-5.822-1.284l.38-.107a28.765 28.765 0 0 1 5.442-.904zm-7.342 3.915c-.98.37-1.937.795-2.868 1.276a28.113 28.113 0 0 1-2.437-1.276 29.06 29.06 0 0 1 2.43-1.276c.932.482 1.892.908 2.875 1.276z"/><path fill-opacity=".6" opacity=".15" d="M233.5 74.212h224v63h-224z"/><path d="M309.311 113.194v-1.811c0-1.255.071-2.515.082-3.77a8.978 8.978 0 0 0-.087-1.38c-.186-1.347-.95-2.056-2.182-2.067-1.37 0-2.356.737-2.471 2.079-.115 1.341-.06 2.798-.07 4.2v2.77h-2.565v-11.17h2.542v1.434c.224-.196.338-.289.442-.398a4.03 4.03 0 0 1 4.43-1.091 3.442 3.442 0 0 1 2.454 3.387c.103 2.591 0 5.193 0 7.833l-2.575-.016zM401.538 111.907c.409-.628.769-1.184 1.09-1.713.745.417 1.524.767 2.33 1.047.749.153 1.52.17 2.274.05.278-.039.611-.48.726-.808a.856.856 0 0 0-.546-1.091c-.73-.3-1.494-.546-2.236-.813-.453-.163-.911-.316-1.347-.513-2.455-1.09-2.03-4.216-.497-5.318a4.784 4.784 0 0 1 4.08-.714c.95.295 1.881.648 2.788 1.058l-1.026 1.99a8.182 8.182 0 0 0-1.276-.583 10.424 10.424 0 0 0-2.182-.43 1.09 1.09 0 0 0-1.184.921c-.103.611.333.922.807 1.135.475.212.982.349 1.479.545.496.196.916.295 1.358.48 1.685.704 2.4 1.8 2.242 3.376-.158 1.577-1.146 2.586-2.831 2.946-2.231.453-4.2-.245-6.05-1.565zM288.213 103.763l-1.538 1.685c-1.02-.905-2.084-1.636-3.551-1.314a2.918 2.918 0 0 0-1.751 1.134 3.987 3.987 0 0 0 .349 5.078c1.358 1.277 3.01 1.119 5.007-.48l1.49 1.571c-1.866 2.471-5.843 2.826-8.243.682a6.12 6.12 0 0 1-.076-8.863 5.744 5.744 0 0 1 8.313.507zM377.821 102.132c.91 0 1.707-.033 2.498 0 .175 0 .398.322.48.545.851 2.319 1.68 4.642 2.515 6.966.049.142.103.273.202.545.114-.272.207-.463.278-.66.813-2.242 1.636-4.478 2.427-6.73.164-.48.371-.72.922-.672.644.055 1.293 0 2.024 0-.071.235-.11.41-.175.546-1.37 3.42-2.755 6.834-4.107 10.26a.73.73 0 0 1-.83.545c-1.696 0-1.69 0-2.323-1.57a4287.202 4287.202 0 0 1-3.65-9.044c-.086-.213-.146-.41-.261-.731zM365.117 102.165h2.602v2.127c.344-.464.546-.791.807-1.091a3.704 3.704 0 0 1 2.564-1.31c.284 0 .546-.043.546.383v2.329c-.09.037-.183.063-.279.076-2.618.153-3.474 1.811-3.6 3.933-.076 1.314 0 2.64 0 3.96v.802c-.812 0-1.543.027-2.269 0-.13 0-.338-.322-.343-.497-.033-1.298 0-2.596 0-3.894v-6.05c-.06-.245-.039-.49-.028-.768zM378.988 97.763v2.116c0 .48-.36.371-.632.371h-12.759c-.507 0-.66-.164-.638-.65.033-.6 0-1.205 0-1.848l14.03.01zM410.516 97.768v2.45c-.23 0-.431.032-.633.032h-12.638c-.606 0-.764-.202-.72-.758.043-.557 0-1.124 0-1.74l13.99.016zM394.78 97.757v2.128c0 .125-.23.261-.377.354-.147.093-.202 0-.305 0h-12.66c-.186 0-.371 0-.611-.027v-2.466l13.952.011zM376 113.352h-2.494v-11.187H376zM413.172 112.174a1.216 1.216 0 1 1-1.205-1.238 1.19 1.19 0 0 1 1.205 1.238zm-.649.682c.371-.59.355-1.124-.054-1.44a.824.824 0 0 0-1.162.141.955.955 0 0 0 .213 1.359l1.003-.06zM334.222 97.768v5.64l-.19.104a3.07 3.07 0 0 0-.29-.41 4.718 4.718 0 0 0-7.09.546 6.955 6.955 0 0 0-.192 7.74c1.528 2.182 5.035 3.197 7.397.611a3.77 3.77 0 0 1 .393-.322v1.555h2.542V97.768h-2.57zm-1.249 12.77a2.907 2.907 0 0 1-4.222-.546 3.998 3.998 0 0 1-.49-3.938 3.033 3.033 0 0 1 3.169-1.98 3.13 3.13 0 0 1 2.76 2.612c.065.311.087.622.12.868a3.72 3.72 0 0 1-1.337 2.983zM360.246 97.883v5.836c-.174-.163-.262-.24-.338-.327-2.013-2.313-5.536-1.827-7.255.387a6.9 6.9 0 0 0-.256 7.637c1.582 2.35 5.27 3.19 7.484.676.087-.098.202-.17.376-.322v1.593h2.553v-15.48h-2.564zm-3.272 13.429a2.825 2.825 0 0 1-2.504-1.636 4.135 4.135 0 0 1 .469-4.533 2.918 2.918 0 0 1 3.224-.78c1.309.436 1.903 1.483 2.11 2.793.01.16.01.32 0 .48.022 2.241-1.38 3.763-3.31 3.676h.01zM323.27 105.46c-.142-2.074-1.424-3.274-3.48-3.52a15.447 15.447 0 0 0-3.611.165 9.546 9.546 0 0 0-1.915.66c.267.758.49 1.401.73 2.094.263-.098.454-.174.645-.24a6.186 6.186 0 0 1 3.458-.316 1.953 1.953 0 0 1 1.685 2.34.79.79 0 0 1-.163 0l-.426-.093c-1.713-.376-3.409-.474-5.04.333a3.447 3.447 0 0 0 .224 6.207 4.833 4.833 0 0 0 4.98-.703l.502-.377v1.217h2.432c.022-2.63.159-5.21-.021-7.768zm-2.46 4.074c-.12.501-.392.953-.78 1.292a3.213 3.213 0 0 1-3.033.486 1.56 1.56 0 0 1-.164-2.924c.525-.163 1.06-.29 1.604-.376.605.082 1.042.12 1.473.196 1.025.18 1.172.333.9 1.326zM299.793 105.781c-.082-1.784-.933-3.18-2.787-3.693a9 9 0 0 0-6.246.677l.726 2.094c.236-.096.478-.177.725-.24a17.635 17.635 0 0 1 2.896-.409 2.035 2.035 0 0 1 2.144 2.455.496.496 0 0 1-.125 0c-.126 0-.246-.05-.366-.082a8.03 8.03 0 0 0-4.647.098 3.273 3.273 0 0 0-2.318 3.305 3.224 3.224 0 0 0 2.53 3.273c.763.21 1.562.248 2.34.11.92-.285 1.813-.65 2.668-1.092v.95h2.487c0-2.52.088-4.986-.027-7.446zm-2.842 4.61c-.622 1.014-2.65 1.401-3.714.834a1.462 1.462 0 0 1-.835-1.304 1.32 1.32 0 0 1 .753-1.407c.64-.225 1.294-.407 1.958-.546l.038.098c.334.018.665.06.993.126.403.109 1.09.267 1.129.436a3.18 3.18 0 0 1-.322 1.762zM348.453 108.786c0-1.09 0-2.138-.125-3.196a3.764 3.764 0 0 0-3.273-3.622 8.591 8.591 0 0 0-4.702.371c-.343.131-.676.3-1.047.464l.72 2.067c.3-.12.486-.202.687-.267a6.11 6.11 0 0 1 3.393-.3 2.03 2.03 0 0 1 1.724 2.394l-.584-.12a7.79 7.79 0 0 0-4.756.18 3.273 3.273 0 0 0-2.133 3.48 3.153 3.153 0 0 0 2.444 2.995c.74.215 1.519.263 2.28.142a16.91 16.91 0 0 0 2.727-1.091l.076.873h2.471v-2.182c0-.698.11-1.451.098-2.188zm-2.53.437a2.29 2.29 0 0 1-1.091 1.81c-.86.51-1.905.604-2.842.257a1.45 1.45 0 0 1-1.058-1.413 1.418 1.418 0 0 1 .949-1.478c.536-.17 1.082-.305 1.636-.403.65.109 1.178.218 1.718.278.54.06.753.403.666.949h.022zM392.32 108.7h8.127a20.018 20.018 0 0 0-.262-2.592c-.502-2.083-1.675-3.633-3.867-4.102-2.193-.469-4.113.148-5.455 2.008a6.142 6.142 0 0 0-.47 6.714c1.146 2.242 3.186 3.055 5.63 2.875a5.166 5.166 0 0 0 3.862-2.127l-1.473-1.315c-2.842 2.586-5.924.965-6.093-1.462zm2.798-4.632c1.489 0 2.541 1.14 2.623 2.82h-5.454c.163-1.712 1.309-2.847 2.83-2.82z" fill-rule="nonzero"/><path fill-opacity=".6" opacity=".15" d="M0 74.212h224v63H0z"/><path d="M130.483 101.203a7.559 7.559 0 0 0-7.678 7.705c0 4.437 3.186 7.705 8.125 7.705a7.952 7.952 0 0 0 6.071-2.392l-2.027-2.164a5.742 5.742 0 0 1-4.08 1.589c-2.639 0-4.145-1.37-4.565-3.524h11.585c.246-5.185-2.529-8.92-7.431-8.92zm-4.145 6.445a3.98 3.98 0 0 1 4.181-3.487 3.697 3.697 0 0 1 3.908 3.487h-8.089zM67.856 104.471v-2.903H55.02v2.84h8.71l-8.92 9.064v2.904h13.174v-2.849h-9.047zM77.579 101.203a7.559 7.559 0 0 0-7.678 7.705c0 4.437 3.186 7.705 8.125 7.705a7.952 7.952 0 0 0 6.071-2.392l-2.027-2.164a5.742 5.742 0 0 1-4.08 1.589c-2.639 0-4.145-1.37-4.565-3.524h11.594c.237-5.185-2.538-8.92-7.44-8.92zm-4.145 6.445a3.98 3.98 0 0 1 4.181-3.487 3.697 3.697 0 0 1 3.908 3.487h-8.089zM116.643 103.449a6.39 6.39 0 0 0-4.94-2.219 7.395 7.395 0 0 0-7.43 7.696 7.459 7.459 0 0 0 7.404 7.696 6.327 6.327 0 0 0 4.966-2.337v2.045h3.15V94.712h-3.15v8.737zm-4.52 10.27a4.811 4.811 0 1 1 4.702-4.83 4.71 4.71 0 0 1-4.701 4.83zM147.28 107.447c-2.145-.475-3.505-.767-3.505-1.826 0-1.059.858-1.78 2.556-1.78a3.843 3.843 0 0 1 3.332 1.689l2.648-1.452a6.774 6.774 0 0 0-5.97-2.875c-3.506 0-5.743 2.127-5.743 4.473 0 3.05 2.611 3.88 5.14 4.41 1.871.383 3.597.648 3.597 1.825 0 1.041-.913 1.954-2.74 1.954a4.236 4.236 0 0 1-3.806-2.164l-2.857 1.48c1.25 2.19 3.423 3.432 6.509 3.432 4.227 0 6.007-2.739 6.007-4.766.036-3.067-2.73-3.87-5.167-4.4zM163.275 107.858l5.797-6.336h-3.834l-6.692 7.34v-14.15h-3.15v21.618h3.15v-3.853l2.502-2.72 4.6 6.573h3.57zM94.75 101.221c-3.742 0-6.883 2.428-6.883 6.454v8.646h3.214v-8.217c0-2.428 1.397-3.88 3.77-3.88 2.374 0 3.57 1.452 3.57 3.88v8.217h3.213v-8.646c0-4.026-3.14-6.454-6.883-6.454z" fill-rule="nonzero"/><path fill-opacity=".6" opacity=".15" d="M0 1h224v63H0z"/><path d="M96.822 34.96a3.685 3.685 0 0 1-2.644 1.147c-2.007 0-3.663-1.656-3.663-3.663 0-2.007 1.656-3.663 3.663-3.663.924 0 1.784.35 2.42.924.192.159.542.51.542.51l2.23-2.39a6.908 6.908 0 0 0-5.192-2.325 6.94 6.94 0 0 0-6.944 6.944 6.94 6.94 0 0 0 6.944 6.944c2.166 0 4.11-.955 5.351-2.548l-2.23-2.39c-.031.033-.318.351-.477.51zM123.197 34.96a3.685 3.685 0 0 1-2.644 1.147c-2.007 0-3.663-1.656-3.663-3.663 0-2.007 1.656-3.663 3.663-3.663.923 0 1.784.35 2.42.924.192.159.542.51.542.51l2.23-2.39a6.908 6.908 0 0 0-5.192-2.325 6.94 6.94 0 0 0-6.944 6.944 6.94 6.94 0 0 0 6.944 6.944c2.166 0 4.109-.955 5.351-2.548l-2.23-2.39c0 .033-.318.351-.477.51zM57.897 32.157c1.178-.51 2.038-1.433 2.038-2.962v-.032c0-.924-.318-1.624-.86-2.166-.796-.764-1.975-1.21-3.63-1.21H48.5V39.1h6.976c3.185 0 5.033-1.401 5.033-3.663v-.032c0-1.783-1.02-2.707-2.612-3.249zm-5.67-3.408h2.389c1.115 0 1.656.446 1.656 1.147v.032c0 .796-.605 1.146-1.752 1.146h-2.325l.032-2.325zm4.619 6.18c0 .796-.637 1.21-1.784 1.21h-2.867v-2.453h2.803c1.242 0 1.816.51 1.848 1.243zM65.892 25.787h-3.727V39.1h9.715v-3.185h-5.988zM135.556 30.851h-4.746v-5h-3.727v13.346h3.727v-5.065h4.746v5.065h3.695V25.882h-3.695zM149.699 25.755h-3.568l-5.67 13.442h3.886l.956-2.389h5.128l.956 2.389h3.95l-5.638-13.442zm-3.345 8.186l1.497-3.79 1.497 3.79h-2.994zM156.515 25.882h3.695v13.347h-3.695zM171.391 25.882v7.04l-5.51-7.04h-3.505v13.315h3.727v-7.294l5.702 7.294h3.281V25.882z" fill-rule="nonzero"/><path fill-rule="nonzero" d="M113.927 25.819h-4.396l-4.587 5.415v-5.415h-3.695v13.346h3.695v-3.44l1.37-1.497 3.727 4.937h4.396l-5.702-7.613zM79.27 25.5a6.94 6.94 0 0 0-6.944 6.944 6.94 6.94 0 0 0 6.945 6.944 6.94 6.94 0 0 0 6.944-6.944A6.94 6.94 0 0 0 79.27 25.5zm0 10.607c-2.006 0-3.663-1.656-3.663-3.663 0-2.007 1.657-3.663 3.664-3.663 2.006 0 3.663 1.656 3.663 3.663 0 2.007-1.657 3.663-3.663 3.663z"/><path fill-opacity=".6" opacity=".15" d="M233 1h224v63H233z"/><path d="M319.16 37.218c-.208.596-.307 1.261-.307 1.98 0 2.423 1.819 4.52 4.85 4.52 2.78 0 4.372-1.164 5.095-1.937h.097l-.141 1.477h6.978l1.72-8.028c.07-.347.127-.68.162-.996l-18.454 2.984zm8.569-4.685c.2-.957.93-1.716 1.856-1.716.943 0 1.329.802 1.162 1.615l-.12.587 6.964-.73c-.527-3.556-3.852-5.101-7.714-5.101-5.753 0-8.501 2.86-9.044 5.39l-.075.358h6.89l.08-.403zm1.881 5.289c-.22 1.17-1.015 2.09-2.132 2.09-1.052 0-1.53-.862-1.329-1.803.17-.792.995-1.583 2.526-1.583h1.211l-.276 1.296zm18.614-5.311c-.483.648-.874 1.584-1.183 2.996-.661 3.052.059 3.85.96 3.85 1.204 0 2.223-1.144 2.723-3.805.32-1.696.272-2.915-.187-3.415l7.45-1.207c.366 1.182.426 2.7.076 4.433-1.092 5.481-4.446 8.356-8.19 8.356-1.696 0-3.547-.442-4.317-2.247h-.158l-.604 1.785h-6.742l2.001-9.424 8.172-1.322zm.404-3.55c.586-.477 2.031-1.584 4.243-1.584 2.245 0 3.971.977 4.832 2.819l-17.259 1.796 2.32-10.914h7.433l-1.674 7.882h.105zm-43.789 10.58l.652-3.135h-8.436c-.585 5.307 3.582 7.434 8.928 7.434 5.13 0 10.555-1.712 11.763-6.393l-12.907 2.093zm-.28-5.3c-2.99-.947-5.248-2.709-5.248-6.046 0-4.883 4.874-7.68 11.397-7.695 5.526-.02 9.184 2.283 8.539 6.877h-7.863c.277-1.255-.445-1.968-1.79-1.968-1.046 0-1.855.542-1.984 1.176-.183.91.4 1.482 1.809 1.864 1.188.324 2 .54 3.169.873 3.325.953 4.916 2.938 5.327 5.017l-9.882 1.018-3.474-1.117zm67.625-6.592c-1.642 0-2.957.946-3.844 2.164h-.135l.23-1.978h-6.894l-.42 2.008 3.805-.398-.084.38-3.861.627-2.718 12.805h7.433s.767-3.68 1.234-5.835c.75-3.438 2.636-4.215 3.892-4.215 1.06 0 1.724.478 1.888.613l1.217-5.733c-.118-.066-.752-.438-1.743-.438zm12.43 5.994l.077-.36c.226-1.192-.346-2.094-1.596-2.094-1.152 0-2.133.826-2.48 2.454h4zm5.522 4.666c-1.15 3.266-4.314 5.41-9.504 5.41-4.32 0-8.485-2.513-7.457-8.269.86-4.845 5.31-8.072 10.401-8.072 5.7 0 8.19 3.914 7.266 8.477l-.222 1.046h-10.708c-.034.12-.17.618-.17 1.164 0 1.369.727 1.848 1.651 1.848.955 0 1.776-.534 2.228-1.604h6.515zM391.35 41.932h.197c.227 0 .42-.083.42-.295 0-.15-.112-.303-.42-.303-.09 0-.15.007-.198.016v.582zm0 .952h-.275v-1.72c.144-.021.28-.04.486-.04.26 0 .432.053.536.13.101.074.156.191.156.355 0 .226-.15.364-.336.419v.014c.151.026.255.163.289.417.04.268.083.37.11.425h-.289c-.042-.055-.083-.213-.116-.439-.04-.22-.152-.301-.37-.301h-.192v.74zm.287-2.2c-.68 0-1.234.583-1.234 1.301 0 .735.554 1.312 1.24 1.312.686.006 1.233-.577 1.233-1.304 0-.726-.547-1.309-1.233-1.309h-.006zm.006-.24c.844 0 1.515.686 1.515 1.541 0 .871-.671 1.552-1.522 1.552-.842 0-1.528-.68-1.528-1.552 0-.855.686-1.54 1.528-1.54h.006z" fill-rule="nonzero"/><path fill-opacity=".6" opacity=".15" d="M468 .744h224v63H468z"/><path d="M556.11 33.135v.312h-10.65c.127 2.52 1.881 3.55 4.302 3.55 2.087 0 3.55-.71 4.33-1.683l1.35 1.917a8.726 8.726 0 0 1-5.829 1.932c-3.876 0-6.702-2.088-6.702-5.907v-.313c0-3.55 2.549-6.319 6.645-6.319 4.892-.07 6.553 3.273 6.553 6.51zm-2.649-1.576c-.284-1.84-1.455-3.032-3.898-3.032-2.194 0-3.592 1.115-3.976 3.032h7.874zM579.773 32.425v6.39h-2.84v-6.39c0-2.244-.944-3.444-3.21-3.444a4.104 4.104 0 0 0-3.315 1.42v8.463h-2.84v-6.85c0-1.91-.816-3.054-3.031-3.054a4.302 4.302 0 0 0-3.458 1.576v8.328h-2.84v-12.07h2.485l.178 1.783a5.53 5.53 0 0 1 4.536-2.024 4.388 4.388 0 0 1 4.16 2.251 6.02 6.02 0 0 1 4.63-2.25c3.685 0 5.545 1.994 5.545 5.87zM592.084 38.864a8.023 8.023 0 0 1-.284-1.47 6.234 6.234 0 0 1-4.714 1.733c-2.62 0-5.247-1.065-5.247-3.82 0-3.031 2.371-3.976 5.374-3.976 1.552.007 3.085.328 4.509.945v-.71c0-2.13-1.555-2.805-3.77-2.805a6.589 6.589 0 0 0-4.26 1.278l-.888-2.165a11.118 11.118 0 0 1 5.474-1.278c3.415 0 5.993 1.477 5.914 5.225v3.848c-.059 1.082.017 2.168.228 3.23l-2.336-.035zm-.334-3.209v-1.704a11.246 11.246 0 0 0-3.87-.71c-2.13 0-3.386.384-3.386 1.91 0 1.527 1.477 1.889 3.21 1.889a5.68 5.68 0 0 0 4.046-1.385zM604.899 27.022l-.511 2.62a3.074 3.074 0 0 0-1.655-.433c-1.42 0-2.47 1.05-2.932 2.477v7.178h-2.726v-12.07h2.549l.149 2.748c.511-1.831 1.661-2.84 3.394-2.84.593-.019 1.184.09 1.732.32zM605.651 37.643l.916-2.293a7.327 7.327 0 0 0 4.864 1.633c2.222 0 3.55-.511 3.55-1.839 0-1.328-1.534-1.27-4.076-1.526-2.982-.355-4.764-.867-4.764-3.082s1.733-3.976 5.474-3.976a12.354 12.354 0 0 1 5.226 1.023l-.817 2.13a8.072 8.072 0 0 0-4.345-1.03c-1.988 0-3.11.561-3.11 1.683 0 1.122 1.527 1.044 3.976 1.328 2.215.248 4.814.582 4.814 3.336 0 2.755-2.194 4.076-5.808 4.076a11.43 11.43 0 0 1-5.9-1.463zM632.347 26.795c-3.053 6.9-5.985 13.099-8.52 17.23l-2.677-.844a30.785 30.785 0 0 0 2.599-4.366l-5.552-11.999h3.003l4.068 9.869 4.16-9.89h2.919zM632.269 37.643l.915-2.293a7.39 7.39 0 0 0 4.87 1.633c2.216 0 3.55-.511 3.55-1.839 0-1.328-1.526-1.3-4.089-1.526-2.982-.355-4.764-.867-4.764-3.082s1.733-3.976 5.474-3.976c1.79-.04 3.569.308 5.211 1.023l-.816 2.13a8.009 8.009 0 0 0-4.366-1.03c-1.988 0-3.11.561-3.11 1.683 0 1.122 1.533 1.044 3.976 1.328 2.215.248 4.813.582 4.813 3.336 0 2.755-2.186 4.076-5.807 4.076a11.495 11.495 0 0 1-5.857-1.463zM521.583 40.88v4.026l13.56-6.035v-4.025zM535.144 18.744l-18.083 8.05v4.02l9.045 4.025 9.038-4.026v-4.018l-9.038 4.018-4.523-2.009 13.56-6.035v-4.025zm-9.038 12.538v3.081l-8.52-3.791 3.472-1.534 5.048 2.244z" fill-rule="nonzero"/></g></svg>