<svg xmlns="http://www.w3.org/2000/svg" viewBox="0 0 663.919 672.746"><defs><style>.cls-2{fill:none;stroke:#ff5202}</style></defs><g id="Layer_2" data-name="Layer 2"><g id="Layer_1-2" data-name="Layer 1"><g id="Regional-landing-pages"><g id="NA"><g id="Fill-3"><g id="Group-21"><path id="Fill-3-2" data-name="Fill-3" d="M177.857 2.746c-1.572-.14-2.227-.968-2.75-.832a3.734 3.734 0 0 1-2.228-.841c.524-.836-.655-1.395-2.227-.836-1.573.557-3.67.596-5.503 1.134-1.834.54-4.06.12-3.93-.577-.005-1.394-1.048-.557-2.096-.418a7.185 7.185 0 0 0-3.144.701 7.713 7.713 0 0 1-3.275.833c-.525 0 .13-.404-2.096.844-2.228 1.248-6.813 3.06-7.861 2.782s-6.157-1.953-6.157-1.953c-1.049-1.673-2.752-.14-3.93.28-1.18.418-2.883 1.394-3.407.975-1.048 2.65-1.31 3.208-1.31 3.208-.13 2.79.786 3.487 0 4.882-.786 1.394 0 1.673-1.048 2.928a13.268 13.268 0 0 1-2.75 2.79c-1.18.836-2.49.836-.787 1.952a10.873 10.873 0 0 1 2.62 2.371c2.358 1.395 2.358 2.231 1.965 2.231a7.592 7.592 0 0 0-2.358.698c-.393.278-1.703.418-1.703 1.255a4.434 4.434 0 0 0 .786 1.953c2.227-.14 2.358.697 2.751.697-.393 1.534-2.62 1.394-2.62 1.394l-1.703-2.091a5.865 5.865 0 0 1 1.31-4.185c-1.441.559-1.41 1.814-2.016 2.232a22.688 22.688 0 0 0-1.783 1.534 11.37 11.37 0 0 1 2.227 1.953 12.22 12.22 0 0 0-4.716.78q-.524.056-1.966-1.059a8.165 8.165 0 0 1-2.488-2.371c0-2.232 2.226-2.79 2.62-3.347a5.26 5.26 0 0 1 1.703-1.116 18.812 18.812 0 0 0-8.385-2.232c-1.572.42-.524 1.535-1.572 1.814-.786-1.814-1.703-2.093-2.751-2.093a11.108 11.108 0 0 0-2.489.419c-2.096.418-1.048-.419-2.62-.14-2.62.558-3.276.14-3.276.14-1.31 1.534-1.85 2.51-1.448 3.347a16.355 16.355 0 0 0 1.71 2.37c-1.178 1.256-1.862 1.256-1.862 1.256-.889-1.534-2.199-.14-2.199.418-.393 2.65-.917 1.89-1.572 2.619s-1.965 1.844-1.31 2.682c.655.836 1.179 2.789 2.097 3.346a3.152 3.152 0 0 0 2.358.248 6.638 6.638 0 0 1 2.488 1.147c.393 1.674.525 2.929 1.048 2.929.918 1.395 3.8.557 4.848.279a10.852 10.852 0 0 1 2.358-.279 5.483 5.483 0 0 0 3.013.14c.262 2.092-.131 2.788-1.441 3.067a4.857 4.857 0 0 1-2.882 0 2.694 2.694 0 0 0-1.18 1.953c0 .418-1.31 1.952-1.833 2.65-.525.697-1.048 1.953-2.096 2.231a12.649 12.649 0 0 1-3.275.837 4.26 4.26 0 0 1-2.621-.837q-.524-.419-.655-2.65a7.588 7.588 0 0 1-4.847 2.79c-1.44.279-3.014.697-3.014.697a13.286 13.286 0 0 0-1.31-4.184h-2.75c-2.62 1.116-4.847 2.65-4.847 3.069a18.5 18.5 0 0 1-4.848 1.165 22.982 22.982 0 0 0-4.061 1.763c-.917.697-2.358 1.952-2.358 1.952a2.905 2.905 0 0 0-3.406.837c-.394 1.814-1.049 3.069-1.31 2.929-1.049.837-.787 1.534-1.573 2.231q-.786.698-.383 3.208c.776.837 2.328 3.032 2.586 3.208 1.466 1.255 1.858 1.952 1.203 2.231a6.418 6.418 0 0 1-2.358 0c-.524-1.813-1.64-4.462-1.64-4.462s-1.635 1.255-2.29 1.255-2.751.279-2.751.279a3.055 3.055 0 0 1 0 3.052c.131 1.968.09 2.945-.151 3.363-1.683 2.37-2.732 3.347-.897 3.905 1.834.558 4.716 1.394 5.633 1.116a60.597 60.597 0 0 0 5.764-3.627 38.906 38.906 0 0 1-2.75 3.682 12.751 12.751 0 0 0-2.097 3.012c-.393.837 0 2.093-1.572 2.51a7.876 7.876 0 0 0-3.668 2.232c-.524.698-.786 2.371-1.572 3.208a8.894 8.894 0 0 1-2.358 1.534c1.179 1.813 1.703 2.371 3.144 1.534a10.743 10.743 0 0 1 4.454-1.255c1.966.42 1.048.326 1.18 1.698 1.44 1.37 2.489-.86 2.357.812-.13 1.675-1.571 4.045-1.571 4.882 1.833.697 2.358-.837 3.143-1.395a16.864 16.864 0 0 1 2.49-1.255c-.917 2.929-2.49 2.371-.917 2.929 1.572.558 8.384.311 7.73.783-.656.472-6.813 2.564-6.813 3.121 0 .559-.524 1.535 0 2.232-1.965-.14-4.978 2.371-5.633 3.208a8.405 8.405 0 0 0-1.048 2.65c-2.49-1.255-3.276-.418-4.848 0a14.953 14.953 0 0 0-3.668 1.116c-.918.557-2.228 1.534-2.228 2.092-2.488-.28-3.406.225-5.894.321a16.263 16.263 0 0 0-5.765 1.073c-1.18.558-2.358 1.395-2.882 1.674-.524.278-.524 2.092-.524 2.51a5 5 0 0 1-2.227-.976c-.524-.977-.394-2.371-2.752-2.51s-3.143-.28-5.24.558c-2.096.836-2.882 1.812-3.668 2.09a7.197 7.197 0 0 1-2.358.14c-1.572.962-2.096.11-3.406.962s-2.751-.822-3.144-.822-2.62-.28-2.62-.28a12.142 12.142 0 0 0-4.061 1.256c-1.966 1.255-2.358 2.371-1.835 2.79a2.89 2.89 0 0 0 2.62 0 36.37 36.37 0 0 1 4.193.976c1.571.837 2.62.558 2.62.139a2.384 2.384 0 0 1 1.31-2.23c1.179-.698 1.572.557 2.489.557a5.696 5.696 0 0 1 3.406-.14 10.79 10.79 0 0 0 2.751-.557 8.22 8.22 0 0 0 3.014-1.814 2.743 2.743 0 0 0 2.096 2.371c1.965-.278 3.8 0 4.323-.139 2.751-.418 3.144-1.255 3.8-1.116a5.442 5.442 0 0 1-1.049 2.929 24.127 24.127 0 0 0 2.227-1.116 5.87 5.87 0 0 1 2.751-.836c2.358-.14 2.358-.559 3.013-.14 2.883-.558 3.93-.28 4.324-.697-.263-1.952.917-2.79 1.44-2.65a10.055 10.055 0 0 0 3.276-.698c1.703 1.116 2.358.14 2.358.14 2.358.418 3.8-.558 4.585-.558 2.883 0 4.324-.837 4.586-1.395a9.24 9.24 0 0 1 2.358-2.092 23.286 23.286 0 0 0 3.537 0l1.965-2.23c1.179 1.114 1.703.975 2.227.836q.524-.14 2.62-.977a6.942 6.942 0 0 0 3.013.14q.393 0 2.62-2.092c2.228-.837 1.834-.279 3.276-.837 1.44-.557 2.75-.836 3.537-1.255.786-.418 2.096-1.255 1.703-1.813a3.591 3.591 0 0 0-2.49-1.953c1.573-2.37 2.097-2.65 2.62-2.789 2.622-.418 1.704.28 2.622-.418a6.56 6.56 0 0 1 2.29-.976 2.354 2.354 0 0 0 3.08-.279c1.31-.419 1.18 0 2.62-.558 1.442-.558 1.966-2.232 1.572-2.65a23.34 23.34 0 0 0 3.931-.976 2.342 2.342 0 0 1 1.703-1.116 9.92 9.92 0 0 0 2.751-.976 5.372 5.372 0 0 1 3.275-1.255 6.546 6.546 0 0 0 2.358-.558 7.445 7.445 0 0 1 2.62-.418 5.574 5.574 0 0 1 2.097.418 3.362 3.362 0 0 1-.787 3.208 6.344 6.344 0 0 0-4.716-.837c-2.227.557-3.406-.418-3.537.278a5.142 5.142 0 0 1-1.44 2.93 15.247 15.247 0 0 1-3.276 1.812 37.094 37.094 0 0 0-3.537 1.953c-.262 1.674-1.31 2.79.131 2.65a35.15 35.15 0 0 0 2.882-.419 15.808 15.808 0 0 1-2.62 1.395c-1.441.558-3.93-.28-4.323.14-.393.418-1.573 1.952-1.573 1.952a15.998 15.998 0 0 0 3.013.976 7.127 7.127 0 0 0 3.014.14c1.965-.838 2.62-1.674 3.013-1.674a15.239 15.239 0 0 0 2.096-.558c1.834.14 2.882.558 3.144.14a4.184 4.184 0 0 1 1.965-1.256c1.966 1.396 2.096.977 3.014.837a4.035 4.035 0 0 1 2.358.418c1.44-.139 1.44 1.395 2.095 1.255a2.113 2.113 0 0 0 1.311-1.533l.917-2.093 1.703-2.37c.786-1.674.655-2.79 1.965-2.37a26.773 26.773 0 0 0 3.406.975c2.49.558 1.965-.279 2.49.558a11.26 11.26 0 0 0 2.358 2.092c-.263 1.395 0 2.37-.263 2.79.525 2.09 1.31 2.65 1.703 2.789q1.361-.685 4.586-2.232l-3.668 3.905c1.441 1.255 1.31 2.231 1.703 2.65 3.013.418 6.681.976 7.467 1.395a34.643 34.643 0 0 1 3.014 1.813 3.906 3.906 0 0 0 3.274.558s-1.571 1.115-1.44 1.813c.13.697.917 2.65 2.882 2.65a62.204 62.204 0 0 0 6.419-.698l-1.572 2.65s-2.096.418-1.966.837c.132.418 2.228 4.602 3.67 5.16 1.44.558 1.833 0 1.833 1.255s-.393 2.092 0 3.487a8.83 8.83 0 0 0 1.834 3.347c1.31 1.395.524 2.79 1.834 2.51 1.31-.278 3.144 0 3.669-.557.523-.558 1.31-2.51.916-3.069-.393-.557-1.703-2.231-1.703-2.231 1.442-.14 1.31 1.255 1.965 1.255.393 2.092.655 3.347 1.048 3.626s.262 1.394.655 2.092c.394.697 2.097 0 2.097 0s1.571.14.523 2.79a47.748 47.748 0 0 0-1.833 6.414 10.018 10.018 0 0 0-2.097 1.814c1.31.976 3.275-.419 3.8-.558 1.572-.977 1.572-3.347 2.358-3.487.786-.14 1.703-3.347 1.834-1.813a11.398 11.398 0 0 1-.655 3.905c-.131.418-1.18 1.255-1.049 1.953.394 1.673 2.621 3.347 2.621 3.766 0 .418.786 2.928 0 2.37-.786-.558-3.8-3.486-3.8-3.486l-2.095-1.255a5.569 5.569 0 0 1-.262 2.231 2.298 2.298 0 0 0-3.275.279 3.035 3.035 0 0 0-.525 2.311c-1.048 1.454-3.013 5.22-3.013 5.22s1.965 0 2.358-.837 2.49-4.881 2.882-4.462c1.441 1.673 2.096 1.394 2.49 1.394a4.278 4.278 0 0 1 2.75.976 3.155 3.155 0 0 0-1.178 2.929c.392.836 1.179 2.65 1.179 2.65l1.965.418c-1.31 1.674-2.097 2.65-2.097 2.65 1.573.418 2.752 0 2.752-.558-.786 2.371-2.489 3.626-2.489 4.881a9.344 9.344 0 0 0 .655 3.068s3.013.977 2.489 0c-.524-.975-1.31-4.183-.786-3.905a5.203 5.203 0 0 1 1.31 2.371c.13.559.655 1.953.13 2.929 1.18 0 2.097.589 2.621.434 1.703.026 1.049 1.797.394 2.076a19.284 19.284 0 0 0-2.621 2.092 4.637 4.637 0 0 1 1.31 3.627c-1.572.837-1.572-.977-2.358-.977s-1.834.558-1.31 1.814c.524 1.255.524 1.534 0 2.23-.524 2.93.393 6.835.917 6.137a15.026 15.026 0 0 0 1.179-3.207s.393 2.674.524 3.289c1.572 1.592 2.62.057 2.096 1.592-1.965 1.673-2.227 2.371-1.965 3.486.262 1.116 1.048 3.626 1.18 2.79.13-.837 1.703-2.371 1.703-2.371s-2.228.697-1.573 1.534 2.49-.698 2.751-.279c.262.418.131 2.51 0 3.766a65.38 65.38 0 0 0-.13 6.972c.392 1.256.261 1.256-.263 2.093s1.048 1.673 1.31 2.092a30.895 30.895 0 0 0 3.144 2.928 19.46 19.46 0 0 0 3.407 0l-1.31 1.814c-1.965.279-3.013 1.487-2.49.883.525-.604-2.358-.465-2.358-.465-1.703-.418-1.833-3.905-2.751-3.487-.917.418-2.489-.976-3.668-.14-1.179.838 0 2.372.393 3.209.393.836 1.31 1.534.917 2.091a12.465 12.465 0 0 0-.917 1.953s1.703-.837 2.096 0c1.835 1.673 2.882 1.976 2.358 1.825 0 2.22.524 2.498.524 3.196 0 .697 1.573 1.255 1.573 1.255l1.571 1.952s.132 1.953.525 1.953a38.165 38.165 0 0 1 3.537 4.183 4.572 4.572 0 0 1 2.358-.836c.917.14-.786 1.395-.655 1.952.131.559 3.668 2.929 4.06 3.069.394.14 3.277 1.255 4.062 1.534a4.092 4.092 0 0 0 2.62-.558c.524-.28 2.62 1.115 1.966-.419s-1.31-3.626-1.573-4.463c-.262-.836 2.358-.836-1.572-2.928s-4.454-2.51-4.978-3.487c-.524-.976-1.44-4.741-1.048-5.02.393-.28 2.227-1.674 3.275.836s1.572 4.464 2.228 4.882c.655.418 1.703.278 2.226.697a10.26 10.26 0 0 0 2.62.837c.525 1.813.918 4.602 1.442 4.88 1.441 1.674 2.62 3.069 2.49 3.627-.132.558-1.835 1.192-1.835 1.192a19.658 19.658 0 0 0-1.572 2.155 2.779 2.779 0 0 1-2.49.558c-2.75 0-3.537-.837-4.192-.837-2.62-1.115-5.764-3.207-6.026-2.79s-1.441 2.093-1.179 3.07c.262.975 1.703 2.23 1.703 3.207s-.655 7.113-.655 7.53a15.886 15.886 0 0 1 .13 3.348c-1.31 1.255-.786 2.79-1.047 4.603-.262 1.812-1.965 6.972-1.965 8.088a6.345 6.345 0 0 1-.787 3.487c-.785 1.534-1.965 3.347-2.226 4.044-.262.698-1.31 1.814-1.31 2.51a38.512 38.512 0 0 1-1.31 4.184c-.132.559-1.18 4.185-2.097 4.742a6.468 6.468 0 0 0-2.227 2.79c-.393.976-.13 1.255-.917 1.952s-.655 1.813-.524 2.79c.13.976-.786 2.37-.655 3.068a23.547 23.547 0 0 1 .524 3.626c0 1.115-.131 3.766.131 4.044a4.278 4.278 0 0 1-.524 3.627c-.917.976-.655 2.231-1.441 3.486-.786 1.256-2.49 2.79-3.144 4.184a2.844 2.844 0 0 0 .13 2.79c.263.697 1.965 3.904 2.228 5.299.262 1.394-.393 2.79-.524 3.765-.131.977-.262 3.626-.262 4.045 0 .418 1.572 2.371 1.834 3.766.262 1.394 2.096 1.673 2.358 2.789a10.5 10.5 0 0 1-.131 3.207s1.834.977 1.834 1.953.393 2.232.393 3.487a21.018 21.018 0 0 0 .131 3.068 5.922 5.922 0 0 0 1.965 2.789c.655.419 1.703.28 1.966.697-.393 2.79-1.835 1.674-1.835 2.929a14.993 14.993 0 0 0 .655 4.045c.262.557 1.18.697 1.572 1.394.393.697.918 3.627 1.31 4.323.393.698 1.966 1.116 2.096 1.814a10.85 10.85 0 0 0 1.048 2.51c.262 1.534 1.442.837 1.442 1.395 0 .557-.262 1.394-.262 2.789s.262 2.37-.131 2.51c.786 1.395 1.048 2.093 1.44 2.232s1.834-.14 2.752 0a27.982 27.982 0 0 1 3.013.836s1.703-1.255 2.096 0a9.254 9.254 0 0 0 3.144 3.906c.786.279 3.537-.837 3.669 0 .13.836.262 3.346.262 3.346 1.703.559 4.978 2.093 4.978 2.093s2.358 2.092 2.62 3.347.786 4.044 1.048 4.602c.262.558-.524 1.534 0 3.069a10.765 10.765 0 0 0 1.965 3.346c.393.42-.393 1.255 0 2.092.393.837 1.834 1.674 1.704 2.371-.132.698.147 1.534.008 2.51s1.04 2.79 1.302 3.348c.261.558.655 2.092 1.048 2.79.392.696 1.31.976 1.178 2.091-.13 1.115-.629 4.045.013 4.323 1.429 2.371 1.56 5.579 2.215 6.276s2.095 1.395 2.75 2.371c.656.977 1.442 1.952 2.621 1.952s2.096 2.093 2.62 2.79a18.263 18.263 0 0 1 2.358 3.068c.393.977 1.31.279 1.703 1.814a3.69 3.69 0 0 1 0 2.65 21.121 21.121 0 0 0-.524 2.928c0 .698-1.703 1.813-1.703 1.813-.655.558-.917 1.534-2.882 1.115-1.965-.418-1.703-1.115-2.751-1.115-.786 1.674-.262 2.092.655 2.79.917.696 2.096 1.812 3.144 2.789a8.41 8.41 0 0 1 1.703 2.65c1.834.836 2.2 1.813 2.606 1.673 1.324.013 1.587 1.674 2.242 1.813s1.571-.279 2.358 0a33.014 33.014 0 0 1 5.109 4.462c.524.698 3.275 1.256 3.275 1.256a15.577 15.577 0 0 0 .786 2.37c.655 1.675 1.441 2.65 1.441 4.046v3.625s-.786-.14-1.31 1.535a14.335 14.335 0 0 0-.524 4.323c0 .976 1.834 1.674 1.834 2.231s3.275 2.65 3.275 2.232c0-.419-3.406-3.766-3.406-3.766 1.31 0 2.096.697 3.406 2.65 1.31 1.952 1.965.837 3.275 2.092s3.276 3.068 3.668 3.626c.393.558 1.703 1.255 1.966 2.092.262.837 2.358 1.116 2.489 1.673a29.208 29.208 0 0 1 1.44 4.045c.263 1.534 1.049 3.208 1.442 3.208a18.678 18.678 0 0 0 2.882-1.674 7.822 7.822 0 0 0 2.227-2.092c.655-1.116.786-3.207 0-3.765-.786-.558-1.703-.419-1.703-1.116a10.467 10.467 0 0 0-.524-2.231 6.068 6.068 0 0 0-1.703-2.51c-1.834-2.232-2.751-2.93-2.882-2.51-.131.417-.262 1.951-1.441 1.394-1.179-.558-2.49-2.092-2.49-2.79a19.195 19.195 0 0 1 .655-2.929c.132-1.952-.13-2.789-.916-3.486-.787-.697-1.965-1.674-1.834-2.79.13-1.115-.786-1.673-1.441-2.789s-1.31-1.674-1.31-3.068a29.767 29.767 0 0 0-.132-5.02c-.261-.698-1.44-1.535-1.18-1.953q.264-.419-1.833-3.208c-1.31.419-1.31-.697-1.572-1.255a8.949 8.949 0 0 1-2.227-3.068 10.157 10.157 0 0 0-.786-2.371 4.119 4.119 0 0 0-1.965-1.255c-.786-.279-1.179-1.534-1.31-2.092a21.35 21.35 0 0 1 0-2.929v-3.208l-2.227-.279-.393-3.207-1.835-1.953c-1.048-.558-.916-1.673-1.44-2.789a13.472 13.472 0 0 0-3.407-3.905c-1.047-.697-1.44-2.231-2.096-2.231s-1.703-1.953-2.096-2.65a4.828 4.828 0 0 1-.524-2.65c.131-.697.131-2.65.262-3.765.13-1.116.393-2.93.393-2.93a7.941 7.941 0 0 1-.786-4.742c0-.836.393-3.346.393-3.765 0-.418 1.44-.279 2.096.558a12.47 12.47 0 0 0 2.751 2.65 4.761 4.761 0 0 0 2.358.14l2.751.697 3.931 2.371c.917 1.255 0 2.928-.131 4.184a7.392 7.392 0 0 0 1.31 3.765 4.125 4.125 0 0 1 1.18 2.79 22.687 22.687 0 0 0 1.31 5.578c.261.558 1.047 1.395 1.178 1.813.131.418.917 2.092.917 2.092l.524 2.371-1.703-1.674s-1.965 1.255-1.703 2.371.655 2.232 1.572 2.232 2.096-1.814 2.096-1.814 2.49 1.674 2.62 2.371c.131.698-.13 2.232.786 2.79.918.558 1.31.279 1.835 1.116.523.836 1.834 3.905 2.226 4.044a8.174 8.174 0 0 0 3.276.977s1.965-.42 2.358 0a10.385 10.385 0 0 0 .13 5.717 3.48 3.48 0 0 0 1.573 1.534c.655.28 2.358.837 2.882.976.524.14.524 2.929 1.18 3.905s2.358.28 2.358.28c1.31.836 3.799 2.65 3.406 3.486-.393.837-2.358 3.208-2.49 3.905-.13.697-.393 2.092.525 2.93.917.835 1.132 1.672 2.007 2.23.875.558 1.66-.697 2.185-.697.655 2.092 3.144 3.068 3.537 3.487 2.489 1.534 4.061 2.091 3.668 2.091s-2.358-.418-2.096.42c.262.835 2.35 1.672 2.157 2.09-.192.42-2.664.977.013 2.093s5.822 4.324 6.607 5.16c.787.837 3.406 1.953 3.538 3.905.13 1.953 2.096 2.51 3.406 4.881s3.537 4.185 4.192 5.16c.655.977 3.406 3.208 2.49 4.603s.24 3.068.184 3.487c-.054.418 1.256 2.37 1.256 2.789s1.179 1.534 1.572 1.953a8.389 8.389 0 0 1 .918 2.928c.13.837-1.18 2.51-1.441 3.208-1.18 2.37.523 1.813.655 2.65.13.836-3.014 2.37-3.014 2.37a12.283 12.283 0 0 0 1.31 6.695c.524.697 1.984 2.092 2.499 2.65s.515 1.813 1.3 2.51a29.31 29.31 0 0 0 4.979 2.51c1.834.837 5.24 2.79 6.026 3.905.786 1.116 2.882 2.929 3.276 3.626.392.698 2.62 1.255 3.93 1.953 1.31.697 3.144 2.092 5.502 2.23 2.358.141 3.8-.138 4.585 0 .786.141 2.62 2.233 3.537 3.07a18.803 18.803 0 0 0 5.503 4.323c3.143 1.534 8.646 3.765 9.3 3.765s2.097 1.674 2.62 2.092c.525.418 9.434.837 10.089 1.953.655 1.115 1.703 2.65 2.882 2.65 1.18 0 2.983 1.255 4.505 2.091a27.615 27.615 0 0 0 6.5 1.814c1.571.279 4.454 2.092 6.026 2.37s4.716-.976 5.502-1.115a46.416 46.416 0 0 0 5.371-1.813c1.31-.558 1.31-1.116 2.358-1.674a26.43 26.43 0 0 1 3.275-1.255c1.442.14 1.835-1.953 2.752-1.255-.13 1.673 0 .976 1.834 1.813s4.061 1.813 4.061 1.813c1.834-.14 4.193 2.928 6.55 4.881 2.359 1.952 7.599 5.718 7.86 7.113.263 1.395 5.634 5.997 7.992 7.112s5.372 2.51 7.598 2.232c2.228-.279 3.407-.976 6.944 1.255s2.49.837 3.538 2.232-.263.557 2.488.697 6.813 2.231 7.337 2.37c.524.14 3.799 1.395 5.502 1.256s3.93 0 4.454-.697c2.883-1.535 3.93-1.395 3.8-.976 1.048 2.51 1.31 4.323.916 4.044-.392-.279-1.833-1.395-1.833-1.395-1.31 1.534.415 2.793 2.041 4.323s4.116 3.908 5.033 4.6c.917.701 3.144 4.327 4.585 5.302a49.4 49.4 0 0 1 4.061 3.77c1.441 1.249 2.62 2.505 2.751 3.206.132.693-2.488 0-1.833 1.112.655 1.12 1.581 1.12 1.838 1.539-.005 1.95-1.053 3.48-1.183 4.737-.132 1.257 3.013 4.463 3.013 4.463s1.572-.975 2.49 0c.916.975 1.178 2.788 1.702 2.788s2.227-2.65 2.227-2.65l-2.358-1.668c1.834-.838 2.358.418 2.358.418s2.096.838 2.096 1.668c0 .838-.131 2.933 1.442 3.352 1.571.419 3.274.974 4.06 1.111a10.877 10.877 0 0 1 3.537 2.232 3.909 3.909 0 0 1 1.31 4.19c.132 2.368 1.442 3.206 1.835 3.343 1.572.837 2.62-.838 1.572-1.394 1.572.838 1.572 1.676 2.096 2.231.524.556 1.703 3.207 2.096 3.344.393.145-.917-1.668 0-2.087a8.93 8.93 0 0 1 3.537-.556 10.792 10.792 0 0 0 2.096-.145c.393 0 1.441 1.12 1.835 1.257s3.536-.282 4.06.282c.524.556 1.31 3.48 1.835 4.318a2.463 2.463 0 0 0 2.358 1.257c1.179 0-1.834-2.924 1.31-2.368 3.144.555 2.097 4.18 1.965 4.737 2.227 1.957 5.765 1.12 5.765 1.12 1.31-1.394 4.192-2.369 3.799-3.207a41.459 41.459 0 0 0-3.013-3.77 11.99 11.99 0 0 0-1.835-1.668c1.442-2.232 4.659-3.351 4.884-3.77l1.798-3.344a8.09 8.09 0 0 1 3.537-1.957c.524-.137 1.703-1.394 3.013-.693 1.31.693 1.703 1.257 3.013 2.086a6.639 6.639 0 0 1 2.358 3.352 3.744 3.744 0 0 0 3.145.838l-1.18 2.231a12.521 12.521 0 0 0 1.18 6.969 3.644 3.644 0 0 0 1.703 2.232 3.346 3.346 0 0 1 1.572 1.41l1.048-3.36v-2.933s.393 2.377 1.834 1.813a5.666 5.666 0 0 0 2.358-1.95 9.282 9.282 0 0 0 .917-4.326s-1.572-.975-1.572-1.812a3.032 3.032 0 0 1 .13-3.207 6.694 6.694 0 0 1-2.75-1.95c-.524-.7-1.31-1.53-1.31-1.53l-1.834-1.402-1.573-1.53-2.095-.702a24.036 24.036 0 0 0-2.751-.83h-3.276c-.786-1.538-1.834-1.401-3.013-1.538-1.179-.137-3.93-.42-3.93-.42l-1.18 1.814-2.226 1.393s-2.096 1.394-2.751 1.676a25.448 25.448 0 0 0-4.062 1.676 21.669 21.669 0 0 1-3.013 1.675 5.414 5.414 0 0 1-3.144.693c-1.31-.137-2.358-.419-2.62-.838s-2.883-3.069-2.883-3.069c.394 1.813-1.833 2.514-2.096 1.813-.262-.693-1.702-1.813-1.833-2.232.655-1.813-.525-2.232-.787-2.642a8.619 8.619 0 0 0-2.881-2.232 24.417 24.417 0 0 1-2.883-1.813 17.98 17.98 0 0 1-2.227-3.07c-.262-.418-3.013-4.043-3.013-4.043a33.272 33.272 0 0 1-1.441-3.626 13.9 13.9 0 0 1-2.228-4.326 9.505 9.505 0 0 1 1.311-2.514c.392-.556.262-2.787.262-2.787a1.523 1.523 0 0 1-.525-2.232l.655-2.368a313.168 313.168 0 0 1-.785-2.369c-.131-.419 2.62 1.249 2.489.274-.131-.975-.786-1.53-.786-2.505a14.615 14.615 0 0 0 0-4.188 20.835 20.835 0 0 1-.393-4.323c0-.698.393-4.044.786-4.463a40.547 40.547 0 0 0 1.965-4.323l-.655-3.487c-1.441-1.673-.393-2.371 0-2.51 0-1.814-.655-1.814-.786-2.65-.132-.837-2.358-1.953-2.358-1.953a3.385 3.385 0 0 1-2.752.558L519 586.963s-2.49-1.115-1.704-1.255a20.117 20.117 0 0 1 3.275.14 5.115 5.115 0 0 0-2.096-1.953c-1.179-.418-2.358-1.674-2.75-1.674-2.49.28-4.717-1.115-5.896-1.394-1.18-.279-2.228 1.255-3.013 1.255a16.298 16.298 0 0 1-4.193-.976c-2.226-.697-3.144-.14-3.144-.14l-3.798 2.092s-.787-.558-2.621 0a7.108 7.108 0 0 1-4.061.28 3.816 3.816 0 0 0-2.489-.419c-2.62-.976-3.406-1.116-4.847-.28-1.442.838-2.62 1.814-3.014 1.535-.393-.28-2.358-2.231-2.62-1.813-1.834 1.255-2.358.14-2.75.14a2.851 2.851 0 0 1 1.047-3.766c.917-.418 1.179-.28 1.965-1.395.786-1.116 1.834-2.37 1.834-2.789s.655-2.65.655-3.208c0-.558-.917-1.395-1.048-2.79-.13-1.394.393-4.602.393-5.857s1.048-1.255 1.048-3.625c0-2.371 1.048-2.092 0-2.371-1.048-.28-2.751.836-2.227-.559.524-1.394 2.358-4.462 2.489-3.765.131.698-.786 2.092-.392 2.65.392.558 1.965.419 1.833 2.37-.13 1.954-1.048 4.464-.785 4.045a36.897 36.897 0 0 0 2.488-5.578 31.927 31.927 0 0 0 1.31-5.858c.132-1.116 1.311-3.347.263-3.068a13.002 13.002 0 0 1 1.179-2.93s-2.882.141-2.882-.278c0-.418 1.703-1.813 1.834-2.232a38.729 38.729 0 0 0 .393-4.183c.262-3.068 2.62-2.65 3.537-4.044a16.262 16.262 0 0 0 1.965-4.464 8.672 8.672 0 0 0-.393-3.486q-.131-.418-3.406-2.79c-2.227 1.675-3.668 1.535-4.978 1.116a19.534 19.534 0 0 0-3.406-.418 14.55 14.55 0 0 0-2.752.418c-.393 0-.393-.278-2.358.698a16.383 16.383 0 0 1-5.895 1.673c-1.834.14-6.026.418-7.598 1.534-1.573 1.116-2.621 1.674-3.145 3.487a30.038 30.038 0 0 0-.655 6.974c.13.557.786 2.37-.131 3.067a7.641 7.641 0 0 0-2.096 3.905c0 .837.393 2.371-.786 3.348-1.18.976-4.847 3.626-4.847 3.626s2.882 1.394 1.572 2.092a18.899 18.899 0 0 0-3.275 2.092c-.394.418-2.752-.28-2.752-.28s0-2.788-1.31-2.788-5.633.976-6.288 1.534c-.655.557.131 1.115-2.62 1.394s-4.061 0-6.158.698c-2.096.697-4.06 1.673-5.501 2.091-1.442.42-3.407 1.116-3.8.42-.393-.699-1.703-3.627-2.751-3.906-2.096-.697-2.883-1.953-3.668-1.953-.786 0-5.371.698-6.027-.418-.655-1.116-1.572-2.79-1.572-2.79s-2.49-2.23-2.62-3.346a31.06 31.06 0 0 0-1.31-5.3 46.605 46.605 0 0 0-4.454-5.44 13.055 13.055 0 0 1-1.965-3.486c0-.418-2.751-4.741-2.751-5.16 0-.418 1.31-3.207 1.048-3.905-.263-.697-4.454-3.766-4.454-4.881s-1.18-5.579-.918-5.998a9.884 9.884 0 0 0 1.31-2.23c0-.42-.392-4.464-.392-6.137 0-1.674.523-5.997.655-6.834.13-.836 1.31-7.81 1.31-7.81-1.18-1.534-.917-4.463-.917-4.463 1.178.558 2.881-.418 2.62 0-.262.419-1.18 2.51-1.18 2.51l3.67-8.088s-2.622-7.95-3.015-10.46c-.392-2.51 2.751-7.95 3.014-8.786.262-.837 4.847-4.881 5.371-5.3a2.86 2.86 0 0 0 1.048-2.371c1.048-.558-.786 1.394 1.965.558a10.726 10.726 0 0 0 4.062-2.092s-1.049.837 3.406-2.092c4.454-2.929 4.06-4.045 4.585-4.602.524-.559 4.847-3.069 6.027-3.069a8.351 8.351 0 0 0 3.536-.418c1.572-.558.655-1.813 3.8-.698 3.144 1.116 5.502 1.953 6.68 1.953a24.49 24.49 0 0 0 3.669-.557c3.014-1.674 4.324-1.674 4.717-.837.392.837.262 1.673 1.31 1.812s2.095 1.674 2.095 1.674a8.477 8.477 0 0 0 2.883 2.092c.393.28 3.406-.976 3.406-.976 1.834.697 1.703 1.813 3.013.976 1.31-.836 1.835-3.347 1.835-3.347s2.226-.14 2.096.836c1.702 1.675 3.405 2.51 3.536 3.627 2.49-.28 4.062-1.952 3.275-2.371-.785-.419-3.668-1.534-4.716-2.231-1.048-.698-2.488-.977-1.572-1.814s3.013-1.952 2.882-2.789c-.13-.837-2.095-2.37-2.095-1.534 0 .836-1.966 2.092-1.966 2.092a4.998 4.998 0 0 1 1.18-2.51 12.413 12.413 0 0 1 3.799-1.813c1.441-.559 1.048-.977 2.358-1.116s2.62.418 3.93.418 1.441.28 2.882.28c1.44 0 .786-3.487.786-3.487a24.936 24.936 0 0 0 1.572 2.65c-1.048 1.255-1.572 2.51.394 2.231 1.964-.28 6.943-1.394 8.515-1.813 1.572-.419 4.978-1.674 5.371-1.674-.393 1.534.13 1.534 1.965 2.232a28.042 28.042 0 0 1 4.455 2.23c1.178.698 2.358 1.116 2.226 1.814.525 1.673 1.703 2.092 3.013 1.255a31.376 31.376 0 0 1 3.67-1.534c.392-.28.916-1.952 2.75-2.37 1.834-.42 3.014-.838 4.847 1.115a30.669 30.669 0 0 1 3.275 4.463c.524.697.918.558 1.703 1.115.786.559 1.441 1.256 1.835 1.534.393.28 2.096.28 2.226.698.132.418 1.048 1.255 1.048 2.371s.525 2.65.394 3.068a32.245 32.245 0 0 0-.655 4.044c0 .698-.13 2.93-.13 2.93s.523 2.51.916 2.65 1.572-2.093 1.572-2.093c1.31 1.255-.262 2.79-.393 3.487-.13.697 0 .976 1.18 3.208 1.178 2.23 2.226 4.183 2.619 4.183 1.18.28.917-1.534 1.573-1.394.655.14-.656 1.534.261 2.928.917 1.395 1.18.837 1.965 2.232s.917 3.487 1.442 4.044c.523.558 2.488.698 3.143 1.535.655.836 3.276 3.905 3.276 4.323s-.655 2.37.262 2.928c.917.559 4.716-.139 5.11-.278a18.56 18.56 0 0 0 2.095-1.534s.13-2.65.262-3.208c.132-.558 1.048-1.534 1.048-2.79s.132-4.602.132-5.438c0-.837-.263-5.719-.918-6.974s-3.93-7.81-4.192-8.647c-.262-.836-1.965-2.092-1.703-3.486a9.258 9.258 0 0 0 0-3.347c-.131-.558-7.205-9.902-7.467-11.855-.263-1.952-2.751-8.228-2.883-8.926-.13-.696-1.048-1.394-.655-2.092a12.631 12.631 0 0 0 .787-2.091 11.304 11.304 0 0 1 .916-2.51c.262-1.953-1.31-2.093-.393-2.372 1.18-2.37 1.048-3.486 1.441-3.765a20.485 20.485 0 0 0 1.442-1.814 15.76 15.76 0 0 0 2.62-2.37l.655-2.231a5.616 5.616 0 0 0 3.013-.977 5.119 5.119 0 0 0 1.703-1.534c.262-.419 1.703-.976 1.703-1.534.655-1.534 1.572-1.395 2.358-1.813s1.573-2.79 1.573-2.79-.393-1.952.523-2.788c.917-.837 2.752-3.487 4.061-3.626s4.324-.42 4.324-.42a20.383 20.383 0 0 1 .261-2.23c.132-.42 1.704-3.208 3.276-4.045 1.572-.837 3.144-2.232 4.061-2.371s3.406-.279 3.8-.697c.392-.418.916-3.208 0-3.069-2.097-.279-1.31-1.115-1.573-1.673-.262-.558-3.93-1.953-2.227-2.371s2.882.837 4.192.837 2.883-1.953 2.883-1.953c1.179-1.673-.524-4.323-.524-4.323l-1.18 1.673c-1.571-1.534-3.013-1.394-3.406-1.255s-3.144.977-3.144.559c1.18-1.396 3.537-1.814 3.93-2.093a4.735 4.735 0 0 1 2.097-.697c1.572-.558-.393-2.231-.393-2.929a39.408 39.408 0 0 0-1.18-4.463l-2.358-.836-1.31-3.069.786-2.091c-.786-.837-.393-4.418-.393-4.371a21 21 0 0 1-1.31-2.603c-.524-1.255-2.62-4.323-2.62-5.578s-.393-4.185-.393-5.02c1.572-1.536 3.013-3.061 3.013-3.061-1.31 3.478-2.227 4.873-1.31 5.012.262 2.092 1.44 2.371 1.44 2.371-.392 1.953-1.44 2.232-.916 3.068.524.837 1.18 2.232 1.572 2.371a15.608 15.608 0 0 0 3.144 2.65c1.703 1.534.393 2.65.393 2.65s-.261 4.602-.261 5.16c1.44-1.115 1.31-1.674 2.226-3.626a26.39 26.39 0 0 0 1.703-5.02c.132-.698 1.704-2.93 1.573-3.766-.131-.837-1.966-3.626-2.359-4.603-.392-.976-2.489-4.323-2.489-4.323s4.455.837 4.455 1.813-1.048 2.092 0 2.232 1.703-1.953 2.227-2.929c.524-.976 1.572-2.077 1.572-3.06 0-.985.655-1.542.917-2.658s.917-1.534.917-3.348c0-1.812-.262-4.183-.655-4.183s-3.406-.558-2.751-.837c.655-.279 2.75-.558 4.454-.976 1.703-.419 6.681-1.535 8.254-2.37 1.571-.838 3.668-1.954 4.06-2.511.263-1.674-3.537-.42-3.799.278-.261.697-1.703.419-3.406.558s-4.192 0-4.847.28c-.655-.42 1.18-2.51 3.537-2.93 2.358-.418 6.158-1.534 7.206-1.534 1.047 0 3.275-.14 3.275-.14s.655-2.928 1.178-2.928a7.037 7.037 0 0 0 4.717-.837c2.227.558 3.013.697 3.93 0 .917-.697 2.097-1.813 1.835-2.37-.263-.559-1.048-2.79-1.048-2.79-1.573.14.655 2.231-.263 2.231-.917 0-3.406-.14-3.668-.557a15.922 15.922 0 0 0-1.834-2.371 14.676 14.676 0 0 0-2.096-.837c0-2.231 1.441-3.068.655-3.905-.786-.837-2.228-1.256-1.703-2.092a21.514 21.514 0 0 0 1.965-3.626 42.653 42.653 0 0 1 .655-4.324c.131-.975.786-2.51 1.573-2.091a9.942 9.942 0 0 0 1.964.697c1.44-1.395 1.44-3.208 1.965-2.65q.524.558 1.872-2.79s.487-2.788.748-2.091a14.24 14.24 0 0 0 1.442 2.231l2.75-.418a13.853 13.853 0 0 0 3.145-3.069l1.703-1.255a6.977 6.977 0 0 0 3.013-3.068l-1.179-3.486 2.228.697a7.281 7.281 0 0 0 2.881-.697c.917-.558.393-1.116 1.965-1.256 1.573-.139 2.621-.418 3.406-1.394.787-.976 2.621-2.51 2.883-2.93.262-.417-.262-3.207 1.441-3.207s2.75-.837 2.227-.418c-.524.418-3.537 4.88-3.537 4.88a68.434 68.434 0 0 0 7.991-.696 19.166 19.166 0 0 1 2.62-.14 14.376 14.376 0 0 0-3.013 1.535c-.523.557-1.441 1.394-1.441 1.394-.785-.418-1.572-2.51-1.965-1.394s-4.454 3.626-5.502 5.02-.917 1.814-1.572 2.65c-.655.837-3.145 1.255-3.145 2.092.787 1.255 2.49-1.394 2.097-.14s-.655 3.627-.393 3.906a8.026 8.026 0 0 1 1.048 1.812 5.451 5.451 0 0 0 1.965 2.65c2.227-.418 2.096.837 2.096.837a17.121 17.121 0 0 1 2.62.14 9.235 9.235 0 0 1 2.096-2.79l.917-1.952c.524-1.116.262-1.813.656-2.231 1.178-1.116 2.488-1.255 2.226-1.814-.261-.557-1.048-3.068-1.048-3.068a2.735 2.735 0 0 0 2.358.419c.525 0 2.358.139 2.358.139a14.575 14.575 0 0 1 2.62-2.092c.394-.418 1.704-.14 2.228-.558.524-.418.786-1.534 1.31-2.092s1.441-.418 2.882-1.813a22.1 22.1 0 0 1 4.062-2.789l2.095-.976-2.095-1.953c.785-1.255 1.965-.279 2.095-.976.131-.697-.262-.837 1.441-1.395 1.704-.558 4.062-2.23 4.193-3.207.13-.977-.262-3.069-.655-3.069s-3.538-1.115-3.538-1.115c-1.571-.419-1.833-3.906-2.226-4.324q-.394-.418-2.883-2.65s-.655 1.256-1.048 1.813a4.103 4.103 0 0 0-.655 3.069c.131 1.812.131 3.068-.262 3.765-.393.697-1.441.418-.786 1.952.655 1.535 1.441 2.65 1.31 3.348-1.703.976-3.668-1.813-3.668-1.116 0 .698-1.834 2.51-1.834 2.51a12.679 12.679 0 0 1-2.882-.278 3.305 3.305 0 0 0-2.62-.14c-1.048.418-1.572.558-2.358.14a10.433 10.433 0 0 0-3.145-.419s-.393-2.092-.917-2.231c-.524-.14-3.668-.14-4.585-.418-.917-.28-1.572-.14-2.358-1.255a17.168 17.168 0 0 1-1.442-2.651s-1.702-.976-1.833-1.395a26.027 26.027 0 0 1-.262-2.65l-3.538.42 1.31-1.674.787-2.51c.13-2.511 1.703-5.16.786-4.882a5.237 5.237 0 0 0-1.835 1.255s-3.93.419-4.192.977c-1.048 1.952-2.62-.28-3.013-.28a24.345 24.345 0 0 1-3.8-.697c0-.836 1.835-2.37 1.835-2.37a10.669 10.669 0 0 0 4.192 1.115 5.462 5.462 0 0 0 3.013-1.395 7.533 7.533 0 0 0 1.049-1.952 12.372 12.372 0 0 1 1.965-1.953l-2.097-2.928c1.965-.14 1.048-.558-.655-1.953s-7.598-1.534-9.563-1.255-7.73 3.208-8.516 3.905c-.785.698-6.812 4.881-7.598 5.718-.786.837-4.716 5.3-5.11 6.276s-2.227 4.881-2.227 5.578a12.22 12.22 0 0 1-1.965 3.905 10.182 10.182 0 0 1-2.62 1.814 8.286 8.286 0 0 1 .917-2.232c.525-.697.262-2.37.525-2.789 1.571-.976 1.048-2.371 1.833-2.79a4.058 4.058 0 0 0 1.442-3.207 5.98 5.98 0 0 1 .523-2.65c.393-1.116 1.573-4.044 1.835-4.463.261-.418-.262-1.673.393-2.091a28.889 28.889 0 0 0 2.49-2.232s1.964-.279 1.964-.837c2.096-2.092 4.847-1.813 4.847-2.65s-.524-3.905-.13-5.02 1.047-1.395 1.178-2.232c.131-.836 1.18-2.79 1.573-2.79s2.881-.278 2.881-.278 0-.418 2.621-.558a21.494 21.494 0 0 0 4.847-.976c1.441-.28 1.703-.837 2.62-.837s2.49.557 2.882.279-1.572-.697 1.965-.697c3.538 0 8.385-.977 10.088-1.116a9.216 9.216 0 0 1 3.537.418c.393.14 1.18-1.116 3.144-1.255s4.062-1.116 5.24-1.395c1.18-.278 2.752-2.51 2.752-2.51l1.44-2.092 1.049-2.092s1.048-1.394.524-1.952a22.946 22.946 0 0 0 .524-3.487c.13-.697 1.834.14 2.62-.558.786-.697-.131-1.115 1.441-1.813a30.434 30.434 0 0 0 3.8-2.231c1.31.976 2.226-1.255 3.013-2.51.785-1.256 2.226-2.51 2.358-3.487.13-.977 1.31-2.092-.132-2.65-.785-2.37-3.668-2.79-3.668-2.79-1.44-1.812-.261-1.952-.261-2.37 0-.419-1.442-1.116-1.704-1.813-.261-.697.655-1.674.131-2.371a12.353 12.353 0 0 0-3.537-2.371 39.06 39.06 0 0 0-4.06-.697c-.263-.977-2.883.557-2.883.557l-.131 2.51-1.703-1.394.785-2.371-2.488-2.091-2.228-.559s-3.8.28-3.668-.14c2.096-1.952 3.013-2.23 3.145-2.649.13-.418-1.18-2.37-1.573-2.092-2.358-.279-3.537-1.395-3.93-1.395s-.393 1.534-1.572 1.674c-1.18.14-3.013.697-3.275 0a23.81 23.81 0 0 0-2.227-3.068c-1.441.837-1.572.697-2.49.557-1.703.698-1.964-2.37-2.488-1.394-.525.976-1.18 1.953-1.573 1.953s-2.096.14-2.096.14l-.13-3.766-1.835-.977a3.836 3.836 0 0 0-2.096-.418l-3.406 1.116.917-3.348-2.096.14c-1.31-.837-3.8-.837-3.406-.977a13.682 13.682 0 0 0 1.703-1.115c.917-1.395-1.31-1.674-1.31-2.092a20.451 20.451 0 0 0-1.048-2.51 6.48 6.48 0 0 0-1.048-1.814c-.394-.418-.655.28-2.752-.418a5.72 5.72 0 0 0-2.489-3.765c-.917-1.534.524-2.65.131-2.65a19.899 19.899 0 0 1-2.882 0 9.081 9.081 0 0 1-3.406-1.953c-1.703-1.813-2.882-3.207-2.882-3.207l-2.49 1.116-1.178-3.766c-1.31 0-1.31-.976-1.835-1.395-1.31-.14-2.358-2.51-2.751-2.51a21.529 21.529 0 0 1-2.489-.419l-2.227-1.952-2.358-2.93-3.275-2.928-2.62-.278a4.208 4.208 0 0 1 .917 1.812c0 .698-.132 1.814-.132 2.371-.261 1.255-1.048 2.79-.916 3.348.13.557 1.31 1.534 1.31 1.534.13 1.534.261 2.231.261 2.231l.394 2.51c-.524 2.232-.655 3.068-.655 3.068s-2.097-1.394-2.097-.976c0 .419-.393 3.906-.393 3.906-1.31 1.115-3.275 2.928-3.275 2.928l-1.572-1.953-2.489-.557c-.524.697-2.49-.837-2.49-1.255s-1.571-1.255-2.881-1.116a16.146 16.146 0 0 0-3.668 1.255l1.048-2.65a5.384 5.384 0 0 0-3.276-2.37c-1.178-.977-2.227.557-1.833-1.395a3.74 3.74 0 0 0-1.048-3.348c-.655-1.534-.918-3.207-1.704-3.905a3.16 3.16 0 0 1-1.18-2.37 19.406 19.406 0 0 0-.392-4.045c-1.572.14-1.047 2.65-1.965 2.232-.917-.42-1.965-2.092-2.751-1.953-4.847.418-6.813.698-7.205 0a14.157 14.157 0 0 0-2.49-2.232s2.359-1.534 1.442-1.673c-.918-.14-3.145-.418-3.145-.418l-2.096-1.674-2.358-1.116a20.76 20.76 0 0 1-2.62-.558c-.786-.278-2.751-1.255-3.144-1.394a8.715 8.715 0 0 0-4.061 1.116c-1.049.557-2.62.836-2.227 1.116.392.278-1.703-.977-2.621-.559a12.902 12.902 0 0 0-2.227 1.534c-2.227-1.534-4.454-1.255-5.24-1.673a11.284 11.284 0 0 0-3.407-.697c-.523 0-2.358.279-2.62.836-.261.559-1.703.559-1.571 1.953.13 1.395 1.965 4.323 2.226 4.742.262.418 2.49 1.115 2.883 1.395-.263 2.928-.393 4.323-.393 4.881 0 .557-.917 1.673-1.965 2.79a7.432 7.432 0 0 0 3.275.278q.655 0 1.178 1.953c1.18 1.673 2.621 3.765 2.621 3.765 1.31 2.092.655 3.207.655 3.207l-.786 2.232c.917 1.953-.786 2.371-.786 2.929a15.882 15.882 0 0 1-.524 2.37l-.786 2.79a2.778 2.778 0 0 0 2.096 1.813 37.836 37.836 0 0 1 4.716 2.092c1.573.697 2.358-.28 4.061 1.674 1.703 1.952 3.8 4.044 4.061 4.602a21.31 21.31 0 0 1 1.966 4.044c.393 1.534 1.572 5.3 1.572 6.694a10.93 10.93 0 0 1-1.18 4.742c-.654.977-2.226 3.627-2.75 4.464-.524.836-4.586 3.905-4.847 4.462-.262.558-4.586 2.092-4.98 2.371-.392.279-1.833.977-1.833.977 1.965 2.231 3.013 3.904 3.537 4.183 1.834.698 2.227 2.79 2.49 3.208a22.776 22.776 0 0 1 .916 2.231c.786 2.232.918 4.463 1.441 5.44.525.976 2.358 1.255 2.358 1.952 0 .697-.786 1.394.655 1.952 1.442.558 2.752 1.395 2.49 2.371s-.655 3.068-.655 3.068l-1.31 1.953c-.655 1.116 1.833 3.068 1.703 3.487a9.554 9.554 0 0 1-3.406-.976c-1.703-.28-2.49 1.533-2.751 2.231-.262.697-4.455.697-4.455.697l-1.572-2.232a9.12 9.12 0 0 0-1.572-2.23c-.524-.28-2.62-1.814-2.62-1.814l-2.228-1.255a19.623 19.623 0 0 0-2.358-2.79c-.523-.557-2.62-1.952-3.013-2.649a6.555 6.555 0 0 0-2.096-1.534s-.786-1.674-.262-2.37a1.77 1.77 0 0 0 .131-2.093 3.77 3.77 0 0 1-.916-2.092c-.132-1.255.655-2.929-.394-3.626-1.048-.697-2.358-.837-2.358-2.65s.394-4.602.262-5.3a5.526 5.526 0 0 0-1.048-2.37 8.417 8.417 0 0 0-2.751-.28c-1.834-.278-2.62.28-3.013.14s-3.538-.697-3.538-.697l-2.75.418c-1.573-.14-2.49.558-3.276.558a11.051 11.051 0 0 1-2.227-.418l-3.144-1.256-1.572-1.673-3.144-.558a25.044 25.044 0 0 0-3.013-1.116c-.393 0-1.835-.418-2.62-.557-.787-.14-2.228 0-2.752-.559-.524-.557-1.31-.975-1.703-1.812a13.847 13.847 0 0 0-2.227-2.51 4.76 4.76 0 0 1-2.358-.14c-.655-.418-3.013-2.65-3.013-2.65s-3.537-.558-4.062-.698c-.523-.139-3.668-1.394-4.06-1.533s-2.359-.977-3.407-1.256a4.527 4.527 0 0 0-2.751-.139 20.227 20.227 0 0 0-4.061 1.395 11.268 11.268 0 0 1-3.407.837 18.242 18.242 0 0 1-1.31-4.045 10.592 10.592 0 0 0-2.096-3.486l-.393-2.371-1.048-1.814-1.179-2.091a4.442 4.442 0 0 0-3.8-2.232c-.523 0-3.012.558-3.536.558s-1.572-1.674-1.572-1.674l-.655-3.208a12.417 12.417 0 0 0-.394-2.091 24.586 24.586 0 0 1-.261-4.882l.786-3.068a4.136 4.136 0 0 1 1.048-2.929c.524-.697.524-2.092 1.048-2.51.524-.418 1.31-3.069 1.31-3.069l.917-2.37 2.096-1.395q-1.18-1.255 1.834-1.952l.655-2.092c1.703.139 1.966-.697 1.966-.697l-.132-2.371c1.442-.559 3.406-1.534 2.751-1.534a9.396 9.396 0 0 1-2.62-1.396l4.717-.139c1.441 0 1.703-.976 2.096-.976a10.1 10.1 0 0 0 2.095-1.115s-.916-2.79-1.178-3.208-3.668-1.395-3.668-1.395c-.918-1.255 1.965-.837 2.358-.557 1.44.836 2.096-.28 2.62-.14 2.227-.28 1.703-3.487 1.703-3.487 1.31-.837 2.751.418 2.751.418a13.116 13.116 0 0 0 3.406-.139 16.54 16.54 0 0 0 3.145-1.394l1.178-1.675.655-2.23s1.965-3.069 2.097-3.487c.131-.42.916-2.65.916-2.65l-.916-2.93a24.745 24.745 0 0 0 1.834-1.951c.655-1.953 2.75-3.069 2.489-3.766-.262-.697-3.144-1.394-3.537-1.674-.393-.279-.786-1.952-.786-1.952s1.18.14 2.226.279c1.049.14 1.966-.976 2.621-.976s1.441.837 1.703 1.813 1.572.558 2.227.976a11.022 11.022 0 0 0 1.965.837 7.825 7.825 0 0 1 2.227 2.65c1.572.28 1.179 1.813 1.965 1.674s3.93-.837 3.275-1.256c-.655-.419-2.096-1.115-2.096-1.115a8.694 8.694 0 0 0-2.62-1.674c-.524-.28-3.668-2.37-3.668-2.37l4.192 1.255-2.751-3.627a2.37 2.37 0 0 1 2.751 1.116 2.837 2.837 0 0 0 2.358 1.255 6.974 6.974 0 0 1 .917-2.37 18.038 18.038 0 0 0 3.406-2.93c1.18-1.394 2.49-4.462 2.227-4.881a4.898 4.898 0 0 0-1.965-2.51c-1.703-1.256-3.275-2.37-3.275-2.37l-1.048-2.093a3.262 3.262 0 0 1 .786-2.93 18.033 18.033 0 0 0 1.704-1.951c-1.704-1.674-2.621-1.814-2.621-1.814s1.572-1.394 1.31-1.812c-.262-.419-1.965-.698-1.965-.698-1.572.14-2.751.419-2.751-.558q0-.976-1.704-2.37l-4.323.278-2.62-1.255a8.097 8.097 0 0 0-2.227-.418c-.392.14-.786 1.673-1.572 1.394s-1.572-2.092-1.833-.837a6.306 6.306 0 0 0 .261 3.348c.786.976 1.049 2.231 1.572 2.37 1.703 1.954.525 1.674 1.18 2.65-1.966 3.487-1.18 3.208-1.311 4.185-.13.976-.262 3.347-.262 3.347l-1.44 1.533-.525-2.091s-1.048-1.813-1.441-1.535c-.393.28-1.31 1.674-1.179 2.092.524 2.232 1.441 2.93 1.834 2.93a7.377 7.377 0 0 1 1.441 3.346c-1.441-.557-2.49-.278-2.358.28-1.31 1.254-1.835-1.395-2.62-1.116-.786.279-2.49-1.674-3.013-1.813-.525-.14-1.441-2.79-1.441-2.79l-.262-2.51 1.965.418a8.967 8.967 0 0 0-.655-3.626 6.115 6.115 0 0 0-1.573-2.091c-.523-.28-3.275-1.535-3.275-1.535s-1.31-1.673-1.572-1.255c-.262.419-.917.976-1.44 1.674-.524.697-1.31.976-1.18 1.952.131.976-.13 5.02-.13 5.02a5.895 5.895 0 0 1-1.966-3.765c0-.836-1.441-3.207-1.441-3.207 1.179-1.255 2.227-2.93 1.834-3.069-.393-.14-3.275-1.255-3.275-1.255-1.965-.697-2.882-.14-3.275.279a293.256 293.256 0 0 0-4.716-.836l3.275-2.79a4.262 4.262 0 0 0 .524-3.068c-1.703-1.255-1.966-1.952-1.966-1.952l-1.965-1.396c-1.44-.696-1.44-2.789-1.44-3.346a5.329 5.329 0 0 0-1.573-2.51 20.634 20.634 0 0 0-2.49-1.534c-1.178-1.396-2.226-.28-2.226-.977-1.834-.976-3.668-.698-3.93-.14a12.229 12.229 0 0 1-1.834 1.953s1.572.837 1.572 1.255c-.262 1.394-1.704-.418-2.097-.14a3.807 3.807 0 0 1-1.965 1.116c-.261 2.371-.261 4.603 0 5.021 1.31.977-.13 3.068 0 4.184a7.872 7.872 0 0 0 1.442 2.79 2.801 2.801 0 0 0 2.75 1.534 12.79 12.79 0 0 0 2.359 1.255c2.096-.977 1.703.557 2.49.976.785.418 3.406-.419 3.406-.419s-1.049 1.953-1.442 1.953c-.262 1.813-1.834 2.092-2.227 3.207-.393 1.116 3.013 1.256 3.013 1.256.917.976 1.572 1.674 1.31 2.092-.262.418-1.572.697-2.358 1.394-.13 1.395-1.048 1.534-1.572 2.232-.524.698-2.358.557-2.358.557s-1.965.42-1.834.837c.13.419-.656 1.674-.262 2.232a26.065 26.065 0 0 1 1.834 4.323c-1.441-.976-1.703-1.534-2.883-.976-1.571-1.115-3.143-1.255-2.488-1.813.655-.558 1.44-.976 1.44-1.673q0-.698.525-4.464l-2.358.14q-.262-.836-3.407-2.092l-3.93-.837c0 1.813-.655 1.953-.655 1.953l-2.096-.558a3.121 3.121 0 0 1-.393 2.789c-.262.419 1.623 2.51 1.623 2.51l-3.326.559a6.515 6.515 0 0 0-3.144-.977 19.26 19.26 0 0 1-3.275-.14 17.908 17.908 0 0 1-2.358.698 19.09 19.09 0 0 0-2.358.28c-1.835-.559-2.621 0-3.538-.28-.917-.279-2.882-.837-2.882-.837l-.917-2.789a13.006 13.006 0 0 1-4.978.558l-1.442-2.51s-2.489-.28-2.489-.838c0-.557.263-2.37.263-2.37l-1.31-1.813s-2.097-.698-2.49-.418a4.91 4.91 0 0 1-2.227 1.115c-1.048.14-1.572.28-3.406.558-1.834.279-2.75-.418-3.406.279-.656.697-2.751 3.347-2.751 3.347 1.703.558 1.178 1.116 1.572 1.255s1.571-.278 2.096-.278c1.572-.977 2.096-2.232 2.358-1.814q.262.418 3.406 0l4.193-1.534-4.848 3.348a14.307 14.307 0 0 1-2.096 1.115 6.148 6.148 0 0 1-2.49-.14l-1.44 2.79 1.179 2.092a17.623 17.623 0 0 1-.262 3.486c-.262.418-1.441 1.674-1.31 2.51q.13.838-1.31-2.092a5.94 5.94 0 0 0 1.965-2.789l-1.31-2.789c-1.441.558-2.62-.278-2.62.14a14.99 14.99 0 0 1-.524 2.092s-.132-1.814-.132-2.232-1.44-1.255-1.833-1.116q-.394.14-1.703-1.255c-.525-1.394-2.097-1.394-3.145-.837a18.913 18.913 0 0 1-2.227.977c-1.31-.28-.131.419-3.014.278a27.407 27.407 0 0 0-4.846 0 6.511 6.511 0 0 1-3.145-.418c-.393-.14-3.274-.697-3.668-.837a19.044 19.044 0 0 0-2.62-.836c-.393 0-2.227-.698-1.965-1.116 1.703-.419 1.441-1.953 1.965-1.953a6.521 6.521 0 0 0 3.275-.557c2.097.837 2.227-1.674 2.227-1.674a6.53 6.53 0 0 0-2.227-3.486 29.39 29.39 0 0 0-3.275-2.093l-2.489.698s-1.441.836-2.096.279c-.655-.558-1.572-.419-1.965-.837s-.917-.14-2.096-.977a12.07 12.07 0 0 1-2.227-2.23c-.655-.698-3.276-.977-4.061-1.535a13.775 13.775 0 0 1-3.014-2.51c-1.048-1.256-2.096-2.929-3.013-3.208a39.202 39.202 0 0 0-5.24-.558c-.525 0-1.573 1.255-1.573 1.255a20.469 20.469 0 0 1-3.013 1.814c-.785.418-2.62-.28-2.62-.28a4.386 4.386 0 0 1 1.31-1.813 14.281 14.281 0 0 1 1.835-4.323l-3.013.28-3.145 1.951c-.262 1.674-.655 2.93-1.18 3.069-.523.14-2.488-.698-2.62-1.814a9.783 9.783 0 0 1 0-3.905c.394-1.255.525-4.044-.13-5.02-.656-.976-1.965-2.51-1.965-2.51-1.049 1.952-1.834 2.79-1.049 3.207.263 1.256-2.095.697-2.358 1.256a23.24 23.24 0 0 1-3.799 2.928c-2.227-1.534-2.75-1.116-4.061-.976a14.336 14.336 0 0 0-4.061 1.255 19.143 19.143 0 0 0-2.359 1.813s1.049-2.51 2.752-3.208a31.758 31.758 0 0 1 5.24-1.394c.787-.14 2.752-.279 2.752-.697a15.574 15.574 0 0 0-.787-2.371s-.917 1.394-1.441 1.394a19.371 19.371 0 0 1-3.275-.837 6.177 6.177 0 0 1-1.572 1.395 4.363 4.363 0 0 0-3.799.419 7.606 7.606 0 0 1-2.096.418c-2.097 0-2.227-.976-3.013-.418-.787.557-.787 1.394-1.703 1.534s-2.228 0-2.62.279c-.394.278-2.621.418-2.228.278s3.275-2.23 3.275-2.23l-1.179-1.675a12.375 12.375 0 0 1-3.013 1.814l-2.49-.837c-1.964.418-3.799.837-3.93 1.255-.654 1.673-2.357 1.953-1.964 2.232.392.278 1.44 3.486 1.44 3.486l-2.75-3.486s-1.966 0-2.62-.837-2.882-4.463-2.882-4.463l-.394-2.37c-.524-1.117-1.44-1.395-1.965-1.814-.524-.418-1.834-.418-2.62-.837s-2.62-1.952-2.882-2.929a3.45 3.45 0 0 0-1.441-1.673s-.132-2.51-.524-2.79a29.825 29.825 0 0 0-5.372-.697 4.307 4.307 0 0 1-2.62-1.255 25.29 25.29 0 0 0-1.703-2.232c-.524-.557-1.834-.278-3.013-1.534a8.935 8.935 0 0 1-1.703-2.65s-1.703-2.231-1.965-2.65c-.262-.418-1.965-.976-1.965-.976-1.441 0-1.835-1.115-2.62-1.255-.786-.14-3.144-.837-3.144-.837.785-1.255-.394-1.673 0-2.37.393-.698 2.226-1.116 2.226-1.116l-1.571-1.813a21.535 21.535 0 0 0-3.668-1.255l.655-2.232c-1.18-1.116-3.67.14-4.324.14-.524-1.395 1.18-1.674 1.572-1.813q.393-.14.524-2.65c-.524-.837-5.633.976-7.205.836z" fill="#363636"/><circle id="Oval-4" class="cls-2" cx="205.81" cy="234.917" r="3"/><circle id="Oval-4-2" data-name="Oval-4" class="cls-2" cx="577.152" cy="321.619" r="3"/><circle id="Oval-4-3" data-name="Oval-4" class="cls-2" cx="189.931" cy="362.963" r="3"/></g></g></g></g></g></g></svg>