<svg width="154" height="34" xmlns="http://www.w3.org/2000/svg"><path d="M138.461.816L154 31.354h-9.24l-6.16-12.32-6.268 12.32h-9.24L138.462.816zm5.329 2.526h1.201v3.342h.6V3.342h1.202v-.508h-3.003v.508zm3.08 3.342h.6l.17-3.08 1.032 3.003h.508l1.032-3.003.169 3.08h.539l-.246-3.85h-.863l-.94 2.91-.939-2.91h-.862l-.2 3.85zM116.932 33.11L132.44 2.572h-9.24l-6.16 12.32-6.268-12.32h-9.24l15.4 30.538zM26.858 10.78h8.562V31.4h9.687V10.78h8.485V2.572H26.858v8.208zm-12.32 10.549c1.062.2 3.773.74 3.08 2.187-.863 1.71-7.038.308-8.855-.493A14.923 14.923 0 0 1 5.22 20.99L0 27.104c5.082 3.403 8.285 4.774 14.769 4.743 6.483-.03 12.243-2.356 12.658-8.732.57-8.824-7.376-8.978-13.567-10.672-.97-.262-2.726-.57-2.418-1.925.231-1.047 2.587-.862 3.496-.77a16.124 16.124 0 0 1 7.115 2.695l4.712-6.437a20.266 20.266 0 0 0-13.244-4.004c-5.944.17-11.519 2.541-11.95 9.24-.447 7.346 7.361 8.901 12.936 10.025l.03.062zm66.743 7.469l-5.005-7.238a9.918 9.918 0 0 0 2.202-1.386 8.686 8.686 0 0 0 3.311-5.713 9.533 9.533 0 0 0-3.357-9.24 14.245 14.245 0 0 0-8.516-2.557H54.824v28.737h9.61V23.1c2.417 0 1.91-.231 2.68.924l4.62 6.915c.153.277.153.4.554.4h16.678l6.514-12.32 6.36 12.32h9.04L95.48.77 81.281 28.798zm-12.32-12.52h-4.62V10.64h4.035c1.771 0 3.927.447 3.865 2.65-.061 2.201-1.262 2.925-3.264 2.925l-.016.062z" fill="#1C1C1C" fill-rule="evenodd"/></svg>