<svg width="154" height="33" xmlns="http://www.w3.org/2000/svg"><path d="M24.469 1.21v17.652c.021 2.931-.668 5.059-2.068 6.383-1.4 1.325-3.615 1.987-6.644 1.987s-5.244-.662-6.644-1.987c-1.4-1.324-2.09-3.452-2.068-6.383V.462H1.15C.63.44.37.69.37 1.21v17.944c.065 4.864 1.487 8.31 4.266 10.34 2.78 2.03 6.48 3.013 11.105 2.948 4.625.065 8.332-.917 11.122-2.948 2.79-2.03 4.218-5.476 4.283-10.34V.462H25.25c-.52-.022-.781.228-.781.749zm85.392 4.365c.238 0 .423-.044.553-.13a.983.983 0 0 0 .326-.391L112.433.82c.087-.239 0-.358-.26-.358h-23.71c-1.085 0-1.866.173-2.344.52-.478.348-.717.902-.717 1.662v27.389c0 .63.18 1.096.538 1.4.358.304.96.456 1.807.456h22.114c.238 0 .423-.043.553-.13a.983.983 0 0 0 .326-.39l1.693-4.202c.087-.26 0-.39-.26-.39H91.98v-5.57c-.022-.955.271-1.66.88-2.117.607-.456 1.617-.684 3.028-.684h8.76c.24 0 .424-.043.554-.13a.983.983 0 0 0 .326-.39l1.629-4.04c.086-.26 0-.39-.261-.39H91.981V5.575h17.88zm-41.752 9.737c1.281-.673 2.21-1.606 2.785-2.8.575-1.195.863-2.552.863-4.071-.109-3.387-1.298-5.591-3.567-6.612C65.922.81 63.267.353 60.228.462H46.842c-1.107 0-1.9.173-2.377.52-.478.348-.706.902-.684 1.662v27.389c0 .63.18 1.096.537 1.4.359.304.961.456 1.808.456h16.48c3.17.022 5.72-.646 7.653-2.003 1.932-1.357 2.93-3.588 2.996-6.692 0-1.911-.418-3.577-1.254-5-.836-1.422-2.133-2.382-3.892-2.882zM50.262 5.444h10.454c1.694 0 2.86.331 3.501.994.64.662.95 1.677.928 3.045.022 1.368-.287 2.388-.928 3.061-.64.673-1.807 1.01-3.5 1.01H50.261v-8.11zm11.66 21.462h-11.66v-5.83c-.022-.955.277-1.66.896-2.116.618-.456 1.633-.684 3.045-.684h7.718c1.824 0 3.078.358 3.762 1.075.684.716 1.004 1.802.96 3.256.044 1.433-.276 2.508-.96 3.225-.684.716-1.938 1.074-3.762 1.074zm91.644 4.43L146.5 19.253c1.802-.413 3.3-1.308 4.494-2.687 1.195-1.379 1.813-3.523 1.857-6.432-.044-3.734-1.162-6.296-3.355-7.686-2.193-1.39-5.265-2.052-9.216-1.986h-13.45c-1.086 0-1.868.173-2.346.52-.477.348-.716.902-.716 1.662V31.14c0 .5.26.75.782.75h5.731v-9.185c-.021-.955.277-1.66.896-2.117.619-.456 1.634-.684 3.045-.684h5.83l6.35 11.464a.983.983 0 0 0 .326.39c.13.088.315.131.554.131h5.992c.196-.022.31-.092.342-.211a.423.423 0 0 0-.049-.342zm-12.31-16.317H130.28V5.51h10.976c1.997 0 3.338.397 4.022 1.19.684.792 1.004 1.98.96 3.565.044 1.607-.276 2.801-.96 3.583-.684.781-2.025 1.172-4.022 1.172z" fill="#1C1C1C" fill-rule="nonzero"/></svg>