<svg xmlns="http://www.w3.org/2000/svg" width="62" height="21"><g fill="#FFF"><path d="M2.658 11.662c0-2.055 1.768-3.157 3.185-3.157 1.45 0 3.185 1.126 3.185 3.157v8.713h2.657v-8.267c0-4.43-3.423-6.202-5.861-6.202-1.632 0-2.546.578-3.17.929V0H0v20.375h2.655l.003-8.713zm18.194 8.713c3.755 0 5.501-3.087 5.575-3.218l.169-.305-2.072-1.147-.232.277c-.615.737-1.643 1.971-3.44 1.971-1.727 0-3.563-1.254-3.563-3.58V14.2l9.642-.009v-1.019c0-4.487-2.384-7.274-6.22-7.274-2.978 0-6.146 2.38-6.146 6.774v.93c0 3.926 2.645 6.774 6.287 6.774zM17.3 11.662c.135-2.055 1.472-3.411 3.41-3.411 1.985 0 3.403 1.381 3.55 3.404l-6.96.007zm39.027 8.713h.164c3.37-.086 5.383-1.727 5.383-4.39 0-1.576-.93-3.426-3.537-3.887l-2.243-.447c-1.085-.255-1.819-.637-2.118-1.125a1.076 1.076 0 0 1-.116-.864c.288-1.167 1.554-1.411 2.567-1.411 1.675 0 2.56 1.045 2.893 1.439l.084.096.204.223 1.988-1.283-.194-.294c-.803-1.23-2.82-2.535-4.975-2.535-3.376 0-5.142 2.089-5.142 4.152 0 1.478 1.057 3.29 4.037 3.935l1.805.32c.992.213 2.123.602 2.062 1.708-.093 1.614-1.88 1.783-2.645 1.783-1.957 0-2.75-1.019-3.284-1.701l-.203-.255-2.084 1.377.174.288c.062.117 1.774 2.871 5.18 2.871zM45.292 5.865h2.697v14.51h-2.697zM45.302 0h2.676v2.658h-2.675zm-13.43 20.323l5.293-7.206-5.223-7.202h-3.13s4.344 6.063 5.155 7.204l-5.156 7.204h3.062z"/><path d="M37.484 12.672c1.272-1.783 4.833-6.757 4.833-6.757h-3.132l-3.3 4.553 1.599 2.204zm0 .892l-.294.397-1.305 1.775 3.37 4.587h3.062z" opacity=".5"/></g></svg>