<?xml version="1.0" encoding="UTF-8"?><svg width="379" height="369" viewBox="0 0 379 369" xmlns="http://www.w3.org/2000/svg" xmlns:xlink="http://www.w3.org/1999/xlink"><svg width="45" height="46" viewBox="0 0 45 46" id="arrow-icon" x="50" y="319" xmlns="http://www.w3.org/2000/svg"><path d="M44.554 9.95a1.408 1.408 0 0 1-1.993-.105l-3.97-4.443C36.985 25.995 16.245 41.308 1.756 45.476c-.126.039-.256.058-.388.056a1.408 1.408 0 0 1-.387-2.76C14.57 38.886 33.98 24.68 35.732 5.677l-3.745 4.168a1.416 1.416 0 1 1-2.112-1.887L36.21.918a1.464 1.464 0 0 1 2.112 0l6.336 7.04a1.408 1.408 0 0 1-.105 1.992z" fill="#FFF" fill-rule="nonzero"/></svg><svg width="82" height="99" viewBox="0 0 82 99" id="award-best-sms" y="136" xmlns="http://www.w3.org/2000/svg"><defs><path id="ba" d="M0 .691h81.32v81.32H0z"/><path id="bc" d="M1.07.367h28.724V15H1.07z"/></defs><g style="mix-blend-mode:multiply" fill="none" fill-rule="evenodd"><g transform="translate(0 15.104)"><mask id="bb" fill="#fff"><use xlink:href="#ba"/></mask><path d="M40.66 10.903C23.87 10.903 10.21 24.56 10.21 41.35c0 16.788 13.66 30.447 30.449 30.447 16.79 0 30.448-13.659 30.448-30.447 0-16.79-13.658-30.448-30.448-30.448m0 71.108C18.24 82.011 0 63.769 0 41.351 0 18.931 18.24.691 40.66.691c22.42 0 40.66 18.24 40.66 40.66 0 22.418-18.24 40.66-40.66 40.66" fill="#464648" mask="url(#bb)"/></g><g transform="translate(25 83.437)"><mask id="bd" fill="#fff"><use xlink:href="#bc"/></mask><path d="M15.432 15c-4.913 0-9.745-.851-14.362-2.533L5.475.367a29.224 29.224 0 0 0 19.915 0l4.404 12.1A41.835 41.835 0 0 1 15.432 15" fill="#B6B7B9" mask="url(#bd)"/></g><path d="M53.553 10.05c.04 1.833-.27 4.366-1.616 5.931-.6.694-1.377 1.172-2.34 1.442.91-2.278 1.651-4.987 2.123-7.535l1.833.162zM45.903 9.39a5.48 5.48 0 0 1 .277 1.704 5.508 5.508 0 0 1-2.278 4.455l-1.24-3.808 3.241-2.352z" fill="#FEFEFE"/><path fill="#B6B7B9" d="M45.903 9.39l-3.241 2.351 1.24 3.808h-.007l-3.235-2.351-3.242 2.351 1.24-3.808-3.241-2.352h4.003l1.24-3.815L41.9 9.39z"/><path fill="#FEFEFE" d="M43.902 15.55v.006l-.007-.006zM40.66 13.197l3.235 2.352a5.44 5.44 0 0 1-3.235 1.058 5.475 5.475 0 0 1-3.242-1.058l3.242-2.352zM40.66 5.575L39.42 9.39h-4.004a5.504 5.504 0 0 1 5.244-3.815"/><path d="M31.723 17.423c-.91-2.278-1.652-4.986-2.124-7.535l-1.833.162c-.04 1.833.27 4.367 1.618 5.932.6.693 1.375 1.171 2.338 1.441m20.214-1.441c1.348-1.565 1.658-4.099 1.618-5.932l-1.835-.162c-.47 2.549-1.212 5.257-2.122 7.535.964-.27 1.739-.748 2.339-1.441m5.17-7.887c.093.66.868 6.558-2.367 10.305-1.705 1.982-4.145 2.987-7.238 2.987v-.014c-.027.034-.047.067-.075.094-.538.681-2.372 2.311-4.373 3.095.511.356.828.828.828 1.346 0 .58-.39 1.107-1.01 1.47a.341.341 0 0 0 .337.147s4.508.533 4.043 3.655c-.007.053-.02.1-.027.153l.06-.038s1.2.038 1.497.275c.358.29.662 2.258 0 2.562-2.305 1.045-8.122 1.025-8.122 1.025s-5.823.02-8.121-1.025c-.66-.304-.357-2.272 0-2.562.296-.237 1.496-.275 1.496-.275l.062.038c-.008-.053-.022-.1-.028-.153-.465-3.122 4.044-3.655 4.044-3.655a.343.343 0 0 0 .337-.147c-.62-.363-1.011-.89-1.011-1.47 0-.518.316-.99.83-1.346-2.004-.784-3.836-2.414-4.376-3.095-.026-.027-.046-.06-.073-.094v.014c-3.093 0-5.535-1.005-7.245-2.987-3.23-3.747-2.455-9.645-2.36-10.305.129-.87.837-1.53 1.712-1.603l3.195-.284-.04-.668c-.338-.04-.715-.122-.863-.262-.379-.363-.749-2.871-.08-3.276.613-.37 1.481-.674 2.426-.91C31.831.647 34.13.378 36.211.223l.217-.021C38.698.04 40.659 0 40.659 0s.494.013 1.267.04a91.69 91.69 0 0 1 2.966.162l.215.021c2.084.155 4.382.424 5.649.869.943.236 1.813.54 2.426.91.667.405.297 2.913-.081 3.276-.147.14-.525.222-.868.262-.007.217-.02.438-.034.668l3.202.284a1.883 1.883 0 0 1 1.705 1.603M45.904 9.388a5.507 5.507 0 0 0-5.245-3.813 5.504 5.504 0 0 0-5.243 3.813 5.498 5.498 0 0 0-.277 1.707 5.51 5.51 0 0 0 2.278 4.455 5.474 5.474 0 0 0 3.242 1.057c1.214 0 2.327-.39 3.235-1.057l.009.007v-.007a5.514 5.514 0 0 0 2.276-4.455c0-.6-.1-1.167-.275-1.707" fill="#B6B7B9"/><path d="M38.658 11.742l-1.24 3.808a5.51 5.51 0 0 1-2.278-4.455c0-.6.101-1.167.276-1.705l3.242 2.352zM29.6 9.888c.471 2.548 1.213 5.257 2.123 7.535-.965-.27-1.738-.748-2.338-1.442-1.349-1.565-1.659-4.098-1.619-5.931l1.834-.162z" fill="#FEFEFE"/><path fill="#B6B7B9" d="M27.015 48.775h-1.27l-1.434-4.728-1.433 4.728h-1.27l-2.08-7.793h1.588l1.204 4.913 1.421-4.913h1.139l1.423 4.913 1.215-4.913h1.587zM30.08 48.776h1.522v-7.794H30.08zM38.026 48.775l-3.087-4.783v4.783h-1.521v-7.793h1.358l3.085 4.773v-4.773h1.522v7.793zM45.809 48.775l-3.087-4.783v4.783H41.2v-7.793h1.358l3.086 4.773v-4.773h1.521v7.793zM48.983 48.775v-7.793h5.134v1.358h-3.612v1.827h3.075v1.357h-3.075v1.895h3.611v1.356zM58.56 42.34h-1.433v2.056h1.434c.668 0 1.105-.426 1.105-1.028 0-.602-.437-1.028-1.105-1.028zm1.182 6.435l-1.521-3.107h-1.094v3.107h-1.521v-7.792h3.053c1.587 0 2.528 1.082 2.528 2.385 0 1.095-.666 1.773-1.423 2.047l1.74 3.36h-1.762z"/><path d="M26.198 57.557h.799c.428 0 .656-.228.656-.606 0-.37-.228-.605-.656-.605h-.799c-.028 0-.041.013-.041.042v1.128c0 .028.013.041.041.041zm.742-2.018c.4 0 .635-.215.635-.57 0-.357-.235-.563-.635-.563h-.742c-.028 0-.041.013-.041.041v1.049c0 .028.013.043.041.043h.742zm-1.834-1.912c0-.043.03-.071.072-.071h1.89c1.055 0 1.548.522 1.548 1.291 0 .527-.243.855-.563 1.034v.015c.32.121.648.52.648 1.098 0 .955-.634 1.412-1.683 1.412h-1.84c-.041 0-.072-.029-.072-.07v-4.709zM29.454 53.628c0-.042.029-.072.072-.072h3.11c.043 0 .072.03.072.072v.763c0 .043-.029.072-.072.072h-2.09c-.028 0-.043.013-.043.041v.964c0 .028.015.043.043.043h1.74c.044 0 .072.028.072.07v.757c0 .043-.028.071-.072.071h-1.74c-.028 0-.043.014-.043.044v1.005c0 .028.015.043.043.043h2.09c.043 0 .072.028.072.072v.763c0 .042-.029.07-.072.07h-3.11c-.043 0-.072-.028-.072-.07v-4.708zM33.247 57.822a.089.089 0 0 1-.007-.122l.542-.62c.028-.037.071-.037.106-.007.322.255.757.499 1.27.499.507 0 .792-.235.792-.577 0-.287-.172-.465-.75-.543l-.255-.035c-.985-.135-1.533-.6-1.533-1.455 0-.892.67-1.485 1.718-1.485.642 0 1.242.193 1.647.508.043.028.051.057.015.107l-.435.648c-.029.037-.065.043-.1.022-.37-.242-.727-.372-1.127-.372-.428 0-.65.222-.65.528 0 .279.2.457.757.535l.256.035c.999.137 1.527.594 1.527 1.47 0 .877-.648 1.527-1.905 1.527-.755 0-1.49-.3-1.868-.663M38.708 58.406c-.041 0-.071-.028-.071-.07v-3.803c0-.028-.014-.043-.044-.043h-1.226a.066.066 0 0 1-.07-.07v-.792c0-.043.028-.072.07-.072h3.588c.043 0 .072.029.072.072v.792c0 .041-.029.07-.072.07h-1.227c-.028 0-.043.015-.043.043v3.803c0 .042-.028.07-.07.07h-.907zM42.977 57.822a.089.089 0 0 1-.007-.122l.542-.62c.028-.037.072-.037.107-.007.321.255.756.499 1.27.499.506 0 .791-.235.791-.577 0-.287-.171-.465-.75-.543l-.255-.035c-.985-.135-1.533-.6-1.533-1.455 0-.892.67-1.485 1.718-1.485.642 0 1.242.193 1.647.508.043.028.052.057.015.107l-.435.648c-.028.037-.065.043-.1.022-.37-.242-.727-.372-1.127-.372-.428 0-.65.222-.65.528 0 .279.2.457.757.535l.257.035c.998.137 1.526.594 1.526 1.47 0 .877-.648 1.527-1.905 1.527-.755 0-1.49-.3-1.868-.663M47.453 53.628c0-.042.029-.072.072-.072h.848c.057 0 .094.022.114.072l1.228 2.766h.028l1.205-2.766c.022-.05.059-.072.114-.072h.835c.043 0 .071.03.071.072v4.708c0 .042-.028.07-.071.07h-.805c-.044 0-.072-.028-.072-.07v-2.733h-.028l-.899 2.048c-.028.063-.071.092-.136.092h-.492c-.065 0-.107-.029-.135-.092l-.9-2.048h-.028v2.733c0 .042-.029.07-.07.07h-.807c-.043 0-.072-.028-.072-.07v-4.708zM52.657 57.822a.089.089 0 0 1-.006-.122l.541-.62c.029-.037.072-.037.107-.007.322.255.757.499 1.27.499.506 0 .791-.235.791-.577 0-.287-.171-.465-.75-.543l-.255-.035c-.984-.135-1.533-.6-1.533-1.455 0-.892.67-1.485 1.718-1.485.642 0 1.242.193 1.647.508.044.028.052.057.015.107l-.435.648c-.028.037-.065.043-.1.022-.37-.242-.727-.372-1.127-.372-.428 0-.65.222-.65.528 0 .279.2.457.757.535l.257.035c.998.137 1.526.594 1.526 1.47 0 .877-.648 1.527-1.904 1.527-.756 0-1.49-.3-1.869-.663M25.181 66.376a.089.089 0 0 1-.006-.122l.541-.62c.029-.037.072-.037.107-.007.322.255.757.499 1.27.499.507 0 .792-.236.792-.577 0-.287-.172-.465-.75-.544l-.255-.034c-.985-.136-1.534-.6-1.534-1.456 0-.891.67-1.484 1.719-1.484.641 0 1.241.193 1.646.508.044.028.052.056.015.106l-.435.649c-.028.037-.065.043-.1.022-.37-.242-.726-.372-1.126-.372-.429 0-.65.221-.65.528 0 .279.2.457.756.535l.257.035c.998.137 1.527.593 1.527 1.47s-.649 1.527-1.905 1.527c-.755 0-1.49-.3-1.869-.663M29.658 62.181c0-.041.028-.071.071-.071h3.11c.044 0 .072.03.072.072v.763c0 .043-.028.072-.072.072h-2.09c-.028 0-.043.013-.043.041v.964c0 .028.015.043.043.043h1.74c.044 0 .072.028.072.07v.756c0 .044-.028.072-.072.072h-1.74c-.028 0-.043.014-.043.044v1.004c0 .029.015.044.043.044h2.09c.044 0 .072.028.072.071v.764c0 .041-.028.07-.072.07h-3.11c-.043 0-.071-.028-.071-.07V62.18zM33.557 64.535c0-.748.028-.998.136-1.311.255-.792.877-1.192 1.725-1.192.82 0 1.42.4 1.69 1.077.022.036.009.071-.035.086l-.778.349c-.042.021-.078.008-.098-.035-.137-.314-.365-.55-.772-.55-.378 0-.62.2-.727.534-.056.179-.08.35-.08 1.042 0 .692.024.864.08 1.042.107.335.349.535.727.535.407 0 .635-.235.772-.548.02-.044.056-.059.098-.037l.778.35c.044.013.057.048.035.085-.27.678-.87 1.076-1.69 1.076-.848 0-1.47-.398-1.725-1.191-.108-.313-.136-.563-.136-1.312M37.763 65.177v-2.995c0-.043.028-.072.071-.072h.905c.044 0 .072.029.072.072v3.023c0 .579.322.907.813.907.485 0 .807-.328.807-.906v-3.024c0-.043.028-.072.07-.072h.907c.043 0 .07.029.07.072v2.995c0 1.205-.77 1.862-1.854 1.862-1.091 0-1.861-.657-1.861-1.862M44.985 63.615c0-.363-.256-.6-.656-.6h-.855c-.029 0-.044.015-.044.044v1.12c0 .028.015.043.044.043h.855c.4 0 .656-.235.656-.607zm.079 3.345c-.065 0-.087-.021-.107-.072l-.835-1.775h-.648c-.029 0-.044.014-.044.042v1.733c0 .044-.028.072-.071.072h-.905c-.044 0-.072-.028-.072-.072v-4.706c0-.044.028-.072.072-.072h1.931c.992 0 1.649.62 1.649 1.505 0 .62-.329 1.113-.864 1.348l.957 1.912c.022.042 0 .085-.052.085h-1.011zM46.83 62.181c0-.041.028-.071.071-.071h.905c.044 0 .072.03.072.072v4.708c0 .041-.029.07-.072.07h-.905c-.043 0-.072-.028-.072-.07V62.18zM49.875 66.96c-.042 0-.072-.028-.072-.07v-3.803c0-.028-.013-.043-.043-.043h-1.227a.066.066 0 0 1-.07-.07v-.792c0-.043.028-.072.07-.072h3.588c.044 0 .072.029.072.072v.792c0 .041-.028.07-.072.07h-1.226c-.029 0-.044.015-.044.043v3.803c0 .042-.028.07-.07.07h-.906zM53.88 66.96c-.041 0-.071-.028-.071-.07v-1.863l-1.433-2.845c-.015-.037 0-.072.05-.072h.926c.05 0 .087.022.107.072l.878 1.768h.022l.877-1.768c.021-.05.056-.072.106-.072h.899c.05 0 .071.035.05.072l-1.434 2.845v1.863c0 .042-.028.07-.071.07h-.905zM28.576 72.226c0-.391-.263-.656-.707-.656h-.798c-.028 0-.042.015-.042.043v1.22c0 .028.014.042.042.042h.798c.444 0 .707-.257.707-.649zm-2.525 3.289a.068.068 0 0 1-.071-.072v-4.707c0-.043.03-.073.071-.073h1.884c1.055 0 1.69.637 1.69 1.563 0 .914-.642 1.555-1.69 1.555h-.864c-.028 0-.042.014-.042.042v1.62c0 .043-.03.072-.073.072h-.905zM32.897 72.169c0-.363-.257-.6-.657-.6h-.855c-.029 0-.044.015-.044.043v1.12c0 .029.015.044.044.044h.855c.4 0 .657-.235.657-.607zm.078 3.345c-.065 0-.087-.022-.107-.072l-.835-1.775h-.648c-.029 0-.044.014-.044.042v1.733c0 .044-.028.072-.071.072h-.905c-.043 0-.072-.028-.072-.072v-4.706c0-.044.029-.072.072-.072h1.932c.991 0 1.648.62 1.648 1.505 0 .62-.328 1.113-.864 1.348l.957 1.912c.022.042 0 .085-.051.085h-1.012zM37.252 74.13c.057-.171.078-.406.078-1.041 0-.635-.021-.87-.078-1.04-.107-.337-.363-.536-.763-.536s-.657.199-.764.535c-.056.17-.078.406-.078 1.04 0 .636.022.87.078 1.042.107.335.364.535.764.535s.656-.2.763-.535m-2.532.285c-.108-.335-.136-.605-.136-1.327 0-.72.028-.991.136-1.326.249-.784.92-1.177 1.769-1.177.848 0 1.52.394 1.768 1.177.108.335.137.606.137 1.326 0 .722-.029.992-.137 1.327-.248.785-.92 1.177-1.768 1.177-.849 0-1.52-.392-1.769-1.177M40.28 74.58h.55c.483 0 .777-.144.898-.535.05-.144.079-.329.079-.955 0-.629-.029-.814-.079-.957-.121-.391-.415-.535-.898-.535h-.55c-.028 0-.041.015-.041.043v2.897c0 .029.013.042.041.042zm-1.092-3.845a.07.07 0 0 1 .072-.072h1.805c.849 0 1.44.365 1.677 1.092.085.272.127.541.127 1.335 0 .79-.042 1.061-.127 1.333-.237.727-.828 1.092-1.677 1.092H39.26a.068.068 0 0 1-.072-.072v-4.708zM43.658 73.731v-2.995c0-.043.028-.072.072-.072h.905c.043 0 .071.029.071.072v3.023c0 .579.322.907.814.907.485 0 .806-.328.806-.907v-3.023c0-.043.029-.072.07-.072h.907c.043 0 .07.029.07.072v2.995c0 1.205-.77 1.862-1.853 1.862-1.092 0-1.862-.657-1.862-1.862M48.149 73.089c0-.748.028-.998.136-1.312.255-.791.877-1.191 1.725-1.191.82 0 1.42.4 1.69 1.076.022.037.009.072-.035.087l-.778.348c-.042.022-.078.009-.098-.035-.137-.313-.365-.55-.772-.55-.378 0-.62.2-.727.535-.056.179-.08.35-.08 1.042 0 .692.024.863.08 1.042.107.335.349.535.727.535.407 0 .635-.235.772-.549.02-.043.056-.058.098-.036l.778.35c.044.013.057.048.035.085-.27.678-.87 1.076-1.69 1.076-.848 0-1.47-.398-1.725-1.191-.108-.314-.136-.564-.136-1.312M53.36 75.514c-.041 0-.071-.028-.071-.07v-3.803c0-.029-.013-.044-.043-.044h-1.227a.066.066 0 0 1-.07-.07v-.791c0-.044.028-.072.07-.072h3.588c.044 0 .072.028.072.072v.791c0 .042-.028.07-.072.07h-1.226c-.029 0-.044.016-.044.044v3.803c0 .042-.028.07-.07.07h-.906z" fill="#464648"/><path d="M30.96 93.009a.17.17 0 0 1 .07-.115l2.636-2.062c.285-.217.462-.445.527-.755.083-.397-.093-.738-.508-.825-.406-.087-.704.11-.854.557-.012.053-.053.073-.113.05l-.937-.362c-.051-.02-.068-.07-.048-.122.236-.815 1.06-1.398 2.215-1.155 1.146.242 1.688 1.129 1.483 2.1-.12.574-.443.975-.915 1.327l-1.97 1.53-.003.017 2.098.443c.053.01.082.053.07.107l-.183.873c-.012.052-.053.08-.107.068l-3.565-.75c-.052-.01-.08-.053-.07-.106l.173-.82zM38.089 94.09c.315.022.538-.098.648-.371.063-.159.093-.337.183-1.677.089-1.34.084-1.52.04-1.687-.071-.283-.278-.433-.591-.453-.325-.022-.54.098-.649.371-.065.159-.095.337-.183 1.677-.09 1.338-.085 1.52-.042 1.685.072.285.27.433.594.455m-1.839-2.227c.09-1.356.154-1.633.262-1.896.303-.765.965-1.19 1.927-1.127.961.065 1.56.573 1.76 1.373.071.276.098.557.006 1.914-.09 1.358-.153 1.633-.261 1.897-.304.766-.964 1.191-1.925 1.126-.964-.063-1.562-.573-1.76-1.372-.074-.275-.099-.558-.009-1.915M42.796 90.366l-.017.002-.923.736c-.052.039-.097.025-.102-.046l-.083-1.115a.148.148 0 0 1 .055-.132l.97-.812a.253.253 0 0 1 .158-.066l1.007-.074c.053-.003.093.03.096.084l.435 5.933c.004.055-.03.092-.085.097l-1.078.078c-.053.005-.092-.03-.097-.083l-.336-4.602zM48.41 89.231l-.006-.026-1.261.275c-.035.007-.049.028-.04.063l.136.625c.01.053-.016.097-.07.108l-.978.212c-.053.012-.095-.015-.107-.068l-.363-1.665c-.01-.053.017-.097.07-.107l3.587-.78c.053-.013.095.015.106.069l.2.916a.366.366 0 0 1 .005.11l-.86 5.217c-.011.066-.043.091-.105.106l-1.101.239c-.054.011-.087-.019-.075-.085l.861-5.209zM10.987 41.62c.032.013.044.043.03.076l-.15.345c-.018.043-.046.063-.091.063l-2.904.017-.008.017 1.973 2.118c.032.032.035.065.017.108l-.15.345c-.013.034-.045.044-.077.03L6.12 43.211c-.032-.015-.043-.045-.03-.077l.147-.333c.013-.033.043-.045.076-.032l2.514 1.095.006-.015-1.596-1.765c-.039-.043-.042-.076-.022-.123l.093-.212c.024-.055.05-.073.107-.075l2.38-.031.007-.015-2.514-1.095c-.031-.015-.043-.045-.03-.079l.145-.333c.015-.032.045-.045.077-.032l3.508 1.53zM9.26 45.842c.033.01.047.038.04.07l-.68 2.275c-.01.032-.04.047-.074.037l-.348-.105c-.036-.01-.05-.038-.04-.07l.538-1.8c.007-.024-.002-.037-.024-.045l-1.111-.332c-.022-.007-.035.002-.043.023l-.457 1.527c-.01.035-.038.05-.072.04l-.35-.105c-.033-.01-.048-.038-.038-.072l.457-1.528c.006-.02-.002-.035-.024-.041l-1.15-.346c-.022-.006-.037.002-.043.026l-.538 1.798c-.01.033-.039.05-.072.038l-.35-.103c-.034-.01-.049-.04-.04-.073l.68-2.272a.055.055 0 0 1 .072-.038l3.666 1.096zM4.945 48.404a.067.067 0 0 1 .087.01l.25.305c.024.03.018.056-.01.081-.245.214-.517.564-.599 1.009-.1.535.109.903.502.977.33.06.588-.086.782-.692l.064-.188c.242-.734.672-1.054 1.282-.942.689.128 1.042.706.898 1.477-.083.454-.313.866-.576 1.111-.029.023-.059.025-.082-.005l-.277-.252c-.024-.026-.02-.056.004-.08.252-.276.402-.55.463-.881.087-.472-.12-.78-.49-.85-.325-.06-.582.115-.772.7l-.064.183c-.242.739-.66 1.055-1.292.937-.679-.125-1.079-.694-.907-1.629.102-.546.422-1.034.737-1.271M4.272 52.368a.064.064 0 0 1 .089 0l.28.278c.028.025.025.053 0 .08-.222.24-.454.618-.487 1.068-.04.544.207.887.605.917.335.025.575-.148.703-.773l.044-.194c.161-.755.555-1.12 1.173-1.075.7.054 1.113.59 1.053 1.37-.033.462-.216.897-.453 1.169-.025.026-.055.031-.082.006l-.303-.221c-.027-.025-.025-.054-.005-.082.22-.303.34-.59.365-.925.037-.478-.203-.765-.58-.793-.328-.024-.563.178-.692.78l-.041.186c-.162.764-.544 1.122-1.185 1.075-.689-.051-1.149-.573-1.079-1.521.042-.557.309-1.077.595-1.345M5.077 58.411l1.766-.684-.001-.012-1.812-.56.047 1.256zm2.457-.971c.035.012.058.027.061.068l.014.375c0 .042-.022.065-.057.078l-3.77 1.489c-.035.015-.058-.004-.06-.037l-.014-.406c-.001-.04.014-.066.054-.077l.847-.332-.059-1.593-.868-.27c-.042-.017-.06-.037-.06-.074l-.015-.404c-.002-.034.021-.052.056-.042l3.87 1.225zM5.782 60.182c.643-.096.883-.098 1.116-.063.632.105 1.014.541 1.112 1.2.101.683-.178 1.153-.58 1.413-.032.022-.062.02-.082-.007l-.218-.318c-.024-.031-.015-.061.016-.085.32-.242.449-.517.389-.931-.067-.442-.315-.692-.707-.757-.152-.03-.373-.025-.97.063-.596.09-.81.152-.945.223-.355.177-.52.489-.455.93.06.395.303.689.688.754.139.02.334.026.625-.017.024-.003.034-.017.03-.04l-.113-.756c-.005-.035.014-.06.049-.067l.333-.05c.035-.005.06.015.065.05l.187 1.245a.055.055 0 0 1-.049.065l-.292.043c-.351.053-.678.062-.876.032-.619-.1-1.025-.538-1.122-1.187-.098-.66.139-1.188.712-1.471.215-.104.443-.174 1.087-.269M8.359 63.829c.033-.008.062.008.07.042l.092.39c.008.033-.009.063-.042.07l-3.723.885c-.035.01-.062-.009-.072-.042l-.092-.39c-.008-.033.01-.062.044-.07l3.723-.885zM8.77 65.55c.033-.012.061.003.073.036l.117.352c.015.045.013.076-.024.111l-2.24 2.627.007.023 2.805-.935c.033-.01.062.005.073.037l.115.348c.01.032-.003.062-.036.072L6.03 69.429c-.033.012-.061-.003-.073-.035l-.118-.353c-.012-.038-.012-.075.025-.112l2.226-2.628-.005-.017-2.793.93c-.033.012-.063-.003-.073-.036l-.115-.345c-.012-.035.003-.064.036-.075l3.629-1.209zM8.31 70.001c.586-.275.816-.345 1.05-.377.635-.08 1.125.227 1.408.83.292.625.157 1.154-.153 1.519-.025.028-.054.036-.08.018l-.3-.243c-.03-.025-.034-.057-.009-.087.239-.323.284-.625.105-1.003-.188-.402-.498-.572-.89-.522-.153.015-.365.082-.91.338-.546.254-.733.374-.841.482-.29.272-.359.617-.169 1.018.169.364.485.574.874.527.136-.02.325-.07.591-.195.022-.01.027-.025.017-.045l-.323-.693c-.015-.032-.005-.064.026-.077l.305-.143c.032-.015.064-.004.077.028l.533 1.137c.015.033.004.063-.028.076l-.267.127c-.32.15-.631.25-.828.278-.622.082-1.135-.221-1.412-.813-.283-.605-.206-1.177.26-1.613.175-.159.377-.292.964-.567M12.966 75.904c.196-.135.247-.388.09-.612-.156-.23-.398-.251-.6-.113-.138.095-.193.238-.34.7.534.168.694.135.85.025m-2.634 1.125c.154.225.381.328.811.378l.402-1.253c-.5-.153-.805-.155-1.043.01-.319.222-.394.542-.17.865m1.346-1.283c.175-.545.273-.789.507-.952.4-.275.912-.172 1.211.263.314.454.2.962-.181 1.227-.287.197-.594.192-1.24.002l-.365 1.163.633.05c.037.002.059.022.055.058l-.033.299c-.002.038-.024.058-.06.056l-.73-.045-.095.3c-.034.114-.037.192.016.27l.05.072c.02.027.014.06-.014.08l-.267.183c-.028.02-.062.015-.082-.013l-.088-.13c-.132-.19-.152-.31-.063-.57l.078-.243c-.5-.072-.817-.234-1.052-.572-.378-.548-.232-1.1.26-1.44.357-.247.789-.257 1.46-.058M13.443 80.947c0-.034.021-.06.058-.065l.395-.027c.035-.003.056.019.06.053.032.326.162.75.475 1.076.382.39.803.433 1.09.154.241-.235.27-.53-.114-1.04l-.114-.16c-.46-.623-.472-1.16-.027-1.591.503-.49 1.178-.444 1.725.118.323.332.525.758.573 1.117.003.035-.013.06-.05.065l-.366.08c-.037.001-.057-.019-.066-.05-.08-.367-.216-.649-.45-.889-.335-.344-.708-.355-.978-.093-.238.23-.242.542.125 1.035l.112.158c.463.627.48 1.152.018 1.599-.495.482-1.192.48-1.855-.202-.388-.4-.601-.945-.611-1.338M18.608 81.251c.022-.026.054-.03.082-.008l.293.235c.035.028.047.06.037.103l-.741 2.805.013.01 2.558-1.35c.038-.02.072-.015.108.015l.294.235c.027.022.03.053.01.08l-2.39 2.983c-.022.029-.053.032-.082.009l-.285-.227c-.026-.022-.03-.056-.008-.082l1.712-2.138-.014-.01-2.117 1.079c-.051.025-.084.021-.126-.012l-.18-.145c-.045-.037-.057-.069-.042-.123l.59-2.302-.013-.012-1.713 2.138c-.022.029-.054.032-.082.009l-.284-.227c-.028-.022-.031-.055-.01-.082l2.39-2.983zM20.27 86.871c-.009-.031.005-.065.04-.076l.375-.124c.035-.012.06.002.071.038.112.305.34.685.725.922.465.284.884.22 1.094-.118.175-.287.13-.579-.365-.979l-.154-.128c-.596-.488-.74-1.005-.416-1.533.366-.597 1.031-.719 1.698-.31.395.243.697.605.832.938.011.037.001.063-.034.075l-.335.17c-.035.012-.058-.003-.075-.033-.168-.334-.368-.573-.653-.748-.41-.254-.773-.169-.972.151-.171.282-.1.585.377.972l.147.125c.601.492.748.995.411 1.541-.36.589-1.036.759-1.845.26-.475-.29-.813-.763-.921-1.143M57.116 87.424c-.328-.56-.417-.781-.472-1.011-.136-.625.125-1.142.7-1.478.595-.349 1.137-.262 1.525.013.034.022.042.05.027.078l-.215.322c-.022.031-.053.037-.085.017-.343-.209-.648-.227-1.01-.015-.383.225-.523.55-.438.934.028.152.115.357.418.877.305.52.442.697.558.793.295.266.647.302 1.032.077.345-.203.525-.537.443-.918a2.073 2.073 0 0 0-.248-.573c-.012-.02-.028-.024-.048-.012l-.66.386c-.03.017-.062.009-.079-.021l-.17-.29c-.018-.03-.01-.062.022-.078l1.085-.636c.03-.018.062-.01.078.02l.15.255c.179.305.307.605.354.8.136.61-.119 1.15-.684 1.482-.575.337-1.153.312-1.631-.113-.174-.162-.324-.349-.652-.909M59.525 83.708c-.02-.028-.015-.06.011-.08l.324-.24c.026-.018.058-.015.08.014l2.002 2.708c.014.02.03.022.05.008l1.51-1.116c.028-.022.06-.017.081.01l.217.295c.02.026.015.06-.012.08l-1.906 1.411c-.029.02-.062.015-.082-.013l-2.275-3.077zM65.576 82.474c-.063-.139-.205-.356-.588-.776-.383-.418-.585-.58-.717-.654-.343-.195-.69-.164-1.015.133-.322.293-.386.635-.223.996.063.139.206.354.588.774.383.42.585.58.717.656.345.196.69.162 1.012-.13.325-.298.391-.638.226-1m-1.511 1.577c-.209-.117-.39-.273-.829-.751-.438-.48-.576-.675-.673-.894-.26-.587-.12-1.138.368-1.583.492-.45 1.055-.537 1.615-.227.208.117.39.273.827.754.438.478.576.674.673.893.26.585.12 1.136-.372 1.587-.488.445-1.05.533-1.61.221M67.75 81.002l.606-.693c.309-.355.284-.713-.015-.974-.291-.253-.655-.233-.965.12l-.605.695c-.015.017-.015.034.004.049l.926.806c.017.016.034.014.049-.003zm-.745-1.833c.285-.327.265-.683-.01-.923-.284-.249-.635-.217-.92.111l-.587.674c-.015.016-.015.031.003.048l.877.767c.018.014.035.013.05-.005l.587-.672zm-2.189.005c-.026-.024-.028-.055-.006-.08l.918-1.055c.522-.597 1.087-.627 1.563-.212.345.3.41.648.299.96l.01.008c.231-.151.68-.198 1.076.149.555.483.544 1.088.002 1.706l-.898 1.032c-.024.027-.055.028-.082.005l-2.882-2.513zM70.33 76.193l-1.824-.508-.007.01 1.117 1.533.715-1.035zM67.78 75.5c-.022-.028-.03-.055-.007-.09l.214-.31c.023-.033.056-.038.09-.028l3.915 1.064c.035.01.045.039.025.067l-.232.335c-.023.032-.05.042-.09.027l-.877-.239-.906 1.31.533.737c.023.037.025.065.005.095l-.23.334c-.02.028-.05.028-.072 0L67.78 75.5zM69.262 73.225c-.031-.016-.04-.048-.023-.08l.19-.348c.016-.031.048-.041.078-.025l2.959 1.605c.02.01.036.007.048-.013l.893-1.652c.017-.03.049-.038.08-.022l.32.174c.03.016.04.046.023.078l-1.13 2.084c-.016.03-.046.038-.078.023l-3.36-1.824zM74.462 67.702l-1.897-.008-.003.011 1.484 1.186.416-1.189zm-2.645.005c-.028-.021-.045-.045-.031-.085l.124-.355c.016-.038.044-.051.08-.051l4.059-.007c.036.001.053.025.041.058l-.135.382c-.013.04-.036.056-.08.052l-.908.001-.53 1.504.71.57c.033.03.042.056.03.09l-.135.383c-.01.033-.038.041-.067.018l-3.158-2.56zM77.033 63.384c-.008.033-.034.045-.07.048l-3.048.198-.002.012 2.692 1.438c.031.019.048.047.041.08l-.068.312c-.007.034-.034.05-.069.05l-3.938.117c-.037.002-.055-.018-.046-.058l.081-.374c.009-.04.03-.058.072-.055l3.007-.065.001-.01-2.685-1.42c-.032-.018-.048-.046-.041-.08l.063-.288c.008-.042.035-.052.07-.055l3.036-.195.004-.012-2.713-1.29c-.039-.018-.05-.045-.042-.085l.082-.368c.006-.038.031-.045.065-.033l3.533 1.741c.033.012.05.047.041.08l-.066.312zM76.423 48.6c-.017.028-.049.042-.082.027l-.357-.17c-.033-.017-.041-.044-.026-.077.131-.298.228-.732.113-1.168-.137-.529-.483-.774-.868-.672-.327.085-.497.327-.417.958l.022.199c.095.766-.16 1.241-.76 1.398-.68.177-1.245-.197-1.442-.953-.117-.45-.085-.919.05-1.255.015-.034.042-.045.075-.032l.358.112c.034.013.042.041.032.073-.11.36-.13.67-.045.995.122.467.442.658.807.563.318-.083.476-.353.401-.961l-.021-.192c-.094-.773.15-1.24.773-1.402.667-.175 1.273.172 1.513 1.092.14.538.059 1.117-.126 1.465" fill="#FEFEFE"/></g></svg><svg width="50" height="50" viewBox="0 0 50 50" id="chatapps-icon" x="318" y="235" xmlns="http://www.w3.org/2000/svg"><g fill-rule="nonzero" fill="none"><path d="M36.736 2.033H13.232a4.043 4.043 0 0 0-4.044 4.044V44.27a4.043 4.043 0 0 0 4.044 4.043h23.504a4.053 4.053 0 0 0 4.043-4.043V6.067a4.043 4.043 0 0 0-4.043-4.034zm1.823 42.238a1.842 1.842 0 0 1-1.823 1.833H13.232a1.842 1.842 0 0 1-1.823-1.833v-4.78h27.15v4.78zm0-6.982h-27.15V13.05h27.15v24.24zm0-26.442h-27.15v-4.78a1.842 1.842 0 0 1 1.833-1.833h23.494a1.842 1.842 0 0 1 1.823 1.833v4.78z" fill="#FF6000"/><path d="M27.185 6.435h-4.402a1.105 1.105 0 0 0 0 2.202h4.412a1.105 1.105 0 1 0 0-2.202h-.01zM22.783 43.902h4.412a1.105 1.105 0 1 0 0-2.2h-4.412a1.105 1.105 0 0 0 0 2.2z" fill="#FF6000"/><path d="M17.828 19.215h-1.503a1.105 1.105 0 0 0 0 2.201h1.503a1.105 1.105 0 0 0 0-2.2zM33.643 19.215h-12.17a1.105 1.105 0 0 0 0 2.201h12.17a1.105 1.105 0 0 0 0-2.2zM32.14 26.274h1.503a1.105 1.105 0 0 0 0-2.2H32.14a1.105 1.105 0 0 0 0 2.2zM16.325 26.274h12.169a1.105 1.105 0 0 0 0-2.2H16.325a1.105 1.105 0 0 0 0 2.2zM17.828 28.912h-1.503a1.105 1.105 0 0 0 0 2.2h1.503a1.105 1.105 0 0 0 0-2.2zM33.643 28.912h-12.17a1.105 1.105 0 0 0 0 2.2h12.17a1.105 1.105 0 0 0 0-2.2z" fill="#09A2E7"/></g></svg><svg width="50" height="50" viewBox="0 0 50 50" id="email-icon" x="218" y="235" xmlns="http://www.w3.org/2000/svg"><path d="M45.893 36.598a1.843 1.843 0 0 1-1.833 1.833H5.973a1.843 1.843 0 0 1-1.833-1.833v-23.44c.004-.22.05-.439.134-.643l14.628 11.777-10.683 8.639a1.104 1.104 0 0 0 1.392 1.708l11.01-8.945 3.685 2.966c.402.327.98.327 1.382 0l3.724-3.005s0 .048.058.067l11.01 8.946a1.099 1.099 0 0 0 1.382-1.708l-10.693-8.696 14.59-11.759c.085.207.131.429.134.653v23.44zm-2.17-25.273L25.017 26.442 6.31 11.325h37.415zm.337-2.16H5.973a4.031 4.031 0 0 0-4.031 4.031v23.402a4.031 4.031 0 0 0 4.03 4.03H44.06a4.041 4.041 0 0 0 4.031-4.03v-23.44a4.041 4.041 0 0 0-4.031-4.031v.038z" fill-rule="nonzero" fill="#FF6000"/></svg><svg width="84" height="84" viewBox="0 0 84 84" id="emerging-icon" x="295" xmlns="http://www.w3.org/2000/svg"><g fill="none" fill-rule="evenodd"><circle fill="#FF5202" cx="42" cy="42" r="42"/><path d="M35.076 48.223h-3.681l-2.093-4.186h-1.645v4.186h-3.214V35.758h6.242c2.765 0 4.335 1.832 4.335 4.149 0 2.168-1.327 3.326-2.485 3.738l2.541 4.578zm-4.877-6.99c.84 0 1.55-.466 1.55-1.345 0-.84-.71-1.327-1.55-1.327h-2.542v2.673H30.2zm12.707 7.214c-3.83 0-6.746-2.616-6.746-6.447 0-3.85 2.915-6.447 6.746-6.447 3.01 0 4.616 1.7 5.438 3.345l-2.765 1.308c-.411-.99-1.477-1.813-2.673-1.813-2.037 0-3.476 1.57-3.476 3.607s1.44 3.607 3.476 3.607c1.196 0 2.262-.823 2.673-1.813l2.765 1.308c-.803 1.607-2.429 3.345-5.438 3.345zm11.456 0c-2.523 0-4.28-.785-5.532-1.98l1.7-2.411a5.632 5.632 0 0 0 3.981 1.644c1.103 0 1.776-.43 1.776-1.028 0-1.7-7.064-.336-7.064-5.139 0-2.093 1.775-3.962 4.97-3.962 2 0 3.738.598 5.065 1.738l-1.757 2.299c-1.046-.86-2.41-1.29-3.644-1.29-.934 0-1.345.374-1.345.898 0 1.588 7.045.43 7.045 5.064 0 2.504-1.85 4.167-5.195 4.167z" fill="#FFF"/><path stroke="#FFF" stroke-width="2.5" d="M19.296 30.352h45.408v23.297H19.296z"/></g></svg><svg width="64" height="98" viewBox="0 0 64 98" id="gsma-logo-bw" x="82" y="136" xmlns="http://www.w3.org/2000/svg"><g style="mix-blend-mode:multiply" fill-rule="nonzero" fill="none"><path fill="#FFF" d="M.614 0h63.39v62.756H.614z"/><path fill="#505053" d="M1.297.683H63.32v61.415H1.297z"/><path fill="#969799" d="M5.468 26.171h5.439v5.439h-5.44zM12.955 23.488h8.17v8.171h-8.17zM23.15 19.39h12.245v12.244H23.15zM37.76 13.293h18.39v18.366H37.76z"/><path fill="#FFF" d="M58.833 42.39v.342h-.683v1.902h-.366v-1.902h-.707v-.342zM59.638 42.39l.561 1.805.537-1.805h.536v2.244h-.341V42.78l-.561 1.854h-.366l-.561-1.854v1.854H59.1V42.39zM16.809 38.585h-1.561v-1.512H6.98v6.049h8.268V41.61H11.15v-1.512h5.659v3.024a1.512 1.512 0 0 1-1.561 1.512H6.98a1.512 1.512 0 0 1-1.488-1.512v-6.049c0-.835.677-1.512 1.512-1.512h8.244c.835 0 1.512.677 1.512 1.512l.049 1.512zM27.614 37.073v1.512h1.512v-1.512c0-.835-.677-1.512-1.512-1.512h-8.22c-.835 0-1.512.677-1.512 1.512v1.951c0 .836.677 1.513 1.512 1.513l8.22.439v2.048h-8.22v-1.512h-1.512v1.512c0 .836.677 1.513 1.512 1.513h8.22c.835 0 1.512-.677 1.512-1.513v-2.048c0-.836-.677-1.513-1.512-1.513l-8.22-.439v-1.95h8.22zM46.467 41.073v3.561h-1.512v-7.56c0-.836.677-1.513 1.512-1.513h8.195a1.488 1.488 0 0 1 1.488 1.512v7.561h-1.512v-3.56h-8.17zm2.927-4h-2.927v2.44h8.171v-2.44h-5.244zM31.736 37.073v7.561h-1.513v-7.56a1.488 1.488 0 0 1 1.513-1.513H42.32a1.488 1.488 0 0 1 1.488 1.512v7.561h-1.512v-7.56H37.76v7.56h-1.512v-7.56h-4.512z"/><path d="M10.809 70.22h1.073l3.805 11.414h-1.098l-.975-3.146H9.053L7.93 81.634h-.927l3.805-11.414zm-1.464 7.317h3.952l-1.927-6.244-2.025 6.244zM20.126 74.415a3.439 3.439 0 0 0-1.415-.342 1.341 1.341 0 0 0-1.414 1.317c0 .78.292.927 1.414 1.561 1.122.634 2.025 1.049 2.025 2.44a2.439 2.439 0 0 1-2.44 2.438 5.732 5.732 0 0 1-2.121-.39l.146-1.073a3.854 3.854 0 0 0 1.878.585 1.488 1.488 0 0 0 1.537-1.439c0-.805-.488-1.146-1.488-1.634-1.39-.707-1.951-1.146-1.951-2.317a2.439 2.439 0 0 1 2.439-2.293c.52.016 1.036.098 1.536.244l-.146.903zM25.004 74.415a3.439 3.439 0 0 0-1.415-.342 1.341 1.341 0 0 0-1.414 1.317c0 .78.292.927 1.414 1.561 1.122.634 2.025 1.049 2.025 2.44a2.439 2.439 0 0 1-2.44 2.438 5.854 5.854 0 0 1-2.121-.39l.146-1.073c.572.357 1.228.559 1.902.585a1.512 1.512 0 0 0 1.537-1.439c0-.805-.512-1.146-1.488-1.634-1.414-.707-1.975-1.146-1.975-2.317a2.439 2.439 0 0 1 2.439-2.293c.52.016 1.036.098 1.536.244l-.146.903zM26.345 77.463c0-2.097.683-4.268 3.122-4.268 2.44 0 3.122 2.17 3.122 4.268s-.683 4.293-3.122 4.293-3.122-2.195-3.122-4.293m5.244 0c0-.658 0-3.39-2.122-3.39s-2.024 2.732-2.024 3.39c0 .659 0 3.415 2.098 3.415 2.097 0 2.121-2.732 2.121-3.415M38.321 74.561a2.439 2.439 0 0 0-1.512-.439c-1.268 0-2.44.902-2.44 3.098 0 3.048 1.684 3.585 2.586 3.585a2.268 2.268 0 0 0 1.415-.44v1.074a4.488 4.488 0 0 1-1.61.317c-1.78 0-3.463-1.39-3.463-4.268s1.195-4.317 3.512-4.317a3.78 3.78 0 0 1 1.56.292l-.048 1.098zM39.321 69.976h1.146v1.487h-1.146v-1.487zm0 3.317h.951v8.341h-.951v-8.341zM47.248 79.78v1.854h-.854V80.44a2.439 2.439 0 0 1-2.317 1.317 2.439 2.439 0 0 1-2.439-2.439c0-2.683 2.83-2.732 4.024-2.732h.61c0-1.048 0-2.439-1.731-2.439a3.512 3.512 0 0 0-2.098.854l-.146-1a4.317 4.317 0 0 1 2.292-.732 2.439 2.439 0 0 1 2.561 2.756l.098 3.756zm-.878-2.439c-1.951 0-3.61 0-3.61 1.903a1.512 1.512 0 0 0 1.537 1.536c.439 0 2.073-.195 2.073-2.439v-1zM50.175 71.341v1.952h1.658v.878H50.15v5.439c0 .658 0 1.268.903 1.268.273.005.542-.062.78-.195v.951c-.359.09-.728.13-1.097.122-1.22 0-1.537-.951-1.537-1.878v-5.707h-1.244v-.878H49.2v-1.659l.976-.293zM53.345 77.78c0 3.098 1.976 3.098 2.44 3.098a3 3 0 0 0 1.804-.707v1.097a3.659 3.659 0 0 1-1.95.488c-3.27 0-3.27-3.463-3.27-4.293 0-3.146 1.562-4.268 2.952-4.268 2.439 0 2.683 2.44 2.683 4.585h-4.659zm3.586-.878c0-2.22-.927-2.829-1.708-2.829-1.292 0-1.878 1.732-1.878 2.83h3.586zM10.784 86.39h1.537l3.17 9.903h.05l3.17-9.903h1.537v11.415h-.951V87.34h-.025l-3.366 10.464h-.756L11.76 87.34h-.049v10.464h-.927zM22.565 93.951c0 3.073 2 3.073 2.439 3.073a2.976 2.976 0 0 0 1.805-.683v1.098a3.659 3.659 0 0 1-1.951.488c-3.269 0-3.269-3.464-3.269-4.293 0-3.146 1.561-4.293 2.952-4.293 2.439 0 2.658 2.586 2.658 4.61h-4.634zm3.61-.878c0-2.22-.927-2.83-1.708-2.83-1.292 0-1.902 1.733-1.902 2.83h3.61zM28.492 92.049v-2.586h.902v1.22a2.073 2.073 0 0 1 1.927-1.342 1.854 1.854 0 0 1 1.902 1.342 2.439 2.439 0 0 1 2.074-1.342c1.683 0 2.17 1.415 2.17 2.732v5.732h-.95V92.17c0-.561 0-1.927-1.367-1.927-1.366 0-1.707 1.024-1.707 2.22v5.34h-.951V92c0-1.073-.488-1.756-1.269-1.756-.78 0-1.804 1.097-1.804 2.439v5.122h-.952l.025-5.756zM39.077 85.537h.927v4.878A2.293 2.293 0 0 1 42.1 89.22c2.098 0 2.757 2.439 2.757 3.975 0 1.17 0 4.61-2.805 4.61a2.439 2.439 0 0 1-2.195-1.268v1.146h-.878v-2.756l.097-9.39zm3 4.707c-2.049 0-2.049 2.439-2.049 3.488 0 1.707.44 3.292 2.05 3.292 1.609 0 1.902-2.707 1.902-3.39 0-1.927-.488-3.39-1.903-3.39zM46.711 93.951c0 3.073 1.976 3.073 2.44 3.073a2.976 2.976 0 0 0 1.804-.683v1.098a3.659 3.659 0 0 1-1.951.488c-3.268 0-3.268-3.464-3.268-4.293 0-3.146 1.56-4.293 2.95-4.293 2.44 0 2.66 2.586 2.66 4.61H46.71zm3.586-.878c0-2.22-.927-2.83-1.708-2.83-1.292 0-1.878 1.733-1.878 2.83h3.586zM52.516 92.049v-2.586h.903v1.317a2.17 2.17 0 0 1 2.22-1.439v1.025c-1.513 0-2.196.658-2.196 2.195v5.244h-.951l.024-5.756z" fill="#ABACAE"/></g></svg><svg width="44" height="52" viewBox="0 0 44 52" id="handheart-icon" x="295" y="168" xmlns="http://www.w3.org/2000/svg"><path d="M37.135 27.9a3.56 3.56 0 0 0-1.808.488 3.55 3.55 0 0 0-.42-.726c4.22-4.016 7.87-9.011 7.87-14.297 0-6.783-5.52-12.303-12.304-12.303-3.28 0-6.385 1.295-8.684 3.588a12.26 12.26 0 0 0-8.684-3.588C6.321 1.063.801 6.582.801 13.366c0 7.453 7.246 14.333 13.127 18.693a3.477 3.477 0 0 0-.035.468c0 1.666-.012 5.116-.008 5.12 0 3.697 1.504 7.054 3.935 9.485a13.379 13.379 0 0 0 9.48 3.931c7.403 0 13.421-6.018 13.421-13.42l.004-6.152a3.594 3.594 0 0 0-1.051-2.54 3.571 3.571 0 0 0-2.539-1.05zm-22.203 2.304C9.437 26.092 2.87 19.828 2.87 13.366c0-5.644 4.59-10.235 10.236-10.235a10.21 10.21 0 0 1 7.887 3.713c.394.474 1.201.474 1.593 0a10.207 10.207 0 0 1 7.888-3.713c5.643 0 10.235 4.59 10.235 10.235 0 4.697-3.48 9.292-7.49 13.033a3.575 3.575 0 0 0-1.204-.215 3.512 3.512 0 0 0-2.018.627 3.722 3.722 0 0 0-.555-.724 3.573 3.573 0 0 0-2.537-1.048 3.57 3.57 0 0 0-1.529.34v-4.975a3.604 3.604 0 0 0-1.05-2.54 3.564 3.564 0 0 0-2.54-1.042 3.523 3.523 0 0 0-2.54 1.043 3.545 3.545 0 0 0-1.048 2.536v9.287c-1.036-.275-2.046-.21-2.851.23a2.76 2.76 0 0 0-.415.286zm23.723 7.443c-.004 6.257-5.096 11.35-11.35 11.35-6.26 0-11.354-5.092-11.354-11.345 0 0 .012-3.459.012-5.125 0-.526.219-.703.385-.798.36-.198 1.06-.21 1.845.146l.003 4.243a1.028 1.028 0 0 0 1.031 1.03c.575 0 1.037-.46 1.037-1.035v-15.71a1.488 1.488 0 0 1 .444-1.075 1.49 1.49 0 0 1 1.076-.445 1.52 1.52 0 0 1 1.525 1.516v13.17a1.033 1.033 0 1 0 2.067-.005V28.63a1.526 1.526 0 0 1 3.05 0v1.132c-.004.004 0 .009-.004.012l.004.004v3.785a1.032 1.032 0 1 0 2.068.005v-3.794a1.523 1.523 0 0 1 3.045-.004v3.793c0 .575.462 1.036 1.036 1.036a1.043 1.043 0 0 0 1.036-1.036l-.004-2.074c.004-.409.162-.793.449-1.08a1.515 1.515 0 0 1 1.076-.445c.813.004 1.521.712 1.525 1.525v6.157h-.002v.001z" fill="#FFF" fill-rule="nonzero" stroke="#FFF" stroke-width=".5"/></svg><svg width="84" height="84" viewBox="0 0 84 84" id="integrate-icon" x="84" y="235" xmlns="http://www.w3.org/2000/svg"><g fill="none" fill-rule="evenodd"><circle fill="#FF5202" cx="42" cy="42" r="42"/><path d="M68.784 41.53L56.009 28.752 43.233 15.978a1.205 1.205 0 0 0-1.704 0L28.753 28.753 15.978 41.529c-.47.47-.47 1.233 0 1.704l12.775 12.776 12.776 12.775a1.2 1.2 0 0 0 1.704 0l12.776-12.775 12.775-12.776c.47-.47.47-1.233 0-1.704zM42.381 18.532l11.073 11.072-3.918 3.918a1.205 1.205 0 0 0 0 1.703l1.262 1.263c.242.241.574.369.916.35.682-.036 1.33.2 1.778.648a2.351 2.351 0 0 1 0 3.322 2.351 2.351 0 0 1-3.321 0c-.616-.615-.712-1.471-.725-1.81a1.205 1.205 0 0 0-.352-.806L47.83 36.93a1.2 1.2 0 0 0-1.703 0l-3.747 3.748-2.981-2.982.068-.069c.843-.099 2.035-.414 2.97-1.35a4.764 4.764 0 0 0 0-6.729 4.727 4.727 0 0 0-3.365-1.394c-1.27 0-2.465.495-3.365 1.395a4.669 4.669 0 0 0-1.383 3.002l-.036.035-2.98-2.981L42.38 18.533zM18.533 42.381l11.072-11.073 3.832 3.833c.47.47 1.233.47 1.704 0l1.234-1.233c.242-.242.37-.575.352-.917a2.273 2.273 0 0 1 .686-1.74 2.352 2.352 0 0 1 3.321 0c.444.444.688 1.034.688 1.661 0 .628-.244 1.218-.688 1.662-.577.577-1.485.67-1.848.684a1.205 1.205 0 0 0-.808.353l-1.233 1.234c-.47.47-.47 1.233 0 1.703l3.833 3.833-2.982 2.981-.068-.069c-.1-.842-.415-2.035-1.351-2.969a4.727 4.727 0 0 0-3.364-1.393 4.727 4.727 0 0 0-3.365 1.393 4.726 4.726 0 0 0-1.393 3.364c0 1.271.495 2.466 1.394 3.365a4.669 4.669 0 0 0 3.002 1.384l.035.035-2.98 2.982L18.532 42.38zm23.848 23.848L31.308 55.157l3.833-3.832c.47-.47.47-1.233 0-1.703l-1.233-1.235a1.206 1.206 0 0 0-.917-.352 2.274 2.274 0 0 1-1.74-.686 2.333 2.333 0 0 1-.688-1.66c0-.628.245-1.218.688-1.661a2.333 2.333 0 0 1 1.661-.688c.628 0 1.218.244 1.662.688.577.577.67 1.485.684 1.848.011.304.137.593.352.808l1.235 1.233c.47.47 1.233.47 1.703 0l3.833-3.833 2.895 2.896-.1.1c-1.13.146-2.177.638-2.927 1.387a4.727 4.727 0 0 0-1.393 3.364c0 1.271.495 2.466 1.393 3.365a4.727 4.727 0 0 0 3.365 1.393 4.727 4.727 0 0 0 3.364-1.393c.8-.801 1.277-1.887 1.348-3.044l.061-.061 3.067 3.066L42.38 66.229zm12.776-12.775l-3.918-3.918a1.205 1.205 0 0 0-1.703 0l-1.263 1.262c-.241.242-.369.575-.35.916.036.682-.2 1.33-.648 1.778a2.351 2.351 0 0 1-3.322 0 2.351 2.351 0 0 1 0-3.321c.616-.616 1.471-.712 1.81-.726.304-.011.592-.137.806-.351l1.263-1.263c.47-.47.47-1.233 0-1.703l-3.747-3.747 2.895-2.895.1.1c.146 1.13.638 2.177 1.387 2.926a4.727 4.727 0 0 0 3.365 1.394c1.27 0 2.465-.495 3.364-1.394a4.727 4.727 0 0 0 1.393-3.364 4.727 4.727 0 0 0-1.393-3.364 4.702 4.702 0 0 0-3.043-1.348l-.062-.062 3.066-3.066L66.23 42.381 55.157 53.454z" fill="#FFF" fill-rule="nonzero"/></g></svg><svg width="141" height="66" viewBox="0 0 141 66" id="iso-logo" x="154" xmlns="http://www.w3.org/2000/svg"><g fill-rule="nonzero" fill="none"><path fill="#505053" d="M.473 8.953h139.886v47.906H.473z"/><path fill="#F6F6F6" d="M5.838 13.53h1.065v5.131H5.838zM9.202 18.747c-1.32 0-1.575-.788-1.512-1.66h1.065c0 .489 0 .893.618.893a.511.511 0 0 0 .532-.574c0-.937-2.13-.98-2.13-2.513 0-.809.384-1.448 1.683-1.448 1.298 0 1.575.469 1.49 1.555H9.905c0-.384 0-.788-.49-.788a.511.511 0 0 0-.553.553c0 .98 2.129.895 2.129 2.491 0 1.597-.958 1.49-1.789 1.49M11.715 16.107c0-1.363 0-2.662 1.767-2.662s1.767 1.3 1.767 2.662c0 1.362 0 2.64-1.767 2.64s-1.767-1.299-1.767-2.64m2.448 0c0-1.32 0-1.895-.681-1.895-.682 0-.682.575-.682 1.895s0 1.873.682 1.873c.681 0 .681-.574.681-1.873M18.421 17.533a.703.703 0 0 0 0 .362.32.32 0 0 0 .299.15c.49 0 .425-.405.425-1.576a1.107 1.107 0 0 1-.809.319c-.766 0-1.064-.681-1.064-1.341 0-.66.298-1.768 1.426-1.768 1.47 0 1.448 1.172 1.448 2.577s0 2.512-1.47 2.512c-.85 0-1.34-.298-1.32-1.235h1.065zm.362-1.426c.426 0 .448-.575.448-.873 0-.298 0-.873-.426-.873s-.447.575-.447.894c0 .32 0 .852.425.852zM23.382 16.17c0 1.555 0 2.556-1.426 2.556-1.427 0-1.427-1.001-1.427-2.555 0-1.895.213-2.534 1.427-2.534 1.213 0 1.426.639 1.426 2.534m-1.852 0c0 1.49 0 1.81.426 1.81s.426-.32.426-1.81 0-1.831-.426-1.831-.426.298-.426 1.83M26.534 16.17c0 1.555 0 2.556-1.427 2.556s-1.427-1.001-1.427-2.555c0-1.895.213-2.534 1.427-2.534s1.427.639 1.427 2.534m-1.853 0c0 1.49 0 1.81.426 1.81s.426-.32.426-1.81 0-1.831-.426-1.831-.426.298-.426 1.83M27.023 14.467c.373-.18.7-.442.958-.766h.958v4.96h-1.064v-3.81a5.855 5.855 0 0 1-.852.553v-.937zM5.838 20.642h1.065v5.131H5.838zM9.202 25.858c-1.32 0-1.575-.788-1.512-1.66h1.065c0 .49 0 .894.618.894a.511.511 0 0 0 .532-.575c0-.937-2.13-.98-2.13-2.513 0-.809.384-1.447 1.683-1.447 1.298 0 1.575.468 1.49 1.554H9.905c0-.383 0-.788-.49-.788a.511.511 0 0 0-.553.554c0 .98 2.129.894 2.129 2.49 0 1.598-.958 1.491-1.789 1.491M11.715 23.218c0-1.363 0-2.661 1.767-2.661s1.767 1.298 1.767 2.661 0 2.64-1.767 2.64-1.767-1.299-1.767-2.64m2.448 0c0-1.32 0-1.895-.681-1.895-.682 0-.682.575-.682 1.895s0 1.874.682 1.874c.681 0 .681-.575.681-1.874M26.534 23.282c0 1.554 0 2.555-1.427 2.555s-1.427-1-1.427-2.555c0-1.895.213-2.534 1.427-2.534s1.427.639 1.427 2.534m-1.853 0c0 1.49 0 1.81.426 1.81s.426-.32.426-1.81 0-1.831-.426-1.831-.426.298-.426 1.831M29.685 23.282c0 1.554 0 2.555-1.427 2.555-1.426 0-1.426-1-1.426-2.555 0-1.895.213-2.534 1.426-2.534 1.214 0 1.427.639 1.427 2.534m-1.853 0c0 1.49 0 1.81.426 1.81s.426-.32.426-1.81 0-1.831-.426-1.831-.426.298-.426 1.831M30.28 21.579c.374-.18.701-.443.959-.767h.958v4.961h-1.064v-3.811a4.493 4.493 0 0 1-.852.553v-.936zM5.923 43.68v-5.75h2.13c.894 0 1.66.277 1.66 1.491a1.15 1.15 0 0 1-.98 1.256c.852.128 1.065.66 1.065 1.448 0 1.47-1.256 1.533-1.767 1.533l-2.108.021zm1.193-3.407h.809a.639.639 0 0 0 .617-.724.681.681 0 0 0-.681-.724h-.745v1.448zm0 2.512h.66a.703.703 0 0 0 .83-.809c0-.511-.192-.81-.788-.81h-.702v1.62zM14.632 37.93v4.067a1.703 1.703 0 0 1-1.96 1.767c-1.32 0-1.937-.68-1.937-1.767v-4.066h1.193v4.002c0 .703.298.98.745.98s.745-.362.745-.98v-4.002h1.214zM16.782 43.68H15.59v-5.75h2.129c.809 0 1.341.533 1.341 1.512a1.256 1.256 0 0 1-1.064 1.406 1 1 0 0 1 1.043 1.128 8.304 8.304 0 0 0 .128 1.682h-1.171a2.534 2.534 0 0 1-.128-1.128c0-.682 0-1.257-.873-1.257h-.298l.085 2.406zm0-3.258h.532c.469 0 .618-.49.618-.852s-.234-.745-.618-.745h-.532v1.597zM20.018 43.68v-5.75h3.13v.895h-1.937v1.405h1.788v.873h-1.788v1.682h2.001v.894zM23.553 43.68l1.597-5.75h1.575l1.554 5.75h-1.256l-.32-1.278h-1.639l-.319 1.277h-1.192zm2.32-4.642l-.553 2.49h1.15l-.597-2.49zM32.73 37.93v4.067a1.703 1.703 0 0 1-1.96 1.767c-1.32 0-1.958-.68-1.958-1.767v-4.066h1.213v4.002c0 .703.298.98.746.98.447 0 .745-.362.745-.98v-4.002h1.213zM35.008 37.93h1.234l.895 4.174h.021l1-4.173h1.172l-1.512 5.748h-1.405zM39.883 43.68v-5.75h3.13v.895h-1.937v1.405h1.788v.873h-1.788v1.682h2.001v.894zM45.036 43.68h-1.214v-5.75h2.13c.83 0 1.34.533 1.34 1.512a1.235 1.235 0 0 1-1.064 1.406 1 1 0 0 1 1.044 1.128c-.02.565.03 1.13.149 1.682h-1.193a2.874 2.874 0 0 1-.128-1.128c0-.682 0-1.257-.851-1.257h-.298l.085 2.406zm0-3.258h.532c.469 0 .596-.49.596-.852s-.234-.745-.596-.745h-.532v1.597zM48.272 37.931h1.192v5.727h-1.192zM53.893 37.93v.959h-1.341v4.79H51.36v-4.79h-1.342v-.958zM53.702 43.68l1.596-5.75h1.576l1.554 5.75h-1.256l-.32-1.278h-1.639l-.32 1.277h-1.191zm2.32-4.642l-.532 2.49h1.129l-.597-2.49zM60.536 43.764c-1.49 0-1.767-.872-1.703-1.873h1.256c0 .553 0 1.022.681 1.022.682 0 .597-.256.597-.66 0-1.022-2.406-1.086-2.406-2.79 0-.915.425-1.618 1.873-1.618s1.767.511 1.682 1.725h-1.17c0-.426 0-.873-.554-.873a.554.554 0 0 0-.618.618c0 1.085 2.406.979 2.406 2.789 0 1.49-1.086 1.66-2.001 1.66M5.796 48.555c0-1.363 0-2.661 1.767-2.661 1.086 0 1.533.617 1.49 1.703H8.01c0-.681-.128-.937-.447-.937-.32 0-.682.575-.682 1.895s0 1.874.682 1.874c.681 0 .468-.639.49-1.044h1.064c0 1.363-.554 1.81-1.554 1.81-1.767 0-1.767-1.299-1.767-2.64M10.671 49.47c0 .426 0 1.065.447 1.065.448 0 .426-.34.426-.639h1.022a1.32 1.32 0 0 1-.383.937c-.3.242-.68.363-1.065.34-1.298 0-1.469-.787-1.469-1.894 0-1.107.15-1.831 1.47-1.831s1.49.873 1.469 2.13l-1.917-.107zm.916-.553c0-.34 0-.852-.469-.852-.468 0-.447.554-.447.852h.916zM14.248 47.533v.447a.937.937 0 0 1 .937-.532v.894c-.873 0-.894.469-.894.81v1.958h-1.043v-3.577h1zM15.377 47.533h.404v-.575l1.001-.447v1.022h.532v.618h-.532v1.916c0 .255 0 .447.32.447h.191v.617h-.532c-.852 0-.98-.575-.98-.809v-2.129h-.404v-.66zM18.996 46.767h-1v-.788h1v.788zm0 4.258h-1v-3.577h1v3.577zM21.487 46.596c-.404 0-.49.128-.49.49v.447h.47v.618h-.47v2.96h-1v-2.96h-.362v-.618h.468c0-1.043-.106-1.576 1.129-1.576h.34l-.085.64zM23.127 46.767h-1v-.788h1v.788zm0 4.258h-1v-3.577h1v3.577zM25.83 48.81c0-.532-.127-.723-.446-.723-.32 0-.469.383-.469 1.128 0 1.086 0 1.32.469 1.32.468 0 .468-.277.468-.745h1c0 .98-.531 1.384-1.468 1.384-1.299 0-1.47-.788-1.47-1.895s.15-1.831 1.47-1.831c.915 0 1.448.426 1.448 1.363H25.83zM30.28 50.45v.66h-.915v-.468a1 1 0 0 1-.937.532c-.702 0-.958-.511-.958-1.129 0-1.192.916-1.234 1.853-1.234v-.277c0-.298 0-.511-.405-.511-.404 0-.383.255-.383.532h-.98a1 1 0 0 1 .384-.873c.279-.177.607-.259.937-.234 1.256 0 1.426.553 1.426 1.214l-.021 1.788zm-1.852-.447c0 .255 0 .553.384.553.383 0 .49-.787.49-1.17-.49 0-.874 0-.874.617zM30.664 47.533h.405v-.575l1-.447v1.022h.511v.618h-.51v1.916c0 .255 0 .447.319.447h.191v.617h-.532c-.873 0-.98-.575-.98-.809v-2.129h-.404v-.66zM34.135 46.767h-1.001v-.788h1v.788zm0 4.258h-1.001v-3.577h1v3.577zM34.944 49.279c0-.98.127-1.831 1.448-1.831 1.32 0 1.469.852 1.469 1.831 0 .98-.17 1.895-1.47 1.895-1.298 0-1.447-.788-1.447-1.895m1.916 0c0-.745 0-1.128-.468-1.128-.469 0-.448.383-.448 1.128 0 1.086 0 1.32.448 1.32.447 0 .468-.234.468-1.32M39.564 47.895c.08-.15.208-.27.362-.34.161-.037.328-.037.49 0a.83.83 0 0 1 .894.787v2.875h-1v-2.47c0-.32 0-.575-.384-.575-.383 0-.383.255-.383.575v2.47h-1.001V47.64h1l.022.255z"/><path d="M102.523 65.312a35.812 35.812 0 0 0 10.412-1.533 18.31 18.31 0 0 0 9.006-6.856 48.225 48.225 0 0 0 6.58-24.017 48.29 48.29 0 0 0-6.58-24.017 18.14 18.14 0 0 0-8.942-6.835A36.813 36.813 0 0 0 102.353.521a36.813 36.813 0 0 0-10.646 1.533 18.098 18.098 0 0 0-8.921 6.835 47.863 47.863 0 0 0-6.58 24.017 47.8 47.8 0 0 0 6.58 24.017 17.842 17.842 0 0 0 9.24 6.834 36.196 36.196 0 0 0 10.497 1.555z" fill="#747577"/><path d="M126.583 32.906a54.23 54.23 0 0 1-4.259 20.482 16.245 16.245 0 0 1-11.114 9.943 35.323 35.323 0 0 1-8.815 1.108 35.45 35.45 0 0 1-8.814-1.108 16.31 16.31 0 0 1-11.136-9.943 54.655 54.655 0 0 1-4.258-20.482 54.762 54.762 0 0 1 4.258-20.504A16.33 16.33 0 0 1 93.581 2.48a35.45 35.45 0 0 1 8.814-1.107 35.323 35.323 0 0 1 8.815 1.107 16.267 16.267 0 0 1 11.114 9.922 54.357 54.357 0 0 1 4.259 20.504" fill="#F6F6F6"/><path d="M102.672 9.017c2.466 0 4.92.323 7.303.958a8.517 8.517 0 0 1 5.493 4.705 45.65 45.65 0 0 1 3.641 18.204 45.65 45.65 0 0 1-3.662 18.226 8.517 8.517 0 0 1-5.493 4.684c-2.38.653-4.836.982-7.303.98-2.467 0-4.923-.33-7.303-.98a8.517 8.517 0 0 1-5.493-4.684 45.65 45.65 0 0 1-3.641-18.204 45.65 45.65 0 0 1 3.64-18.205 8.517 8.517 0 0 1 5.494-4.705 28.51 28.51 0 0 1 7.303-.958l.021-.021z" fill="#747577"/><path d="M106.1 18.15l-.426-.744M90.408 31.628h8.261v2.406h-8.26zM96.796 52.43a2.13 2.13 0 0 1-.256-.915h4.727a2.236 2.236 0 0 1-.98 1.724 2.449 2.449 0 0 1-2.47.192 2.704 2.704 0 0 1-1.021-1" fill="#F6F6F6"/><path fill="#F6F6F6" d="M101.906 50.514h-2.534v-1.171h2.534l.809-.937.809.937h2.555v1.192h-2.555v2.917h-1.618zM102.204 46.852c.51-.17 1.256-.469 1.405-.958.053-.79.368-1.54.894-2.13a.766.766 0 0 0 .17-.723 2.385 2.385 0 0 1 1.938 1.469c.312.8.2 1.705-.298 2.406a2.555 2.555 0 0 1-2.491.979 2.576 2.576 0 0 1-1.618-1.128M96.093 36.312a1.874 1.874 0 0 0-1.554 0c-.465.167-.8.576-.873 1.065v3.45c0 .233-.17.361-.469.361-.298 0-.468-.149-.447-.362v-3.513a1.47 1.47 0 0 0-.362-1.022l-1.81.596h-.17c.469.341.682.341.724.916v5.131a1.81 1.81 0 0 0 1.171.767c.191.02.384.02.575 0a2.13 2.13 0 0 0 1.405-.362c.746-.575.596-1.597.596-3.088 0-.425 0-.66.299-.894a.98.98 0 0 1 .809-.17c.245.062.476.17.681.32 0-1.278 0-2.854-.767-3.258M112.956 41.955c-1.32-1.3-3.62-3.13-3.811-3.897a5.749 5.749 0 0 1-.15-1.746l1.172-.915c0 .915-.17 1.852.277 2.406l3.044 3.002c.42.363.586.938.426 1.47a5.536 5.536 0 0 1-.447.766c0-.42-.187-.819-.511-1.086M105.44 35.333h2.406v7.09h-2.406v-7.09z"/><path d="M110.806 35.993l.66-.681.596.724v2.129c.851-.405.639-1.618.639-2.662.51.405.766.64 1.256 1.086.277 1.214-.469 1.895-1.001 2.747l-2.13-2.13-.02-1.213zM112.764 30.564l.32-1.342 1.043-.17v-3.343l-.894.15v-2.556c-.554.128-1.129.32-1.725.447v4.259c0 .213-.32.276-.383.276-.213 0-.426-.149-.426-.298v-4.066l-1.682.213v1.703a20.95 20.95 0 0 1-2.32 3.407l1.873.149.554 1.192 3.64-.021zM93.687 29.733v-2.938c.348-.038.694.088.937.34v2.833h-.767l-.17-.235zM93.538 23.367c-.17-1.107-.192-1.192-.298-1.98h-.681v-.766h3.066v.766H94.9l-.298 2.576a2.79 2.79 0 0 0-1.065-.596M93.432 20.067a5.131 5.131 0 0 1-.916-4.258c.178.544.582.986 1.107 1.213 0-.298-.34-.553-.404-.873a2.13 2.13 0 0 1 .17-2.001c.282-.364.68-.62 1.129-.724a2.342 2.342 0 0 0 0 1.618l.532-.468c.058-.056.123-.106.191-.15.536.935.746 2.021.597 3.088l-.17.447c0-.724-.171-1.064-.66-1.341 0 .426.212.724.276 1.277a2.236 2.236 0 0 1-.49 2.13l-1.362.042zM106.1 18.15l-1.043 1.172c-.298-.277-.32-.32-.618-.618.554-.553.618-.617 1.235-1.298M107.484 15.404c.234-1 .34-2.13 1.448-2.576.459-.14.957-.052 1.341.234.448.344.642.925.49 1.47-.32 1.17-1.618 1.383-2.683 1.66l-.596-.788zM106.568 31.628h8.261v2.406h-8.26z" fill="#F6F6F6"/><path d="M94.88 47.767c-.341-1.533 1.511-2.129 1.937-3.342.045-2.145.71-4.23 1.916-6.005a11.987 11.987 0 0 1 3.364-8.133c-.14-.67-.34-1.325-.596-1.959a1.043 1.043 0 0 1-.745-.298 1.597 1.597 0 0 1-.32-.81 11.732 11.732 0 0 1-2.767 2.662c-.213 0-.447 0-.788-.447-1.299-1-1.512-3.321-3.47-3.215-.895-.298-.852-1.341-1.001-2.129.397-.191.859-.191 1.256 0 1.235.66 2.129 2.13 3.215 2.96.259.271.552.507.873.702a6.962 6.962 0 0 0 1.873-2.235 1.852 1.852 0 0 1 1.597-.83l.469-.554-.234-1.363a9.688 9.688 0 0 1-1.193-1.938c.15-.787.256-1.703 1.065-2.129.809-.426.937.426 1.362 0a.98.98 0 0 1 .81.192c.38.522.628 1.128.723 1.767a11.69 11.69 0 0 1-.809 1.831c0 .128-.255.17-.362.277.044.277.153.54.32.766.246.044.499.044.745 0a2.13 2.13 0 0 1 1.597-1.192l1.363-.894c-.213-1.043.447-1.959 0-3.002a2.555 2.555 0 0 1-1.172-1.938c.131-.455.348-.882.64-1.256a6.77 6.77 0 0 1 1.66 2.832 25.55 25.55 0 0 1 .17 4.258 13.18 13.18 0 0 1-2.47 1.725l-.617 1.192c0 1.235-.447 2.363-.617 3.556a7.9 7.9 0 0 1 .68 4.705c-.4.688-.972 1.26-1.66 1.661l-1.405 1.128c1.405 1.555 1.086 3.322 1.128 5.558 0 .553.959 1 .448 1.618-.511.617-1.108 1.256-1.001 2.129a2.3 2.3 0 0 1-1.938.873.17.17 0 0 1-.191-.17c.15-.359.336-.7.553-1.023.49-.766.256-1.83.894-2.555a26.636 26.636 0 0 1-1.511-5.003 2.81 2.81 0 0 0 0 2.278 9.432 9.432 0 0 0-2.875 5.706c-.7.989-1.326 2.028-1.873 3.109-.15.191-.426 0-.596 0a1.47 1.47 0 0 1-.618-.873M110.04 40.23c1.34 1.32 3.64 3.13 3.81 3.896.158.568.208 1.16.15 1.746l-1.15.937c0-.915.149-1.852-.299-2.406a194.333 194.333 0 0 0-3.023-3.002 1.384 1.384 0 0 1-.426-1.49c.12-.265.27-.515.447-.746 0 .41.18.798.49 1.065" fill="#F6F6F6"/><path d="M112.19 46.213c-.256.277-.341.383-.64.66l-.595-.724V44.02c-.852.426-.64 1.64-.64 2.683a20.315 20.315 0 0 1-1.255-1.107c-.277-1.214.447-1.895 1-2.747l2.13 2.13v1.234zM108.613 52.43c.171-.275.267-.591.276-.915h-4.726a2.13 2.13 0 0 0 .958 1.724 2.491 2.491 0 0 0 2.49.192 2.661 2.661 0 0 0 1.002-1" fill="#F6F6F6"/><path d="M103.354 62.735c0-1.299 1.256-1.98 2.129-2.832a.852.852 0 0 0 .149-.979.575.575 0 0 0-.405-.362.788.788 0 0 0-.702.128c-.232.228-.35.549-.32.873h-.894a1.66 1.66 0 0 1 .362-1.342 2.001 2.001 0 0 1 1.66-.532 1.576 1.576 0 0 1 1.257.873c.257.58.167 1.255-.234 1.746-.533.554-1.235.873-1.661 1.49l2.257-.127v.809l-3.598.255zM95.305 57.072l-1.49 4.535-.937-.32L93.9 58.18l-1.192-.383.191-.597c.453.197.975.148 1.384-.127.15-.128.192-.15.256-.256l.766.256zM113.318 59.584a1.214 1.214 0 0 0-.852-.958h-.298a1 1 0 0 0 .469-1.022 1.192 1.192 0 0 0-.83-.937 2.363 2.363 0 0 0-1.214 0 2.13 2.13 0 0 0-1.086.554c-.313.311-.427.77-.298 1.192.128.394.481.671.894.703l-.234.191c-.328.32-.45.796-.32 1.235.12.504.503.903 1.001 1.044a2.79 2.79 0 0 0 1.256 0 2.874 2.874 0 0 0 1.107-.575 1.47 1.47 0 0 0 .405-1.384m-3.109-1.3a.617.617 0 0 1 0-.723.852.852 0 0 1 .469-.256c.175-.042.357-.042.532 0a.66.66 0 0 1 .426.618.575.575 0 0 1-.213.404 1 1 0 0 1-.447.235.958.958 0 0 1-.49 0 .575.575 0 0 1-.362-.277m1.98 2.13a1.341 1.341 0 0 1-.575.297c-.208.064-.43.064-.638 0a.681.681 0 0 1-.447-.49.703.703 0 0 1 .255-.809c.139-.104.299-.177.469-.213a2.13 2.13 0 0 1 .49 0c.317.051.566.3.617.618a.724.724 0 0 1-.17.639M101.011 61.287c.07-.446-.11-.895-.468-1.17l-.255-.15c.397-.108.69-.443.745-.851a1.15 1.15 0 0 0-.49-1.129 2.363 2.363 0 0 0-1.171-.34 2.13 2.13 0 0 0-1.192.191c-.392.211-.638.62-.64 1.065.005.412.257.782.64.937l-.277.127a1.192 1.192 0 0 0-.681 1.086 1.405 1.405 0 0 0 .66 1.278c.358.224.77.349 1.192.362.423.03.846-.043 1.235-.213.457-.228.757-.683.788-1.193m-2.577-2.129a.596.596 0 0 1 .298-.66.852.852 0 0 1 .511 0 .81.81 0 0 1 .511.17.617.617 0 0 1-.085 1.044.958.958 0 0 1-.49 0 .873.873 0 0 1-.49-.128.554.554 0 0 1-.255-.383m1.235 2.683c-.209.056-.43.056-.639 0a.98.98 0 0 1-.617-.192.703.703 0 0 1-.277-.596.745.745 0 0 1 .49-.703c.17-.025.342-.025.51 0 .163.014.322.058.47.128a.766.766 0 0 1 .425.766.745.745 0 0 1-.362.554M117.517 16.31l4.4-1.897.396.92-4.4 1.897zM105.738 7.697l-1.15-4.94h1.065c.192 1.235.405 2.619.66 3.64.447-.957.937-2.277 1.384-3.427l1.043.106-2.129 4.62h-.873zM86.98 10.528l-1.064 1.917-.916-.511 1.235-2.193-.703-.384-1.703 3.088 4.195 2.32 1.703-3.066-.703-.383-1.213 2.193-1.171-.66 1.064-1.916zM84.447 30.926a1.32 1.32 0 0 0-1.363-.682 1.299 1.299 0 0 0-1.065.873.916.916 0 0 0-.809-.702 1.107 1.107 0 0 0-1.17.468 10.774 10.774 0 0 0-.214 3.215h4.77v-.34a8.857 8.857 0 0 0-.15-2.832m-2.725 2.129h-1.17c0-1.086-.15-1.682.532-1.767.68-.086.51 0 .596.319.074.48.074.968 0 1.448m2.129 0h-1.363c0-1.065-.128-1.682.511-1.81a.639.639 0 0 1 .639.128c.277.255.192.702.213 1.682M122.388 18.002l.767-.213.958 3.768-.767.192-.362-1.384-3.853.98-.235-.959 3.833-1zM98.158 7.973a2.13 2.13 0 0 1-1.533-.234 1.15 1.15 0 0 1-.596-.852l-.553-3.427.979-.15.554 3.428c.07.268.3.463.574.49.148.032.3.032.448 0" fill="#747577"/><path d="M98.158 7.973a2.13 2.13 0 0 0 1.384-.702c.24-.274.343-.643.277-1.001l-.553-3.428-.959.17.533 3.428a.724.724 0 0 1-.362.66 1.022 1.022 0 0 1-.447.15M124.602 24.794l-4.982-1.001.128.98 1.086.191.234 1.725-.98.49.128.957 4.514-2.32-.128-1.022zm-2.767 1.511l-.17-1.192 2.128.32-1.958.872zM123.964 33.034h.106a.958.958 0 0 0 .362-.937.83.83 0 0 0-.426-.83.468.468 0 0 0-.51 0c-.533.808-.15 2.512-1.555 2.81a1.384 1.384 0 0 1-1.448-.66 2.768 2.768 0 0 1 0-2.726c.281-.38.72-.616 1.193-.638v.937a.894.894 0 0 0-.724.468 1.533 1.533 0 0 0 .191 1.533.554.554 0 0 0 .596 0c.554-.405.448-1.384.724-2.13.114-.306.333-.562.618-.723a1.405 1.405 0 0 1 1.511.255c.587.7.735 1.67.384 2.513a1.47 1.47 0 0 1-1.278.894v-.937l.256.17zM85.256 25.794a2.13 2.13 0 0 1-.703 1.384 1.128 1.128 0 0 1-1 .298l-3.429-.532.15-.98 3.427.533a.681.681 0 0 0 .66-.383c.081-.13.132-.275.15-.426" fill="#747577"/><path d="M85.256 25.794a2.363 2.363 0 0 0-.235-1.533 1.15 1.15 0 0 0-.872-.574l-3.428-.554-.15.98 3.428.553c.261.074.458.288.511.554a1.15 1.15 0 0 1 0 .468M90.579 5.27l-.895.553 1.065 4.96.83-.51-.234-1.065 1.47-.915.85.724.831-.511-3.917-3.237zm.574 3.108l-.532-2.13 1.554 1.406-1.022.724zM113.872 6.845l-2.023-.852.383-.958 2.342.98.298-.746-3.257-1.362-1.853 4.45 3.258 1.341.298-.724-2.32-.98.531-1.234 2.023.851zM84.66 17.533a1.086 1.086 0 0 0-.299-.851 1.448 1.448 0 0 0-1.107-.384c-1.064.17-1.213 1.406-1.788 3.343l4.599 1.363.277-.958-1.81-.533c.097-.386.225-.763.383-1.128.34-.767 1.554 0 2.13 0l.276-.958c-.81 0-1.916-.682-2.491.213m-.958 1.724l-1.214-.362c.256-.809.383-1.64.958-1.596a.81.81 0 0 1 .533.276c.212.277 0 .895-.277 1.682M118.194 7.93l-3.811 2.896.596.81 1.511-1.15c.252.308.48.636.682.98.404.723-.916 1.255-1.129 1.702l.596.788c.448-.702 1.682-1.15 1.3-2.129a1 1 0 0 0 .872.256c.4-.06.746-.305.937-.66.511-.959-.405-1.789-1.618-3.407m.702 2.98a.703.703 0 0 1-.51.256c-.362 0-.703-.575-1.214-1.213l1-.767c.512.703 1.108 1.278.724 1.725" fill="#747577"/><path d="M20.487 25.752h-2.875V24.9c.469-.575.724-.915 1.065-1.384.639-.894.788-1.213.788-1.597 0-.383-.128-.468-.384-.468-.255 0-.383.149-.383.49v.234h-.98c0-.788 0-.852.214-1.065.319-.27.733-.4 1.15-.362.958 0 1.383.384 1.383 1.256a2.747 2.747 0 0 1-.873 1.832 13.84 13.84 0 0 1-1.064 1.192h1.959v.724zM23.553 21.45l-1.171 4.302h-1.065l1.256-4.195h-1.66v-.745h2.64z" fill="#F6F6F6"/></g></svg><svg width="36" height="50" viewBox="0 0 36 50" id="location-pin-icon" x="339" y="168" xmlns="http://www.w3.org/2000/svg"><g fill="#FFF" fill-rule="nonzero"><path d="M17.702 49.941l-.953-1.113C16.075 48.043.244 29.446.244 18.308.244 8.683 8.075.851 17.702.851c9.626 0 17.457 7.832 17.457 17.457 0 11.138-15.83 29.735-16.504 30.52l-.953 1.113zm0-46.579c-8.243 0-14.946 6.705-14.946 14.946 0 8.74 11.512 23.523 14.946 27.736 3.432-4.213 14.946-19.001 14.946-27.736 0-8.24-6.704-14.946-14.946-14.946z"/><path d="M17.702 24.965a6.664 6.664 0 0 1-6.656-6.657 6.664 6.664 0 0 1 6.656-6.656 6.664 6.664 0 0 1 6.656 6.656 6.664 6.664 0 0 1-6.656 6.657zm0-10.802a4.15 4.15 0 0 0-4.145 4.145 4.15 4.15 0 0 0 4.145 4.145 4.15 4.15 0 0 0 4.145-4.145 4.15 4.15 0 0 0-4.145-4.145z"/></g></svg><svg width="151" height="52" viewBox="0 0 151 52" id="mef-logo" y="33" xmlns="http://www.w3.org/2000/svg"><defs><linearGradient x1="15.161%" y1="84.844%" x2="86.214%" y2="13.788%" id="ka"><stop stop-color="#7C7C7C" offset="0%"/><stop stop-color="#3D3D3D" offset="20%"/><stop stop-color="#606060" offset="50%"/><stop stop-color="#666" offset="60%"/><stop stop-color="#DADADA" offset="80%"/><stop stop-color="#666" offset="100%"/></linearGradient><linearGradient x1="86.593%" y1="13.412%" x2="14.19%" y2="85.811%" id="kb"><stop stop-color="#FFF" offset="1%"/><stop stop-color="#9F9F9F" offset="20%"/><stop stop-color="#7F7F7F" offset="50%"/><stop stop-color="#3E3E3E" offset="75%"/></linearGradient></defs><g style="mix-blend-mode:multiply" fill-rule="nonzero" fill="none"><path d="M7.777 7.777a25.768 25.768 0 1 0 36.44 0c-10.063-10.062-26.377-10.062-36.44 0zm36.3 36.3c-8.174 8.167-22.892 6.692-32.873-3.284-9.98-9.976-11.45-24.7-3.28-32.868 8.172-8.17 22.886-6.704 32.87 3.279 9.982 9.983 11.45 24.7 3.283 32.873zm0 0c-5.836 5.836-18.66 2.476-28.64-7.507-9.982-9.983-13.36-22.81-7.512-28.645-3.503 3.5 1.751 14.432 11.732 24.415 9.98 9.983 20.915 15.235 24.42 11.737zm0 0c3.503-3.5-1.752-14.432-11.732-24.415C22.364 9.678 11.43 4.43 7.929 7.929c5.832-5.852 18.656-2.48 28.636 7.503 9.981 9.983 13.343 22.804 7.512 28.645zm0 0c-1.327 1.33-10.498-5.686-20.479-15.67C13.618 18.426 6.6 9.255 7.93 7.93c1.33-1.324 10.491 5.686 20.474 15.665 9.983 9.978 16.999 19.151 15.674 20.483z" fill="url(#ka)" opacity=".8" transform="translate(.426 .038)"/><path d="M44.218 7.777a25.768 25.768 0 1 0 0 36.44c10.061-10.063 10.061-26.377 0-36.44zm-36.293 36.3c-8.172-8.174-6.704-22.892 3.279-32.873 9.983-9.98 24.7-11.45 32.873-3.28 8.174 8.172 6.692 22.886-3.284 32.87-9.976 9.982-24.7 11.45-32.868 3.283zm0 0c-5.848-5.84-2.477-18.665 7.507-28.645C25.415 5.45 38.236 2.077 44.077 7.925c-3.5-3.503-14.432 1.751-24.415 11.732-9.984 9.98-15.24 20.915-11.737 24.42zm0 0c3.5 3.503 14.432-1.752 24.415-11.732 9.983-9.981 15.23-20.915 11.732-24.416 5.836 5.836 2.476 18.66-7.507 28.641-9.983 9.98-22.804 13.338-28.64 7.507zm0 0c-1.33-1.327 5.686-10.498 15.669-20.479C33.577 13.618 42.748 6.6 44.072 7.93c1.325 1.33-5.686 10.496-15.669 20.479C18.42 38.39 9.252 45.402 7.925 44.077z" fill="url(#kb)" transform="translate(.426 .038)"/><path fill="#000" d="M56.64 41.551h92.964v1H56.64zM56.64 50.955h92.964v1H56.64z"/><path d="M60.502 45.692l-1.48 1.97h-.168l-1.447-1.977v3.302h-.856v-4.54h.988l1.42 1.95 1.418-1.95h.972v4.54h-.856l.009-3.295zm6.12 1.045c-.014 1.172-.732 2.347-2.329 2.347-1.596 0-2.333-1.154-2.333-2.342 0-1.189.773-2.396 2.333-2.396s2.343 1.202 2.329 2.39zm-3.82.018c.02.746.423 1.544 1.491 1.544 1.069 0 1.473-.805 1.487-1.55.013-.746-.416-1.616-1.487-1.616-1.07 0-1.509.856-1.49 1.622zm8.138-.999a.923.923 0 0 1-.589.877c.427.156.714.557.725 1.01 0 1.012-.757 1.337-1.699 1.337h-2.153v-4.54h2.153c.896 0 1.563.402 1.563 1.316zm-2.873.506h1.31c.538 0 .713-.231.713-.485 0-.208-.168-.559-.713-.559h-1.31v1.044zm0 1.92h1.31c.351 0 .85-.116.85-.545 0-.43-.499-.623-.85-.623h-1.31v1.168zm3.618.798v-4.54h.85v4.54h-.85zm2.51-4.54v3.748h2.334v.792h-3.18v-4.54h.847zm6.322 4.54H77.12v-4.54h3.397v.83h-2.553v1.045h2.458v.8h-2.458v1.025h2.539l.014.84z" fill="#898989"/><path d="M86.927 48.962h-3.399v-4.535h3.4v.842h-2.54v1.043h2.459v.799h-2.47v1.024h2.539l.011.827zm4.662-.57a2.402 2.402 0 0 1-1.726.673c-1.685 0-2.398-1.153-2.405-2.34-.007-1.186.764-2.379 2.405-2.379a2.342 2.342 0 0 1 1.666.692l-.57.552a1.56 1.56 0 0 0-1.096-.427c-1.096 0-1.57.817-1.563 1.576.007.76.441 1.537 1.563 1.537a1.673 1.673 0 0 0 1.142-.461l.584.577zm4.94-1.674c-.013 1.175-.733 2.347-2.328 2.347-1.594 0-2.335-1.153-2.335-2.34 0-1.186.766-2.379 2.335-2.379 1.57 0 2.34 1.19 2.329 2.377v-.005zm-3.819.019c.019.745.42 1.544 1.491 1.544 1.07 0 1.472-.803 1.484-1.549.012-.745-.413-1.615-1.484-1.615-1.07 0-1.511.86-1.49 1.625v-.005zm7.385-1.219a1.302 1.302 0 0 0-1.075-.505c-.637 0-.942.265-.942.602 0 .397.462.506 1.01.57.95.118 1.83.365 1.83 1.447 0 1.011-.895 1.447-1.905 1.447-.923 0-1.641-.286-1.978-1.117l.713-.369c.2.5.727.72 1.276.72.55 0 1.046-.187 1.046-.692 0-.427-.448-.603-1.05-.667-.923-.11-1.784-.358-1.784-1.385 0-.923.923-1.315 1.756-1.322.708 0 1.44.2 1.784.9l-.681.371zm3.196.778l1.207-1.874h1.032v.04l-1.81 2.626v1.874h-.856v-1.87l-1.744-2.626v-.04h1.017l1.154 1.87zm5.414-.778a1.302 1.302 0 0 0-1.075-.505c-.635 0-.942.265-.942.602 0 .397.462.506 1.013.57.946.118 1.828.365 1.828 1.447 0 1.011-.896 1.447-1.906 1.447-.923 0-1.641-.286-1.978-1.117l.713-.369c.2.5.727.72 1.279.72.551 0 1.043-.187 1.043-.692 0-.427-.448-.603-1.05-.667-.923-.11-1.784-.358-1.784-1.385 0-.923.923-1.315 1.758-1.322.706 0 1.438.2 1.782.9l-.681.371zm2.658-.318h-1.44v-.778h3.737v.778h-1.44v3.762h-.863l.006-3.762zm6.192 3.762h-3.397v-4.535h3.397v.842h-2.538v1.043h2.457v.799h-2.467v1.024h2.539l.009.827zm4.615-3.287l-1.479 1.971h-.168l-1.445-1.978v3.3h-.856v-4.534h.985l1.42 1.952 1.421-1.952h.979v4.54h-.857v-3.299z" fill="#000"/><path d="M125.708 48.98v-4.532h3.256v.821h-2.4v1.24h2.278v.791h-2.278v1.68h-.856zm8.45-2.243c-.013 1.172-.733 2.347-2.328 2.347-1.594 0-2.335-1.154-2.335-2.342 0-1.189.766-2.396 2.335-2.396 1.57 0 2.34 1.202 2.329 2.39zm-3.818.018c.018.746.42 1.544 1.49 1.544 1.071 0 1.473-.805 1.484-1.55.012-.746-.415-1.616-1.484-1.616-1.068 0-1.511.856-1.481 1.622h-.01zm8.473 2.225h-1.017l-1.325-1.518h-.814v1.518h-.857v-4.546h2.158c1.07 0 1.636.72 1.636 1.504a1.348 1.348 0 0 1-1.154 1.427l1.385 1.548-.012.067zm-3.156-3.743v1.454h1.301a.73.73 0 1 0 0-1.454h-1.301zm7.615-.79v2.6c0 1.342-.824 2.03-1.966 2.03-1.09 0-2.017-.662-2.017-2.03v-2.6h.851v2.6c0 .816.462 1.252 1.173 1.252.71 0 1.11-.461 1.11-1.253v-2.598h.849zm4.79 1.245l-1.479 1.97h-.168l-1.445-1.977v3.302h-.856v-4.54h1.004l1.42 1.95 1.42-1.95h.98v4.54h-.866l-.01-3.295z" fill="#898989"/><path d="M90.043 15.216h-.016.016v24.162h-5.031V22.686L74.93 39.364h-3.282l-9.99-16.71v16.742h-5.03V15.221c0-2.7 3.405-2.539 3.405-2.539h.344c1.505 0 1.643 0 2.744 1.86l10.17 17.423 10.26-17.423c1.02-1.728 1.214-1.846 2.44-1.86h.648s3.404-.166 3.404 2.534zm26.944-2.504H95.858c-.286 0-2.208.019-2.208 1.715h.007-.014v23.29c.027 1.651 1.523 1.675 1.742 1.668h21.58c.147 0 3.392.108 3.392-2.539v-2.47H98.64v-5.953h18.335v-4.698H98.64v-6.019h21.72v-2.462c0-2.557-3.05-2.539-3.374-2.532zm33.231 4.994v-2.462c0-2.66-3.295-2.539-3.397-2.539h-21.115c-.284 0-2.209.019-2.209 1.715h.016-.016v23.296c.028 1.652 1.526 1.676 1.743 1.669h3.247V28.423h18.334v-4.698H128.49v-6.019h21.73z" fill="#000"/></g></svg><svg width="147" height="51" viewBox="0 0 147 51" id="mma-logo" y="85" xmlns="http://www.w3.org/2000/svg"><g style="mix-blend-mode:multiply" fill="none" fill-rule="evenodd"><path d="M52.75 1.281a1.938 1.938 0 0 0-1.125-.5h-9.063a2.562 2.562 0 0 0-1.468.469 3.125 3.125 0 0 0-.657.719l-8.78 14.469s-.345.468-.5.468c-.157 0-.47-.468-.47-.468l-8.812-14.47a3.125 3.125 0 0 0-.656-.718A2.562 2.562 0 0 0 19.75.781h-9.063c-.419.04-.814.216-1.124.5-.4.279-.645.731-.657 1.219v38.563a2 2 0 0 0 .594 1.25c.312.32.74.5 1.188.5h7.874c.444-.043.861-.23 1.188-.532.353-.294.559-.728.563-1.187v-22.25l9.062 14.468s.938 1.594 1.781 1.594c.875 0 1.813-1.593 1.813-1.593l9.062-14.47v22.22c-.01.462.199.902.563 1.187.324.307.743.494 1.187.531h7.844a1.75 1.75 0 0 0 1.219-.5c.326-.339.525-.78.562-1.25v-38.5a1.531 1.531 0 0 0-.656-1.219M99.281 1.375a1.938 1.938 0 0 0-1.125-.5h-9.062a2.719 2.719 0 0 0-1.469.438c-.253.217-.474.47-.656.75L78.188 16.5s-.344.5-.5.5c-.157 0-.47-.5-.47-.5L68.407 2.062a3.531 3.531 0 0 0-.656-.75 2.719 2.719 0 0 0-1.469-.437H57.22c-.42.04-.815.215-1.125.5a1.5 1.5 0 0 0-.657 1.219v38.468c.045.465.256.898.594 1.22.305.334.735.526 1.188.53h7.875c.443-.042.86-.228 1.187-.53.353-.295.559-.729.563-1.188V18.812l9.062 14.5s.938 1.594 1.781 1.594c.876 0 1.813-1.593 1.813-1.593l9.063-14.5v22.25c-.01.462.198.902.562 1.187.324.307.743.494 1.188.531h7.843c.461-.006.9-.198 1.219-.531a2 2 0 0 0 .563-1.219v-38.5a1.5 1.5 0 0 0-.657-1.219" fill="#ABADAE" fill-rule="nonzero"/><path d="M.75 25.531h16.313M.75 31.594h16.313" stroke="#878480" stroke-width="1.13" stroke-linecap="round"/><path d="M.75 37.625h16.313" stroke="#505053" stroke-width="1.13" stroke-linecap="round"/><path d="M146.531 41.063L130.25 2.187a3.125 3.125 0 0 0-1.156-1.25 2.625 2.625 0 0 0-1.344-.5h-7.5c-.486.04-.95.212-1.344.5a3.375 3.375 0 0 0-1.187 1.25l-16.406 38.876a1.5 1.5 0 0 0 0 1.218c.203.34.573.543.968.532h7.844a3.125 3.125 0 0 0 1.438-.532c.45-.297.816-.706 1.062-1.187l2.406-5.782h17.625l2.406 5.782c.246.48.612.89 1.063 1.187.428.294.922.476 1.438.532h7.843c.395.01.766-.193.969-.532.18-.386.18-.832 0-1.218m-18.094-15.626h-8.344s-.468 0-.624-.187c-.157-.188 0-.875 0-.875l3.812-9.688s.219-.656.531-.656c.313 0 .438.563.438.563l3.812 9.812s.375.719.25.907" fill="#ABADAE" fill-rule="nonzero"/><path fill="#454547" fill-rule="nonzero" d="M13.313 50.5v-3.469l-1.5 2.282h-.032l-1.469-2.25V50.5H9.156v-5.313h1.281l1.376 2.25 1.406-2.25h1.25V50.5zM18.344 50.594a2.719 2.719 0 0 1-2.813-2.719 2.75 2.75 0 0 1 2.813-2.75 2.719 2.719 0 0 1 2.812 2.75 2.719 2.719 0 0 1-2.812 2.75v-.031zm1.593-2.719a1.594 1.594 0 1 0-3.187 0 1.625 1.625 0 0 0 1.594 1.688 1.594 1.594 0 0 0 1.593-1.657v-.031zM24.719 50.438h-2.532v-5.313h2.47c1.093 0 1.75.531 1.75 1.375.018.48-.253.923-.688 1.125a1.313 1.313 0 0 1 1 1.313c0 .968-.782 1.437-2 1.437v.063zm.531-3.813c0-.344-.25-.531-.75-.531h-1.156v1.125h1.062c.532 0 .844-.157.844-.563v-.031zm.313 2.125c0-.344-.282-.563-.875-.563h-1.344v1.157h1.375c.531 0 .843 0 .843-.563v-.031zM27.719 45.188h1.156V50.5h-1.156zM30.219 50.5v-5.313h1.187v4.25h2.625V50.5zM34.906 50.5v-5.313h4.032v1.032h-2.844v1.093h2.5v1.032h-2.5v1.125h2.875V50.5zM46.438 50.5v-3.469l-1.5 2.282h-.032l-1.5-2.25V50.5h-1.125v-5.313h1.25l1.407 2.25 1.374-2.25h1.282V50.5zM52.813 50.438l-.5-1.188h-2.22l-.5 1.188h-1.187l2.282-5.344h1.062l2.281 5.343h-1.218zM51.218 46.5l-.719 1.719h1.406L51.22 46.5zM58.063 50.438l-1.126-1.688h-.906v1.688h-1.187v-5.313h2.437c1.25 0 2 .656 2 1.75.025.73-.432 1.39-1.125 1.625l1.282 1.906-1.376.032zm0-3.5c0-.5-.344-.75-.907-.75H56v1.53h1.188c.562 0 .874-.312.874-.75v-.03zM63.781 50.5l-1.656-2.25-.625.625V50.5h-1.156v-5.313H61.5V47.5l2.156-2.313h1.407l-2.157 2.25 2.25 3.063zM65.875 50.5v-5.313h4v1.032h-2.844v1.093h2.5v1.032h-2.5v1.125h2.875V50.5zM73.375 46.281V50.5h-1.188v-4.219h-1.624v-1.093h4.406v1.093zM75.938 45.188h1.156V50.5h-1.156zM82.156 50.5l-2.594-3.375V50.5h-1.156v-5.313H79.5l2.469 3.282v-3.282h1.187V50.5zM86.969 50.594a2.656 2.656 0 0 1-2.781-2.719 2.719 2.719 0 0 1 2.78-2.75 3.125 3.125 0 0 1 2.094.75l-.75.875a1.938 1.938 0 0 0-1.374-.531 1.594 1.594 0 0 0-1.532 1.656A1.594 1.594 0 0 0 87 49.563c.39.02.774-.09 1.094-.313v-.75h-1.156v-1.188h2.312v2.313a3.5 3.5 0 0 1-2.281.844M96.594 50.438l-.5-1.188h-2.25l-.469 1.188h-1.188l2.282-5.344h1.062l2.281 5.343h-1.218zM94.969 46.5l-.688 1.719h1.406L94.97 46.5zM100.438 50.594a3.125 3.125 0 0 1-2.25-.875l.687-.813c.429.413.998.648 1.594.657.469 0 .75-.188.75-.5 0-.282-.188-.438-1.063-.688-.875-.25-1.75-.563-1.75-1.594a1.625 1.625 0 0 1 1.844-1.593 3.125 3.125 0 0 1 1.969.656l-.594.906a2.375 2.375 0 0 0-1.375-.531c-.469 0-.688.187-.688.468 0 .344.22.47 1.157.688.937.219 1.656.688 1.656 1.594 0 1.062-.781 1.656-1.938 1.656M105.25 50.594a3.125 3.125 0 0 1-2.25-.875l.688-.813c.428.413.998.648 1.593.657.469 0 .75-.188.75-.5 0-.282-.187-.438-1.062-.688-.875-.25-1.75-.563-1.75-1.594a1.625 1.625 0 0 1 1.844-1.593 3.125 3.125 0 0 1 1.968.656l-.594.906a2.375 2.375 0 0 0-1.374-.531c-.47 0-.688.187-.688.468 0 .344.219.47 1.125.688.906.219 1.688.688 1.688 1.594 0 1.062-.782 1.656-1.938 1.656M110.75 50.594a2.719 2.719 0 0 1-2.813-2.719 2.75 2.75 0 0 1 2.844-2.75 2.719 2.719 0 0 1 2.813 2.75 2.75 2.75 0 0 1-2.844 2.75v-.031zm1.625-2.719a1.594 1.594 0 0 0-1.625-1.656 1.594 1.594 0 0 0-1.594 1.656 1.656 1.656 0 0 0 1.625 1.688 1.594 1.594 0 0 0 1.594-1.657v-.031zM117.125 50.594a2.656 2.656 0 0 1-2.719-2.719 2.688 2.688 0 0 1 2.75-2.75 2.719 2.719 0 0 1 2.094.844l-.75.843a1.906 1.906 0 0 0-1.344-.593 1.563 1.563 0 0 0-1.531 1.656 1.594 1.594 0 0 0 1.531 1.688 2.031 2.031 0 0 0 1.406-.626l.72.75a2.688 2.688 0 0 1-2.157.938M120.281 45.188h1.156V50.5h-1.156zM126.719 50.438l-.469-1.188H124l-.5 1.188h-1.188l2.282-5.344h1.094l2.25 5.343h-1.22zm-1.594-3.938l-.719 1.719h1.406l-.687-1.719zM130.5 46.281V50.5h-1.188v-4.219h-1.593v-1.093h4.375v1.093zM133.063 45.188h1.156V50.5h-1.156zM138.125 50.594a2.719 2.719 0 0 1-2.813-2.719 2.75 2.75 0 0 1 2.844-2.75 2.719 2.719 0 0 1 2.813 2.75 2.75 2.75 0 0 1-2.844 2.75v-.031zm1.625-2.719a1.625 1.625 0 0 0-1.625-1.656 1.594 1.594 0 0 0-1.594 1.656 1.625 1.625 0 0 0 1.625 1.688 1.594 1.594 0 0 0 1.594-1.657v-.031zM145.719 50.5l-2.563-3.375V50.5H142v-5.313h1.063l2.5 3.282v-3.282h1.156V50.5z"/></g></svg><svg width="85" height="84" viewBox="0 0 85 84" id="omni-icon" x="146" y="136" xmlns="http://www.w3.org/2000/svg"><g fill="none" fill-rule="evenodd"><circle fill="#FF5202" cx="42.5" cy="42" r="42"/><path d="M42.5 12.97c-2.9 0-5.278 2.378-5.278 5.278 0 2.442 1.693 4.5 3.958 5.093v7.525a11.2 11.2 0 0 0-.927.145c-.365.074-.722.179-1.073.288a11.292 11.292 0 0 0-5.34 3.567c-.12.145-.218.303-.33.454L27.2 31.3c.491-2.193-.475-4.575-2.515-5.753-2.51-1.45-5.767-.573-7.216 1.938-1.45 2.51-.573 5.767 1.938 7.216 2.187 1.263 4.927.76 6.557-1.051l6.227 3.958a11.095 11.095 0 0 0 0 8.784l-6.29 4.02a5.286 5.286 0 0 0-6.494-.969c-2.511 1.45-3.388 4.685-1.938 7.196 1.45 2.51 4.705 3.388 7.216 1.938 2.078-1.2 3.03-3.629 2.474-5.856l6.351-4.04a11.24 11.24 0 0 0 7.67 4.453v7.525c-2.265.593-3.958 2.65-3.958 5.093 0 2.9 2.378 5.278 5.278 5.278 2.9 0 5.278-2.378 5.278-5.278 0-2.442-1.693-4.5-3.958-5.093v-7.525c.312-.037.623-.082.927-.145a11.262 11.262 0 0 0 6.743-4.309l6.35 4.041c-.554 2.227.397 4.656 2.475 5.856 2.51 1.45 5.767.573 7.216-1.938 1.45-2.511.573-5.746-1.938-7.196a5.286 5.286 0 0 0-6.495.97l-6.289-4.021a11.094 11.094 0 0 0 0-8.784l6.227-3.958c1.63 1.81 4.37 2.314 6.557 1.051 2.51-1.45 3.388-4.705 1.938-7.216-1.449-2.51-4.706-3.388-7.216-1.938-2.04 1.178-3.006 3.56-2.516 5.752l-6.31 4.02c-.111-.15-.21-.308-.329-.453a11.21 11.21 0 0 0-7.34-4v-7.525c2.265-.593 3.958-2.65 3.958-5.093 0-2.9-2.378-5.278-5.278-5.278zm0 2.639a2.62 2.62 0 0 1 2.64 2.639 2.62 2.62 0 0 1-2.64 2.64 2.62 2.62 0 0 1-2.64-2.64 2.62 2.62 0 0 1 2.64-2.64zM21.86 27.485a2.636 2.636 0 0 1 1.506.35 2.625 2.625 0 0 1 .969 3.609 2.625 2.625 0 0 1-3.609.969 2.625 2.625 0 0 1-.969-3.609 2.63 2.63 0 0 1 2.103-1.32zm41.28 0a2.63 2.63 0 0 1 2.103 1.32 2.625 2.625 0 0 1-.97 3.608 2.625 2.625 0 0 1-3.608-.97 2.625 2.625 0 0 1 .97-3.608c.478-.276.999-.385 1.505-.35zM42.5 33.423A8.557 8.557 0 0 1 51.077 42a8.557 8.557 0 0 1-8.577 8.577A8.557 8.557 0 0 1 33.923 42c0-.297.012-.597.04-.887a8.552 8.552 0 0 1 8.537-7.69zM22.232 51.36a2.63 2.63 0 0 1 2.103 1.32 2.624 2.624 0 0 1-.97 3.607 2.624 2.624 0 0 1-3.608-.969 2.624 2.624 0 0 1 .97-3.608c.478-.276.999-.385 1.505-.35zm40.536 0a2.637 2.637 0 0 1 1.506.35 2.624 2.624 0 0 1 .969 3.608 2.624 2.624 0 0 1-3.609.97 2.624 2.624 0 0 1-.969-3.609 2.63 2.63 0 0 1 2.103-1.32zM42.5 63.113a2.62 2.62 0 0 1 2.64 2.639 2.62 2.62 0 0 1-2.64 2.64 2.62 2.62 0 0 1-2.64-2.64 2.62 2.62 0 0 1 2.64-2.64z" fill="#FFF" fill-rule="nonzero"/></g></svg><svg width="105" height="59" viewBox="0 0 105 59" id="pci-logo" x="154" y="66" xmlns="http://www.w3.org/2000/svg"><g style="mix-blend-mode:multiply" fill-rule="nonzero" fill="none"><path fill="#ABADAE" d="M0 46.904h104.348v11.948H0z"/><path fill="#505053" d="M0 0h104.348v46.983H0z"/><g transform="translate(5.217 7.826)" fill="#F6F6F6"><path d="M54.391 28.696c-.033-.44.011-.88.13-1.305.228-.75.94-1.246 1.722-1.2a1.696 1.696 0 0 1 1.696 1.096l-.782.34a.809.809 0 0 0-.783-.549.757.757 0 0 0-.73.548 3.26 3.26 0 0 0 0 1.017 3.365 3.365 0 0 0 0 1.044c.093.325.391.55.73.548a.809.809 0 0 0 .783-.548l.782.34a1.696 1.696 0 0 1-1.696 1.095 1.696 1.696 0 0 1-1.721-1.2 3.835 3.835 0 0 1-.13-1.33M58.617 29.896a3.94 3.94 0 0 1 0-1.33 3.86 3.86 0 0 1 0-1.305 1.748 1.748 0 0 1 1.774-1.2 1.748 1.748 0 0 1 1.774 1.2 3.86 3.86 0 0 1 0 1.304c.076.44.076.89 0 1.33a1.748 1.748 0 0 1-1.774 1.2 1.748 1.748 0 0 1-1.774-1.2m2.61-.286a3.6 3.6 0 0 0 0-1.044c.049-.337.049-.68 0-1.017A.73.73 0 0 0 60.47 27a.73.73 0 0 0-.757.548c-.05.337-.05.68 0 1.017a3.6 3.6 0 0 0 0 1.044.73.73 0 0 0 .757.548.73.73 0 0 0 .756-.548M63.104 26.217h.861l1.226 2.766 1.2-2.766h.835v4.722h-.809V28.33l-.887 2.061h-.313l-.913-2.06v2.608h-.808l-.392-4.722zM68.609 31.017v-4.721h1.826a1.54 1.54 0 0 1 1.695 1.565 1.54 1.54 0 0 1-1.695 1.565h-.861v1.617l-.965-.026zm2.608-3.313a.626.626 0 0 0-.704-.652h-.809v1.226h.73a.626.626 0 0 0 .705-.652l.078.078zM72.86 26.217h.888v3.81h2.139v.808h-2.844l-.182-4.618z"/><rect x="76.774" y="26.139" width="1.043" height="4.852" rx=".03"/><path d="M80.06 26.217h.888l1.643 4.722h-.939l-.287-.86H79.67l-.261.86h-.94l1.592-4.722zm1.097 2.974l-.548-1.695-.548 1.695h1.096zM83.478 26.217h.861a.13.13 0 0 1 .13 0l1.696 3.053v-3.053h.809v4.722h-.887l-1.722-3.052v3.052h-.887v-4.722zM89.113 31.017V27.21h-1.226V26.4h3.417v.809h-1.226v3.808h-.965zM2.609 43.122h.626v3.6H5.27v.548H2.504l.105-4.148zM6.678 43.122h2.609v.548H7.278v1.07h1.696v.547H7.278v1.122h2.009v.548H6.678v-3.835zM11.896 47.426l-1.383-4.252h.6l.965 3.104.94-3.104h.625l-1.382 4.252h-.365zM14.922 43.122h2.765v.548h-2.035v1.07h1.696v.547h-1.696v1.122h2.009v.548h-2.765l.026-3.835zM19.043 43.122h.627v3.6h2.008v.548H19.07l-.027-4.148zM26.087 43.904l-.678.496v-.652l.704-.496h.548v4.252h-.574v-3.6zM30.73 46.957l.392-.47a1.8 1.8 0 0 0 1.174.47c.521 0 .834-.261.834-.627 0-.365-.208-.521-.808-.6h-.235c-.835 0-1.304-.521-1.304-1.252a1.304 1.304 0 0 1 1.487-1.304c.501-.013.995.133 1.408.417l-.287.47a1.826 1.826 0 0 0-1.043-.34c-.444 0-.705.236-.705.575 0 .339.235.521.81.6h.234c.86 0 1.304.521 1.304 1.278 0 .756-.548 1.356-1.643 1.356a2.609 2.609 0 0 1-1.618-.573M35.217 43.122h2.766v.548h-2.01v1.07h1.697v.547h-1.696v1.122h2.009v.548h-2.766v-3.835zM41.74 47.426l-.836-1.722h-.756v1.67h-.626v-4.252h1.695a1.33 1.33 0 0 1 1.41 1.33 1.252 1.252 0 0 1-.836 1.2l.913 1.774h-.965zm0-3.052a.626.626 0 0 0-.68-.626h-.938v1.174h.965a.6.6 0 0 0 .652-.574v.026zM44.791 47.426l-1.382-4.252h.626L45 46.278l.94-3.104h.6l-1.383 4.252h-.366z"/><rect x="47.817" y="43.043" width="1" height="4.383" rx=".02"/><path d="M49.878 45.235a3.783 3.783 0 0 1 0-1.174 1.46 1.46 0 0 1 1.54-1.07 1.513 1.513 0 0 1 1.486.94l-.547.26a.86.86 0 0 0-.81-.574.757.757 0 0 0-.782.574 2.609 2.609 0 0 0 0 .992 2.609 2.609 0 0 0 0 1.017c.097.35.42.587.783.574a.86.86 0 0 0 .809-.574l.547.26c-.256.59-.845.961-1.487.94a1.513 1.513 0 0 1-1.539-1.07 3.887 3.887 0 0 1 0-1.2M54.183 43.122h2.608v.548h-2.008v1.07h1.695v.547h-1.695v1.122h2.008v.548h-2.608v-3.835zM60.365 47.426v-4.252h1.644a1.33 1.33 0 0 1 1.434 1.356 1.33 1.33 0 0 1-1.434 1.383h-.913v1.565l-.73-.052zm2.244-3.078a.652.652 0 0 0-.73-.652h-.862v1.278h.861a.652.652 0 0 0 .73-.626zM67.096 47.426l-.835-1.722h-.757v1.67h-.626v-4.252h1.696a1.33 1.33 0 0 1 1.409 1.33 1.252 1.252 0 0 1-.835 1.2l.913 1.774h-.965zm0-3.052a.626.626 0 0 0-.679-.626h-.939v1.174h.965a.6.6 0 0 0 .679-.6l-.026.052zM69.026 46.46a3.26 3.26 0 0 1-.13-1.225c-.034-.405.01-.812.13-1.2a1.487 1.487 0 0 1 1.54-1.044c.7-.058 1.349.374 1.564 1.044.06.398.06.802 0 1.2.06.406.06.82 0 1.226a1.54 1.54 0 0 1-1.565 1.043 1.513 1.513 0 0 1-1.539-1.043m2.374-.209c.05-.337.05-.68 0-1.017a3.26 3.26 0 0 0 0-.992.809.809 0 0 0-.835-.573.783.783 0 0 0-.808.573 3.26 3.26 0 0 0 0 .992c-.05.337-.05.68 0 1.017.098.36.436.6.808.574a.809.809 0 0 0 .835-.574M74.583 47.426l-1.41-4.252h.627l.965 3.104.94-3.104h.625l-1.382 4.252h-.365z"/><rect x="77.609" y="43.043" width="1" height="4.383" rx=".02"/><path d="M79.8 43.122h1.565a1.383 1.383 0 0 1 1.461.991c.076.396.076.804 0 1.2a3.26 3.26 0 0 1 0 1.226 1.357 1.357 0 0 1-1.46.965H79.8v-4.382zm.783 3.626h.652c.495 0 .782-.157.913-.548.055-.32.055-.646 0-.965.057-.31.057-.629 0-.94-.13-.39-.418-.547-.913-.547h-.652v3zM84.287 43.122h2.765v.548h-2.035v1.07h1.696v.547h-1.696v1.122h2.035v.548h-2.765v-3.835zM90.913 47.426l-.835-1.722h-.756v1.67h-.626v-4.252h1.695a1.304 1.304 0 0 1 1.383 1.33 1.226 1.226 0 0 1-.809 1.2l.913 1.774h-.965zm0-3.052a.6.6 0 0 0-.652-.626h-.94v1.174h.992a.6.6 0 0 0 .652-.6l-.052.052zM3.6 30.913a.417.417 0 0 1-.417-.443V1.983a.391.391 0 0 1 .417-.418h6.835c5.217 0 8.635 2.609 8.635 9.235 0 6.626-3.418 9.235-8.635 9.235H9a.235.235 0 0 0-.26.26V30.47a.417.417 0 0 1-.418.443H3.6zM13.487 10.8c0-3.34-.94-4.278-3.157-4.278H9.078a.235.235 0 0 0-.26.26v8.035a.235.235 0 0 0 .26.261h1.357c2.217 0 3.156-.965 3.156-4.278h-.104zM21.86 16.226c0-7.591.157-8.922.549-10.174a6.887 6.887 0 0 1 7.304-4.878 7.017 7.017 0 0 1 7.826 7.435c0 .234 0 .47-.391.495l-4.54.783a.365.365 0 0 1-.469-.391c0-2.322-.809-3.235-2.243-3.235a1.826 1.826 0 0 0-1.93 1.33 41.896 41.896 0 0 0-.262 8.635c-.21 2.88-.123 5.773.261 8.635a1.8 1.8 0 0 0 1.93 1.33c1.435 0 2.166-.887 2.244-3.234a.391.391 0 0 1 .47-.392l4.539.783c.313 0 .391.26.391.522a7.017 7.017 0 0 1-7.826 7.434 6.913 6.913 0 0 1-7.304-4.878c-.392-1.252-.548-2.609-.548-10.2"/><rect x="40.122" y="1.565" width="5.661" height="29.348" rx=".17"/><path d="M55.017 1.983a.26.26 0 0 1 .287-.287h5.009a4.617 4.617 0 0 1 5.06 3.287c.5 2.162.676 4.386.523 6.6a22.435 22.435 0 0 1-.522 6.6 4.617 4.617 0 0 1-5.061 3.287h-5.009a.26.26 0 0 1-.287-.287v-19.2zm3.992 16.07H60a1.617 1.617 0 0 0 1.774-1.227 16.93 16.93 0 0 0 .339-5.217 16.93 16.93 0 0 0-.34-5.218A1.591 1.591 0 0 0 60 5.217h-.913c-.13 0-.183 0-.183.157v12.574a.157.157 0 0 0 .183.182l-.078-.078zM73.043 21.73a4.774 4.774 0 0 1-5.347-5.217c0-.156 0-.287.234-.313l3.105-.496c.208 0 .313.079.313.235 0 1.826.6 2.609 1.722 2.609 1.121 0 1.565-.548 1.565-2.348 0-1.8-.34-2.374-1.826-2.948l-1.2-.47a5.217 5.217 0 0 1-3.73-5.712c0-3.574 1.695-5.505 5.217-5.505a4.643 4.643 0 0 1 5.217 4.905.287.287 0 0 1-.26.339l-2.975.47a.235.235 0 0 1-.313-.236c0-1.434-.522-2.165-1.565-2.165s-1.513.652-1.513 1.983c0 1.33.313 1.956 1.852 2.609l1.2.47a5.217 5.217 0 0 1 3.783 5.712c0 4.044-1.54 6.13-5.479 6.13M85.357 21.73a4.8 4.8 0 0 1-5.374-5.217.287.287 0 0 1 .234-.313l3.261-.548c.183 0 .313 0 .313.235 0 1.826.574 2.609 1.722 2.609 1.148 0 1.565-.548 1.565-2.348 0-1.8-.365-2.374-1.826-2.948l-1.2-.47a5.217 5.217 0 0 1-3.756-5.713c0-3.574 1.721-5.504 5.217-5.504a4.617 4.617 0 0 1 5.217 4.904.287.287 0 0 1-.26.34l-2.948.47a.26.26 0 0 1-.34-.236c0-1.434-.521-2.165-1.565-2.165-1.043 0-1.513.652-1.513 1.983 0 1.33.34 1.956 1.879 2.608l1.174.47a5.217 5.217 0 0 1 3.756 5.843c0 4.044-1.54 6.13-5.452 6.13"/></g></g></svg><svg width="50" height="50" viewBox="0 0 50 50" id="push-icon" x="231" y="136" xmlns="http://www.w3.org/2000/svg"><g fill-rule="nonzero" fill="none"><path d="M37.963 18.868h.14v24.688a2.087 2.087 0 0 1-2.077 2.077H6.074a2.087 2.087 0 0 1-2.087-2.077v-29.97a2.087 2.087 0 0 1 2.078-2.078h24.678V9.04H6.074A4.584 4.584 0 0 0 1.5 13.586v29.97a4.584 4.584 0 0 0 4.574 4.574h29.952a4.584 4.584 0 0 0 4.574-4.574v-24.67h.13l-2.767-.018z" fill="#FF6000"/><path d="M39.184 2.239a8.767 8.767 0 1 0 0 17.533 8.767 8.767 0 0 0 0-17.533zm4.658 13.387a6.521 6.521 0 1 1 1.91-4.658 6.521 6.521 0 0 1-1.947 4.658h.037z" fill="#09A2E7"/><path d="M36.901 9.189a.58.58 0 1 0 .69.931l1.08-.801v5.087a.587.587 0 0 0 1.165 0V7.018l-2.935 2.17z" fill="#09A2E7"/></g></svg><svg width="50" height="50" viewBox="0 0 50 50" id="rcs-icon" x="168" y="235" xmlns="http://www.w3.org/2000/svg"><defs><path id="pa" d="M0 45h49.436V.14H0z"/><path id="pc" d="M0 45h49.436V.14H0z"/></defs><g fill="none" fill-rule="evenodd"><g transform="translate(0 2.86)"><mask id="pb" fill="#fff"><use xlink:href="#pa"/></mask><path d="M45.17 31.45h-4.734v-5.31H47.1v3.38a1.93 1.93 0 0 1-1.93 1.93zm-9.342 1.266a4.325 4.325 0 0 0-1.265 3.057v6.284c.011.151-.01.301-.05.447a2.033 2.033 0 0 1-.318-.235l-9.197-8.349a10.619 10.619 0 0 0-6.265-2.413H11.2V2.495h27.035v29.018a4.317 4.317 0 0 0-2.407 1.203zM2.394 29.577V26.14H9v5.367H4.325a1.93 1.93 0 0 1-1.93-1.93zm0-13.637H9v-5.8H2.394v5.8zm0 8H9v-5.8H2.394v5.8zM4.325 2.553v-.058H9V7.94H2.394V4.483a1.93 1.93 0 0 1 1.931-1.93zM40.436 15.94H47.1v-5.8h-6.664v5.8zm0 8H47.1v-5.8h-6.664v5.8zM45.17 2.495a1.93 1.93 0 0 1 1.93 1.93V7.94h-6.664V2.495h4.734zM45.111.198H4.325V.14A4.324 4.324 0 0 0 0 4.463v25.095a4.323 4.323 0 0 0 4.325 4.323h14.428a8.296 8.296 0 0 1 4.681 1.805l9.198 8.35c.55.57 1.294.914 2.085.964a2.03 2.03 0 0 0 .965-.26 2.27 2.27 0 0 0 .966-1.139 3.91 3.91 0 0 0 .251-1.448V35.87a1.93 1.93 0 0 1 1.93-1.93h6.282a4.324 4.324 0 0 0 4.325-4.324V4.521A4.323 4.323 0 0 0 45.111.198z" fill="#FF6002" mask="url(#pb)"/></g><g transform="translate(0 2.86)"><mask id="pd" fill="#fff"><use xlink:href="#pc"/></mask><path d="M45.17 31.45h-4.734v-5.31H47.1v3.38a1.93 1.93 0 0 1-1.93 1.93zm-9.342 1.266a4.325 4.325 0 0 0-1.265 3.057v6.284c.011.151-.01.301-.05.447a2.033 2.033 0 0 1-.318-.235l-9.197-8.349a10.619 10.619 0 0 0-6.265-2.413H11.2V2.495h27.035v29.018a4.317 4.317 0 0 0-2.407 1.203zM2.394 29.577V26.14H9v5.367H4.325a1.93 1.93 0 0 1-1.93-1.93zm0-13.637H9v-5.8H2.394v5.8zm0 8H9v-5.8H2.394v5.8zM4.325 2.553v-.058H9V7.94H2.394V4.483a1.93 1.93 0 0 1 1.931-1.93zM40.436 15.94H47.1v-5.8h-6.664v5.8zm0 8H47.1v-5.8h-6.664v5.8zM45.17 2.495a1.93 1.93 0 0 1 1.93 1.93V7.94h-6.664V2.495h4.734zM45.111.198H4.325V.14A4.324 4.324 0 0 0 0 4.463v25.095a4.323 4.323 0 0 0 4.325 4.323h14.428a8.296 8.296 0 0 1 4.681 1.805l9.198 8.35c.55.57 1.294.914 2.085.964a2.03 2.03 0 0 0 .965-.26 2.27 2.27 0 0 0 .966-1.139 3.91 3.91 0 0 0 .251-1.448V35.87a1.93 1.93 0 0 1 1.93-1.93h6.282a4.324 4.324 0 0 0 4.325-4.324V4.521A4.323 4.323 0 0 0 45.111.198z" fill="#FF6002" mask="url(#pd)"/></g><path d="M22.437 17.292L27.127 20l-4.69 2.708v-5.416zm7.19 1.842l-7.69-4.44a1 1 0 1 0-1.5.866v8.88a1 1 0 0 0 1.5.866l7.69-4.44a.998.998 0 0 0 0-1.732z" fill="#09A2E7"/></g></svg><svg width="84" height="84" viewBox="0 0 84 84" id="reporting-icon" y="235" xmlns="http://www.w3.org/2000/svg"><g fill="none" fill-rule="evenodd"><circle fill="#FF5202" cx="42" cy="42" r="42"/><g fill="#FFF" fill-rule="nonzero"><path d="M58.53 24.954A23.586 23.586 0 0 0 41.74 18a23.586 23.586 0 0 0-16.787 6.954A23.587 23.587 0 0 0 18 41.74c0 5.185 1.642 10.111 4.748 14.246.263.35.675.556 1.112.556h35.763c.437 0 .85-.206 1.112-.556a23.54 23.54 0 0 0 4.748-14.245c0-6.342-2.47-12.304-6.954-16.788zm.384 28.806H24.57a20.73 20.73 0 0 1-3.74-10.627h1.542a1.391 1.391 0 1 0 0-2.783h-1.542a20.872 20.872 0 0 1 5.148-12.405l1.084 1.083a1.387 1.387 0 0 0 1.967 0 1.391 1.391 0 0 0 0-1.967l-1.083-1.084A20.872 20.872 0 0 1 40.35 20.83v1.542a1.391 1.391 0 0 0 2.782 0V20.83a20.872 20.872 0 0 1 12.406 5.149l-1.083 1.083a1.391 1.391 0 0 0 1.967 1.967l1.083-1.083a20.872 20.872 0 0 1 5.148 12.405h-1.541a1.391 1.391 0 0 0 0 2.782h1.543a20.732 20.732 0 0 1-3.74 10.628zM50.681 62.7h-17.88a1.391 1.391 0 0 0 0 2.783h17.88a1.391 1.391 0 1 0 0-2.782z"/><path d="M50.462 33.021a1.39 1.39 0 0 0-1.968 0l-3.711 3.712a5.826 5.826 0 0 0-3.042-.853 5.868 5.868 0 0 0-5.86 5.861 5.868 5.868 0 0 0 5.86 5.862 5.868 5.868 0 0 0 5.861-5.862 5.826 5.826 0 0 0-.852-3.04l3.712-3.713a1.391 1.391 0 0 0 0-1.967zm-8.72 11.8a3.082 3.082 0 0 1-3.08-3.08 3.083 3.083 0 0 1 3.08-3.079 3.082 3.082 0 0 1 3.078 3.08 3.082 3.082 0 0 1-3.079 3.078z"/></g></g></svg><svg width="50" height="50" viewBox="0 0 50 50" id="sms-icon" x="268" y="235" xmlns="http://www.w3.org/2000/svg"><g transform="translate(0 2)" fill="none" fill-rule="evenodd"><path d="M4.761 1.521V.344A4.324 4.324 0 0 0 .437 4.667v25.095a4.324 4.324 0 0 0 4.324 4.324h14.43a8.29 8.29 0 0 1 4.68 1.804l9.198 8.349c.55.57 1.294.915 2.085.965.338-.005.67-.094.965-.26.442-.26.782-.661.965-1.14a3.86 3.86 0 0 0 .251-1.447v-6.283a1.93 1.93 0 0 1 1.93-1.93h6.284a4.324 4.324 0 0 0 4.324-4.324V4.725A4.324 4.324 0 0 0 45.549.401H4.76V2.7h40.846a1.93 1.93 0 0 1 1.93 1.93v25.094a1.93 1.93 0 0 1-1.93 1.93h-6.284A4.324 4.324 0 0 0 35 35.977v6.283c.016.208-.017.416-.097.608l.193.126-.106-.193-.077.067.193.126L35 42.8l.154.28v-.232H35l.154.28v-.318.106-.106l-.145-.058a2.017 2.017 0 0 1-.376-.28l-9.198-8.349a10.617 10.617 0 0 0-6.264-2.413H4.76a1.93 1.93 0 0 1-1.93-1.93V4.687a1.93 1.93 0 0 1 1.93-1.93V1.52z" fill="#FF6000" fill-rule="nonzero"/><circle stroke="#09A2E7" stroke-width="2" cx="14.123" cy="17.562" r="3.504"/><circle stroke="#09A2E7" stroke-width="2" cx="25.155" cy="17.562" r="3.504"/><circle stroke="#09A2E7" stroke-width="2" cx="36.187" cy="17.562" r="3.504"/></g></svg><svg width="154" height="33" viewBox="0 0 154 33" id="uber-logo" xmlns="http://www.w3.org/2000/svg"><path d="M24.469 1.21v17.652c.021 2.931-.668 5.059-2.068 6.383-1.4 1.325-3.615 1.987-6.644 1.987s-5.244-.662-6.644-1.987c-1.4-1.324-2.09-3.452-2.068-6.383V.462H1.15C.63.44.37.69.37 1.21v17.944c.065 4.864 1.487 8.31 4.266 10.34 2.78 2.03 6.48 3.013 11.105 2.948 4.625.065 8.332-.917 11.122-2.948 2.79-2.03 4.218-5.476 4.283-10.34V.462H25.25c-.52-.022-.781.228-.781.749zm85.392 4.365c.238 0 .423-.044.553-.13a.983.983 0 0 0 .326-.391L112.433.82c.087-.239 0-.358-.26-.358h-23.71c-1.085 0-1.866.173-2.344.52-.478.348-.717.902-.717 1.662v27.389c0 .63.18 1.096.538 1.4.358.304.96.456 1.807.456h22.114c.238 0 .423-.043.553-.13a.983.983 0 0 0 .326-.39l1.693-4.202c.087-.26 0-.39-.26-.39H91.98v-5.57c-.022-.955.271-1.66.88-2.117.607-.456 1.617-.684 3.028-.684h8.76c.24 0 .424-.043.554-.13a.983.983 0 0 0 .326-.39l1.629-4.04c.086-.26 0-.39-.261-.39H91.981V5.575h17.88zm-41.752 9.737c1.281-.673 2.21-1.606 2.785-2.8.575-1.195.863-2.552.863-4.071-.109-3.387-1.298-5.591-3.567-6.612C65.922.81 63.267.353 60.228.462H46.842c-1.107 0-1.9.173-2.377.52-.478.348-.706.902-.684 1.662v27.389c0 .63.18 1.096.537 1.4.359.304.961.456 1.808.456h16.48c3.17.022 5.72-.646 7.653-2.003 1.932-1.357 2.93-3.588 2.996-6.692 0-1.911-.418-3.577-1.254-5-.836-1.422-2.133-2.382-3.892-2.882zM50.262 5.444h10.454c1.694 0 2.86.331 3.501.994.64.662.95 1.677.928 3.045.022 1.368-.287 2.388-.928 3.061-.64.673-1.807 1.01-3.5 1.01H50.261v-8.11zm11.66 21.462h-11.66v-5.83c-.022-.955.277-1.66.896-2.116.618-.456 1.633-.684 3.045-.684h7.718c1.824 0 3.078.358 3.762 1.075.684.716 1.004 1.802.96 3.256.044 1.433-.276 2.508-.96 3.225-.684.716-1.938 1.074-3.762 1.074zm91.644 4.43L146.5 19.253c1.802-.413 3.3-1.308 4.494-2.687 1.195-1.379 1.813-3.523 1.857-6.432-.044-3.734-1.162-6.296-3.355-7.686-2.193-1.39-5.265-2.052-9.216-1.986h-13.45c-1.086 0-1.868.173-2.346.52-.477.348-.716.902-.716 1.662V31.14c0 .5.26.75.782.75h5.731v-9.185c-.021-.955.277-1.66.896-2.117.619-.456 1.634-.684 3.045-.684h5.83l6.35 11.464a.983.983 0 0 0 .326.39c.13.088.315.131.554.131h5.992c.196-.022.31-.092.342-.211a.423.423 0 0 0-.049-.342zm-12.31-16.317H130.28V5.51h10.976c1.997 0 3.338.397 4.022 1.19.684.792 1.004 1.98.96 3.565.044 1.607-.276 2.801-.96 3.583-.684.781-2.025 1.172-4.022 1.172z" fill="#1C1C1C" fill-rule="nonzero"/></svg><svg width="50" height="50" viewBox="0 0 50 50" id="voice-icon" y="319" xmlns="http://www.w3.org/2000/svg"><g fill-rule="nonzero" fill="none"><path d="M.494 23.03v3.864a1.519 1.519 0 1 0 3.037 0v-3.863a1.519 1.519 0 1 0-3.037 0M8.22 15.294v19.337a1.519 1.519 0 1 0 3.039 0V15.294a1.519 1.519 0 1 0-3.038 0M15.948 18.996v21.426a1.519 1.519 0 1 0 3.038 0V18.996a1.519 1.519 0 0 0-3.038 0" fill="#FF6000"/><path d="M15.948 9.503v4.339a1.519 1.519 0 1 0 3.038 0V9.503a1.519 1.519 0 0 0-3.038 0M23.666 39.776v6.456a1.519 1.519 0 1 0 3.038 0v-6.456a1.519 1.519 0 1 0-3.038 0" fill="#09A2E7"/><path d="M23.666 3.703V34.84a1.519 1.519 0 1 0 3.038 0V3.703a1.519 1.519 0 1 0-3.038 0M31.384 17.23v15.465a1.519 1.519 0 1 0 3.038 0V17.23a1.519 1.519 0 1 0-3.038 0M39.102 11.43v27.093a1.519 1.519 0 1 0 3.037 0V11.43a1.519 1.519 0 1 0-3.037 0M46.829 21.17v7.595a1.519 1.519 0 1 0 3.038 0V21.17a1.519 1.519 0 1 0-3.038 0" fill="#FF6000"/></g></svg><svg width="84" height="84" viewBox="0 0 84 84" id="workflows-icon" x="295" y="84" xmlns="http://www.w3.org/2000/svg"><g fill="none" fill-rule="evenodd"><circle fill="#FF5202" cx="42" cy="42" r="42"/><g fill="#FFF" fill-rule="nonzero"><path d="M33.385 36.256v11.83h17.289v-11.83h-17.29zm14.56 9.1h-11.83v-6.37h11.83v6.37zM33.385 18.876v11.83h17.289v-11.83h-17.29zm14.56 9.1h-11.83v-6.37h11.83v6.37zM33.385 53.637v11.83h17.289v-11.83h-17.29zm14.56 9.1h-11.83v-6.37h11.83v6.37zM57.154 23.426l1.53-1.53-1.93-1.931-4.825 4.826 4.825 4.826 1.93-1.93-1.53-1.531h4.44v14.65h-6.825v2.73h9.555v-20.11zM27.304 54.726l-1.93 1.93 1.53 1.53h-4.439v-14.65h6.825v-2.73h-9.555v20.11h7.17l-1.531 1.531 1.93 1.93 4.826-4.825z"/></g></g></svg></svg>