<svg xmlns="http://www.w3.org/2000/svg" width="79" height="62"><g fill="#FFF"><path d="M56.828 36.94a12.562 12.562 0 0 0 7.05-9.63 12.6 12.6 0 0 0-4.154-11.203 12.47 12.47 0 0 0-11.605-2.642 12.546 12.546 0 0 0-8.556 8.305A17.74 17.74 0 0 0 26.96 15.44a17.715 17.715 0 0 0-13.225 4.878A17.899 17.899 0 0 0 8.2 33.337 15.16 15.16 0 0 0 .312 43.77 15.216 15.216 0 0 0 3.456 56.49a15.07 15.07 0 0 0 11.834 5.51h33.615a13.73 13.73 0 0 0 10.329-4.58 13.865 13.865 0 0 0 3.44-10.807 13.85 13.85 0 0 0-5.76-9.757l-.086.086zm-5.422-20.45c4.1.042 7.67 2.809 8.755 6.78a9.241 9.241 0 0 1-4.083 10.318v-.838c0-3.113-1.231-6.096-3.42-8.296a11.639 11.639 0 0 0-8.257-3.437h-.919a9.164 9.164 0 0 1 7.924-4.528zm-2.502 42.238l-33.696.003c-5.624.056-10.498-3.892-11.635-9.425-1.14-5.533 1.78-11.101 6.963-13.288a1.674 1.674 0 0 0 1-1.676v-1.005a14.538 14.538 0 0 1 4.858-10.902 14.381 14.381 0 0 1 11.355-3.54 14.417 14.417 0 0 1 10.146 6.228 1.663 1.663 0 0 0 2.251.504 8.311 8.311 0 0 1 9.79.975 8.406 8.406 0 0 1 2.053 9.668c-.195.41-.218.884-.058 1.31.156.425.479.769.893.952 4.659 1.88 7.324 6.823 6.343 11.77-.98 4.946-5.327 8.488-10.344 8.43l.081-.004zM51 0h3v9h-3zm19 24h9v3h-9z"/><path d="M63 39.518L65.238 37 71 43.482 68.762 46zm-30-31L35.238 6 41 12.482 38.762 15zm30 3.964L68.762 6 71 8.518 65.238 15z"/></g></svg>